%TF.GenerationSoftware,KiCad,Pcbnew,(6.0.6)*%
%TF.CreationDate,2022-08-06T17:38:51+02:00*%
%TF.ProjectId,STM32L053Breakout,53544d33-324c-4303-9533-427265616b6f,rev?*%
%TF.SameCoordinates,Original*%
%TF.FileFunction,Soldermask,Bot*%
%TF.FilePolarity,Negative*%
%FSLAX46Y46*%
G04 Gerber Fmt 4.6, Leading zero omitted, Abs format (unit mm)*
G04 Created by KiCad (PCBNEW (6.0.6)) date 2022-08-06 17:38:51*
%MOMM*%
%LPD*%
G01*
G04 APERTURE LIST*
%ADD10C,2.000000*%
%ADD11C,1.700000*%
%ADD12C,2.200000*%
%ADD13R,4.200000X1.350000*%
%ADD14O,1.550000X0.890000*%
%ADD15O,0.950000X1.250000*%
%ADD16R,1.700000X1.700000*%
%ADD17O,1.700000X1.700000*%
%ADD18R,1.000000X1.000000*%
%ADD19O,1.000000X1.000000*%
G04 APERTURE END LIST*
D10*
%TO.C,SW501*%
X88400000Y-133550000D03*
X100400000Y-133550000D03*
X100400000Y-127550000D03*
X88400000Y-127550000D03*
D11*
X90400000Y-129300000D03*
X94400000Y-129300000D03*
X98400000Y-129300000D03*
%TD*%
D12*
%TO.C,H4*%
X140200000Y-80800000D03*
%TD*%
D13*
%TO.C,J600*%
X88200000Y-115625000D03*
X88200000Y-109975000D03*
%TD*%
D14*
%TO.C,J100*%
X153700000Y-103560000D03*
D15*
X151000000Y-102560000D03*
D14*
X153700000Y-96560000D03*
D15*
X151000000Y-97560000D03*
%TD*%
D16*
%TO.C,J301*%
X149860000Y-71120000D03*
D17*
X147320000Y-71120000D03*
X144780000Y-71120000D03*
X142240000Y-71120000D03*
X139700000Y-71120000D03*
X137160000Y-71120000D03*
X134620000Y-71120000D03*
X132080000Y-71120000D03*
X129540000Y-71120000D03*
X127000000Y-71120000D03*
X124460000Y-71120000D03*
X121920000Y-71120000D03*
X119380000Y-71120000D03*
X116840000Y-71120000D03*
X114300000Y-71120000D03*
X111760000Y-71120000D03*
X109220000Y-71120000D03*
X106680000Y-71120000D03*
X104140000Y-71120000D03*
X101600000Y-71120000D03*
%TD*%
D16*
%TO.C,J300*%
X104140000Y-132080000D03*
D17*
X106680000Y-132080000D03*
X109220000Y-132080000D03*
X111760000Y-132080000D03*
X114300000Y-132080000D03*
X116840000Y-132080000D03*
X119380000Y-132080000D03*
X121920000Y-132080000D03*
X124460000Y-132080000D03*
X127000000Y-132080000D03*
X129540000Y-132080000D03*
X132080000Y-132080000D03*
X134620000Y-132080000D03*
X137160000Y-132080000D03*
X139700000Y-132080000D03*
X142240000Y-132080000D03*
X144780000Y-132080000D03*
X147320000Y-132080000D03*
X149860000Y-132080000D03*
X152400000Y-132080000D03*
%TD*%
D12*
%TO.C,H3*%
X145500000Y-121600000D03*
%TD*%
D18*
%TO.C,J5*%
X139700000Y-96520000D03*
D19*
X139700000Y-97790000D03*
X138430000Y-96520000D03*
X138430000Y-97790000D03*
X137160000Y-96520000D03*
X137160000Y-97790000D03*
X135890000Y-96520000D03*
X135890000Y-97790000D03*
X134620000Y-96520000D03*
X134620000Y-97790000D03*
%TD*%
D12*
%TO.C,H1*%
X89600000Y-71500000D03*
%TD*%
%TO.C,H2*%
X89600000Y-121600000D03*
%TD*%
M02*
