M48
; DRILL file {KiCad (6.0.6)} date Sat Aug  6 17:38:48 2022
; FORMAT={3:3/ absolute / metric / suppress leading zeros}
; #@! TF.CreationDate,2022-08-06T17:38:48+02:00
; #@! TF.GenerationSoftware,Kicad,Pcbnew,(6.0.6)
; #@! TF.FileFunction,MixedPlating,1,2
FMAT,2
METRIC,TZ
; #@! TA.AperFunction,Plated,PTH,ViaDrill
T1C0.400
; #@! TA.AperFunction,Plated,PTH,ComponentDrill
T2C0.500
; #@! TA.AperFunction,Plated,PTH,ComponentDrill
T3C0.550
; #@! TA.AperFunction,Plated,PTH,ComponentDrill
T4C0.650
; #@! TA.AperFunction,Plated,PTH,ComponentDrill
T5C0.900
; #@! TA.AperFunction,Plated,PTH,ComponentDrill
T6C1.000
; #@! TA.AperFunction,Plated,PTH,ComponentDrill
T7C1.200
; #@! TA.AperFunction,NonPlated,NPTH,ComponentDrill
T8C2.200
%
G90
G05
T1
X87000Y-84000
X87000Y-88000
X87000Y-92000
X87000Y-96000
X87000Y-101000
X87000Y-106000
X87000Y-118000
X89500Y-84000
X89750Y-94000
X89750Y-98250
X89750Y-107500
X90000Y-89750
X91000Y-118000
X92000Y-84000
X92000Y-88000
X92000Y-92000
X92000Y-96000
X92250Y-100250
X95000Y-105000
X95000Y-110000
X95000Y-114000
X95000Y-118000
X101400Y-108200
X101400Y-120200
X101450Y-112200
X101550Y-116200
X103000Y-88200
X108600Y-125800
X109000Y-82800
X110200Y-90200
X112600Y-81200
X114800Y-80200
X115000Y-106600
X115200Y-97000
X117400Y-90200
X120200Y-90200
X120200Y-114200
X120200Y-120800
X120800Y-77800
X121000Y-92800
X121600Y-94600
X121600Y-119800
X122400Y-98200
X123400Y-90800
X124800Y-117200
X126000Y-99200
X126651Y-104475
X126651Y-105525
X126800Y-103000
X129030Y-96370
X129200Y-86800
X129800Y-91400
X131200Y-103000
X131700Y-104475
X131700Y-105525
X131730Y-91530
X135200Y-83000
X136000Y-101200
X136000Y-103400
X137600Y-92000
X137800Y-99000
X139600Y-117400
X139800Y-112200
X145000Y-84800
X145000Y-91400
X146000Y-79800
X146600Y-107400
X148000Y-116400
X149000Y-98400
X150600Y-78000
X150600Y-84400
X150600Y-90800
X153200Y-108200
X153800Y-121200
T4
X134620Y-96520
X134620Y-97790
X135890Y-96520
X135890Y-97790
X137160Y-96520
X137160Y-97790
X138430Y-96520
X138430Y-97790
X139700Y-96520
X139700Y-97790
T5
X90400Y-129300
X94400Y-129300
X98400Y-129300
T6
X101600Y-71120
X104140Y-71120
X104140Y-132080
X106680Y-71120
X106680Y-132080
X109220Y-71120
X109220Y-132080
X111760Y-71120
X111760Y-132080
X114300Y-71120
X114300Y-132080
X116840Y-71120
X116840Y-132080
X119380Y-71120
X119380Y-132080
X121920Y-71120
X121920Y-132080
X124460Y-71120
X124460Y-132080
X127000Y-71120
X127000Y-132080
X129540Y-71120
X129540Y-132080
X132080Y-71120
X132080Y-132080
X134620Y-71120
X134620Y-132080
X137160Y-71120
X137160Y-132080
X139700Y-71120
X139700Y-132080
X142240Y-71120
X142240Y-132080
X144780Y-71120
X144780Y-132080
X147320Y-71120
X147320Y-132080
X149860Y-71120
X149860Y-132080
X152400Y-132080
T7
X88400Y-127550
X88400Y-133550
X100400Y-127550
X100400Y-133550
T8
X89600Y-71500
X89600Y-121600
X140200Y-80800
X145500Y-121600
T2
G00X153375Y-96560
M15
G01X154025Y-96560
M16
G05
G00X153375Y-103560
M15
G01X154025Y-103560
M16
G05
T3
G00X151000Y-97710
M15
G01X151000Y-97410
M16
G05
G00X151000Y-102710
M15
G01X151000Y-102410
M16
G05
T0
M30
