%TF.GenerationSoftware,KiCad,Pcbnew,(6.0.6)*%
%TF.CreationDate,2022-08-06T17:38:51+02:00*%
%TF.ProjectId,STM32L053Breakout,53544d33-324c-4303-9533-427265616b6f,rev?*%
%TF.SameCoordinates,Original*%
%TF.FileFunction,Copper,L1,Top*%
%TF.FilePolarity,Positive*%
%FSLAX46Y46*%
G04 Gerber Fmt 4.6, Leading zero omitted, Abs format (unit mm)*
G04 Created by KiCad (PCBNEW (6.0.6)) date 2022-08-06 17:38:51*
%MOMM*%
%LPD*%
G01*
G04 APERTURE LIST*
G04 Aperture macros list*
%AMRoundRect*
0 Rectangle with rounded corners*
0 $1 Rounding radius*
0 $2 $3 $4 $5 $6 $7 $8 $9 X,Y pos of 4 corners*
0 Add a 4 corners polygon primitive as box body*
4,1,4,$2,$3,$4,$5,$6,$7,$8,$9,$2,$3,0*
0 Add four circle primitives for the rounded corners*
1,1,$1+$1,$2,$3*
1,1,$1+$1,$4,$5*
1,1,$1+$1,$6,$7*
1,1,$1+$1,$8,$9*
0 Add four rect primitives between the rounded corners*
20,1,$1+$1,$2,$3,$4,$5,0*
20,1,$1+$1,$4,$5,$6,$7,0*
20,1,$1+$1,$6,$7,$8,$9,0*
20,1,$1+$1,$8,$9,$2,$3,0*%
G04 Aperture macros list end*
%TA.AperFunction,SMDPad,CuDef*%
%ADD10RoundRect,0.140000X-0.140000X-0.170000X0.140000X-0.170000X0.140000X0.170000X-0.140000X0.170000X0*%
%TD*%
%TA.AperFunction,SMDPad,CuDef*%
%ADD11RoundRect,0.225000X-0.250000X0.225000X-0.250000X-0.225000X0.250000X-0.225000X0.250000X0.225000X0*%
%TD*%
%TA.AperFunction,SMDPad,CuDef*%
%ADD12R,1.200000X1.400000*%
%TD*%
%TA.AperFunction,SMDPad,CuDef*%
%ADD13RoundRect,0.225000X0.225000X0.250000X-0.225000X0.250000X-0.225000X-0.250000X0.225000X-0.250000X0*%
%TD*%
%TA.AperFunction,ComponentPad*%
%ADD14C,2.000000*%
%TD*%
%TA.AperFunction,ComponentPad*%
%ADD15C,1.700000*%
%TD*%
%TA.AperFunction,SMDPad,CuDef*%
%ADD16R,0.900000X1.700000*%
%TD*%
%TA.AperFunction,SMDPad,CuDef*%
%ADD17R,1.000000X1.500000*%
%TD*%
%TA.AperFunction,SMDPad,CuDef*%
%ADD18RoundRect,0.140000X-0.170000X0.140000X-0.170000X-0.140000X0.170000X-0.140000X0.170000X0.140000X0*%
%TD*%
%TA.AperFunction,SMDPad,CuDef*%
%ADD19RoundRect,0.218750X0.256250X-0.218750X0.256250X0.218750X-0.256250X0.218750X-0.256250X-0.218750X0*%
%TD*%
%TA.AperFunction,SMDPad,CuDef*%
%ADD20RoundRect,0.200000X0.200000X0.275000X-0.200000X0.275000X-0.200000X-0.275000X0.200000X-0.275000X0*%
%TD*%
%TA.AperFunction,SMDPad,CuDef*%
%ADD21RoundRect,0.140000X0.140000X0.170000X-0.140000X0.170000X-0.140000X-0.170000X0.140000X-0.170000X0*%
%TD*%
%TA.AperFunction,SMDPad,CuDef*%
%ADD22R,0.350000X0.375000*%
%TD*%
%TA.AperFunction,SMDPad,CuDef*%
%ADD23R,0.375000X0.350000*%
%TD*%
%TA.AperFunction,SMDPad,CuDef*%
%ADD24RoundRect,0.225000X-0.225000X-0.250000X0.225000X-0.250000X0.225000X0.250000X-0.225000X0.250000X0*%
%TD*%
%TA.AperFunction,SMDPad,CuDef*%
%ADD25RoundRect,0.200000X-0.200000X-0.275000X0.200000X-0.275000X0.200000X0.275000X-0.200000X0.275000X0*%
%TD*%
%TA.AperFunction,SMDPad,CuDef*%
%ADD26R,2.500000X1.000000*%
%TD*%
%TA.AperFunction,SMDPad,CuDef*%
%ADD27RoundRect,0.200000X-0.275000X0.200000X-0.275000X-0.200000X0.275000X-0.200000X0.275000X0.200000X0*%
%TD*%
%TA.AperFunction,SMDPad,CuDef*%
%ADD28RoundRect,0.225000X0.250000X-0.225000X0.250000X0.225000X-0.250000X0.225000X-0.250000X-0.225000X0*%
%TD*%
%TA.AperFunction,SMDPad,CuDef*%
%ADD29R,3.600000X1.270000*%
%TD*%
%TA.AperFunction,SMDPad,CuDef*%
%ADD30R,4.200000X1.350000*%
%TD*%
%TA.AperFunction,SMDPad,CuDef*%
%ADD31RoundRect,0.218750X-0.256250X0.218750X-0.256250X-0.218750X0.256250X-0.218750X0.256250X0.218750X0*%
%TD*%
%TA.AperFunction,SMDPad,CuDef*%
%ADD32RoundRect,0.218750X-0.218750X-0.256250X0.218750X-0.256250X0.218750X0.256250X-0.218750X0.256250X0*%
%TD*%
%TA.AperFunction,SMDPad,CuDef*%
%ADD33R,1.350000X0.400000*%
%TD*%
%TA.AperFunction,ComponentPad*%
%ADD34O,1.550000X0.890000*%
%TD*%
%TA.AperFunction,SMDPad,CuDef*%
%ADD35R,1.550000X1.200000*%
%TD*%
%TA.AperFunction,ComponentPad*%
%ADD36O,0.950000X1.250000*%
%TD*%
%TA.AperFunction,SMDPad,CuDef*%
%ADD37R,1.550000X1.500000*%
%TD*%
%TA.AperFunction,SMDPad,CuDef*%
%ADD38R,1.500000X2.000000*%
%TD*%
%TA.AperFunction,SMDPad,CuDef*%
%ADD39R,3.800000X2.000000*%
%TD*%
%TA.AperFunction,SMDPad,CuDef*%
%ADD40RoundRect,0.140000X0.170000X-0.140000X0.170000X0.140000X-0.170000X0.140000X-0.170000X-0.140000X0*%
%TD*%
%TA.AperFunction,SMDPad,CuDef*%
%ADD41RoundRect,0.075000X-0.075000X0.700000X-0.075000X-0.700000X0.075000X-0.700000X0.075000X0.700000X0*%
%TD*%
%TA.AperFunction,SMDPad,CuDef*%
%ADD42RoundRect,0.075000X-0.700000X0.075000X-0.700000X-0.075000X0.700000X-0.075000X0.700000X0.075000X0*%
%TD*%
%TA.AperFunction,ComponentPad*%
%ADD43R,1.700000X1.700000*%
%TD*%
%TA.AperFunction,ComponentPad*%
%ADD44O,1.700000X1.700000*%
%TD*%
%TA.AperFunction,SMDPad,CuDef*%
%ADD45R,1.000000X2.000000*%
%TD*%
%TA.AperFunction,SMDPad,CuDef*%
%ADD46R,1.500000X1.000000*%
%TD*%
%TA.AperFunction,ComponentPad*%
%ADD47R,1.000000X1.000000*%
%TD*%
%TA.AperFunction,ComponentPad*%
%ADD48O,1.000000X1.000000*%
%TD*%
%TA.AperFunction,ViaPad*%
%ADD49C,0.800000*%
%TD*%
%TA.AperFunction,Conductor*%
%ADD50C,0.750000*%
%TD*%
%TA.AperFunction,Conductor*%
%ADD51C,0.500000*%
%TD*%
%TA.AperFunction,Conductor*%
%ADD52C,0.400000*%
%TD*%
%TA.AperFunction,Conductor*%
%ADD53C,0.300000*%
%TD*%
%TA.AperFunction,Conductor*%
%ADD54C,0.250000*%
%TD*%
%TA.AperFunction,Conductor*%
%ADD55C,0.200000*%
%TD*%
%TA.AperFunction,Conductor*%
%ADD56C,0.800000*%
%TD*%
G04 APERTURE END LIST*
D10*
%TO.P,C701,1*%
%TO.N,+3.3V*%
X133320000Y-81800000D03*
%TO.P,C701,2*%
%TO.N,GND*%
X134280000Y-81800000D03*
%TD*%
D11*
%TO.P,C100,1*%
%TO.N,VCC*%
X146400000Y-104425000D03*
%TO.P,C100,2*%
%TO.N,GND*%
X146400000Y-105975000D03*
%TD*%
D12*
%TO.P,Y500,1,1*%
%TO.N,Net-(C501-Pad1)*%
X120650000Y-81700000D03*
%TO.P,Y500,2,2*%
%TO.N,GND*%
X120650000Y-79500000D03*
%TO.P,Y500,3,3*%
%TO.N,Net-(C502-Pad1)*%
X118950000Y-79500000D03*
%TO.P,Y500,4,4*%
%TO.N,GND*%
X118950000Y-81700000D03*
%TD*%
D13*
%TO.P,C101,1*%
%TO.N,+3.3V*%
X149575000Y-115000000D03*
%TO.P,C101,2*%
%TO.N,GND*%
X148025000Y-115000000D03*
%TD*%
D14*
%TO.P,SW501,*%
%TO.N,*%
X88400000Y-133550000D03*
X100400000Y-133550000D03*
X100400000Y-127550000D03*
X88400000Y-127550000D03*
D15*
%TO.P,SW501,1,A*%
%TO.N,GND*%
X90400000Y-129300000D03*
%TO.P,SW501,2,B*%
%TO.N,/BOOT_SW*%
X94400000Y-129300000D03*
%TO.P,SW501,3,C*%
%TO.N,+3.3V*%
X98400000Y-129300000D03*
%TD*%
D16*
%TO.P,SW400,1,1*%
%TO.N,PB3*%
X148300000Y-90800000D03*
%TO.P,SW400,2,2*%
%TO.N,GND*%
X151700000Y-90800000D03*
%TD*%
D17*
%TO.P,JP401,1,A*%
%TO.N,PB14*%
X110900000Y-112200000D03*
%TO.P,JP401,2,B*%
%TO.N,Net-(D401-Pad2)*%
X109600000Y-112200000D03*
%TD*%
D18*
%TO.P,C201,1*%
%TO.N,+3.3V*%
X124000000Y-100120000D03*
%TO.P,C201,2*%
%TO.N,GND*%
X124000000Y-101080000D03*
%TD*%
D19*
%TO.P,D100,1,K*%
%TO.N,/PWR_LED_K*%
X153800000Y-116587500D03*
%TO.P,D100,2,A*%
%TO.N,+3.3V*%
X153800000Y-115012500D03*
%TD*%
D16*
%TO.P,SW401,1,1*%
%TO.N,PB4*%
X148300000Y-84400000D03*
%TO.P,SW401,2,2*%
%TO.N,GND*%
X151700000Y-84400000D03*
%TD*%
D20*
%TO.P,R402,1*%
%TO.N,Net-(D402-Pad1)*%
X104575000Y-116200000D03*
%TO.P,R402,2*%
%TO.N,GND*%
X102925000Y-116200000D03*
%TD*%
D21*
%TO.P,C402,1*%
%TO.N,PB5*%
X146880000Y-78800000D03*
%TO.P,C402,2*%
%TO.N,GND*%
X145920000Y-78800000D03*
%TD*%
D22*
%TO.P,U700,1,SCL/SPC*%
%TO.N,I2C1_SCL*%
X132650000Y-84762500D03*
%TO.P,U700,2,~{CS}*%
%TO.N,Net-(JP700-Pad2)*%
X133150000Y-84762500D03*
%TO.P,U700,3,SA0/SDO*%
%TO.N,GND*%
X133650000Y-84762500D03*
%TO.P,U700,4,SDA/SDI*%
%TO.N,I2C1_SDA*%
X134150000Y-84762500D03*
D23*
%TO.P,U700,5,RES*%
%TO.N,GND*%
X134162500Y-84250000D03*
%TO.P,U700,6,GND*%
X134162500Y-83750000D03*
D22*
%TO.P,U700,7,GND*%
X134150000Y-83237500D03*
%TO.P,U700,8,GND*%
X133650000Y-83237500D03*
%TO.P,U700,9,Vdd*%
%TO.N,Net-(JP700-Pad2)*%
X133150000Y-83237500D03*
%TO.P,U700,10,Vdd_IO*%
X132650000Y-83237500D03*
D23*
%TO.P,U700,11,INT2*%
%TO.N,INT2*%
X132637500Y-83750000D03*
%TO.P,U700,12,INT1*%
%TO.N,INT1*%
X132637500Y-84250000D03*
%TD*%
D24*
%TO.P,C700,1*%
%TO.N,+3.3V*%
X130225000Y-81000000D03*
%TO.P,C700,2*%
%TO.N,GND*%
X131775000Y-81000000D03*
%TD*%
D10*
%TO.P,C702,1*%
%TO.N,+3.3V*%
X133320000Y-80600000D03*
%TO.P,C702,2*%
%TO.N,GND*%
X134280000Y-80600000D03*
%TD*%
D20*
%TO.P,R401,1*%
%TO.N,Net-(D401-Pad1)*%
X104475000Y-112200000D03*
%TO.P,R401,2*%
%TO.N,GND*%
X102825000Y-112200000D03*
%TD*%
D25*
%TO.P,R500,1*%
%TO.N,/BOOT_SW*%
X96575000Y-125400000D03*
%TO.P,R500,2*%
%TO.N,/BOOT0*%
X98225000Y-125400000D03*
%TD*%
D17*
%TO.P,JP800,1,A*%
%TO.N,Net-(C800-Pad1)*%
X118850000Y-117800000D03*
%TO.P,JP800,2,B*%
%TO.N,+3.3V*%
X117550000Y-117800000D03*
%TD*%
D26*
%TO.P,U800,1,RXD1*%
%TO.N,UART1_TX*%
X124330000Y-110990000D03*
%TO.P,U800,2,TXD1*%
%TO.N,UART1_RX*%
X124330000Y-113530000D03*
%TO.P,U800,3,GND*%
%TO.N,GND*%
X124330000Y-116070000D03*
%TO.P,U800,4,VCC*%
%TO.N,Net-(C800-Pad1)*%
X124330000Y-118610000D03*
%TO.P,U800,5,V_BCKP*%
X124330000Y-121150000D03*
%TO.P,U800,6,1PPS*%
%TO.N,unconnected-(U800-Pad6)*%
X124330000Y-123690000D03*
%TO.P,U800,7,RESERVED*%
%TO.N,unconnected-(U800-Pad7)*%
X139830000Y-123690000D03*
%TO.P,U800,8,RESERVED*%
%TO.N,unconnected-(U800-Pad8)*%
X139830000Y-121150000D03*
%TO.P,U800,9,NC*%
%TO.N,unconnected-(U800-Pad9)*%
X139830000Y-118610000D03*
%TO.P,U800,10,~{RESET}*%
%TO.N,+3.3V*%
X139830000Y-116070000D03*
%TO.P,U800,11,RESERVED*%
%TO.N,unconnected-(U800-Pad11)*%
X139830000Y-113530000D03*
%TO.P,U800,12,GND*%
%TO.N,GND*%
X139830000Y-110990000D03*
%TD*%
D27*
%TO.P,R100,1*%
%TO.N,/PWR_LED_K*%
X153800000Y-118175000D03*
%TO.P,R100,2*%
%TO.N,GND*%
X153800000Y-119825000D03*
%TD*%
D28*
%TO.P,C206,1*%
%TO.N,+3.3VA*%
X110800000Y-84775000D03*
%TO.P,C206,2*%
%TO.N,GND*%
X110800000Y-83225000D03*
%TD*%
D20*
%TO.P,R400,1*%
%TO.N,Net-(D400-Pad1)*%
X104425000Y-108200000D03*
%TO.P,R400,2*%
%TO.N,GND*%
X102775000Y-108200000D03*
%TD*%
D28*
%TO.P,C205,1*%
%TO.N,+3.3V*%
X114000000Y-83175000D03*
%TO.P,C205,2*%
%TO.N,GND*%
X114000000Y-81625000D03*
%TD*%
D21*
%TO.P,C501,1*%
%TO.N,Net-(C501-Pad1)*%
X120280000Y-83200000D03*
%TO.P,C501,2*%
%TO.N,GND*%
X119320000Y-83200000D03*
%TD*%
%TO.P,C400,1*%
%TO.N,PB3*%
X146880000Y-91400000D03*
%TO.P,C400,2*%
%TO.N,GND*%
X145920000Y-91400000D03*
%TD*%
D29*
%TO.P,J600,1,In*%
%TO.N,Net-(J600-Pad1)*%
X88000000Y-112800000D03*
D30*
%TO.P,J600,2,Ext*%
%TO.N,GND*%
X88200000Y-115625000D03*
X88200000Y-109975000D03*
%TD*%
D31*
%TO.P,FB200,1*%
%TO.N,+3.3V*%
X112400000Y-83212500D03*
%TO.P,FB200,2*%
%TO.N,+3.3VA*%
X112400000Y-84787500D03*
%TD*%
D17*
%TO.P,JP700,1,A*%
%TO.N,+3.3V*%
X128750000Y-83200000D03*
%TO.P,JP700,2,B*%
%TO.N,Net-(JP700-Pad2)*%
X130050000Y-83200000D03*
%TD*%
D32*
%TO.P,D402,1,K*%
%TO.N,Net-(D402-Pad1)*%
X106150000Y-116200000D03*
%TO.P,D402,2,A*%
%TO.N,Net-(D402-Pad2)*%
X107725000Y-116200000D03*
%TD*%
D25*
%TO.P,R404,1*%
%TO.N,+3.3V*%
X144975000Y-90000000D03*
%TO.P,R404,2*%
%TO.N,PB3*%
X146625000Y-90000000D03*
%TD*%
D32*
%TO.P,D400,1,K*%
%TO.N,Net-(D400-Pad1)*%
X106012500Y-108200000D03*
%TO.P,D400,2,A*%
%TO.N,Net-(D400-Pad2)*%
X107587500Y-108200000D03*
%TD*%
D20*
%TO.P,R403,1*%
%TO.N,Net-(D403-Pad1)*%
X104425000Y-120200000D03*
%TO.P,R403,2*%
%TO.N,GND*%
X102775000Y-120200000D03*
%TD*%
D21*
%TO.P,C204,1*%
%TO.N,+3.3V*%
X113280000Y-99000000D03*
%TO.P,C204,2*%
%TO.N,GND*%
X112320000Y-99000000D03*
%TD*%
D16*
%TO.P,SW402,1,1*%
%TO.N,PB5*%
X148300000Y-78000000D03*
%TO.P,SW402,2,2*%
%TO.N,GND*%
X151700000Y-78000000D03*
%TD*%
D33*
%TO.P,J100,1,VBUS*%
%TO.N,+5V*%
X151000000Y-101360000D03*
%TO.P,J100,2,D-*%
%TO.N,USB_D-*%
X151000000Y-100710000D03*
%TO.P,J100,3,D+*%
%TO.N,USB_D+*%
X151000000Y-100060000D03*
%TO.P,J100,4,ID*%
%TO.N,unconnected-(J100-Pad4)*%
X151000000Y-99410000D03*
%TO.P,J100,5,GND*%
%TO.N,GND*%
X151000000Y-98760000D03*
D34*
%TO.P,J100,6,Shield*%
%TO.N,unconnected-(J100-Pad6)*%
X153700000Y-103560000D03*
D35*
X153700000Y-102960000D03*
X153700000Y-97160000D03*
D36*
X151000000Y-102560000D03*
D34*
X153700000Y-96560000D03*
D37*
X153700000Y-99060000D03*
X153700000Y-101060000D03*
D36*
X151000000Y-97560000D03*
%TD*%
D38*
%TO.P,U100,1,GND*%
%TO.N,GND*%
X153300000Y-106450000D03*
%TO.P,U100,2,VO*%
%TO.N,+3.3V*%
X151000000Y-106450000D03*
D39*
X151000000Y-112750000D03*
D38*
%TO.P,U100,3,VI*%
%TO.N,VCC*%
X148700000Y-106450000D03*
%TD*%
D40*
%TO.P,C203,1*%
%TO.N,+3.3V*%
X111200000Y-91280000D03*
%TO.P,C203,2*%
%TO.N,GND*%
X111200000Y-90320000D03*
%TD*%
D31*
%TO.P,FB100,1*%
%TO.N,+5V*%
X148800000Y-102212500D03*
%TO.P,FB100,2*%
%TO.N,VCC*%
X148800000Y-103787500D03*
%TD*%
D41*
%TO.P,U500,1,VLCD*%
%TO.N,VLCD*%
X122950000Y-88525000D03*
%TO.P,U500,2,PC13*%
%TO.N,PC13*%
X122450000Y-88525000D03*
%TO.P,U500,3,PC14*%
%TO.N,PC14*%
X121950000Y-88525000D03*
%TO.P,U500,4,PC15*%
%TO.N,PC15*%
X121450000Y-88525000D03*
%TO.P,U500,5,PH0*%
%TO.N,Net-(C501-Pad1)*%
X120950000Y-88525000D03*
%TO.P,U500,6,PH1*%
%TO.N,Net-(C502-Pad1)*%
X120450000Y-88525000D03*
%TO.P,U500,7,NRST*%
%TO.N,RESET*%
X119950000Y-88525000D03*
%TO.P,U500,8,PC0*%
%TO.N,PC0*%
X119450000Y-88525000D03*
%TO.P,U500,9,PC1*%
%TO.N,PC1*%
X118950000Y-88525000D03*
%TO.P,U500,10,PC2*%
%TO.N,PC2*%
X118450000Y-88525000D03*
%TO.P,U500,11,PC3*%
%TO.N,PC3*%
X117950000Y-88525000D03*
%TO.P,U500,12,VSSA*%
%TO.N,GND*%
X117450000Y-88525000D03*
%TO.P,U500,13,VDDA*%
%TO.N,+3.3VA*%
X116950000Y-88525000D03*
%TO.P,U500,14,PA0*%
%TO.N,PA0*%
X116450000Y-88525000D03*
%TO.P,U500,15,PA1*%
%TO.N,PA1*%
X115950000Y-88525000D03*
%TO.P,U500,16,PA2*%
%TO.N,UART2_TX*%
X115450000Y-88525000D03*
D42*
%TO.P,U500,17,PA3*%
%TO.N,UART2_RX*%
X113525000Y-90450000D03*
%TO.P,U500,18,VSS*%
%TO.N,GND*%
X113525000Y-90950000D03*
%TO.P,U500,19,VDD*%
%TO.N,+3.3V*%
X113525000Y-91450000D03*
%TO.P,U500,20,PA4*%
%TO.N,DIO5*%
X113525000Y-91950000D03*
%TO.P,U500,21,PA5*%
%TO.N,SPI1_SCK*%
X113525000Y-92450000D03*
%TO.P,U500,22,PA6*%
%TO.N,SPI1_MISO*%
X113525000Y-92950000D03*
%TO.P,U500,23,PA7*%
%TO.N,SPI1_MOSI*%
X113525000Y-93450000D03*
%TO.P,U500,24,PC4*%
%TO.N,RFM95_CS*%
X113525000Y-93950000D03*
%TO.P,U500,25,PC5*%
%TO.N,RFM95_RESET*%
X113525000Y-94450000D03*
%TO.P,U500,26,PB0*%
%TO.N,DIO3*%
X113525000Y-94950000D03*
%TO.P,U500,27,PB1*%
%TO.N,DIO4*%
X113525000Y-95450000D03*
%TO.P,U500,28,PB2*%
%TO.N,DIO0*%
X113525000Y-95950000D03*
%TO.P,U500,29,PB10*%
%TO.N,DIO1*%
X113525000Y-96450000D03*
%TO.P,U500,30,PB11*%
%TO.N,DIO2*%
X113525000Y-96950000D03*
%TO.P,U500,31,VSS*%
%TO.N,GND*%
X113525000Y-97450000D03*
%TO.P,U500,32,VDD*%
%TO.N,+3.3V*%
X113525000Y-97950000D03*
D41*
%TO.P,U500,33,PB12*%
%TO.N,PB12*%
X115450000Y-99875000D03*
%TO.P,U500,34,PB13*%
%TO.N,PB13*%
X115950000Y-99875000D03*
%TO.P,U500,35,PB14*%
%TO.N,PB14*%
X116450000Y-99875000D03*
%TO.P,U500,36,PB15*%
%TO.N,PB15*%
X116950000Y-99875000D03*
%TO.P,U500,37,PC6*%
%TO.N,PC6*%
X117450000Y-99875000D03*
%TO.P,U500,38,PC7*%
%TO.N,PC7*%
X117950000Y-99875000D03*
%TO.P,U500,39,PC8*%
%TO.N,PC8*%
X118450000Y-99875000D03*
%TO.P,U500,40,PC9*%
%TO.N,PC9*%
X118950000Y-99875000D03*
%TO.P,U500,41,PA8*%
%TO.N,PA8*%
X119450000Y-99875000D03*
%TO.P,U500,42,PA9*%
%TO.N,UART1_TX*%
X119950000Y-99875000D03*
%TO.P,U500,43,PA10*%
%TO.N,UART1_RX*%
X120450000Y-99875000D03*
%TO.P,U500,44,PA11*%
%TO.N,USB_D-*%
X120950000Y-99875000D03*
%TO.P,U500,45,PA12*%
%TO.N,USB_D+*%
X121450000Y-99875000D03*
%TO.P,U500,46,PA13*%
%TO.N,SWDIO*%
X121950000Y-99875000D03*
%TO.P,U500,47,VSS*%
%TO.N,GND*%
X122450000Y-99875000D03*
%TO.P,U500,48,VDD_USB*%
%TO.N,+3.3V*%
X122950000Y-99875000D03*
D42*
%TO.P,U500,49,PA14*%
%TO.N,SWCLK*%
X124875000Y-97950000D03*
%TO.P,U500,50,PA15*%
%TO.N,PA15*%
X124875000Y-97450000D03*
%TO.P,U500,51,PC10*%
%TO.N,PC10*%
X124875000Y-96950000D03*
%TO.P,U500,52,PC11*%
%TO.N,PC11*%
X124875000Y-96450000D03*
%TO.P,U500,53,PC12*%
%TO.N,PC12*%
X124875000Y-95950000D03*
%TO.P,U500,54,PD2*%
%TO.N,PD2*%
X124875000Y-95450000D03*
%TO.P,U500,55,PB3*%
%TO.N,PB3*%
X124875000Y-94950000D03*
%TO.P,U500,56,PB4*%
%TO.N,PB4*%
X124875000Y-94450000D03*
%TO.P,U500,57,PB5*%
%TO.N,PB5*%
X124875000Y-93950000D03*
%TO.P,U500,58,PB6*%
%TO.N,I2C1_SCL*%
X124875000Y-93450000D03*
%TO.P,U500,59,PB7*%
%TO.N,I2C1_SDA*%
X124875000Y-92950000D03*
%TO.P,U500,60,BOOT0*%
%TO.N,/BOOT0*%
X124875000Y-92450000D03*
%TO.P,U500,61,PB8*%
%TO.N,INT1*%
X124875000Y-91950000D03*
%TO.P,U500,62,PB9*%
%TO.N,INT2*%
X124875000Y-91450000D03*
%TO.P,U500,63,VSS*%
%TO.N,GND*%
X124875000Y-90950000D03*
%TO.P,U500,64,VDD*%
%TO.N,+3.3V*%
X124875000Y-90450000D03*
%TD*%
D10*
%TO.P,C500,1*%
%TO.N,RESET*%
X134120000Y-103400000D03*
%TO.P,C500,2*%
%TO.N,GND*%
X135080000Y-103400000D03*
%TD*%
D25*
%TO.P,R405,1*%
%TO.N,+3.3V*%
X144975000Y-83400000D03*
%TO.P,R405,2*%
%TO.N,PB4*%
X146625000Y-83400000D03*
%TD*%
D17*
%TO.P,JP400,1,A*%
%TO.N,PB12*%
X110850000Y-108200000D03*
%TO.P,JP400,2,B*%
%TO.N,Net-(D400-Pad2)*%
X109550000Y-108200000D03*
%TD*%
%TO.P,JP402,1,A*%
%TO.N,PB15*%
X111000000Y-116200000D03*
%TO.P,JP402,2,B*%
%TO.N,Net-(D402-Pad2)*%
X109700000Y-116200000D03*
%TD*%
D32*
%TO.P,D403,1,K*%
%TO.N,Net-(D403-Pad1)*%
X106012500Y-120200000D03*
%TO.P,D403,2,A*%
%TO.N,Net-(D403-Pad2)*%
X107587500Y-120200000D03*
%TD*%
D16*
%TO.P,SW500,1,1*%
%TO.N,RESET*%
X134300000Y-101200000D03*
%TO.P,SW500,2,2*%
%TO.N,GND*%
X137700000Y-101200000D03*
%TD*%
D28*
%TO.P,C800,1*%
%TO.N,Net-(C800-Pad1)*%
X120800000Y-117775000D03*
%TO.P,C800,2*%
%TO.N,GND*%
X120800000Y-116225000D03*
%TD*%
D43*
%TO.P,J301,1,Pin_1*%
%TO.N,+3.3V*%
X149860000Y-71120000D03*
D44*
%TO.P,J301,2,Pin_2*%
X147320000Y-71120000D03*
%TO.P,J301,3,Pin_3*%
%TO.N,GND*%
X144780000Y-71120000D03*
%TO.P,J301,4,Pin_4*%
X142240000Y-71120000D03*
%TO.P,J301,5,Pin_5*%
%TO.N,I2C1_SCL*%
X139700000Y-71120000D03*
%TO.P,J301,6,Pin_6*%
%TO.N,I2C1_SDA*%
X137160000Y-71120000D03*
%TO.P,J301,7,Pin_7*%
%TO.N,unconnected-(J301-Pad7)*%
X134620000Y-71120000D03*
%TO.P,J301,8,Pin_8*%
%TO.N,unconnected-(J301-Pad8)*%
X132080000Y-71120000D03*
%TO.P,J301,9,Pin_9*%
%TO.N,VLCD*%
X129540000Y-71120000D03*
%TO.P,J301,10,Pin_10*%
%TO.N,PC13*%
X127000000Y-71120000D03*
%TO.P,J301,11,Pin_11*%
%TO.N,PC14*%
X124460000Y-71120000D03*
%TO.P,J301,12,Pin_12*%
%TO.N,PC15*%
X121920000Y-71120000D03*
%TO.P,J301,13,Pin_13*%
%TO.N,PC0*%
X119380000Y-71120000D03*
%TO.P,J301,14,Pin_14*%
%TO.N,PC1*%
X116840000Y-71120000D03*
%TO.P,J301,15,Pin_15*%
%TO.N,PC2*%
X114300000Y-71120000D03*
%TO.P,J301,16,Pin_16*%
%TO.N,PC3*%
X111760000Y-71120000D03*
%TO.P,J301,17,Pin_17*%
%TO.N,PA0*%
X109220000Y-71120000D03*
%TO.P,J301,18,Pin_18*%
%TO.N,PA1*%
X106680000Y-71120000D03*
%TO.P,J301,19,Pin_19*%
%TO.N,UART2_TX*%
X104140000Y-71120000D03*
%TO.P,J301,20,Pin_20*%
%TO.N,UART2_RX*%
X101600000Y-71120000D03*
%TD*%
D25*
%TO.P,R406,1*%
%TO.N,+3.3V*%
X145175000Y-77400000D03*
%TO.P,R406,2*%
%TO.N,PB5*%
X146825000Y-77400000D03*
%TD*%
D21*
%TO.P,C401,1*%
%TO.N,PB4*%
X146880000Y-84800000D03*
%TO.P,C401,2*%
%TO.N,GND*%
X145920000Y-84800000D03*
%TD*%
D45*
%TO.P,U600,1,GND*%
%TO.N,GND*%
X103000000Y-86400000D03*
%TO.P,U600,2,MISO*%
%TO.N,SPI1_MISO*%
X101000000Y-86400000D03*
%TO.P,U600,3,MOSI*%
%TO.N,SPI1_MOSI*%
X99000000Y-86400000D03*
%TO.P,U600,4,SCK*%
%TO.N,SPI1_SCK*%
X97000000Y-86400000D03*
%TO.P,U600,5,NSS*%
%TO.N,RFM95_CS*%
X95000000Y-86400000D03*
%TO.P,U600,6,RESET*%
%TO.N,RFM95_RESET*%
X93000000Y-86400000D03*
%TO.P,U600,7,DIO5*%
%TO.N,DIO5*%
X91000000Y-86400000D03*
%TO.P,U600,8,GND*%
%TO.N,GND*%
X89000000Y-86400000D03*
%TO.P,U600,9,ANT*%
%TO.N,Net-(J600-Pad1)*%
X89000000Y-102400000D03*
%TO.P,U600,10,GND*%
%TO.N,GND*%
X91000000Y-102400000D03*
%TO.P,U600,11,DIO3*%
%TO.N,DIO3*%
X93000000Y-102400000D03*
%TO.P,U600,12,DIO4*%
%TO.N,DIO4*%
X95000000Y-102400000D03*
%TO.P,U600,13,3.3V*%
%TO.N,Net-(JP600-Pad2)*%
X97000000Y-102400000D03*
%TO.P,U600,14,DIO0*%
%TO.N,DIO0*%
X99000000Y-102400000D03*
%TO.P,U600,15,DIO1*%
%TO.N,DIO1*%
X101000000Y-102400000D03*
%TO.P,U600,16,DIO2*%
%TO.N,DIO2*%
X103000000Y-102400000D03*
%TD*%
D24*
%TO.P,C200,1*%
%TO.N,+3.3V*%
X125425000Y-88000000D03*
%TO.P,C200,2*%
%TO.N,GND*%
X126975000Y-88000000D03*
%TD*%
D43*
%TO.P,J300,1,Pin_1*%
%TO.N,GND*%
X104140000Y-132080000D03*
D44*
%TO.P,J300,2,Pin_2*%
%TO.N,PB12*%
X106680000Y-132080000D03*
%TO.P,J300,3,Pin_3*%
%TO.N,PB13*%
X109220000Y-132080000D03*
%TO.P,J300,4,Pin_4*%
%TO.N,PB14*%
X111760000Y-132080000D03*
%TO.P,J300,5,Pin_5*%
%TO.N,PB15*%
X114300000Y-132080000D03*
%TO.P,J300,6,Pin_6*%
%TO.N,PC6*%
X116840000Y-132080000D03*
%TO.P,J300,7,Pin_7*%
%TO.N,PC7*%
X119380000Y-132080000D03*
%TO.P,J300,8,Pin_8*%
%TO.N,PC8*%
X121920000Y-132080000D03*
%TO.P,J300,9,Pin_9*%
%TO.N,PC9*%
X124460000Y-132080000D03*
%TO.P,J300,10,Pin_10*%
%TO.N,PA8*%
X127000000Y-132080000D03*
%TO.P,J300,11,Pin_11*%
%TO.N,GND*%
X129540000Y-132080000D03*
%TO.P,J300,12,Pin_12*%
%TO.N,UART1_RX*%
X132080000Y-132080000D03*
%TO.P,J300,13,Pin_13*%
%TO.N,PA15*%
X134620000Y-132080000D03*
%TO.P,J300,14,Pin_14*%
%TO.N,PC10*%
X137160000Y-132080000D03*
%TO.P,J300,15,Pin_15*%
%TO.N,PC11*%
X139700000Y-132080000D03*
%TO.P,J300,16,Pin_16*%
%TO.N,PC12*%
X142240000Y-132080000D03*
%TO.P,J300,17,Pin_17*%
%TO.N,PD2*%
X144780000Y-132080000D03*
%TO.P,J300,18,Pin_18*%
%TO.N,GND*%
X147320000Y-132080000D03*
%TO.P,J300,19,Pin_19*%
%TO.N,+3.3V*%
X149860000Y-132080000D03*
%TO.P,J300,20,Pin_20*%
%TO.N,VCC*%
X152400000Y-132080000D03*
%TD*%
D32*
%TO.P,D401,1,K*%
%TO.N,Net-(D401-Pad1)*%
X106062500Y-112200000D03*
%TO.P,D401,2,A*%
%TO.N,Net-(D401-Pad2)*%
X107637500Y-112200000D03*
%TD*%
D46*
%TO.P,JP600,1,A*%
%TO.N,+3.3V*%
X97000000Y-106850000D03*
%TO.P,JP600,2,B*%
%TO.N,Net-(JP600-Pad2)*%
X97000000Y-105550000D03*
%TD*%
D47*
%TO.P,J5,1,Pin_1*%
%TO.N,+3.3V*%
X139700000Y-96520000D03*
D48*
%TO.P,J5,2,Pin_2*%
%TO.N,SWDIO*%
X139700000Y-97790000D03*
%TO.P,J5,3,Pin_3*%
%TO.N,GND*%
X138430000Y-96520000D03*
%TO.P,J5,4,Pin_4*%
%TO.N,SWCLK*%
X138430000Y-97790000D03*
%TO.P,J5,5,Pin_5*%
%TO.N,GND*%
X137160000Y-96520000D03*
%TO.P,J5,6,Pin_6*%
%TO.N,unconnected-(J5-Pad6)*%
X137160000Y-97790000D03*
%TO.P,J5,7,Pin_7*%
%TO.N,unconnected-(J5-Pad7)*%
X135890000Y-96520000D03*
%TO.P,J5,8,Pin_8*%
%TO.N,unconnected-(J5-Pad8)*%
X135890000Y-97790000D03*
%TO.P,J5,9,Pin_9*%
%TO.N,GND*%
X134620000Y-96520000D03*
%TO.P,J5,10,Pin_10*%
%TO.N,RESET*%
X134620000Y-97790000D03*
%TD*%
D40*
%TO.P,C207,1*%
%TO.N,+3.3VA*%
X109400000Y-85080000D03*
%TO.P,C207,2*%
%TO.N,GND*%
X109400000Y-84120000D03*
%TD*%
%TO.P,C801,1*%
%TO.N,Net-(C800-Pad1)*%
X122200000Y-117960000D03*
%TO.P,C801,2*%
%TO.N,GND*%
X122200000Y-117000000D03*
%TD*%
D10*
%TO.P,C502,1*%
%TO.N,Net-(C502-Pad1)*%
X118720000Y-77800000D03*
%TO.P,C502,2*%
%TO.N,GND*%
X119680000Y-77800000D03*
%TD*%
D17*
%TO.P,JP403,1,A*%
%TO.N,PC6*%
X110900000Y-120200000D03*
%TO.P,JP403,2,B*%
%TO.N,Net-(D403-Pad2)*%
X109600000Y-120200000D03*
%TD*%
D10*
%TO.P,C202,1*%
%TO.N,+3.3V*%
X125000000Y-89400000D03*
%TO.P,C202,2*%
%TO.N,GND*%
X125960000Y-89400000D03*
%TD*%
D49*
%TO.N,+3.3V*%
X121600000Y-119800000D03*
X121600000Y-94600000D03*
X112600000Y-81200000D03*
X137600000Y-92000000D03*
X129200000Y-86800000D03*
X121000000Y-92800000D03*
X139600000Y-117400000D03*
%TO.N,GND*%
X145000000Y-91400000D03*
X87000000Y-88000000D03*
X148000000Y-116400000D03*
X153800000Y-121200000D03*
X146600000Y-107400000D03*
X91000000Y-118000000D03*
X92000000Y-96000000D03*
X101550000Y-116200000D03*
X87000000Y-101000000D03*
X87000000Y-106000000D03*
X103000000Y-88200000D03*
X89500000Y-84000000D03*
X89750000Y-98250000D03*
X109000000Y-82800000D03*
X95000000Y-118000000D03*
X120800000Y-77800000D03*
X92000000Y-92000000D03*
X92000000Y-88000000D03*
X101400000Y-120200000D03*
X114800000Y-80200000D03*
X139800000Y-112200000D03*
X89750000Y-94000000D03*
X150600000Y-84400000D03*
X124800000Y-117200000D03*
X87000000Y-96000000D03*
X123400000Y-90800000D03*
X101400000Y-108200000D03*
X95000000Y-105000000D03*
X110200000Y-90200000D03*
X149000000Y-98400000D03*
X122400000Y-98200000D03*
X92000000Y-84000000D03*
X115200000Y-97000000D03*
X150600000Y-90800000D03*
X89750000Y-107500000D03*
X145000000Y-84800000D03*
X136000000Y-103400000D03*
X101450000Y-112200000D03*
X146000000Y-79800000D03*
X136000000Y-101200000D03*
X150600000Y-78000000D03*
X87000000Y-92000000D03*
X87000000Y-84000000D03*
X92250000Y-100250000D03*
X95000000Y-110000000D03*
X95000000Y-114000000D03*
X117400000Y-90200000D03*
X153200000Y-108200000D03*
X87000000Y-118000000D03*
X135200000Y-83000000D03*
X90000000Y-89750000D03*
%TO.N,PC8*%
X120200000Y-114200000D03*
X120200000Y-120800000D03*
%TO.N,RESET*%
X120200000Y-90200000D03*
X129030498Y-96369502D03*
%TO.N,USB_D-*%
X131699500Y-105525000D03*
X126650500Y-105525000D03*
%TO.N,USB_D+*%
X126650500Y-104475000D03*
X131699500Y-104475000D03*
%TO.N,PB13*%
X108600000Y-125800000D03*
X115000000Y-106600000D03*
%TO.N,SWDIO*%
X131200000Y-103000000D03*
X126800000Y-103000000D03*
%TO.N,SWCLK*%
X126000000Y-99200000D03*
X137800000Y-99000000D03*
%TO.N,I2C1_SDA*%
X131730497Y-91530497D03*
X129800000Y-91400000D03*
%TD*%
D50*
%TO.N,+3.3V*%
X139600000Y-116300000D02*
X139830000Y-116070000D01*
X154200000Y-133200000D02*
X153400000Y-134000000D01*
X143930000Y-116070000D02*
X147250000Y-112750000D01*
X143600000Y-84600000D02*
X143600000Y-86200000D01*
X101500000Y-132400000D02*
X98400000Y-129300000D01*
X149860000Y-71120000D02*
X147320000Y-71120000D01*
X149860000Y-71120000D02*
X149860000Y-72260000D01*
X139830000Y-116070000D02*
X143930000Y-116070000D01*
X145200000Y-80800000D02*
X152000000Y-80800000D01*
D51*
X124600000Y-89800000D02*
X125000000Y-89400000D01*
D50*
X97000000Y-106850000D02*
X97000000Y-120800000D01*
X153200000Y-93200000D02*
X152400000Y-94000000D01*
X113962500Y-83212500D02*
X114000000Y-83175000D01*
X145000000Y-77575000D02*
X145000000Y-80600000D01*
X153200000Y-88200000D02*
X153200000Y-93200000D01*
D51*
X123400000Y-96800000D02*
X123200000Y-96600000D01*
D50*
X117550000Y-118750000D02*
X118400000Y-119600000D01*
X112400000Y-81400000D02*
X112600000Y-81200000D01*
X99350000Y-106850000D02*
X101800000Y-104400000D01*
X147250000Y-112750000D02*
X151000000Y-112750000D01*
X152250000Y-103350000D02*
X152250000Y-96850000D01*
D51*
X116400000Y-97200000D02*
X116400000Y-92800000D01*
D50*
X118400000Y-119600000D02*
X118600000Y-119800000D01*
D51*
X121000000Y-92800000D02*
X121000000Y-92000000D01*
D52*
X132400000Y-82000000D02*
X131225000Y-82000000D01*
D51*
X124000000Y-99000000D02*
X123400000Y-98400000D01*
X120800000Y-91800000D02*
X122800000Y-89800000D01*
D52*
X133320000Y-81800000D02*
X132600000Y-81800000D01*
D50*
X152000000Y-80800000D02*
X152725000Y-81525000D01*
X101800000Y-104400000D02*
X109000000Y-104400000D01*
X118600000Y-119800000D02*
X121600000Y-119800000D01*
X128750000Y-82050000D02*
X129800000Y-81000000D01*
X150400000Y-134000000D02*
X149860000Y-133460000D01*
D51*
X115600000Y-98000000D02*
X116400000Y-97200000D01*
D53*
X124875000Y-90450000D02*
X124875000Y-89525000D01*
D50*
X153262500Y-115012500D02*
X151000000Y-112750000D01*
X125425000Y-88575000D02*
X125000000Y-89000000D01*
D53*
X115050000Y-91450000D02*
X116400000Y-92800000D01*
D50*
X129200000Y-86800000D02*
X128750000Y-86350000D01*
X152400000Y-94000000D02*
X149400000Y-94000000D01*
X103400000Y-134000000D02*
X101800000Y-132400000D01*
D53*
X113525000Y-91450000D02*
X115050000Y-91450000D01*
X124000000Y-100120000D02*
X123195000Y-100120000D01*
D50*
X109000000Y-104400000D02*
X113280000Y-100120000D01*
X97000000Y-106850000D02*
X99350000Y-106850000D01*
X153800000Y-115012500D02*
X153262500Y-115012500D01*
D51*
X124000000Y-100120000D02*
X124000000Y-99000000D01*
D50*
X149575000Y-115000000D02*
X149575000Y-124375000D01*
X92200000Y-125600000D02*
X92200000Y-130200000D01*
X97000000Y-120800000D02*
X92200000Y-125600000D01*
D53*
X124875000Y-89525000D02*
X125000000Y-89400000D01*
D52*
X133320000Y-80600000D02*
X133320000Y-81800000D01*
D50*
X151000000Y-112750000D02*
X151000000Y-106450000D01*
D51*
X117400000Y-91800000D02*
X120800000Y-91800000D01*
D52*
X131225000Y-82000000D02*
X130225000Y-81000000D01*
D50*
X145175000Y-77400000D02*
X145000000Y-77575000D01*
X117550000Y-117800000D02*
X117550000Y-118750000D01*
X151000000Y-112750000D02*
X151000000Y-113575000D01*
X144800000Y-83400000D02*
X143600000Y-84600000D01*
X128750000Y-86350000D02*
X128750000Y-83200000D01*
X101800000Y-132400000D02*
X101500000Y-132400000D01*
X139600000Y-117400000D02*
X139600000Y-116300000D01*
D53*
X123195000Y-100120000D02*
X122950000Y-99875000D01*
D50*
X139700000Y-94100000D02*
X139700000Y-95270000D01*
X125000000Y-89000000D02*
X125000000Y-89400000D01*
X151000000Y-104600000D02*
X152250000Y-103350000D01*
X145000000Y-80600000D02*
X145200000Y-80800000D01*
X149860000Y-72260000D02*
X152800000Y-75200000D01*
X151000000Y-106450000D02*
X151000000Y-104600000D01*
X152250000Y-96850000D02*
X150900000Y-95500000D01*
X93000000Y-131000000D02*
X96700000Y-131000000D01*
X154200000Y-129000000D02*
X154200000Y-133200000D01*
X112400000Y-83212500D02*
X112400000Y-81400000D01*
X126200000Y-86400000D02*
X125425000Y-87175000D01*
X150400000Y-134000000D02*
X103400000Y-134000000D01*
X129200000Y-86800000D02*
X128800000Y-86400000D01*
X113280000Y-100120000D02*
X113280000Y-99000000D01*
X150900000Y-95500000D02*
X149385000Y-93985000D01*
X137600000Y-92000000D02*
X139700000Y-94100000D01*
X153400000Y-134000000D02*
X150400000Y-134000000D01*
D52*
X132600000Y-81800000D02*
X132400000Y-82000000D01*
D51*
X121600000Y-95000000D02*
X121600000Y-94600000D01*
D50*
X151000000Y-113575000D02*
X149575000Y-115000000D01*
D53*
X111200000Y-91280000D02*
X111370000Y-91450000D01*
D51*
X116400000Y-92800000D02*
X117400000Y-91800000D01*
D50*
X149860000Y-133460000D02*
X149860000Y-132080000D01*
D51*
X123200000Y-96600000D02*
X121600000Y-95000000D01*
X115171142Y-98000000D02*
X115600000Y-98000000D01*
D50*
X144970000Y-90000000D02*
X144975000Y-90000000D01*
D51*
X113280000Y-99000000D02*
X114171142Y-99000000D01*
D50*
X152800000Y-80000000D02*
X152000000Y-80800000D01*
D53*
X113525000Y-98755000D02*
X113280000Y-99000000D01*
D50*
X139700000Y-95270000D02*
X140985000Y-93985000D01*
D51*
X114171142Y-99000000D02*
X115171142Y-98000000D01*
X122800000Y-89800000D02*
X124600000Y-89800000D01*
D50*
X149575000Y-124375000D02*
X154200000Y-129000000D01*
X139700000Y-96520000D02*
X139700000Y-95270000D01*
X128750000Y-83200000D02*
X128750000Y-82050000D01*
X96700000Y-131000000D02*
X98400000Y-129300000D01*
X125425000Y-88000000D02*
X125425000Y-88575000D01*
X144975000Y-83400000D02*
X144800000Y-83400000D01*
X144600000Y-87200000D02*
X152200000Y-87200000D01*
X125425000Y-87175000D02*
X125425000Y-88000000D01*
X152725000Y-81525000D02*
X152725000Y-86675000D01*
D51*
X123400000Y-98400000D02*
X123400000Y-96800000D01*
X121000000Y-92000000D02*
X120800000Y-91800000D01*
D53*
X113525000Y-97950000D02*
X113525000Y-98755000D01*
D50*
X92200000Y-130200000D02*
X93000000Y-131000000D01*
D53*
X111370000Y-91450000D02*
X113525000Y-91450000D01*
D50*
X140985000Y-93985000D02*
X144970000Y-90000000D01*
X112400000Y-83212500D02*
X113962500Y-83212500D01*
X143600000Y-86200000D02*
X144600000Y-87200000D01*
X149385000Y-93985000D02*
X140985000Y-93985000D01*
X128800000Y-86400000D02*
X126200000Y-86400000D01*
X152800000Y-75200000D02*
X152800000Y-80000000D01*
X152725000Y-86675000D02*
X152200000Y-87200000D01*
X152200000Y-87200000D02*
X153200000Y-88200000D01*
X129800000Y-81000000D02*
X130225000Y-81000000D01*
D53*
%TO.N,GND*%
X118950000Y-81700000D02*
X118950000Y-81600000D01*
X119320000Y-83200000D02*
X119320000Y-82070000D01*
D50*
X110295000Y-83225000D02*
X110800000Y-83225000D01*
D53*
X114750000Y-97450000D02*
X115200000Y-97000000D01*
X117450000Y-90150000D02*
X117400000Y-90200000D01*
D51*
X151700000Y-78000000D02*
X150600000Y-78000000D01*
D53*
X114000000Y-81625000D02*
X114000000Y-81000000D01*
D51*
X123400000Y-117000000D02*
X124330000Y-116070000D01*
D53*
X120650000Y-79500000D02*
X120650000Y-78770000D01*
D52*
X131775000Y-80825000D02*
X132800000Y-79800000D01*
D54*
X133650000Y-84762500D02*
X133650000Y-83237500D01*
D52*
X131775000Y-81000000D02*
X131775000Y-80825000D01*
D53*
X122450000Y-100751041D02*
X122450000Y-99875000D01*
D54*
X134962500Y-83237500D02*
X135200000Y-83000000D01*
D51*
X102925000Y-116200000D02*
X101550000Y-116200000D01*
D53*
X110320000Y-90320000D02*
X110200000Y-90200000D01*
D51*
X145920000Y-91400000D02*
X145000000Y-91400000D01*
D53*
X113525000Y-97450000D02*
X114750000Y-97450000D01*
X122450000Y-98250000D02*
X122400000Y-98200000D01*
X122778959Y-101080000D02*
X122450000Y-100751041D01*
X123550000Y-90950000D02*
X123400000Y-90800000D01*
X117450000Y-86450000D02*
X115000000Y-84000000D01*
X120800000Y-79350000D02*
X120650000Y-79500000D01*
X120650000Y-78770000D02*
X119680000Y-77800000D01*
X113525000Y-90950000D02*
X111872965Y-90950000D01*
D52*
X134280000Y-80486325D02*
X134280000Y-80600000D01*
D53*
X111242965Y-90320000D02*
X111200000Y-90320000D01*
X112648959Y-97450000D02*
X112320000Y-97778959D01*
X117450000Y-88525000D02*
X117450000Y-90150000D01*
D51*
X151700000Y-84400000D02*
X150600000Y-84400000D01*
D53*
X115000000Y-84000000D02*
X115000000Y-82625000D01*
D51*
X145920000Y-78800000D02*
X145920000Y-79720000D01*
X102775000Y-120200000D02*
X101400000Y-120200000D01*
D52*
X151000000Y-98760000D02*
X149360000Y-98760000D01*
D50*
X153800000Y-121200000D02*
X153800000Y-119825000D01*
X148025000Y-115000000D02*
X148025000Y-116375000D01*
D53*
X124875000Y-90950000D02*
X123550000Y-90950000D01*
D50*
X153200000Y-108200000D02*
X153200000Y-106550000D01*
D53*
X126000000Y-90701041D02*
X125751041Y-90950000D01*
D50*
X109425000Y-83225000D02*
X109000000Y-82800000D01*
D53*
X114000000Y-81000000D02*
X114800000Y-80200000D01*
D50*
X110800000Y-83225000D02*
X109425000Y-83225000D01*
D53*
X115000000Y-82625000D02*
X114000000Y-81625000D01*
X112320000Y-97778959D02*
X112320000Y-99000000D01*
X125960000Y-89400000D02*
X126000000Y-89440000D01*
X122450000Y-99875000D02*
X122450000Y-98250000D01*
D51*
X137700000Y-101200000D02*
X136000000Y-101200000D01*
X136000000Y-103400000D02*
X135080000Y-103400000D01*
D53*
X126975000Y-88000000D02*
X126975000Y-88385000D01*
D51*
X145920000Y-79720000D02*
X146000000Y-79800000D01*
X151700000Y-90800000D02*
X150600000Y-90800000D01*
X139830000Y-112170000D02*
X139800000Y-112200000D01*
D53*
X120800000Y-77800000D02*
X120800000Y-79350000D01*
X119320000Y-82070000D02*
X118950000Y-81700000D01*
D51*
X145920000Y-84800000D02*
X145000000Y-84800000D01*
X102775000Y-108200000D02*
X101400000Y-108200000D01*
D53*
X113525000Y-97450000D02*
X112648959Y-97450000D01*
D51*
X124800000Y-116540000D02*
X124330000Y-116070000D01*
D53*
X118950000Y-81600000D02*
X120650000Y-79900000D01*
X117450000Y-88525000D02*
X117450000Y-86450000D01*
D50*
X109400000Y-84120000D02*
X110295000Y-83225000D01*
X146600000Y-107400000D02*
X146600000Y-106175000D01*
D51*
X122200000Y-117000000D02*
X123400000Y-117000000D01*
D52*
X149360000Y-98760000D02*
X149000000Y-98400000D01*
D54*
X134150000Y-81930000D02*
X134280000Y-81800000D01*
D53*
X126000000Y-89440000D02*
X126000000Y-90701041D01*
D51*
X120800000Y-116225000D02*
X121425000Y-116225000D01*
D53*
X111200000Y-90320000D02*
X110320000Y-90320000D01*
D51*
X102825000Y-112200000D02*
X101450000Y-112200000D01*
D54*
X134150000Y-83237500D02*
X134150000Y-81930000D01*
D52*
X134280000Y-80600000D02*
X134280000Y-81800000D01*
X133593675Y-79800000D02*
X134280000Y-80486325D01*
X132800000Y-79800000D02*
X133593675Y-79800000D01*
D53*
X126975000Y-88385000D02*
X125960000Y-89400000D01*
D51*
X121425000Y-116225000D02*
X122200000Y-117000000D01*
D50*
X153200000Y-106550000D02*
X153300000Y-106450000D01*
D54*
X134150000Y-83237500D02*
X134150000Y-83737500D01*
D53*
X111872965Y-90950000D02*
X111242965Y-90320000D01*
X124000000Y-101080000D02*
X122778959Y-101080000D01*
X120650000Y-79900000D02*
X120650000Y-79500000D01*
D54*
X134150000Y-83237500D02*
X134962500Y-83237500D01*
X134162500Y-84250000D02*
X134162500Y-83750000D01*
D51*
X124800000Y-117200000D02*
X124800000Y-116540000D01*
X139830000Y-110990000D02*
X139830000Y-112170000D01*
D53*
X125751041Y-90950000D02*
X124875000Y-90950000D01*
D51*
X103000000Y-86400000D02*
X103000000Y-88200000D01*
D54*
X134150000Y-83237500D02*
X133650000Y-83237500D01*
X134150000Y-83737500D02*
X134162500Y-83750000D01*
D50*
X146600000Y-106175000D02*
X146400000Y-105975000D01*
X148025000Y-116375000D02*
X148000000Y-116400000D01*
D53*
%TO.N,+3.3VA*%
X116950000Y-88525000D02*
X116950000Y-86750000D01*
X114987500Y-84787500D02*
X112400000Y-84787500D01*
D50*
X110495000Y-85080000D02*
X109400000Y-85080000D01*
X110812500Y-84787500D02*
X110800000Y-84775000D01*
X110800000Y-84775000D02*
X110495000Y-85080000D01*
D53*
X116950000Y-86750000D02*
X114987500Y-84787500D01*
D50*
X112400000Y-84787500D02*
X110812500Y-84787500D01*
%TO.N,VCC*%
X148700000Y-106700000D02*
X148200000Y-107200000D01*
X148700000Y-103887500D02*
X148800000Y-103787500D01*
X147000000Y-109400000D02*
X138200000Y-109400000D01*
X148162500Y-104425000D02*
X148800000Y-103787500D01*
X146400000Y-104425000D02*
X148162500Y-104425000D01*
X139000000Y-126000000D02*
X146320000Y-126000000D01*
X146320000Y-126000000D02*
X152400000Y-132080000D01*
X148700000Y-106450000D02*
X148700000Y-106700000D01*
X148200000Y-107200000D02*
X148200000Y-108200000D01*
X137200000Y-110400000D02*
X137200000Y-124200000D01*
X137200000Y-124200000D02*
X139000000Y-126000000D01*
X148200000Y-108200000D02*
X147000000Y-109400000D01*
X138200000Y-109400000D02*
X137200000Y-110400000D01*
X148700000Y-106450000D02*
X148700000Y-103887500D01*
D53*
%TO.N,Net-(C501-Pad1)*%
X120280000Y-83200000D02*
X120280000Y-82070000D01*
X120950000Y-88525000D02*
X120950000Y-83870000D01*
X120280000Y-82070000D02*
X120650000Y-81700000D01*
X120950000Y-83870000D02*
X120280000Y-83200000D01*
D54*
%TO.N,PC9*%
X126400000Y-130140000D02*
X124460000Y-132080000D01*
X126400000Y-115600000D02*
X126400000Y-130140000D01*
X125800000Y-115000000D02*
X126400000Y-115600000D01*
X122600000Y-115000000D02*
X125800000Y-115000000D01*
X118950000Y-109713604D02*
X121000000Y-111763604D01*
X121000000Y-113400000D02*
X122600000Y-115000000D01*
X121000000Y-111763604D02*
X121000000Y-113400000D01*
X118950000Y-99875000D02*
X118950000Y-109713604D01*
%TO.N,PC8*%
X120200000Y-130360000D02*
X120200000Y-120800000D01*
X120200000Y-114200000D02*
X120200000Y-111600000D01*
X118450000Y-109850000D02*
X118450000Y-99875000D01*
X121920000Y-132080000D02*
X120200000Y-130360000D01*
X120200000Y-111600000D02*
X118450000Y-109850000D01*
%TO.N,PC7*%
X117950000Y-99875000D02*
X117950000Y-114250000D01*
X116400000Y-115800000D02*
X116400000Y-122800000D01*
X117950000Y-114250000D02*
X116400000Y-115800000D01*
X116400000Y-122800000D02*
X119380000Y-125780000D01*
X119380000Y-125780000D02*
X119380000Y-132080000D01*
D53*
%TO.N,Net-(C502-Pad1)*%
X117700000Y-82885788D02*
X117700000Y-80750000D01*
X120450000Y-88525000D02*
X120450000Y-85635788D01*
X118720000Y-77800000D02*
X118720000Y-79270000D01*
X118720000Y-79270000D02*
X118950000Y-79500000D01*
X120450000Y-85635788D02*
X117700000Y-82885788D01*
X117700000Y-80750000D02*
X118950000Y-79500000D01*
D54*
%TO.N,RESET*%
X129369502Y-96369502D02*
X130790000Y-97790000D01*
D51*
X134300000Y-98110000D02*
X134620000Y-97790000D01*
X134300000Y-101200000D02*
X134300000Y-98110000D01*
D54*
X119950000Y-88525000D02*
X119950000Y-89950000D01*
X129030498Y-96369502D02*
X129369502Y-96369502D01*
X130790000Y-97790000D02*
X134620000Y-97790000D01*
X119950000Y-89950000D02*
X120200000Y-90200000D01*
D51*
X134120000Y-103400000D02*
X134120000Y-101380000D01*
X134120000Y-101380000D02*
X134300000Y-101200000D01*
%TO.N,Net-(C800-Pad1)*%
X122015000Y-117775000D02*
X122200000Y-117960000D01*
D50*
X118850000Y-117800000D02*
X120775000Y-117800000D01*
X122200000Y-117960000D02*
X123680000Y-117960000D01*
X120775000Y-117800000D02*
X120800000Y-117775000D01*
D51*
X120800000Y-117775000D02*
X122015000Y-117775000D01*
D50*
X124330000Y-121150000D02*
X124330000Y-118610000D01*
X123680000Y-117960000D02*
X124330000Y-118610000D01*
D53*
%TO.N,/PWR_LED_K*%
X153800000Y-118175000D02*
X153800000Y-116587500D01*
D51*
%TO.N,Net-(D400-Pad1)*%
X104425000Y-108200000D02*
X106012500Y-108200000D01*
%TO.N,Net-(D400-Pad2)*%
X107587500Y-108200000D02*
X109550000Y-108200000D01*
%TO.N,Net-(D401-Pad1)*%
X104475000Y-112200000D02*
X106062500Y-112200000D01*
%TO.N,Net-(D401-Pad2)*%
X107637500Y-112200000D02*
X109600000Y-112200000D01*
%TO.N,Net-(D402-Pad1)*%
X104575000Y-116200000D02*
X106150000Y-116200000D01*
%TO.N,Net-(D402-Pad2)*%
X107725000Y-116200000D02*
X109700000Y-116200000D01*
%TO.N,Net-(D403-Pad1)*%
X104425000Y-120200000D02*
X106012500Y-120200000D01*
%TO.N,Net-(D403-Pad2)*%
X107587500Y-120200000D02*
X109600000Y-120200000D01*
D50*
%TO.N,+5V*%
X149712576Y-102212500D02*
X150440076Y-101485000D01*
D53*
X150565076Y-101360000D02*
X150440076Y-101485000D01*
D50*
X148800000Y-102212500D02*
X149712576Y-102212500D01*
D53*
X151000000Y-101360000D02*
X150565076Y-101360000D01*
D55*
%TO.N,USB_D-*%
X140493200Y-105225000D02*
X131999499Y-105225001D01*
X124306801Y-105225001D02*
X120974999Y-101893199D01*
X131999499Y-105225001D02*
X131699500Y-105525000D01*
X120974999Y-99899999D02*
X120950000Y-99875000D01*
X126350501Y-105225001D02*
X124306801Y-105225001D01*
X145108200Y-100610000D02*
X140493200Y-105225000D01*
X149887499Y-100610000D02*
X145108200Y-100610000D01*
X149987499Y-100710000D02*
X149887499Y-100610000D01*
X120974999Y-101893199D02*
X120974999Y-99899999D01*
X126650500Y-105525000D02*
X126350501Y-105225001D01*
X151000000Y-100710000D02*
X149987499Y-100710000D01*
%TO.N,USB_D+*%
X149887499Y-100160000D02*
X144921800Y-100160000D01*
X126650500Y-104475000D02*
X126350501Y-104774999D01*
X144921800Y-100160000D02*
X140306800Y-104775000D01*
X124493199Y-104774999D02*
X121425001Y-101706801D01*
X121425001Y-101706801D02*
X121425001Y-99899999D01*
X151000000Y-100060000D02*
X149987499Y-100060000D01*
X121425001Y-99899999D02*
X121450000Y-99875000D01*
X126350501Y-104774999D02*
X124493199Y-104774999D01*
X149987499Y-100060000D02*
X149887499Y-100160000D01*
X131999499Y-104774999D02*
X131699500Y-104475000D01*
X140306800Y-104775000D02*
X131999499Y-104774999D01*
D54*
%TO.N,Net-(J600-Pad1)*%
X89000000Y-102400000D02*
X89000000Y-102900000D01*
D56*
X92710000Y-111760000D02*
X91670000Y-112800000D01*
X89000000Y-102900000D02*
X92710000Y-106610000D01*
X91670000Y-112800000D02*
X88000000Y-112800000D01*
X92710000Y-106610000D02*
X92710000Y-111760000D01*
D54*
%TO.N,PB12*%
X110850000Y-109200000D02*
X110850000Y-108200000D01*
X110050000Y-110000000D02*
X110850000Y-109200000D01*
X115450000Y-99875000D02*
X110850000Y-104475000D01*
X106680000Y-132080000D02*
X106680000Y-127952792D01*
X99700000Y-120972792D02*
X99700000Y-112300000D01*
X106680000Y-127952792D02*
X99700000Y-120972792D01*
X102000000Y-110000000D02*
X110050000Y-110000000D01*
X110850000Y-104475000D02*
X110850000Y-108200000D01*
X99700000Y-112300000D02*
X102000000Y-110000000D01*
%TO.N,PB13*%
X108600000Y-125800000D02*
X109220000Y-126420000D01*
X115950000Y-99875000D02*
X115950000Y-105650000D01*
X115950000Y-105650000D02*
X115000000Y-106600000D01*
X109220000Y-126420000D02*
X109220000Y-132080000D01*
%TO.N,PB14*%
X100150000Y-116050000D02*
X100150000Y-120786396D01*
X110900000Y-112200000D02*
X116450000Y-106650000D01*
X100150000Y-120786396D02*
X102563604Y-123200000D01*
X110000000Y-114400000D02*
X101800000Y-114400000D01*
X107800000Y-123200000D02*
X111760000Y-127160000D01*
X110900000Y-112200000D02*
X110900000Y-113500000D01*
X102563604Y-123200000D02*
X107800000Y-123200000D01*
X111760000Y-127160000D02*
X111760000Y-132080000D01*
X110900000Y-113500000D02*
X110000000Y-114400000D01*
X116450000Y-106650000D02*
X116450000Y-99875000D01*
X101800000Y-114400000D02*
X100150000Y-116050000D01*
%TO.N,PB15*%
X108000000Y-122600000D02*
X114300000Y-128900000D01*
X116950000Y-110250000D02*
X116950000Y-99875000D01*
X111000000Y-116200000D02*
X116950000Y-110250000D01*
X114300000Y-128900000D02*
X114300000Y-132080000D01*
X102600000Y-122600000D02*
X108000000Y-122600000D01*
X102600000Y-117800000D02*
X100600000Y-119800000D01*
X100600000Y-119800000D02*
X100600000Y-120600000D01*
X100600000Y-120600000D02*
X102600000Y-122600000D01*
X111000000Y-117200000D02*
X110400000Y-117800000D01*
X111000000Y-116200000D02*
X111000000Y-117200000D01*
X110400000Y-117800000D02*
X102600000Y-117800000D01*
%TO.N,PC6*%
X110900000Y-120200000D02*
X117400000Y-113700000D01*
X110900000Y-120200000D02*
X110900000Y-120300000D01*
X116840000Y-126240000D02*
X116840000Y-132080000D01*
X117400000Y-101284315D02*
X117450000Y-101234315D01*
X117450000Y-101234315D02*
X117450000Y-99875000D01*
X110900000Y-120300000D02*
X116840000Y-126240000D01*
X117400000Y-113700000D02*
X117400000Y-101284315D01*
%TO.N,PA8*%
X121450000Y-111577208D02*
X121450000Y-113213604D01*
X125986396Y-114550000D02*
X126850000Y-115413604D01*
X119450000Y-109577208D02*
X121450000Y-111577208D01*
X127000000Y-116150000D02*
X127000000Y-132080000D01*
X119450000Y-99875000D02*
X119450000Y-109577208D01*
X126850000Y-116000000D02*
X127000000Y-116150000D01*
X122786396Y-114550000D02*
X125986396Y-114550000D01*
X121450000Y-113213604D02*
X122786396Y-114550000D01*
X126850000Y-115413604D02*
X126850000Y-116000000D01*
%TO.N,UART1_RX*%
X124330000Y-113530000D02*
X124470000Y-113530000D01*
X126130000Y-113530000D02*
X124330000Y-113530000D01*
X132080000Y-132080000D02*
X127450000Y-127450000D01*
X120450000Y-104850000D02*
X120450000Y-99875000D01*
X124470000Y-113530000D02*
X126000000Y-112000000D01*
X126000000Y-110400000D02*
X120450000Y-104850000D01*
X127450000Y-127450000D02*
X127450000Y-114850000D01*
X127450000Y-114850000D02*
X126130000Y-113530000D01*
X126000000Y-112000000D02*
X126000000Y-110400000D01*
%TO.N,PA15*%
X127900000Y-125360000D02*
X127900000Y-99634315D01*
X127900000Y-99634315D02*
X125715685Y-97450000D01*
X134620000Y-132080000D02*
X127900000Y-125360000D01*
X125715685Y-97450000D02*
X124875000Y-97450000D01*
%TO.N,PC10*%
X128650000Y-99747919D02*
X128650000Y-106359188D01*
X125852081Y-96950000D02*
X128650000Y-99747919D01*
X124875000Y-96950000D02*
X125852081Y-96950000D01*
X128650000Y-106359188D02*
X135050000Y-112759188D01*
X135050000Y-112759188D02*
X135050000Y-129970000D01*
X135050000Y-129970000D02*
X137160000Y-132080000D01*
%TO.N,PC11*%
X135500000Y-127880000D02*
X139700000Y-132080000D01*
X135500000Y-112572792D02*
X135500000Y-127880000D01*
X125988477Y-96450000D02*
X129100000Y-99561523D01*
X124875000Y-96450000D02*
X125988477Y-96450000D01*
X129100000Y-99561523D02*
X129100000Y-106172792D01*
X129100000Y-106172792D02*
X135500000Y-112572792D01*
%TO.N,PC12*%
X135950000Y-125790000D02*
X142240000Y-132080000D01*
X135950000Y-112386396D02*
X135950000Y-125790000D01*
X129550000Y-105986396D02*
X135950000Y-112386396D01*
X126150000Y-95950000D02*
X129550000Y-99350000D01*
X124875000Y-95950000D02*
X126150000Y-95950000D01*
X129550000Y-99350000D02*
X129550000Y-105986396D01*
%TO.N,PD2*%
X126450000Y-95450000D02*
X124875000Y-95450000D01*
X136400000Y-125603604D02*
X136400000Y-112200000D01*
X144780000Y-132080000D02*
X143001802Y-130301802D01*
X143001802Y-130301802D02*
X141098198Y-130301802D01*
X130000000Y-99000000D02*
X126450000Y-95450000D01*
X130000000Y-105800000D02*
X130000000Y-99000000D01*
X141098198Y-130301802D02*
X136400000Y-125603604D01*
X136400000Y-112200000D02*
X130000000Y-105800000D01*
D51*
%TO.N,PB3*%
X146625000Y-90000000D02*
X146880000Y-90255000D01*
D54*
X133050000Y-94950000D02*
X139200000Y-88800000D01*
D51*
X146880000Y-90255000D02*
X146880000Y-91400000D01*
D54*
X124875000Y-94950000D02*
X133050000Y-94950000D01*
D51*
X147425000Y-90800000D02*
X146625000Y-90000000D01*
X148300000Y-90800000D02*
X147425000Y-90800000D01*
D54*
X139200000Y-88800000D02*
X145425000Y-88800000D01*
X145425000Y-88800000D02*
X146625000Y-90000000D01*
%TO.N,PB4*%
X124875000Y-94450000D02*
X131950000Y-94450000D01*
X131950000Y-94450000D02*
X144200000Y-82200000D01*
D51*
X148300000Y-84400000D02*
X147625000Y-84400000D01*
D54*
X144200000Y-82200000D02*
X145425000Y-82200000D01*
D51*
X147625000Y-84400000D02*
X146625000Y-83400000D01*
X146880000Y-84800000D02*
X146880000Y-83655000D01*
D54*
X145425000Y-82200000D02*
X146625000Y-83400000D01*
D51*
X146880000Y-83655000D02*
X146625000Y-83400000D01*
%TO.N,PB5*%
X146880000Y-77455000D02*
X146825000Y-77400000D01*
D54*
X144600000Y-76000000D02*
X145425000Y-76000000D01*
D51*
X146880000Y-78800000D02*
X146880000Y-77455000D01*
X148300000Y-78000000D02*
X147425000Y-78000000D01*
X147425000Y-78000000D02*
X146825000Y-77400000D01*
D54*
X131450000Y-93950000D02*
X143800000Y-81600000D01*
X145425000Y-76000000D02*
X146825000Y-77400000D01*
X143800000Y-76800000D02*
X144600000Y-76000000D01*
X124875000Y-93950000D02*
X131450000Y-93950000D01*
X143800000Y-81600000D02*
X143800000Y-76800000D01*
D53*
%TO.N,VLCD*%
X129540000Y-79031318D02*
X129540000Y-71120000D01*
X122950000Y-85621318D02*
X129540000Y-79031318D01*
X122950000Y-88525000D02*
X122950000Y-85621318D01*
%TO.N,PC13*%
X127000000Y-80864212D02*
X127000000Y-71120000D01*
X122450000Y-85414212D02*
X127000000Y-80864212D01*
X122450000Y-88525000D02*
X122450000Y-85414212D01*
%TO.N,PC14*%
X121950000Y-85207106D02*
X124460000Y-82697107D01*
X124460000Y-82697107D02*
X124460000Y-71120000D01*
X121950000Y-88525000D02*
X121950000Y-85207106D01*
%TO.N,PC15*%
X121920000Y-71120000D02*
X121920000Y-75320000D01*
X123400000Y-83050000D02*
X121450000Y-85000000D01*
X123400000Y-76800000D02*
X123400000Y-83050000D01*
X121920000Y-75320000D02*
X123400000Y-76800000D01*
X121450000Y-85000000D02*
X121450000Y-88525000D01*
%TO.N,PC0*%
X117200000Y-74400000D02*
X117200000Y-83092894D01*
X119450000Y-85342894D02*
X119450000Y-88525000D01*
X119380000Y-72220000D02*
X117200000Y-74400000D01*
X117200000Y-83092894D02*
X119450000Y-85342894D01*
X119380000Y-71120000D02*
X119380000Y-72220000D01*
%TO.N,PC1*%
X118950000Y-85550000D02*
X116700000Y-83300000D01*
X116700000Y-73100000D02*
X116840000Y-72960000D01*
X116840000Y-72960000D02*
X116840000Y-71120000D01*
X116700000Y-83300000D02*
X116700000Y-73100000D01*
X118950000Y-88525000D02*
X118950000Y-85550000D01*
%TO.N,PC2*%
X116200000Y-83600000D02*
X118450000Y-85850000D01*
X114300000Y-77792894D02*
X116200000Y-79692894D01*
X118450000Y-85850000D02*
X118450000Y-88525000D01*
X116200000Y-79692894D02*
X116200000Y-83600000D01*
X114300000Y-71120000D02*
X114300000Y-77792894D01*
%TO.N,PC3*%
X117950000Y-86150000D02*
X115600000Y-83800000D01*
X115600000Y-79800000D02*
X111760000Y-75960000D01*
X115600000Y-83800000D02*
X115600000Y-79800000D01*
X117950000Y-88525000D02*
X117950000Y-86150000D01*
X111760000Y-75960000D02*
X111760000Y-71120000D01*
%TO.N,PA0*%
X107200000Y-84478682D02*
X107200000Y-79200000D01*
X116450000Y-87050000D02*
X116300000Y-86900000D01*
X116450000Y-88525000D02*
X116450000Y-87050000D01*
X107200000Y-79200000D02*
X109220000Y-77180000D01*
X109621318Y-86900000D02*
X107200000Y-84478682D01*
X109220000Y-77180000D02*
X109220000Y-71120000D01*
X116300000Y-86900000D02*
X109621318Y-86900000D01*
%TO.N,PA1*%
X115950000Y-87550000D02*
X115800000Y-87400000D01*
X109414212Y-87400000D02*
X106680000Y-84665788D01*
X115950000Y-88525000D02*
X115950000Y-87550000D01*
X115800000Y-87400000D02*
X109414212Y-87400000D01*
X106680000Y-84665788D02*
X106680000Y-71120000D01*
%TO.N,UART2_TX*%
X104140000Y-82832894D02*
X104140000Y-71120000D01*
X109832106Y-88525000D02*
X104140000Y-82832894D01*
X115450000Y-88525000D02*
X109832106Y-88525000D01*
%TO.N,UART2_RX*%
X110000000Y-89400000D02*
X101600000Y-81000000D01*
X112475000Y-89400000D02*
X110000000Y-89400000D01*
X101600000Y-81000000D02*
X101600000Y-71120000D01*
X113525000Y-90450000D02*
X112475000Y-89400000D01*
D54*
%TO.N,SWDIO*%
X139600000Y-97890000D02*
X139700000Y-97790000D01*
X131200000Y-103000000D02*
X132200000Y-103000000D01*
X121950000Y-99875000D02*
X121950000Y-101350000D01*
X132200000Y-103000000D02*
X133549999Y-104349999D01*
X138650001Y-104349999D02*
X139600000Y-103400000D01*
X133549999Y-104349999D02*
X138650001Y-104349999D01*
X121950000Y-101350000D02*
X123200000Y-102600000D01*
X139600000Y-103400000D02*
X139600000Y-100200000D01*
X123600000Y-103000000D02*
X126800000Y-103000000D01*
X123200000Y-102600000D02*
X123600000Y-103000000D01*
X139600000Y-100200000D02*
X139600000Y-97890000D01*
%TO.N,SWCLK*%
X138430000Y-97790000D02*
X138430000Y-98370000D01*
X126000000Y-99200000D02*
X126000000Y-99075000D01*
X138430000Y-98370000D02*
X137800000Y-99000000D01*
X126000000Y-99075000D02*
X124875000Y-97950000D01*
D50*
%TO.N,Net-(JP600-Pad2)*%
X97000000Y-105550000D02*
X97000000Y-102400000D01*
D51*
%TO.N,/BOOT_SW*%
X94400000Y-129300000D02*
X96600000Y-127100000D01*
X96600000Y-125425000D02*
X96575000Y-125400000D01*
X96600000Y-127100000D02*
X96600000Y-125425000D01*
D54*
%TO.N,/BOOT0*%
X114975000Y-99713604D02*
X114975000Y-99009315D01*
X110400000Y-104288604D02*
X114975000Y-99713604D01*
X109400000Y-105400000D02*
X110400000Y-104400000D01*
X102800000Y-105400000D02*
X109400000Y-105400000D01*
X98225000Y-109975000D02*
X102800000Y-105400000D01*
X116225000Y-98775000D02*
X122575000Y-92425000D01*
X115209315Y-98775000D02*
X116225000Y-98775000D01*
X110400000Y-104400000D02*
X110400000Y-104288604D01*
X98225000Y-125400000D02*
X98225000Y-109975000D01*
X114975000Y-99009315D02*
X115209315Y-98775000D01*
X122575000Y-92425000D02*
X125200000Y-92425000D01*
D53*
%TO.N,SPI1_MISO*%
X113525000Y-92950000D02*
X106689339Y-92950000D01*
X106689339Y-92950000D02*
X101000000Y-87260661D01*
X101000000Y-87260661D02*
X101000000Y-86400000D01*
%TO.N,SPI1_MOSI*%
X113525000Y-93450000D02*
X106050000Y-93450000D01*
X106050000Y-93450000D02*
X99000000Y-86400000D01*
%TO.N,SPI1_SCK*%
X104200000Y-89600000D02*
X104200000Y-85200000D01*
X98400000Y-84800000D02*
X97000000Y-86200000D01*
X113525000Y-92450000D02*
X107050000Y-92450000D01*
X97000000Y-86200000D02*
X97000000Y-86400000D01*
X104200000Y-85200000D02*
X103800000Y-84800000D01*
X107050000Y-92450000D02*
X104200000Y-89600000D01*
X103800000Y-84800000D02*
X98400000Y-84800000D01*
%TO.N,RFM95_CS*%
X113525000Y-93950000D02*
X102550000Y-93950000D01*
X102550000Y-93950000D02*
X95000000Y-86400000D01*
%TO.N,RFM95_RESET*%
X101050000Y-94450000D02*
X93000000Y-86400000D01*
X113525000Y-94450000D02*
X101050000Y-94450000D01*
%TO.N,DIO5*%
X113525000Y-91950000D02*
X107350000Y-91950000D01*
X107350000Y-91950000D02*
X104800000Y-89400000D01*
X92900000Y-84300000D02*
X91000000Y-86200000D01*
X104007106Y-84300000D02*
X92900000Y-84300000D01*
X104800000Y-89400000D02*
X104800000Y-85092894D01*
X91000000Y-86200000D02*
X91000000Y-86400000D01*
X104800000Y-85092894D02*
X104007106Y-84300000D01*
%TO.N,DIO3*%
X113525000Y-94950000D02*
X100450000Y-94950000D01*
X100450000Y-94950000D02*
X93000000Y-102400000D01*
%TO.N,DIO4*%
X101950000Y-95450000D02*
X95000000Y-102400000D01*
X113525000Y-95450000D02*
X101950000Y-95450000D01*
%TO.N,DIO0*%
X113525000Y-95950000D02*
X105450000Y-95950000D01*
X105450000Y-95950000D02*
X99000000Y-102400000D01*
%TO.N,DIO1*%
X113525000Y-96450000D02*
X106950000Y-96450000D01*
X106950000Y-96450000D02*
X101000000Y-102400000D01*
%TO.N,DIO2*%
X108450000Y-96950000D02*
X103000000Y-102400000D01*
X113525000Y-96950000D02*
X108450000Y-96950000D01*
D54*
%TO.N,UART1_TX*%
X119950000Y-106610000D02*
X124330000Y-110990000D01*
X119950000Y-99875000D02*
X119950000Y-106610000D01*
D52*
%TO.N,Net-(JP700-Pad2)*%
X130050000Y-83200000D02*
X130075000Y-83175000D01*
D54*
X133150000Y-84762500D02*
X133150000Y-83237500D01*
X133150000Y-83237500D02*
X132650000Y-83237500D01*
D52*
X130075000Y-83175000D02*
X132650000Y-83175000D01*
D54*
%TO.N,I2C1_SCL*%
X132650000Y-89586396D02*
X130118198Y-92118198D01*
X130255497Y-92255497D02*
X132344503Y-92255497D01*
X130118198Y-92118198D02*
X130255497Y-92255497D01*
X128786396Y-93450000D02*
X124875000Y-93450000D01*
X136600000Y-88000000D02*
X136600000Y-74220000D01*
X132344503Y-92255497D02*
X136600000Y-88000000D01*
X136600000Y-74220000D02*
X139700000Y-71120000D01*
X132650000Y-84762500D02*
X132650000Y-89586396D01*
X130118198Y-92118198D02*
X128786396Y-93450000D01*
%TO.N,I2C1_SDA*%
X136000000Y-83800000D02*
X136000000Y-72280000D01*
X135037500Y-84762500D02*
X136000000Y-83800000D01*
X129800000Y-91400000D02*
X128250000Y-92950000D01*
X124875000Y-92950000D02*
X128050000Y-92950000D01*
X134150000Y-84762500D02*
X134150000Y-89110994D01*
X136000000Y-72280000D02*
X137160000Y-71120000D01*
X134150000Y-89110994D02*
X131730497Y-91530497D01*
X128250000Y-92950000D02*
X128050000Y-92950000D01*
X134150000Y-84762500D02*
X135037500Y-84762500D01*
%TO.N,INT2*%
X131400000Y-84400000D02*
X132050000Y-83750000D01*
X131400000Y-86200000D02*
X131400000Y-84400000D01*
X124875000Y-91450000D02*
X126150000Y-91450000D01*
X132050000Y-83750000D02*
X132637500Y-83750000D01*
X126150000Y-91450000D02*
X131400000Y-86200000D01*
%TO.N,INT1*%
X132637500Y-84250000D02*
X132200000Y-84250000D01*
X131850000Y-86950000D02*
X126850000Y-91950000D01*
X131850000Y-84600000D02*
X131850000Y-86950000D01*
X132200000Y-84250000D02*
X131850000Y-84600000D01*
X126850000Y-91950000D02*
X124875000Y-91950000D01*
%TD*%
%TA.AperFunction,Conductor*%
%TO.N,GND*%
G36*
X92088834Y-103701446D02*
G01*
X92100513Y-103714925D01*
X92136739Y-103763261D01*
X92253295Y-103850615D01*
X92389684Y-103901745D01*
X92451866Y-103908500D01*
X93084130Y-103908500D01*
X93152251Y-103928502D01*
X93198744Y-103982158D01*
X93200000Y-103985526D01*
X93200000Y-104000000D01*
X93213353Y-104000080D01*
X93213354Y-104000080D01*
X94771472Y-104009384D01*
X95251752Y-104012252D01*
X95319752Y-104032661D01*
X95365924Y-104086593D01*
X95377000Y-104138250D01*
X95377000Y-118620692D01*
X95356998Y-118688813D01*
X95303342Y-118735306D01*
X95252704Y-118746680D01*
X92524007Y-118783554D01*
X86636203Y-118863118D01*
X86567818Y-118844039D01*
X86520604Y-118791016D01*
X86508500Y-118737130D01*
X86508500Y-116934000D01*
X86528502Y-116865879D01*
X86582158Y-116819386D01*
X86634500Y-116808000D01*
X87927885Y-116808000D01*
X87943124Y-116803525D01*
X87944329Y-116802135D01*
X87946000Y-116794452D01*
X87946000Y-116789884D01*
X88454000Y-116789884D01*
X88458475Y-116805123D01*
X88459865Y-116806328D01*
X88467548Y-116807999D01*
X90344669Y-116807999D01*
X90351490Y-116807629D01*
X90402352Y-116802105D01*
X90417604Y-116798479D01*
X90538054Y-116753324D01*
X90553649Y-116744786D01*
X90655724Y-116668285D01*
X90668285Y-116655724D01*
X90744786Y-116553649D01*
X90753324Y-116538054D01*
X90798478Y-116417606D01*
X90802105Y-116402351D01*
X90807631Y-116351486D01*
X90808000Y-116344672D01*
X90808000Y-115897115D01*
X90803525Y-115881876D01*
X90802135Y-115880671D01*
X90794452Y-115879000D01*
X88472115Y-115879000D01*
X88456876Y-115883475D01*
X88455671Y-115884865D01*
X88454000Y-115892548D01*
X88454000Y-116789884D01*
X87946000Y-116789884D01*
X87946000Y-115352885D01*
X88454000Y-115352885D01*
X88458475Y-115368124D01*
X88459865Y-115369329D01*
X88467548Y-115371000D01*
X90789884Y-115371000D01*
X90805123Y-115366525D01*
X90806328Y-115365135D01*
X90807999Y-115357452D01*
X90807999Y-114905331D01*
X90807629Y-114898510D01*
X90802105Y-114847648D01*
X90798479Y-114832396D01*
X90753324Y-114711946D01*
X90744786Y-114696351D01*
X90668285Y-114594276D01*
X90655724Y-114581715D01*
X90553649Y-114505214D01*
X90538054Y-114496676D01*
X90417606Y-114451522D01*
X90402351Y-114447895D01*
X90351486Y-114442369D01*
X90344672Y-114442000D01*
X88472115Y-114442000D01*
X88456876Y-114446475D01*
X88455671Y-114447865D01*
X88454000Y-114455548D01*
X88454000Y-115352885D01*
X87946000Y-115352885D01*
X87946000Y-114460116D01*
X87941525Y-114444877D01*
X87940135Y-114443672D01*
X87932452Y-114442001D01*
X86634500Y-114442001D01*
X86566379Y-114421999D01*
X86519886Y-114368343D01*
X86508500Y-114316001D01*
X86508500Y-114069500D01*
X86528502Y-114001379D01*
X86582158Y-113954886D01*
X86634500Y-113943500D01*
X89848134Y-113943500D01*
X89910316Y-113936745D01*
X90046705Y-113885615D01*
X90163261Y-113798261D01*
X90192734Y-113758935D01*
X90249593Y-113716420D01*
X90293560Y-113708500D01*
X91588583Y-113708500D01*
X91608292Y-113710051D01*
X91622190Y-113712252D01*
X91628777Y-113711907D01*
X91628782Y-113711907D01*
X91690480Y-113708673D01*
X91697074Y-113708500D01*
X91717610Y-113708500D01*
X91720882Y-113708156D01*
X91720884Y-113708156D01*
X91738042Y-113706353D01*
X91744616Y-113705836D01*
X91806308Y-113702603D01*
X91806312Y-113702602D01*
X91812903Y-113702257D01*
X91819284Y-113700547D01*
X91819286Y-113700547D01*
X91826491Y-113698617D01*
X91845925Y-113695015D01*
X91853354Y-113694234D01*
X91853363Y-113694232D01*
X91859928Y-113693542D01*
X91924997Y-113672400D01*
X91931299Y-113670533D01*
X91997370Y-113652829D01*
X92009908Y-113646440D01*
X92028174Y-113638875D01*
X92035272Y-113636569D01*
X92035274Y-113636568D01*
X92041556Y-113634527D01*
X92100785Y-113600331D01*
X92106579Y-113597185D01*
X92167530Y-113566129D01*
X92178467Y-113557273D01*
X92194763Y-113546073D01*
X92201224Y-113542343D01*
X92201228Y-113542340D01*
X92206944Y-113539040D01*
X92211850Y-113534623D01*
X92211855Y-113534619D01*
X92257769Y-113493278D01*
X92262784Y-113488994D01*
X92276177Y-113478148D01*
X92278741Y-113476072D01*
X92293256Y-113461557D01*
X92298041Y-113457016D01*
X92343957Y-113415673D01*
X92348866Y-113411253D01*
X92357140Y-113399865D01*
X92369981Y-113384832D01*
X93294832Y-112459981D01*
X93309865Y-112447140D01*
X93315913Y-112442746D01*
X93315914Y-112442745D01*
X93321253Y-112438866D01*
X93367016Y-112388041D01*
X93371557Y-112383256D01*
X93386072Y-112368741D01*
X93398994Y-112352784D01*
X93403278Y-112347769D01*
X93444619Y-112301855D01*
X93444623Y-112301850D01*
X93449040Y-112296944D01*
X93452340Y-112291228D01*
X93452343Y-112291224D01*
X93456073Y-112284763D01*
X93467273Y-112268466D01*
X93471975Y-112262660D01*
X93471976Y-112262658D01*
X93476129Y-112257530D01*
X93507186Y-112196577D01*
X93510333Y-112190782D01*
X93541223Y-112137279D01*
X93541224Y-112137278D01*
X93544527Y-112131556D01*
X93548875Y-112118173D01*
X93556441Y-112099907D01*
X93559832Y-112093252D01*
X93562829Y-112087370D01*
X93580529Y-112021315D01*
X93582402Y-112014991D01*
X93601500Y-111956212D01*
X93603542Y-111949928D01*
X93605012Y-111935939D01*
X93608617Y-111916486D01*
X93610547Y-111909285D01*
X93612257Y-111902904D01*
X93615836Y-111834615D01*
X93616353Y-111828040D01*
X93618156Y-111810882D01*
X93618500Y-111807610D01*
X93618500Y-111787075D01*
X93618673Y-111780481D01*
X93621907Y-111718782D01*
X93621907Y-111718777D01*
X93622252Y-111712190D01*
X93620051Y-111698292D01*
X93618500Y-111678583D01*
X93618500Y-106691416D01*
X93620051Y-106671704D01*
X93621220Y-106664324D01*
X93622252Y-106657809D01*
X93618673Y-106589519D01*
X93618500Y-106582925D01*
X93618500Y-106562390D01*
X93616353Y-106541960D01*
X93615836Y-106535385D01*
X93612603Y-106473696D01*
X93612603Y-106473695D01*
X93612257Y-106467096D01*
X93608616Y-106453508D01*
X93605012Y-106434061D01*
X93604233Y-106426644D01*
X93604232Y-106426640D01*
X93603542Y-106420072D01*
X93582402Y-106355009D01*
X93580529Y-106348685D01*
X93564539Y-106289010D01*
X93564538Y-106289006D01*
X93562829Y-106282630D01*
X93556440Y-106270092D01*
X93548875Y-106251826D01*
X93546569Y-106244728D01*
X93546568Y-106244726D01*
X93544527Y-106238444D01*
X93510331Y-106179215D01*
X93507185Y-106173421D01*
X93476129Y-106112470D01*
X93467273Y-106101533D01*
X93456073Y-106085237D01*
X93452343Y-106078776D01*
X93452340Y-106078772D01*
X93449040Y-106073056D01*
X93444623Y-106068150D01*
X93444619Y-106068145D01*
X93403278Y-106022231D01*
X93398994Y-106017216D01*
X93388148Y-106003823D01*
X93386072Y-106001259D01*
X93371557Y-105986744D01*
X93367016Y-105981959D01*
X93325673Y-105936043D01*
X93321253Y-105931134D01*
X93309865Y-105922860D01*
X93294832Y-105910019D01*
X91503783Y-104118970D01*
X91469757Y-104056658D01*
X91474822Y-103985843D01*
X91517369Y-103929007D01*
X91579272Y-103904612D01*
X91602352Y-103902105D01*
X91617604Y-103898479D01*
X91738054Y-103853324D01*
X91753649Y-103844786D01*
X91855724Y-103768285D01*
X91868283Y-103755726D01*
X91898862Y-103714925D01*
X91955722Y-103672411D01*
X92026540Y-103667386D01*
X92088834Y-103701446D01*
G37*
%TD.AperFunction*%
%TA.AperFunction,Conductor*%
G36*
X93142121Y-83020002D02*
G01*
X93188614Y-83073658D01*
X93200000Y-83126000D01*
X93200000Y-83515500D01*
X93179998Y-83583621D01*
X93126342Y-83630114D01*
X93074000Y-83641500D01*
X92982059Y-83641500D01*
X92970203Y-83640941D01*
X92962463Y-83639211D01*
X92954537Y-83639460D01*
X92954536Y-83639460D01*
X92891611Y-83641438D01*
X92887653Y-83641500D01*
X92858568Y-83641500D01*
X92854637Y-83641997D01*
X92854630Y-83641997D01*
X92854179Y-83642054D01*
X92842343Y-83642986D01*
X92796169Y-83644438D01*
X92775579Y-83650420D01*
X92756218Y-83654430D01*
X92749230Y-83655312D01*
X92742796Y-83656125D01*
X92742795Y-83656125D01*
X92734936Y-83657118D01*
X92727571Y-83660034D01*
X92727567Y-83660035D01*
X92691979Y-83674126D01*
X92680769Y-83677965D01*
X92636400Y-83690855D01*
X92617935Y-83701775D01*
X92600195Y-83710466D01*
X92580244Y-83718365D01*
X92542874Y-83745516D01*
X92532952Y-83752033D01*
X92500023Y-83771507D01*
X92500019Y-83771510D01*
X92493193Y-83775547D01*
X92478029Y-83790711D01*
X92462996Y-83803551D01*
X92445643Y-83816159D01*
X92416198Y-83851752D01*
X92408208Y-83860532D01*
X91414145Y-84854595D01*
X91351833Y-84888621D01*
X91325050Y-84891500D01*
X90451866Y-84891500D01*
X90389684Y-84898255D01*
X90253295Y-84949385D01*
X90136739Y-85036739D01*
X90131358Y-85043919D01*
X90100514Y-85085074D01*
X90043655Y-85127589D01*
X89972836Y-85132615D01*
X89910543Y-85098555D01*
X89898862Y-85085075D01*
X89868283Y-85044274D01*
X89855724Y-85031715D01*
X89753649Y-84955214D01*
X89738054Y-84946676D01*
X89617606Y-84901522D01*
X89602351Y-84897895D01*
X89551486Y-84892369D01*
X89544672Y-84892000D01*
X89272115Y-84892000D01*
X89256876Y-84896475D01*
X89255671Y-84897865D01*
X89254000Y-84905548D01*
X89254000Y-87889884D01*
X89258475Y-87905123D01*
X89259865Y-87906328D01*
X89267548Y-87907999D01*
X89544669Y-87907999D01*
X89551490Y-87907629D01*
X89602352Y-87902105D01*
X89617604Y-87898479D01*
X89738054Y-87853324D01*
X89753649Y-87844786D01*
X89855724Y-87768285D01*
X89868283Y-87755726D01*
X89898862Y-87714925D01*
X89955722Y-87672411D01*
X90026540Y-87667386D01*
X90088834Y-87701446D01*
X90100513Y-87714925D01*
X90136739Y-87763261D01*
X90253295Y-87850615D01*
X90389684Y-87901745D01*
X90451866Y-87908500D01*
X91548134Y-87908500D01*
X91610316Y-87901745D01*
X91746705Y-87850615D01*
X91863261Y-87763261D01*
X91899176Y-87715340D01*
X91956033Y-87672827D01*
X92026851Y-87667801D01*
X92089145Y-87701861D01*
X92100817Y-87715330D01*
X92136739Y-87763261D01*
X92253295Y-87850615D01*
X92389684Y-87901745D01*
X92451866Y-87908500D01*
X93074000Y-87908500D01*
X93142121Y-87928502D01*
X93188614Y-87982158D01*
X93200000Y-88034500D01*
X93200000Y-100765500D01*
X93179998Y-100833621D01*
X93126342Y-100880114D01*
X93074000Y-100891500D01*
X92451866Y-100891500D01*
X92389684Y-100898255D01*
X92253295Y-100949385D01*
X92136739Y-101036739D01*
X92131358Y-101043919D01*
X92100514Y-101085074D01*
X92043655Y-101127589D01*
X91972836Y-101132615D01*
X91910543Y-101098555D01*
X91898862Y-101085075D01*
X91868283Y-101044274D01*
X91855724Y-101031715D01*
X91753649Y-100955214D01*
X91738054Y-100946676D01*
X91617606Y-100901522D01*
X91602351Y-100897895D01*
X91551486Y-100892369D01*
X91544672Y-100892000D01*
X91272115Y-100892000D01*
X91256876Y-100896475D01*
X91255671Y-100897865D01*
X91254000Y-100905548D01*
X91254000Y-102528000D01*
X91233998Y-102596121D01*
X91180342Y-102642614D01*
X91128000Y-102654000D01*
X90872000Y-102654000D01*
X90803879Y-102633998D01*
X90757386Y-102580342D01*
X90746000Y-102528000D01*
X90746000Y-100910116D01*
X90741525Y-100894877D01*
X90740135Y-100893672D01*
X90732452Y-100892001D01*
X90455331Y-100892001D01*
X90448510Y-100892371D01*
X90397648Y-100897895D01*
X90382396Y-100901521D01*
X90261946Y-100946676D01*
X90246351Y-100955214D01*
X90144276Y-101031715D01*
X90131717Y-101044274D01*
X90101138Y-101085075D01*
X90044278Y-101127589D01*
X89973460Y-101132614D01*
X89911166Y-101098554D01*
X89899486Y-101085074D01*
X89868642Y-101043919D01*
X89863261Y-101036739D01*
X89746705Y-100949385D01*
X89610316Y-100898255D01*
X89548134Y-100891500D01*
X88451866Y-100891500D01*
X88389684Y-100898255D01*
X88253295Y-100949385D01*
X88136739Y-101036739D01*
X88049385Y-101153295D01*
X87998255Y-101289684D01*
X87991500Y-101351866D01*
X87991500Y-103448134D01*
X87998255Y-103510316D01*
X88049385Y-103646705D01*
X88136739Y-103763261D01*
X88253295Y-103850615D01*
X88389684Y-103901745D01*
X88451866Y-103908500D01*
X88671497Y-103908500D01*
X88739618Y-103928502D01*
X88760592Y-103945405D01*
X91764595Y-106949408D01*
X91798621Y-107011720D01*
X91801500Y-107038503D01*
X91801500Y-111331497D01*
X91781498Y-111399618D01*
X91764595Y-111420592D01*
X91330592Y-111854595D01*
X91268280Y-111888621D01*
X91241497Y-111891500D01*
X90293560Y-111891500D01*
X90225439Y-111871498D01*
X90192734Y-111841065D01*
X90168642Y-111808919D01*
X90163261Y-111801739D01*
X90046705Y-111714385D01*
X89910316Y-111663255D01*
X89848134Y-111656500D01*
X86634500Y-111656500D01*
X86566379Y-111636498D01*
X86519886Y-111582842D01*
X86508500Y-111530500D01*
X86508500Y-111284000D01*
X86528502Y-111215879D01*
X86582158Y-111169386D01*
X86634500Y-111158000D01*
X87927885Y-111158000D01*
X87943124Y-111153525D01*
X87944329Y-111152135D01*
X87946000Y-111144452D01*
X87946000Y-111139884D01*
X88454000Y-111139884D01*
X88458475Y-111155123D01*
X88459865Y-111156328D01*
X88467548Y-111157999D01*
X90344669Y-111157999D01*
X90351490Y-111157629D01*
X90402352Y-111152105D01*
X90417604Y-111148479D01*
X90538054Y-111103324D01*
X90553649Y-111094786D01*
X90655724Y-111018285D01*
X90668285Y-111005724D01*
X90744786Y-110903649D01*
X90753324Y-110888054D01*
X90798478Y-110767606D01*
X90802105Y-110752351D01*
X90807631Y-110701486D01*
X90808000Y-110694672D01*
X90808000Y-110247115D01*
X90803525Y-110231876D01*
X90802135Y-110230671D01*
X90794452Y-110229000D01*
X88472115Y-110229000D01*
X88456876Y-110233475D01*
X88455671Y-110234865D01*
X88454000Y-110242548D01*
X88454000Y-111139884D01*
X87946000Y-111139884D01*
X87946000Y-109702885D01*
X88454000Y-109702885D01*
X88458475Y-109718124D01*
X88459865Y-109719329D01*
X88467548Y-109721000D01*
X90789884Y-109721000D01*
X90805123Y-109716525D01*
X90806328Y-109715135D01*
X90807999Y-109707452D01*
X90807999Y-109255331D01*
X90807629Y-109248510D01*
X90802105Y-109197648D01*
X90798479Y-109182396D01*
X90753324Y-109061946D01*
X90744786Y-109046351D01*
X90668285Y-108944276D01*
X90655724Y-108931715D01*
X90553649Y-108855214D01*
X90538054Y-108846676D01*
X90417606Y-108801522D01*
X90402351Y-108797895D01*
X90351486Y-108792369D01*
X90344672Y-108792000D01*
X88472115Y-108792000D01*
X88456876Y-108796475D01*
X88455671Y-108797865D01*
X88454000Y-108805548D01*
X88454000Y-109702885D01*
X87946000Y-109702885D01*
X87946000Y-108810116D01*
X87941525Y-108794877D01*
X87940135Y-108793672D01*
X87932452Y-108792001D01*
X86634500Y-108792001D01*
X86566379Y-108771999D01*
X86519886Y-108718343D01*
X86508500Y-108666001D01*
X86508500Y-87444669D01*
X87992001Y-87444669D01*
X87992371Y-87451490D01*
X87997895Y-87502352D01*
X88001521Y-87517604D01*
X88046676Y-87638054D01*
X88055214Y-87653649D01*
X88131715Y-87755724D01*
X88144276Y-87768285D01*
X88246351Y-87844786D01*
X88261946Y-87853324D01*
X88382394Y-87898478D01*
X88397649Y-87902105D01*
X88448514Y-87907631D01*
X88455328Y-87908000D01*
X88727885Y-87908000D01*
X88743124Y-87903525D01*
X88744329Y-87902135D01*
X88746000Y-87894452D01*
X88746000Y-86672115D01*
X88741525Y-86656876D01*
X88740135Y-86655671D01*
X88732452Y-86654000D01*
X88010116Y-86654000D01*
X87994877Y-86658475D01*
X87993672Y-86659865D01*
X87992001Y-86667548D01*
X87992001Y-87444669D01*
X86508500Y-87444669D01*
X86508500Y-86127885D01*
X87992000Y-86127885D01*
X87996475Y-86143124D01*
X87997865Y-86144329D01*
X88005548Y-86146000D01*
X88727885Y-86146000D01*
X88743124Y-86141525D01*
X88744329Y-86140135D01*
X88746000Y-86132452D01*
X88746000Y-84910116D01*
X88741525Y-84894877D01*
X88740135Y-84893672D01*
X88732452Y-84892001D01*
X88455331Y-84892001D01*
X88448510Y-84892371D01*
X88397648Y-84897895D01*
X88382396Y-84901521D01*
X88261946Y-84946676D01*
X88246351Y-84955214D01*
X88144276Y-85031715D01*
X88131715Y-85044276D01*
X88055214Y-85146351D01*
X88046676Y-85161946D01*
X88001522Y-85282394D01*
X87997895Y-85297649D01*
X87992369Y-85348514D01*
X87992000Y-85355328D01*
X87992000Y-86127885D01*
X86508500Y-86127885D01*
X86508500Y-83126000D01*
X86528502Y-83057879D01*
X86582158Y-83011386D01*
X86634500Y-83000000D01*
X93074000Y-83000000D01*
X93142121Y-83020002D01*
G37*
%TD.AperFunction*%
%TD*%
M02*
