%TF.GenerationSoftware,KiCad,Pcbnew,(6.0.6)*%
%TF.CreationDate,2022-08-06T17:38:51+02:00*%
%TF.ProjectId,STM32L053Breakout,53544d33-324c-4303-9533-427265616b6f,rev?*%
%TF.SameCoordinates,Original*%
%TF.FileFunction,Soldermask,Top*%
%TF.FilePolarity,Negative*%
%FSLAX46Y46*%
G04 Gerber Fmt 4.6, Leading zero omitted, Abs format (unit mm)*
G04 Created by KiCad (PCBNEW (6.0.6)) date 2022-08-06 17:38:51*
%MOMM*%
%LPD*%
G01*
G04 APERTURE LIST*
G04 Aperture macros list*
%AMRoundRect*
0 Rectangle with rounded corners*
0 $1 Rounding radius*
0 $2 $3 $4 $5 $6 $7 $8 $9 X,Y pos of 4 corners*
0 Add a 4 corners polygon primitive as box body*
4,1,4,$2,$3,$4,$5,$6,$7,$8,$9,$2,$3,0*
0 Add four circle primitives for the rounded corners*
1,1,$1+$1,$2,$3*
1,1,$1+$1,$4,$5*
1,1,$1+$1,$6,$7*
1,1,$1+$1,$8,$9*
0 Add four rect primitives between the rounded corners*
20,1,$1+$1,$2,$3,$4,$5,0*
20,1,$1+$1,$4,$5,$6,$7,0*
20,1,$1+$1,$6,$7,$8,$9,0*
20,1,$1+$1,$8,$9,$2,$3,0*%
G04 Aperture macros list end*
%ADD10RoundRect,0.140000X-0.140000X-0.170000X0.140000X-0.170000X0.140000X0.170000X-0.140000X0.170000X0*%
%ADD11RoundRect,0.225000X-0.250000X0.225000X-0.250000X-0.225000X0.250000X-0.225000X0.250000X0.225000X0*%
%ADD12R,1.200000X1.400000*%
%ADD13RoundRect,0.225000X0.225000X0.250000X-0.225000X0.250000X-0.225000X-0.250000X0.225000X-0.250000X0*%
%ADD14C,2.000000*%
%ADD15C,1.700000*%
%ADD16R,0.900000X1.700000*%
%ADD17C,2.200000*%
%ADD18R,1.000000X1.500000*%
%ADD19RoundRect,0.140000X-0.170000X0.140000X-0.170000X-0.140000X0.170000X-0.140000X0.170000X0.140000X0*%
%ADD20RoundRect,0.218750X0.256250X-0.218750X0.256250X0.218750X-0.256250X0.218750X-0.256250X-0.218750X0*%
%ADD21RoundRect,0.200000X0.200000X0.275000X-0.200000X0.275000X-0.200000X-0.275000X0.200000X-0.275000X0*%
%ADD22RoundRect,0.140000X0.140000X0.170000X-0.140000X0.170000X-0.140000X-0.170000X0.140000X-0.170000X0*%
%ADD23R,0.350000X0.375000*%
%ADD24R,0.375000X0.350000*%
%ADD25RoundRect,0.225000X-0.225000X-0.250000X0.225000X-0.250000X0.225000X0.250000X-0.225000X0.250000X0*%
%ADD26RoundRect,0.200000X-0.200000X-0.275000X0.200000X-0.275000X0.200000X0.275000X-0.200000X0.275000X0*%
%ADD27R,2.500000X1.000000*%
%ADD28RoundRect,0.200000X-0.275000X0.200000X-0.275000X-0.200000X0.275000X-0.200000X0.275000X0.200000X0*%
%ADD29RoundRect,0.225000X0.250000X-0.225000X0.250000X0.225000X-0.250000X0.225000X-0.250000X-0.225000X0*%
%ADD30R,3.600000X1.270000*%
%ADD31R,4.200000X1.350000*%
%ADD32RoundRect,0.218750X-0.256250X0.218750X-0.256250X-0.218750X0.256250X-0.218750X0.256250X0.218750X0*%
%ADD33RoundRect,0.218750X-0.218750X-0.256250X0.218750X-0.256250X0.218750X0.256250X-0.218750X0.256250X0*%
%ADD34R,1.350000X0.400000*%
%ADD35O,1.550000X0.890000*%
%ADD36R,1.550000X1.200000*%
%ADD37O,0.950000X1.250000*%
%ADD38R,1.550000X1.500000*%
%ADD39R,1.500000X2.000000*%
%ADD40R,3.800000X2.000000*%
%ADD41RoundRect,0.140000X0.170000X-0.140000X0.170000X0.140000X-0.170000X0.140000X-0.170000X-0.140000X0*%
%ADD42RoundRect,0.075000X-0.075000X0.700000X-0.075000X-0.700000X0.075000X-0.700000X0.075000X0.700000X0*%
%ADD43RoundRect,0.075000X-0.700000X0.075000X-0.700000X-0.075000X0.700000X-0.075000X0.700000X0.075000X0*%
%ADD44R,1.700000X1.700000*%
%ADD45O,1.700000X1.700000*%
%ADD46R,1.000000X2.000000*%
%ADD47R,1.500000X1.000000*%
%ADD48R,1.000000X1.000000*%
%ADD49O,1.000000X1.000000*%
G04 APERTURE END LIST*
D10*
%TO.C,C701*%
X133320000Y-81800000D03*
X134280000Y-81800000D03*
%TD*%
D11*
%TO.C,C100*%
X146400000Y-104425000D03*
X146400000Y-105975000D03*
%TD*%
D12*
%TO.C,Y500*%
X120650000Y-81700000D03*
X120650000Y-79500000D03*
X118950000Y-79500000D03*
X118950000Y-81700000D03*
%TD*%
D13*
%TO.C,C101*%
X149575000Y-115000000D03*
X148025000Y-115000000D03*
%TD*%
D14*
%TO.C,SW501*%
X88400000Y-133550000D03*
X100400000Y-133550000D03*
X100400000Y-127550000D03*
X88400000Y-127550000D03*
D15*
X90400000Y-129300000D03*
X94400000Y-129300000D03*
X98400000Y-129300000D03*
%TD*%
D16*
%TO.C,SW400*%
X148300000Y-90800000D03*
X151700000Y-90800000D03*
%TD*%
D17*
%TO.C,H4*%
X140200000Y-80800000D03*
%TD*%
D18*
%TO.C,JP401*%
X110900000Y-112200000D03*
X109600000Y-112200000D03*
%TD*%
D19*
%TO.C,C201*%
X124000000Y-100120000D03*
X124000000Y-101080000D03*
%TD*%
D20*
%TO.C,D100*%
X153800000Y-116587500D03*
X153800000Y-115012500D03*
%TD*%
D16*
%TO.C,SW401*%
X148300000Y-84400000D03*
X151700000Y-84400000D03*
%TD*%
D21*
%TO.C,R402*%
X104575000Y-116200000D03*
X102925000Y-116200000D03*
%TD*%
D22*
%TO.C,C402*%
X146880000Y-78800000D03*
X145920000Y-78800000D03*
%TD*%
D23*
%TO.C,U700*%
X132650000Y-84762500D03*
X133150000Y-84762500D03*
X133650000Y-84762500D03*
X134150000Y-84762500D03*
D24*
X134162500Y-84250000D03*
X134162500Y-83750000D03*
D23*
X134150000Y-83237500D03*
X133650000Y-83237500D03*
X133150000Y-83237500D03*
X132650000Y-83237500D03*
D24*
X132637500Y-83750000D03*
X132637500Y-84250000D03*
%TD*%
D25*
%TO.C,C700*%
X130225000Y-81000000D03*
X131775000Y-81000000D03*
%TD*%
D10*
%TO.C,C702*%
X133320000Y-80600000D03*
X134280000Y-80600000D03*
%TD*%
D21*
%TO.C,R401*%
X104475000Y-112200000D03*
X102825000Y-112200000D03*
%TD*%
D26*
%TO.C,R500*%
X96575000Y-125400000D03*
X98225000Y-125400000D03*
%TD*%
D18*
%TO.C,JP800*%
X118850000Y-117800000D03*
X117550000Y-117800000D03*
%TD*%
D27*
%TO.C,U800*%
X124330000Y-110990000D03*
X124330000Y-113530000D03*
X124330000Y-116070000D03*
X124330000Y-118610000D03*
X124330000Y-121150000D03*
X124330000Y-123690000D03*
X139830000Y-123690000D03*
X139830000Y-121150000D03*
X139830000Y-118610000D03*
X139830000Y-116070000D03*
X139830000Y-113530000D03*
X139830000Y-110990000D03*
%TD*%
D28*
%TO.C,R100*%
X153800000Y-118175000D03*
X153800000Y-119825000D03*
%TD*%
D29*
%TO.C,C206*%
X110800000Y-84775000D03*
X110800000Y-83225000D03*
%TD*%
D21*
%TO.C,R400*%
X104425000Y-108200000D03*
X102775000Y-108200000D03*
%TD*%
D29*
%TO.C,C205*%
X114000000Y-83175000D03*
X114000000Y-81625000D03*
%TD*%
D22*
%TO.C,C501*%
X120280000Y-83200000D03*
X119320000Y-83200000D03*
%TD*%
%TO.C,C400*%
X146880000Y-91400000D03*
X145920000Y-91400000D03*
%TD*%
D30*
%TO.C,J600*%
X88000000Y-112800000D03*
D31*
X88200000Y-115625000D03*
X88200000Y-109975000D03*
%TD*%
D32*
%TO.C,FB200*%
X112400000Y-83212500D03*
X112400000Y-84787500D03*
%TD*%
D18*
%TO.C,JP700*%
X128750000Y-83200000D03*
X130050000Y-83200000D03*
%TD*%
D33*
%TO.C,D402*%
X106150000Y-116200000D03*
X107725000Y-116200000D03*
%TD*%
D26*
%TO.C,R404*%
X144975000Y-90000000D03*
X146625000Y-90000000D03*
%TD*%
D33*
%TO.C,D400*%
X106012500Y-108200000D03*
X107587500Y-108200000D03*
%TD*%
D21*
%TO.C,R403*%
X104425000Y-120200000D03*
X102775000Y-120200000D03*
%TD*%
D22*
%TO.C,C204*%
X113280000Y-99000000D03*
X112320000Y-99000000D03*
%TD*%
D16*
%TO.C,SW402*%
X148300000Y-78000000D03*
X151700000Y-78000000D03*
%TD*%
D34*
%TO.C,J100*%
X151000000Y-101360000D03*
X151000000Y-100710000D03*
X151000000Y-100060000D03*
X151000000Y-99410000D03*
X151000000Y-98760000D03*
D35*
X153700000Y-103560000D03*
D36*
X153700000Y-102960000D03*
X153700000Y-97160000D03*
D37*
X151000000Y-102560000D03*
D35*
X153700000Y-96560000D03*
D38*
X153700000Y-99060000D03*
X153700000Y-101060000D03*
D37*
X151000000Y-97560000D03*
%TD*%
D39*
%TO.C,U100*%
X153300000Y-106450000D03*
X151000000Y-106450000D03*
D40*
X151000000Y-112750000D03*
D39*
X148700000Y-106450000D03*
%TD*%
D41*
%TO.C,C203*%
X111200000Y-91280000D03*
X111200000Y-90320000D03*
%TD*%
D32*
%TO.C,FB100*%
X148800000Y-102212500D03*
X148800000Y-103787500D03*
%TD*%
D42*
%TO.C,U500*%
X122950000Y-88525000D03*
X122450000Y-88525000D03*
X121950000Y-88525000D03*
X121450000Y-88525000D03*
X120950000Y-88525000D03*
X120450000Y-88525000D03*
X119950000Y-88525000D03*
X119450000Y-88525000D03*
X118950000Y-88525000D03*
X118450000Y-88525000D03*
X117950000Y-88525000D03*
X117450000Y-88525000D03*
X116950000Y-88525000D03*
X116450000Y-88525000D03*
X115950000Y-88525000D03*
X115450000Y-88525000D03*
D43*
X113525000Y-90450000D03*
X113525000Y-90950000D03*
X113525000Y-91450000D03*
X113525000Y-91950000D03*
X113525000Y-92450000D03*
X113525000Y-92950000D03*
X113525000Y-93450000D03*
X113525000Y-93950000D03*
X113525000Y-94450000D03*
X113525000Y-94950000D03*
X113525000Y-95450000D03*
X113525000Y-95950000D03*
X113525000Y-96450000D03*
X113525000Y-96950000D03*
X113525000Y-97450000D03*
X113525000Y-97950000D03*
D42*
X115450000Y-99875000D03*
X115950000Y-99875000D03*
X116450000Y-99875000D03*
X116950000Y-99875000D03*
X117450000Y-99875000D03*
X117950000Y-99875000D03*
X118450000Y-99875000D03*
X118950000Y-99875000D03*
X119450000Y-99875000D03*
X119950000Y-99875000D03*
X120450000Y-99875000D03*
X120950000Y-99875000D03*
X121450000Y-99875000D03*
X121950000Y-99875000D03*
X122450000Y-99875000D03*
X122950000Y-99875000D03*
D43*
X124875000Y-97950000D03*
X124875000Y-97450000D03*
X124875000Y-96950000D03*
X124875000Y-96450000D03*
X124875000Y-95950000D03*
X124875000Y-95450000D03*
X124875000Y-94950000D03*
X124875000Y-94450000D03*
X124875000Y-93950000D03*
X124875000Y-93450000D03*
X124875000Y-92950000D03*
X124875000Y-92450000D03*
X124875000Y-91950000D03*
X124875000Y-91450000D03*
X124875000Y-90950000D03*
X124875000Y-90450000D03*
%TD*%
D10*
%TO.C,C500*%
X134120000Y-103400000D03*
X135080000Y-103400000D03*
%TD*%
D26*
%TO.C,R405*%
X144975000Y-83400000D03*
X146625000Y-83400000D03*
%TD*%
D18*
%TO.C,JP400*%
X110850000Y-108200000D03*
X109550000Y-108200000D03*
%TD*%
%TO.C,JP402*%
X111000000Y-116200000D03*
X109700000Y-116200000D03*
%TD*%
D33*
%TO.C,D403*%
X106012500Y-120200000D03*
X107587500Y-120200000D03*
%TD*%
D16*
%TO.C,SW500*%
X134300000Y-101200000D03*
X137700000Y-101200000D03*
%TD*%
D29*
%TO.C,C800*%
X120800000Y-117775000D03*
X120800000Y-116225000D03*
%TD*%
D44*
%TO.C,J301*%
X149860000Y-71120000D03*
D45*
X147320000Y-71120000D03*
X144780000Y-71120000D03*
X142240000Y-71120000D03*
X139700000Y-71120000D03*
X137160000Y-71120000D03*
X134620000Y-71120000D03*
X132080000Y-71120000D03*
X129540000Y-71120000D03*
X127000000Y-71120000D03*
X124460000Y-71120000D03*
X121920000Y-71120000D03*
X119380000Y-71120000D03*
X116840000Y-71120000D03*
X114300000Y-71120000D03*
X111760000Y-71120000D03*
X109220000Y-71120000D03*
X106680000Y-71120000D03*
X104140000Y-71120000D03*
X101600000Y-71120000D03*
%TD*%
D26*
%TO.C,R406*%
X145175000Y-77400000D03*
X146825000Y-77400000D03*
%TD*%
D22*
%TO.C,C401*%
X146880000Y-84800000D03*
X145920000Y-84800000D03*
%TD*%
D46*
%TO.C,U600*%
X103000000Y-86400000D03*
X101000000Y-86400000D03*
X99000000Y-86400000D03*
X97000000Y-86400000D03*
X95000000Y-86400000D03*
X93000000Y-86400000D03*
X91000000Y-86400000D03*
X89000000Y-86400000D03*
X89000000Y-102400000D03*
X91000000Y-102400000D03*
X93000000Y-102400000D03*
X95000000Y-102400000D03*
X97000000Y-102400000D03*
X99000000Y-102400000D03*
X101000000Y-102400000D03*
X103000000Y-102400000D03*
%TD*%
D25*
%TO.C,C200*%
X125425000Y-88000000D03*
X126975000Y-88000000D03*
%TD*%
D44*
%TO.C,J300*%
X104140000Y-132080000D03*
D45*
X106680000Y-132080000D03*
X109220000Y-132080000D03*
X111760000Y-132080000D03*
X114300000Y-132080000D03*
X116840000Y-132080000D03*
X119380000Y-132080000D03*
X121920000Y-132080000D03*
X124460000Y-132080000D03*
X127000000Y-132080000D03*
X129540000Y-132080000D03*
X132080000Y-132080000D03*
X134620000Y-132080000D03*
X137160000Y-132080000D03*
X139700000Y-132080000D03*
X142240000Y-132080000D03*
X144780000Y-132080000D03*
X147320000Y-132080000D03*
X149860000Y-132080000D03*
X152400000Y-132080000D03*
%TD*%
D17*
%TO.C,H3*%
X145500000Y-121600000D03*
%TD*%
D33*
%TO.C,D401*%
X106062500Y-112200000D03*
X107637500Y-112200000D03*
%TD*%
D47*
%TO.C,JP600*%
X97000000Y-106850000D03*
X97000000Y-105550000D03*
%TD*%
D48*
%TO.C,J5*%
X139700000Y-96520000D03*
D49*
X139700000Y-97790000D03*
X138430000Y-96520000D03*
X138430000Y-97790000D03*
X137160000Y-96520000D03*
X137160000Y-97790000D03*
X135890000Y-96520000D03*
X135890000Y-97790000D03*
X134620000Y-96520000D03*
X134620000Y-97790000D03*
%TD*%
D41*
%TO.C,C207*%
X109400000Y-85080000D03*
X109400000Y-84120000D03*
%TD*%
D17*
%TO.C,H1*%
X89600000Y-71500000D03*
%TD*%
%TO.C,H2*%
X89600000Y-121600000D03*
%TD*%
D41*
%TO.C,C801*%
X122200000Y-117960000D03*
X122200000Y-117000000D03*
%TD*%
D10*
%TO.C,C502*%
X118720000Y-77800000D03*
X119680000Y-77800000D03*
%TD*%
D18*
%TO.C,JP403*%
X110900000Y-120200000D03*
X109600000Y-120200000D03*
%TD*%
D10*
%TO.C,C202*%
X125000000Y-89400000D03*
X125960000Y-89400000D03*
%TD*%
M02*
