%TF.GenerationSoftware,KiCad,Pcbnew,(6.0.6)*%
%TF.CreationDate,2022-07-05T16:05:39+02:00*%
%TF.ProjectId,kicad_rfm95_breakout_board_V4,6b696361-645f-4726-966d-39355f627265,rev?*%
%TF.SameCoordinates,Original*%
%TF.FileFunction,Copper,L2,Bot*%
%TF.FilePolarity,Positive*%
%FSLAX46Y46*%
G04 Gerber Fmt 4.6, Leading zero omitted, Abs format (unit mm)*
G04 Created by KiCad (PCBNEW (6.0.6)) date 2022-07-05 16:05:39*
%MOMM*%
%LPD*%
G01*
G04 APERTURE LIST*
%TA.AperFunction,ComponentPad*%
%ADD10R,1.700000X1.700000*%
%TD*%
%TA.AperFunction,ComponentPad*%
%ADD11O,1.700000X1.700000*%
%TD*%
%TA.AperFunction,ComponentPad*%
%ADD12O,1.550000X0.890000*%
%TD*%
%TA.AperFunction,ComponentPad*%
%ADD13O,0.950000X1.250000*%
%TD*%
%TA.AperFunction,SMDPad,CuDef*%
%ADD14R,4.200000X1.350000*%
%TD*%
%TA.AperFunction,ComponentPad*%
%ADD15R,1.000000X1.000000*%
%TD*%
%TA.AperFunction,ComponentPad*%
%ADD16O,1.000000X1.000000*%
%TD*%
%TA.AperFunction,ViaPad*%
%ADD17C,0.800000*%
%TD*%
%TA.AperFunction,Conductor*%
%ADD18C,0.250000*%
%TD*%
%TA.AperFunction,Conductor*%
%ADD19C,0.750000*%
%TD*%
G04 APERTURE END LIST*
D10*
%TO.P,J3,1,Pin_1*%
%TO.N,GND*%
X86360000Y-129540000D03*
D11*
%TO.P,J3,2,Pin_2*%
%TO.N,PB12*%
X88900000Y-129540000D03*
%TO.P,J3,3,Pin_3*%
%TO.N,PB13*%
X91440000Y-129540000D03*
%TO.P,J3,4,Pin_4*%
%TO.N,PB14*%
X93980000Y-129540000D03*
%TO.P,J3,5,Pin_5*%
%TO.N,PB15*%
X96520000Y-129540000D03*
%TO.P,J3,6,Pin_6*%
%TO.N,PC6*%
X99060000Y-129540000D03*
%TO.P,J3,7,Pin_7*%
%TO.N,PC7*%
X101600000Y-129540000D03*
%TO.P,J3,8,Pin_8*%
%TO.N,PC8*%
X104140000Y-129540000D03*
%TO.P,J3,9,Pin_9*%
%TO.N,PC9*%
X106680000Y-129540000D03*
%TO.P,J3,10,Pin_10*%
%TO.N,PA8*%
X109220000Y-129540000D03*
%TO.P,J3,11,Pin_11*%
%TO.N,GND*%
X111760000Y-129540000D03*
%TO.P,J3,12,Pin_12*%
%TO.N,PA10*%
X114300000Y-129540000D03*
%TO.P,J3,13,Pin_13*%
%TO.N,PA15*%
X116840000Y-129540000D03*
%TO.P,J3,14,Pin_14*%
%TO.N,PC10*%
X119380000Y-129540000D03*
%TO.P,J3,15,Pin_15*%
%TO.N,PC11*%
X121920000Y-129540000D03*
%TO.P,J3,16,Pin_16*%
%TO.N,PC12*%
X124460000Y-129540000D03*
%TO.P,J3,17,Pin_17*%
%TO.N,PD2*%
X127000000Y-129540000D03*
%TO.P,J3,18,Pin_18*%
%TO.N,PB3*%
X129540000Y-129540000D03*
%TO.P,J3,19,Pin_19*%
%TO.N,GND*%
X132080000Y-129540000D03*
%TO.P,J3,20,Pin_20*%
%TO.N,VCC*%
X134620000Y-129540000D03*
%TD*%
D12*
%TO.P,J1,6,Shield*%
%TO.N,unconnected-(J1-Pad6)*%
X143540000Y-100640000D03*
X143540000Y-107640000D03*
D13*
X140840000Y-106640000D03*
X140840000Y-101640000D03*
%TD*%
D10*
%TO.P,J5,1,Pin_1*%
%TO.N,+3.3V*%
X142240000Y-93980000D03*
D11*
%TO.P,J5,2,Pin_2*%
%TO.N,Net-(J5-Pad2)*%
X139700000Y-93980000D03*
%TD*%
D14*
%TO.P,J2,2,Ext*%
%TO.N,GND*%
X86200000Y-101925000D03*
X86200000Y-96275000D03*
%TD*%
D10*
%TO.P,J4,1,Pin_1*%
%TO.N,+3.3V*%
X134620000Y-68580000D03*
D11*
%TO.P,J4,2,Pin_2*%
%TO.N,GND*%
X132080000Y-68580000D03*
%TO.P,J4,3,Pin_3*%
%TO.N,PB4*%
X129540000Y-68580000D03*
%TO.P,J4,4,Pin_4*%
%TO.N,PB5*%
X127000000Y-68580000D03*
%TO.P,J4,5,Pin_5*%
%TO.N,PB6*%
X124460000Y-68580000D03*
%TO.P,J4,6,Pin_6*%
%TO.N,PB7*%
X121920000Y-68580000D03*
%TO.P,J4,7,Pin_7*%
%TO.N,PB8*%
X119380000Y-68580000D03*
%TO.P,J4,8,Pin_8*%
%TO.N,PB9*%
X116840000Y-68580000D03*
%TO.P,J4,9,Pin_9*%
%TO.N,VLCD*%
X114300000Y-68580000D03*
%TO.P,J4,10,Pin_10*%
%TO.N,PC13*%
X111760000Y-68580000D03*
%TO.P,J4,11,Pin_11*%
%TO.N,PC14*%
X109220000Y-68580000D03*
%TO.P,J4,12,Pin_12*%
%TO.N,PC15*%
X106680000Y-68580000D03*
%TO.P,J4,13,Pin_13*%
%TO.N,PC0*%
X104140000Y-68580000D03*
%TO.P,J4,14,Pin_14*%
%TO.N,PC1*%
X101600000Y-68580000D03*
%TO.P,J4,15,Pin_15*%
%TO.N,PC2*%
X99060000Y-68580000D03*
%TO.P,J4,16,Pin_16*%
%TO.N,PC3*%
X96520000Y-68580000D03*
%TO.P,J4,17,Pin_17*%
%TO.N,PA0*%
X93980000Y-68580000D03*
%TO.P,J4,18,Pin_18*%
%TO.N,PA1*%
X91440000Y-68580000D03*
%TO.P,J4,19,Pin_19*%
%TO.N,PA2*%
X88900000Y-68580000D03*
%TO.P,J4,20,Pin_20*%
%TO.N,PA3*%
X86360000Y-68580000D03*
%TD*%
D15*
%TO.P,J6,1,Pin_1*%
%TO.N,+3.3V*%
X113075000Y-108150000D03*
D16*
%TO.P,J6,2,Pin_2*%
%TO.N,SWDIO*%
X114345000Y-108150000D03*
%TO.P,J6,3,Pin_3*%
%TO.N,GND*%
X113075000Y-109420000D03*
%TO.P,J6,4,Pin_4*%
%TO.N,SWCLK*%
X114345000Y-109420000D03*
%TO.P,J6,5,Pin_5*%
%TO.N,GND*%
X113075000Y-110690000D03*
%TO.P,J6,6,Pin_6*%
%TO.N,unconnected-(J6-Pad6)*%
X114345000Y-110690000D03*
%TO.P,J6,7,Pin_7*%
%TO.N,unconnected-(J6-Pad7)*%
X113075000Y-111960000D03*
%TO.P,J6,8,Pin_8*%
%TO.N,unconnected-(J6-Pad8)*%
X114345000Y-111960000D03*
%TO.P,J6,9,Pin_9*%
%TO.N,GND*%
X113075000Y-113230000D03*
%TO.P,J6,10,Pin_10*%
%TO.N,RESET*%
X114345000Y-113230000D03*
%TD*%
D17*
%TO.N,+3.3V*%
X110023000Y-103077000D03*
X110880400Y-90713100D03*
X102500000Y-99800000D03*
X126900000Y-81900000D03*
X132000000Y-76800000D03*
X112801400Y-88607400D03*
%TO.N,GND*%
X135625000Y-81726700D03*
X112315100Y-92459200D03*
X123200000Y-82850400D03*
X87800000Y-91191400D03*
X117630000Y-91923800D03*
X114615400Y-84570800D03*
X110300000Y-114423200D03*
X85400000Y-94600000D03*
X140300000Y-116446800D03*
X95475000Y-115682000D03*
X111725000Y-102343700D03*
X109325000Y-91588000D03*
X142100000Y-76481400D03*
X135702300Y-109350000D03*
X85800000Y-75191800D03*
X95375000Y-107586200D03*
X111940800Y-117770200D03*
X142250000Y-92296500D03*
X117700000Y-83348900D03*
X142100000Y-83443100D03*
X99800000Y-78400600D03*
X143189500Y-79719800D03*
X120219300Y-114506600D03*
X124400000Y-104829100D03*
X139519200Y-102911000D03*
X136900000Y-111342300D03*
X122901700Y-103333800D03*
X89300000Y-101900000D03*
X135525000Y-87377100D03*
X135625000Y-76007100D03*
X126975000Y-88512900D03*
X109400000Y-119900000D03*
X143087900Y-110641400D03*
%TO.N,PC9*%
X108100000Y-124800000D03*
X118421600Y-97407900D03*
X135633800Y-88588400D03*
%TO.N,PC8*%
X116920800Y-99328600D03*
X108800000Y-121900000D03*
X136263400Y-83175400D03*
%TO.N,PC7*%
X118900000Y-104000000D03*
X130800000Y-104000000D03*
%TO.N,RESET*%
X116938800Y-94676500D03*
%TO.N,USB_D-*%
X134313600Y-101660000D03*
X121428700Y-103306100D03*
%TO.N,USB_D+*%
X121680200Y-97669600D03*
X135553800Y-99045800D03*
%TO.N,PB15*%
X104406500Y-110475400D03*
%TO.N,PA8*%
X119218000Y-99174000D03*
X110700000Y-124000000D03*
%TO.N,PA10*%
X120602700Y-100030100D03*
X117713700Y-113005800D03*
%TO.N,Net-(J5-Pad2)*%
X123673400Y-94412800D03*
%TD*%
D18*
%TO.N,+3.3V*%
X110880400Y-90528400D02*
X110880400Y-90713100D01*
D19*
X112808800Y-88600000D02*
X112801400Y-88607400D01*
X132000000Y-76800000D02*
X126900000Y-81900000D01*
X110880400Y-90713100D02*
X110880400Y-91411459D01*
X110880400Y-91411459D02*
X102500000Y-99791859D01*
D18*
X110880400Y-106780700D02*
X112249700Y-108150000D01*
X110023000Y-103077000D02*
X110880400Y-103934400D01*
X113075000Y-108150000D02*
X112249700Y-108150000D01*
D19*
X112801400Y-88792100D02*
X110880400Y-90713100D01*
X102500000Y-99791859D02*
X102500000Y-99800000D01*
X120200000Y-88600000D02*
X112808800Y-88600000D01*
X112801400Y-88607400D02*
X112801400Y-88792100D01*
X126900000Y-81900000D02*
X120200000Y-88600000D01*
D18*
X110880400Y-103934400D02*
X110880400Y-106780700D01*
%TO.N,PC9*%
X123657100Y-93687500D02*
X123362500Y-93687500D01*
X135633800Y-88588400D02*
X131587500Y-92634700D01*
X119060000Y-97990000D02*
X119964800Y-98894900D01*
X116933200Y-122966800D02*
X115100000Y-124800000D01*
X118421600Y-97407900D02*
X118477800Y-97407900D01*
X115100000Y-124800000D02*
X108100000Y-124800000D01*
X119964800Y-98894900D02*
X119964800Y-99518900D01*
X123362500Y-93687500D02*
X119060000Y-97990000D01*
X131587500Y-92634700D02*
X124709900Y-92634700D01*
X119964800Y-99518900D02*
X116933200Y-102550500D01*
X116933200Y-102550500D02*
X116933200Y-122966800D01*
X118477800Y-97407900D02*
X119060000Y-97990000D01*
X124709900Y-92634700D02*
X123657100Y-93687500D01*
%TO.N,PC8*%
X115830600Y-100418800D02*
X116920800Y-99328600D01*
X113986100Y-121900000D02*
X109400000Y-121900000D01*
X131257500Y-83175400D02*
X136263400Y-83175400D01*
X109400000Y-121900000D02*
X108800000Y-121900000D01*
X116920800Y-99328600D02*
X116920800Y-97512100D01*
X115830600Y-120055500D02*
X115830600Y-100418800D01*
X115830600Y-120055500D02*
X113986100Y-121900000D01*
X116920800Y-97512100D02*
X131257500Y-83175400D01*
%TO.N,PC7*%
X118958800Y-104058800D02*
X130741200Y-104058800D01*
X130741200Y-104058800D02*
X130800000Y-104000000D01*
X118900000Y-104000000D02*
X118958800Y-104058800D01*
%TO.N,RESET*%
X115185500Y-96429800D02*
X116938800Y-94676500D01*
X114345000Y-113230000D02*
X115185500Y-112389500D01*
X115185500Y-112389500D02*
X115185500Y-96429800D01*
%TO.N,USB_D-*%
X123074800Y-101660000D02*
X121428700Y-103306100D01*
X134313600Y-101660000D02*
X123074800Y-101660000D01*
%TO.N,USB_D+*%
X135553800Y-99045800D02*
X135553800Y-98966700D01*
X135553800Y-98966700D02*
X134256700Y-97669600D01*
X134256700Y-97669600D02*
X121680200Y-97669600D01*
%TO.N,PB15*%
X96520000Y-118361900D02*
X104406500Y-110475400D01*
X96520000Y-129540000D02*
X96520000Y-118361900D01*
%TO.N,PA8*%
X119218000Y-99174000D02*
X116281000Y-102111000D01*
X116281000Y-102111000D02*
X116281000Y-122405500D01*
X115586500Y-123100000D02*
X111600000Y-123100000D01*
X116281000Y-122405500D02*
X115586500Y-123100000D01*
X111600000Y-123100000D02*
X110700000Y-124000000D01*
%TO.N,PA10*%
X117713700Y-102919100D02*
X117713700Y-113005800D01*
X120602700Y-100030100D02*
X117713700Y-102919100D01*
%TO.N,Net-(J5-Pad2)*%
X139700000Y-93980000D02*
X138524700Y-93980000D01*
X138524700Y-93980000D02*
X138091900Y-94412800D01*
X138091900Y-94412800D02*
X123673400Y-94412800D01*
%TD*%
%TA.AperFunction,Conductor*%
%TO.N,GND*%
G36*
X143970056Y-66802899D02*
G01*
X143993724Y-66806584D01*
X144002626Y-66805420D01*
X144002750Y-66805404D01*
X144033192Y-66805133D01*
X144063031Y-66808495D01*
X144095266Y-66812127D01*
X144122768Y-66818404D01*
X144199861Y-66845380D01*
X144225277Y-66857620D01*
X144294429Y-66901071D01*
X144316488Y-66918663D01*
X144374233Y-66976408D01*
X144391825Y-66998467D01*
X144435278Y-67067622D01*
X144447520Y-67093042D01*
X144474493Y-67170125D01*
X144480772Y-67197632D01*
X144487022Y-67253097D01*
X144486723Y-67268764D01*
X144487800Y-67268777D01*
X144487691Y-67277746D01*
X144486309Y-67286621D01*
X144488188Y-67300986D01*
X144490436Y-67318180D01*
X144491500Y-67334518D01*
X144491500Y-99678170D01*
X144471498Y-99746291D01*
X144417842Y-99792784D01*
X144347568Y-99802888D01*
X144315460Y-99793807D01*
X144165656Y-99728981D01*
X144165649Y-99728979D01*
X144159796Y-99726446D01*
X144047889Y-99703067D01*
X143974927Y-99687824D01*
X143974923Y-99687824D01*
X143970182Y-99686833D01*
X143963828Y-99686500D01*
X143161592Y-99686500D01*
X143115839Y-99691147D01*
X143023632Y-99700513D01*
X143023630Y-99700513D01*
X143017284Y-99701158D01*
X142832439Y-99759085D01*
X142663018Y-99852997D01*
X142658170Y-99857153D01*
X142658169Y-99857153D01*
X142544826Y-99954300D01*
X142515941Y-99979057D01*
X142397216Y-100132116D01*
X142311693Y-100305923D01*
X142310086Y-100312093D01*
X142310084Y-100312098D01*
X142265633Y-100482749D01*
X142262865Y-100493376D01*
X142260700Y-100534689D01*
X142253600Y-100670166D01*
X142252727Y-100686818D01*
X142281693Y-100878349D01*
X142348581Y-101060142D01*
X142351939Y-101065558D01*
X142351941Y-101065562D01*
X142447293Y-101219350D01*
X142447296Y-101219354D01*
X142450656Y-101224773D01*
X142583751Y-101365517D01*
X142742427Y-101476623D01*
X142920204Y-101553554D01*
X142926452Y-101554859D01*
X142926451Y-101554859D01*
X143105073Y-101592176D01*
X143105077Y-101592176D01*
X143109818Y-101593167D01*
X143116172Y-101593500D01*
X143918408Y-101593500D01*
X143964161Y-101588853D01*
X144056368Y-101579487D01*
X144056370Y-101579487D01*
X144062716Y-101578842D01*
X144247561Y-101520915D01*
X144304413Y-101489401D01*
X144373691Y-101473870D01*
X144440367Y-101498258D01*
X144483274Y-101554822D01*
X144491500Y-101599603D01*
X144491500Y-106678170D01*
X144471498Y-106746291D01*
X144417842Y-106792784D01*
X144347568Y-106802888D01*
X144315460Y-106793807D01*
X144165656Y-106728981D01*
X144165649Y-106728979D01*
X144159796Y-106726446D01*
X144113700Y-106716816D01*
X143974927Y-106687824D01*
X143974923Y-106687824D01*
X143970182Y-106686833D01*
X143963828Y-106686500D01*
X143161592Y-106686500D01*
X143115839Y-106691147D01*
X143023632Y-106700513D01*
X143023630Y-106700513D01*
X143017284Y-106701158D01*
X142832439Y-106759085D01*
X142663018Y-106852997D01*
X142658170Y-106857153D01*
X142658169Y-106857153D01*
X142562097Y-106939497D01*
X142515941Y-106979057D01*
X142485950Y-107017721D01*
X142426213Y-107094734D01*
X142397216Y-107132116D01*
X142311693Y-107305923D01*
X142310086Y-107312093D01*
X142310084Y-107312098D01*
X142276681Y-107440335D01*
X142262865Y-107493376D01*
X142262531Y-107499756D01*
X142253162Y-107678523D01*
X142252727Y-107686818D01*
X142281693Y-107878349D01*
X142348581Y-108060142D01*
X142351939Y-108065558D01*
X142351941Y-108065562D01*
X142447293Y-108219350D01*
X142447296Y-108219354D01*
X142450656Y-108224773D01*
X142583751Y-108365517D01*
X142742427Y-108476623D01*
X142920204Y-108553554D01*
X142926452Y-108554859D01*
X142926451Y-108554859D01*
X143105073Y-108592176D01*
X143105077Y-108592176D01*
X143109818Y-108593167D01*
X143116172Y-108593500D01*
X143918408Y-108593500D01*
X143964161Y-108588853D01*
X144056368Y-108579487D01*
X144056370Y-108579487D01*
X144062716Y-108578842D01*
X144247561Y-108520915D01*
X144304413Y-108489401D01*
X144373691Y-108473870D01*
X144440367Y-108498258D01*
X144483274Y-108554822D01*
X144491500Y-108599603D01*
X144491500Y-130743530D01*
X144490000Y-130762915D01*
X144487690Y-130777748D01*
X144487690Y-130777752D01*
X144486309Y-130786621D01*
X144487489Y-130795646D01*
X144487761Y-130826081D01*
X144484107Y-130858517D01*
X144480767Y-130888161D01*
X144474490Y-130915664D01*
X144447514Y-130992757D01*
X144435274Y-131018173D01*
X144391823Y-131087325D01*
X144374231Y-131109384D01*
X144316487Y-131167128D01*
X144294429Y-131184720D01*
X144225274Y-131228174D01*
X144199853Y-131240416D01*
X144161313Y-131253901D01*
X144122773Y-131267387D01*
X144095264Y-131273666D01*
X144039798Y-131279915D01*
X144024133Y-131279650D01*
X144024120Y-131280693D01*
X144015151Y-131280584D01*
X144006276Y-131279202D01*
X143974679Y-131283334D01*
X143958356Y-131284398D01*
X85056443Y-131291494D01*
X85037048Y-131289994D01*
X85028990Y-131288740D01*
X85022250Y-131287690D01*
X85022248Y-131287690D01*
X85013379Y-131286309D01*
X85004285Y-131287498D01*
X84973911Y-131287777D01*
X84910683Y-131280686D01*
X84883297Y-131274463D01*
X84805020Y-131247207D01*
X84779692Y-131235073D01*
X84709389Y-131191146D01*
X84687385Y-131173707D01*
X84628558Y-131115293D01*
X84610968Y-131093418D01*
X84566540Y-131023420D01*
X84554232Y-130998187D01*
X84526422Y-130920099D01*
X84520006Y-130892754D01*
X84517815Y-130874393D01*
X84513243Y-130836068D01*
X84512358Y-130820493D01*
X84512404Y-130811529D01*
X84513722Y-130802654D01*
X84511511Y-130786621D01*
X84509682Y-130773365D01*
X84508500Y-130756148D01*
X84508500Y-130434669D01*
X85002001Y-130434669D01*
X85002371Y-130441490D01*
X85007895Y-130492352D01*
X85011521Y-130507604D01*
X85056676Y-130628054D01*
X85065214Y-130643649D01*
X85141715Y-130745724D01*
X85154276Y-130758285D01*
X85256351Y-130834786D01*
X85271946Y-130843324D01*
X85392394Y-130888478D01*
X85407649Y-130892105D01*
X85458514Y-130897631D01*
X85465328Y-130898000D01*
X86087885Y-130898000D01*
X86103124Y-130893525D01*
X86104329Y-130892135D01*
X86106000Y-130884452D01*
X86106000Y-130879884D01*
X86614000Y-130879884D01*
X86618475Y-130895123D01*
X86619865Y-130896328D01*
X86627548Y-130897999D01*
X87254669Y-130897999D01*
X87261490Y-130897629D01*
X87312352Y-130892105D01*
X87327604Y-130888479D01*
X87448054Y-130843324D01*
X87463649Y-130834786D01*
X87565724Y-130758285D01*
X87578285Y-130745724D01*
X87654786Y-130643649D01*
X87663324Y-130628054D01*
X87704225Y-130518952D01*
X87746867Y-130462188D01*
X87813428Y-130437488D01*
X87882777Y-130452696D01*
X87917444Y-130480684D01*
X87942865Y-130510031D01*
X87942869Y-130510035D01*
X87946250Y-130513938D01*
X88118126Y-130656632D01*
X88311000Y-130769338D01*
X88315825Y-130771180D01*
X88315826Y-130771181D01*
X88367908Y-130791069D01*
X88519692Y-130849030D01*
X88524760Y-130850061D01*
X88524763Y-130850062D01*
X88619862Y-130869410D01*
X88738597Y-130893567D01*
X88743772Y-130893757D01*
X88743774Y-130893757D01*
X88956673Y-130901564D01*
X88956677Y-130901564D01*
X88961837Y-130901753D01*
X88966957Y-130901097D01*
X88966959Y-130901097D01*
X89178288Y-130874025D01*
X89178289Y-130874025D01*
X89183416Y-130873368D01*
X89188366Y-130871883D01*
X89392429Y-130810661D01*
X89392434Y-130810659D01*
X89397384Y-130809174D01*
X89597994Y-130710896D01*
X89779860Y-130581173D01*
X89938096Y-130423489D01*
X90068453Y-130242077D01*
X90069776Y-130243028D01*
X90116645Y-130199857D01*
X90186580Y-130187625D01*
X90252026Y-130215144D01*
X90279875Y-130246994D01*
X90339987Y-130345088D01*
X90486250Y-130513938D01*
X90658126Y-130656632D01*
X90851000Y-130769338D01*
X90855825Y-130771180D01*
X90855826Y-130771181D01*
X90907908Y-130791069D01*
X91059692Y-130849030D01*
X91064760Y-130850061D01*
X91064763Y-130850062D01*
X91159862Y-130869410D01*
X91278597Y-130893567D01*
X91283772Y-130893757D01*
X91283774Y-130893757D01*
X91496673Y-130901564D01*
X91496677Y-130901564D01*
X91501837Y-130901753D01*
X91506957Y-130901097D01*
X91506959Y-130901097D01*
X91718288Y-130874025D01*
X91718289Y-130874025D01*
X91723416Y-130873368D01*
X91728366Y-130871883D01*
X91932429Y-130810661D01*
X91932434Y-130810659D01*
X91937384Y-130809174D01*
X92137994Y-130710896D01*
X92319860Y-130581173D01*
X92478096Y-130423489D01*
X92608453Y-130242077D01*
X92609776Y-130243028D01*
X92656645Y-130199857D01*
X92726580Y-130187625D01*
X92792026Y-130215144D01*
X92819875Y-130246994D01*
X92879987Y-130345088D01*
X93026250Y-130513938D01*
X93198126Y-130656632D01*
X93391000Y-130769338D01*
X93395825Y-130771180D01*
X93395826Y-130771181D01*
X93447908Y-130791069D01*
X93599692Y-130849030D01*
X93604760Y-130850061D01*
X93604763Y-130850062D01*
X93699862Y-130869410D01*
X93818597Y-130893567D01*
X93823772Y-130893757D01*
X93823774Y-130893757D01*
X94036673Y-130901564D01*
X94036677Y-130901564D01*
X94041837Y-130901753D01*
X94046957Y-130901097D01*
X94046959Y-130901097D01*
X94258288Y-130874025D01*
X94258289Y-130874025D01*
X94263416Y-130873368D01*
X94268366Y-130871883D01*
X94472429Y-130810661D01*
X94472434Y-130810659D01*
X94477384Y-130809174D01*
X94677994Y-130710896D01*
X94859860Y-130581173D01*
X95018096Y-130423489D01*
X95148453Y-130242077D01*
X95149776Y-130243028D01*
X95196645Y-130199857D01*
X95266580Y-130187625D01*
X95332026Y-130215144D01*
X95359875Y-130246994D01*
X95419987Y-130345088D01*
X95566250Y-130513938D01*
X95738126Y-130656632D01*
X95931000Y-130769338D01*
X95935825Y-130771180D01*
X95935826Y-130771181D01*
X95987908Y-130791069D01*
X96139692Y-130849030D01*
X96144760Y-130850061D01*
X96144763Y-130850062D01*
X96239862Y-130869410D01*
X96358597Y-130893567D01*
X96363772Y-130893757D01*
X96363774Y-130893757D01*
X96576673Y-130901564D01*
X96576677Y-130901564D01*
X96581837Y-130901753D01*
X96586957Y-130901097D01*
X96586959Y-130901097D01*
X96798288Y-130874025D01*
X96798289Y-130874025D01*
X96803416Y-130873368D01*
X96808366Y-130871883D01*
X97012429Y-130810661D01*
X97012434Y-130810659D01*
X97017384Y-130809174D01*
X97217994Y-130710896D01*
X97399860Y-130581173D01*
X97558096Y-130423489D01*
X97688453Y-130242077D01*
X97689776Y-130243028D01*
X97736645Y-130199857D01*
X97806580Y-130187625D01*
X97872026Y-130215144D01*
X97899875Y-130246994D01*
X97959987Y-130345088D01*
X98106250Y-130513938D01*
X98278126Y-130656632D01*
X98471000Y-130769338D01*
X98475825Y-130771180D01*
X98475826Y-130771181D01*
X98527908Y-130791069D01*
X98679692Y-130849030D01*
X98684760Y-130850061D01*
X98684763Y-130850062D01*
X98779862Y-130869410D01*
X98898597Y-130893567D01*
X98903772Y-130893757D01*
X98903774Y-130893757D01*
X99116673Y-130901564D01*
X99116677Y-130901564D01*
X99121837Y-130901753D01*
X99126957Y-130901097D01*
X99126959Y-130901097D01*
X99338288Y-130874025D01*
X99338289Y-130874025D01*
X99343416Y-130873368D01*
X99348366Y-130871883D01*
X99552429Y-130810661D01*
X99552434Y-130810659D01*
X99557384Y-130809174D01*
X99757994Y-130710896D01*
X99939860Y-130581173D01*
X100098096Y-130423489D01*
X100228453Y-130242077D01*
X100229776Y-130243028D01*
X100276645Y-130199857D01*
X100346580Y-130187625D01*
X100412026Y-130215144D01*
X100439875Y-130246994D01*
X100499987Y-130345088D01*
X100646250Y-130513938D01*
X100818126Y-130656632D01*
X101011000Y-130769338D01*
X101015825Y-130771180D01*
X101015826Y-130771181D01*
X101067908Y-130791069D01*
X101219692Y-130849030D01*
X101224760Y-130850061D01*
X101224763Y-130850062D01*
X101319862Y-130869410D01*
X101438597Y-130893567D01*
X101443772Y-130893757D01*
X101443774Y-130893757D01*
X101656673Y-130901564D01*
X101656677Y-130901564D01*
X101661837Y-130901753D01*
X101666957Y-130901097D01*
X101666959Y-130901097D01*
X101878288Y-130874025D01*
X101878289Y-130874025D01*
X101883416Y-130873368D01*
X101888366Y-130871883D01*
X102092429Y-130810661D01*
X102092434Y-130810659D01*
X102097384Y-130809174D01*
X102297994Y-130710896D01*
X102479860Y-130581173D01*
X102638096Y-130423489D01*
X102768453Y-130242077D01*
X102769776Y-130243028D01*
X102816645Y-130199857D01*
X102886580Y-130187625D01*
X102952026Y-130215144D01*
X102979875Y-130246994D01*
X103039987Y-130345088D01*
X103186250Y-130513938D01*
X103358126Y-130656632D01*
X103551000Y-130769338D01*
X103555825Y-130771180D01*
X103555826Y-130771181D01*
X103607908Y-130791069D01*
X103759692Y-130849030D01*
X103764760Y-130850061D01*
X103764763Y-130850062D01*
X103859862Y-130869410D01*
X103978597Y-130893567D01*
X103983772Y-130893757D01*
X103983774Y-130893757D01*
X104196673Y-130901564D01*
X104196677Y-130901564D01*
X104201837Y-130901753D01*
X104206957Y-130901097D01*
X104206959Y-130901097D01*
X104418288Y-130874025D01*
X104418289Y-130874025D01*
X104423416Y-130873368D01*
X104428366Y-130871883D01*
X104632429Y-130810661D01*
X104632434Y-130810659D01*
X104637384Y-130809174D01*
X104837994Y-130710896D01*
X105019860Y-130581173D01*
X105178096Y-130423489D01*
X105308453Y-130242077D01*
X105309776Y-130243028D01*
X105356645Y-130199857D01*
X105426580Y-130187625D01*
X105492026Y-130215144D01*
X105519875Y-130246994D01*
X105579987Y-130345088D01*
X105726250Y-130513938D01*
X105898126Y-130656632D01*
X106091000Y-130769338D01*
X106095825Y-130771180D01*
X106095826Y-130771181D01*
X106147908Y-130791069D01*
X106299692Y-130849030D01*
X106304760Y-130850061D01*
X106304763Y-130850062D01*
X106399862Y-130869410D01*
X106518597Y-130893567D01*
X106523772Y-130893757D01*
X106523774Y-130893757D01*
X106736673Y-130901564D01*
X106736677Y-130901564D01*
X106741837Y-130901753D01*
X106746957Y-130901097D01*
X106746959Y-130901097D01*
X106958288Y-130874025D01*
X106958289Y-130874025D01*
X106963416Y-130873368D01*
X106968366Y-130871883D01*
X107172429Y-130810661D01*
X107172434Y-130810659D01*
X107177384Y-130809174D01*
X107377994Y-130710896D01*
X107559860Y-130581173D01*
X107718096Y-130423489D01*
X107848453Y-130242077D01*
X107849776Y-130243028D01*
X107896645Y-130199857D01*
X107966580Y-130187625D01*
X108032026Y-130215144D01*
X108059875Y-130246994D01*
X108119987Y-130345088D01*
X108266250Y-130513938D01*
X108438126Y-130656632D01*
X108631000Y-130769338D01*
X108635825Y-130771180D01*
X108635826Y-130771181D01*
X108687908Y-130791069D01*
X108839692Y-130849030D01*
X108844760Y-130850061D01*
X108844763Y-130850062D01*
X108939862Y-130869410D01*
X109058597Y-130893567D01*
X109063772Y-130893757D01*
X109063774Y-130893757D01*
X109276673Y-130901564D01*
X109276677Y-130901564D01*
X109281837Y-130901753D01*
X109286957Y-130901097D01*
X109286959Y-130901097D01*
X109498288Y-130874025D01*
X109498289Y-130874025D01*
X109503416Y-130873368D01*
X109508366Y-130871883D01*
X109712429Y-130810661D01*
X109712434Y-130810659D01*
X109717384Y-130809174D01*
X109917994Y-130710896D01*
X110099860Y-130581173D01*
X110258096Y-130423489D01*
X110388453Y-130242077D01*
X110389640Y-130242930D01*
X110436960Y-130199362D01*
X110506897Y-130187145D01*
X110572338Y-130214678D01*
X110600166Y-130246511D01*
X110657694Y-130340388D01*
X110663777Y-130348699D01*
X110803213Y-130509667D01*
X110810580Y-130516883D01*
X110974434Y-130652916D01*
X110982881Y-130658831D01*
X111166756Y-130766279D01*
X111176042Y-130770729D01*
X111375001Y-130846703D01*
X111384899Y-130849579D01*
X111488250Y-130870606D01*
X111502299Y-130869410D01*
X111506000Y-130859065D01*
X111506000Y-130858517D01*
X112014000Y-130858517D01*
X112018064Y-130872359D01*
X112031478Y-130874393D01*
X112038184Y-130873534D01*
X112048262Y-130871392D01*
X112252255Y-130810191D01*
X112261842Y-130806433D01*
X112453095Y-130712739D01*
X112461945Y-130707464D01*
X112635328Y-130583792D01*
X112643200Y-130577139D01*
X112794052Y-130426812D01*
X112800730Y-130418965D01*
X112928022Y-130241819D01*
X112929279Y-130242722D01*
X112976373Y-130199362D01*
X113046311Y-130187145D01*
X113111751Y-130214678D01*
X113139579Y-130246511D01*
X113199987Y-130345088D01*
X113346250Y-130513938D01*
X113518126Y-130656632D01*
X113711000Y-130769338D01*
X113715825Y-130771180D01*
X113715826Y-130771181D01*
X113767908Y-130791069D01*
X113919692Y-130849030D01*
X113924760Y-130850061D01*
X113924763Y-130850062D01*
X114019862Y-130869410D01*
X114138597Y-130893567D01*
X114143772Y-130893757D01*
X114143774Y-130893757D01*
X114356673Y-130901564D01*
X114356677Y-130901564D01*
X114361837Y-130901753D01*
X114366957Y-130901097D01*
X114366959Y-130901097D01*
X114578288Y-130874025D01*
X114578289Y-130874025D01*
X114583416Y-130873368D01*
X114588366Y-130871883D01*
X114792429Y-130810661D01*
X114792434Y-130810659D01*
X114797384Y-130809174D01*
X114997994Y-130710896D01*
X115179860Y-130581173D01*
X115338096Y-130423489D01*
X115468453Y-130242077D01*
X115469776Y-130243028D01*
X115516645Y-130199857D01*
X115586580Y-130187625D01*
X115652026Y-130215144D01*
X115679875Y-130246994D01*
X115739987Y-130345088D01*
X115886250Y-130513938D01*
X116058126Y-130656632D01*
X116251000Y-130769338D01*
X116255825Y-130771180D01*
X116255826Y-130771181D01*
X116307908Y-130791069D01*
X116459692Y-130849030D01*
X116464760Y-130850061D01*
X116464763Y-130850062D01*
X116559862Y-130869410D01*
X116678597Y-130893567D01*
X116683772Y-130893757D01*
X116683774Y-130893757D01*
X116896673Y-130901564D01*
X116896677Y-130901564D01*
X116901837Y-130901753D01*
X116906957Y-130901097D01*
X116906959Y-130901097D01*
X117118288Y-130874025D01*
X117118289Y-130874025D01*
X117123416Y-130873368D01*
X117128366Y-130871883D01*
X117332429Y-130810661D01*
X117332434Y-130810659D01*
X117337384Y-130809174D01*
X117537994Y-130710896D01*
X117719860Y-130581173D01*
X117878096Y-130423489D01*
X118008453Y-130242077D01*
X118009776Y-130243028D01*
X118056645Y-130199857D01*
X118126580Y-130187625D01*
X118192026Y-130215144D01*
X118219875Y-130246994D01*
X118279987Y-130345088D01*
X118426250Y-130513938D01*
X118598126Y-130656632D01*
X118791000Y-130769338D01*
X118795825Y-130771180D01*
X118795826Y-130771181D01*
X118847908Y-130791069D01*
X118999692Y-130849030D01*
X119004760Y-130850061D01*
X119004763Y-130850062D01*
X119099862Y-130869410D01*
X119218597Y-130893567D01*
X119223772Y-130893757D01*
X119223774Y-130893757D01*
X119436673Y-130901564D01*
X119436677Y-130901564D01*
X119441837Y-130901753D01*
X119446957Y-130901097D01*
X119446959Y-130901097D01*
X119658288Y-130874025D01*
X119658289Y-130874025D01*
X119663416Y-130873368D01*
X119668366Y-130871883D01*
X119872429Y-130810661D01*
X119872434Y-130810659D01*
X119877384Y-130809174D01*
X120077994Y-130710896D01*
X120259860Y-130581173D01*
X120418096Y-130423489D01*
X120548453Y-130242077D01*
X120549776Y-130243028D01*
X120596645Y-130199857D01*
X120666580Y-130187625D01*
X120732026Y-130215144D01*
X120759875Y-130246994D01*
X120819987Y-130345088D01*
X120966250Y-130513938D01*
X121138126Y-130656632D01*
X121331000Y-130769338D01*
X121335825Y-130771180D01*
X121335826Y-130771181D01*
X121387908Y-130791069D01*
X121539692Y-130849030D01*
X121544760Y-130850061D01*
X121544763Y-130850062D01*
X121639862Y-130869410D01*
X121758597Y-130893567D01*
X121763772Y-130893757D01*
X121763774Y-130893757D01*
X121976673Y-130901564D01*
X121976677Y-130901564D01*
X121981837Y-130901753D01*
X121986957Y-130901097D01*
X121986959Y-130901097D01*
X122198288Y-130874025D01*
X122198289Y-130874025D01*
X122203416Y-130873368D01*
X122208366Y-130871883D01*
X122412429Y-130810661D01*
X122412434Y-130810659D01*
X122417384Y-130809174D01*
X122617994Y-130710896D01*
X122799860Y-130581173D01*
X122958096Y-130423489D01*
X123088453Y-130242077D01*
X123089776Y-130243028D01*
X123136645Y-130199857D01*
X123206580Y-130187625D01*
X123272026Y-130215144D01*
X123299875Y-130246994D01*
X123359987Y-130345088D01*
X123506250Y-130513938D01*
X123678126Y-130656632D01*
X123871000Y-130769338D01*
X123875825Y-130771180D01*
X123875826Y-130771181D01*
X123927908Y-130791069D01*
X124079692Y-130849030D01*
X124084760Y-130850061D01*
X124084763Y-130850062D01*
X124179862Y-130869410D01*
X124298597Y-130893567D01*
X124303772Y-130893757D01*
X124303774Y-130893757D01*
X124516673Y-130901564D01*
X124516677Y-130901564D01*
X124521837Y-130901753D01*
X124526957Y-130901097D01*
X124526959Y-130901097D01*
X124738288Y-130874025D01*
X124738289Y-130874025D01*
X124743416Y-130873368D01*
X124748366Y-130871883D01*
X124952429Y-130810661D01*
X124952434Y-130810659D01*
X124957384Y-130809174D01*
X125157994Y-130710896D01*
X125339860Y-130581173D01*
X125498096Y-130423489D01*
X125628453Y-130242077D01*
X125629776Y-130243028D01*
X125676645Y-130199857D01*
X125746580Y-130187625D01*
X125812026Y-130215144D01*
X125839875Y-130246994D01*
X125899987Y-130345088D01*
X126046250Y-130513938D01*
X126218126Y-130656632D01*
X126411000Y-130769338D01*
X126415825Y-130771180D01*
X126415826Y-130771181D01*
X126467908Y-130791069D01*
X126619692Y-130849030D01*
X126624760Y-130850061D01*
X126624763Y-130850062D01*
X126719862Y-130869410D01*
X126838597Y-130893567D01*
X126843772Y-130893757D01*
X126843774Y-130893757D01*
X127056673Y-130901564D01*
X127056677Y-130901564D01*
X127061837Y-130901753D01*
X127066957Y-130901097D01*
X127066959Y-130901097D01*
X127278288Y-130874025D01*
X127278289Y-130874025D01*
X127283416Y-130873368D01*
X127288366Y-130871883D01*
X127492429Y-130810661D01*
X127492434Y-130810659D01*
X127497384Y-130809174D01*
X127697994Y-130710896D01*
X127879860Y-130581173D01*
X128038096Y-130423489D01*
X128168453Y-130242077D01*
X128169776Y-130243028D01*
X128216645Y-130199857D01*
X128286580Y-130187625D01*
X128352026Y-130215144D01*
X128379875Y-130246994D01*
X128439987Y-130345088D01*
X128586250Y-130513938D01*
X128758126Y-130656632D01*
X128951000Y-130769338D01*
X128955825Y-130771180D01*
X128955826Y-130771181D01*
X129007908Y-130791069D01*
X129159692Y-130849030D01*
X129164760Y-130850061D01*
X129164763Y-130850062D01*
X129259862Y-130869410D01*
X129378597Y-130893567D01*
X129383772Y-130893757D01*
X129383774Y-130893757D01*
X129596673Y-130901564D01*
X129596677Y-130901564D01*
X129601837Y-130901753D01*
X129606957Y-130901097D01*
X129606959Y-130901097D01*
X129818288Y-130874025D01*
X129818289Y-130874025D01*
X129823416Y-130873368D01*
X129828366Y-130871883D01*
X130032429Y-130810661D01*
X130032434Y-130810659D01*
X130037384Y-130809174D01*
X130237994Y-130710896D01*
X130419860Y-130581173D01*
X130578096Y-130423489D01*
X130708453Y-130242077D01*
X130709640Y-130242930D01*
X130756960Y-130199362D01*
X130826897Y-130187145D01*
X130892338Y-130214678D01*
X130920166Y-130246511D01*
X130977694Y-130340388D01*
X130983777Y-130348699D01*
X131123213Y-130509667D01*
X131130580Y-130516883D01*
X131294434Y-130652916D01*
X131302881Y-130658831D01*
X131486756Y-130766279D01*
X131496042Y-130770729D01*
X131695001Y-130846703D01*
X131704899Y-130849579D01*
X131808250Y-130870606D01*
X131822299Y-130869410D01*
X131826000Y-130859065D01*
X131826000Y-130858517D01*
X132334000Y-130858517D01*
X132338064Y-130872359D01*
X132351478Y-130874393D01*
X132358184Y-130873534D01*
X132368262Y-130871392D01*
X132572255Y-130810191D01*
X132581842Y-130806433D01*
X132773095Y-130712739D01*
X132781945Y-130707464D01*
X132955328Y-130583792D01*
X132963200Y-130577139D01*
X133114052Y-130426812D01*
X133120730Y-130418965D01*
X133248022Y-130241819D01*
X133249279Y-130242722D01*
X133296373Y-130199362D01*
X133366311Y-130187145D01*
X133431751Y-130214678D01*
X133459579Y-130246511D01*
X133519987Y-130345088D01*
X133666250Y-130513938D01*
X133838126Y-130656632D01*
X134031000Y-130769338D01*
X134035825Y-130771180D01*
X134035826Y-130771181D01*
X134087908Y-130791069D01*
X134239692Y-130849030D01*
X134244760Y-130850061D01*
X134244763Y-130850062D01*
X134339862Y-130869410D01*
X134458597Y-130893567D01*
X134463772Y-130893757D01*
X134463774Y-130893757D01*
X134676673Y-130901564D01*
X134676677Y-130901564D01*
X134681837Y-130901753D01*
X134686957Y-130901097D01*
X134686959Y-130901097D01*
X134898288Y-130874025D01*
X134898289Y-130874025D01*
X134903416Y-130873368D01*
X134908366Y-130871883D01*
X135112429Y-130810661D01*
X135112434Y-130810659D01*
X135117384Y-130809174D01*
X135317994Y-130710896D01*
X135499860Y-130581173D01*
X135658096Y-130423489D01*
X135788453Y-130242077D01*
X135801995Y-130214678D01*
X135885136Y-130046453D01*
X135885137Y-130046451D01*
X135887430Y-130041811D01*
X135952370Y-129828069D01*
X135981529Y-129606590D01*
X135983156Y-129540000D01*
X135964852Y-129317361D01*
X135910431Y-129100702D01*
X135821354Y-128895840D01*
X135700014Y-128708277D01*
X135549670Y-128543051D01*
X135545619Y-128539852D01*
X135545615Y-128539848D01*
X135378414Y-128407800D01*
X135378410Y-128407798D01*
X135374359Y-128404598D01*
X135369831Y-128402098D01*
X135253988Y-128338150D01*
X135178789Y-128296638D01*
X135173920Y-128294914D01*
X135173916Y-128294912D01*
X134973087Y-128223795D01*
X134973083Y-128223794D01*
X134968212Y-128222069D01*
X134963119Y-128221162D01*
X134963116Y-128221161D01*
X134753373Y-128183800D01*
X134753367Y-128183799D01*
X134748284Y-128182894D01*
X134674452Y-128181992D01*
X134530081Y-128180228D01*
X134530079Y-128180228D01*
X134524911Y-128180165D01*
X134304091Y-128213955D01*
X134091756Y-128283357D01*
X134018071Y-128321715D01*
X133917975Y-128373822D01*
X133893607Y-128386507D01*
X133889474Y-128389610D01*
X133889471Y-128389612D01*
X133806450Y-128451946D01*
X133714965Y-128520635D01*
X133560629Y-128682138D01*
X133453204Y-128839618D01*
X133452898Y-128840066D01*
X133397987Y-128885069D01*
X133327462Y-128893240D01*
X133263715Y-128861986D01*
X133243018Y-128837502D01*
X133162426Y-128712926D01*
X133156136Y-128704757D01*
X133012806Y-128547240D01*
X133005273Y-128540215D01*
X132838139Y-128408222D01*
X132829552Y-128402517D01*
X132643117Y-128299599D01*
X132633705Y-128295369D01*
X132432959Y-128224280D01*
X132422988Y-128221646D01*
X132351837Y-128208972D01*
X132338540Y-128210432D01*
X132334000Y-128224989D01*
X132334000Y-130858517D01*
X131826000Y-130858517D01*
X131826000Y-128223102D01*
X131822082Y-128209758D01*
X131807806Y-128207771D01*
X131769324Y-128213660D01*
X131759288Y-128216051D01*
X131556868Y-128282212D01*
X131547359Y-128286209D01*
X131358463Y-128384542D01*
X131349738Y-128390036D01*
X131179433Y-128517905D01*
X131171726Y-128524748D01*
X131024590Y-128678717D01*
X131018109Y-128686722D01*
X130913498Y-128840074D01*
X130858587Y-128885076D01*
X130788062Y-128893247D01*
X130724315Y-128861993D01*
X130703618Y-128837509D01*
X130622822Y-128712617D01*
X130622820Y-128712614D01*
X130620014Y-128708277D01*
X130469670Y-128543051D01*
X130465619Y-128539852D01*
X130465615Y-128539848D01*
X130298414Y-128407800D01*
X130298410Y-128407798D01*
X130294359Y-128404598D01*
X130289831Y-128402098D01*
X130173988Y-128338150D01*
X130098789Y-128296638D01*
X130093920Y-128294914D01*
X130093916Y-128294912D01*
X129893087Y-128223795D01*
X129893083Y-128223794D01*
X129888212Y-128222069D01*
X129883119Y-128221162D01*
X129883116Y-128221161D01*
X129673373Y-128183800D01*
X129673367Y-128183799D01*
X129668284Y-128182894D01*
X129594452Y-128181992D01*
X129450081Y-128180228D01*
X129450079Y-128180228D01*
X129444911Y-128180165D01*
X129224091Y-128213955D01*
X129011756Y-128283357D01*
X128938071Y-128321715D01*
X128837975Y-128373822D01*
X128813607Y-128386507D01*
X128809474Y-128389610D01*
X128809471Y-128389612D01*
X128726450Y-128451946D01*
X128634965Y-128520635D01*
X128480629Y-128682138D01*
X128373201Y-128839621D01*
X128318293Y-128884621D01*
X128247768Y-128892792D01*
X128184021Y-128861538D01*
X128163324Y-128837054D01*
X128082822Y-128712617D01*
X128082820Y-128712614D01*
X128080014Y-128708277D01*
X127929670Y-128543051D01*
X127925619Y-128539852D01*
X127925615Y-128539848D01*
X127758414Y-128407800D01*
X127758410Y-128407798D01*
X127754359Y-128404598D01*
X127749831Y-128402098D01*
X127633988Y-128338150D01*
X127558789Y-128296638D01*
X127553920Y-128294914D01*
X127553916Y-128294912D01*
X127353087Y-128223795D01*
X127353083Y-128223794D01*
X127348212Y-128222069D01*
X127343119Y-128221162D01*
X127343116Y-128221161D01*
X127133373Y-128183800D01*
X127133367Y-128183799D01*
X127128284Y-128182894D01*
X127054452Y-128181992D01*
X126910081Y-128180228D01*
X126910079Y-128180228D01*
X126904911Y-128180165D01*
X126684091Y-128213955D01*
X126471756Y-128283357D01*
X126398071Y-128321715D01*
X126297975Y-128373822D01*
X126273607Y-128386507D01*
X126269474Y-128389610D01*
X126269471Y-128389612D01*
X126186450Y-128451946D01*
X126094965Y-128520635D01*
X125940629Y-128682138D01*
X125833201Y-128839621D01*
X125778293Y-128884621D01*
X125707768Y-128892792D01*
X125644021Y-128861538D01*
X125623324Y-128837054D01*
X125542822Y-128712617D01*
X125542820Y-128712614D01*
X125540014Y-128708277D01*
X125389670Y-128543051D01*
X125385619Y-128539852D01*
X125385615Y-128539848D01*
X125218414Y-128407800D01*
X125218410Y-128407798D01*
X125214359Y-128404598D01*
X125209831Y-128402098D01*
X125093988Y-128338150D01*
X125018789Y-128296638D01*
X125013920Y-128294914D01*
X125013916Y-128294912D01*
X124813087Y-128223795D01*
X124813083Y-128223794D01*
X124808212Y-128222069D01*
X124803119Y-128221162D01*
X124803116Y-128221161D01*
X124593373Y-128183800D01*
X124593367Y-128183799D01*
X124588284Y-128182894D01*
X124514452Y-128181992D01*
X124370081Y-128180228D01*
X124370079Y-128180228D01*
X124364911Y-128180165D01*
X124144091Y-128213955D01*
X123931756Y-128283357D01*
X123858071Y-128321715D01*
X123757975Y-128373822D01*
X123733607Y-128386507D01*
X123729474Y-128389610D01*
X123729471Y-128389612D01*
X123646450Y-128451946D01*
X123554965Y-128520635D01*
X123400629Y-128682138D01*
X123293201Y-128839621D01*
X123238293Y-128884621D01*
X123167768Y-128892792D01*
X123104021Y-128861538D01*
X123083324Y-128837054D01*
X123002822Y-128712617D01*
X123002820Y-128712614D01*
X123000014Y-128708277D01*
X122849670Y-128543051D01*
X122845619Y-128539852D01*
X122845615Y-128539848D01*
X122678414Y-128407800D01*
X122678410Y-128407798D01*
X122674359Y-128404598D01*
X122669831Y-128402098D01*
X122553988Y-128338150D01*
X122478789Y-128296638D01*
X122473920Y-128294914D01*
X122473916Y-128294912D01*
X122273087Y-128223795D01*
X122273083Y-128223794D01*
X122268212Y-128222069D01*
X122263119Y-128221162D01*
X122263116Y-128221161D01*
X122053373Y-128183800D01*
X122053367Y-128183799D01*
X122048284Y-128182894D01*
X121974452Y-128181992D01*
X121830081Y-128180228D01*
X121830079Y-128180228D01*
X121824911Y-128180165D01*
X121604091Y-128213955D01*
X121391756Y-128283357D01*
X121318071Y-128321715D01*
X121217975Y-128373822D01*
X121193607Y-128386507D01*
X121189474Y-128389610D01*
X121189471Y-128389612D01*
X121106450Y-128451946D01*
X121014965Y-128520635D01*
X120860629Y-128682138D01*
X120753201Y-128839621D01*
X120698293Y-128884621D01*
X120627768Y-128892792D01*
X120564021Y-128861538D01*
X120543324Y-128837054D01*
X120462822Y-128712617D01*
X120462820Y-128712614D01*
X120460014Y-128708277D01*
X120309670Y-128543051D01*
X120305619Y-128539852D01*
X120305615Y-128539848D01*
X120138414Y-128407800D01*
X120138410Y-128407798D01*
X120134359Y-128404598D01*
X120129831Y-128402098D01*
X120013988Y-128338150D01*
X119938789Y-128296638D01*
X119933920Y-128294914D01*
X119933916Y-128294912D01*
X119733087Y-128223795D01*
X119733083Y-128223794D01*
X119728212Y-128222069D01*
X119723119Y-128221162D01*
X119723116Y-128221161D01*
X119513373Y-128183800D01*
X119513367Y-128183799D01*
X119508284Y-128182894D01*
X119434452Y-128181992D01*
X119290081Y-128180228D01*
X119290079Y-128180228D01*
X119284911Y-128180165D01*
X119064091Y-128213955D01*
X118851756Y-128283357D01*
X118778071Y-128321715D01*
X118677975Y-128373822D01*
X118653607Y-128386507D01*
X118649474Y-128389610D01*
X118649471Y-128389612D01*
X118566450Y-128451946D01*
X118474965Y-128520635D01*
X118320629Y-128682138D01*
X118213201Y-128839621D01*
X118158293Y-128884621D01*
X118087768Y-128892792D01*
X118024021Y-128861538D01*
X118003324Y-128837054D01*
X117922822Y-128712617D01*
X117922820Y-128712614D01*
X117920014Y-128708277D01*
X117769670Y-128543051D01*
X117765619Y-128539852D01*
X117765615Y-128539848D01*
X117598414Y-128407800D01*
X117598410Y-128407798D01*
X117594359Y-128404598D01*
X117589831Y-128402098D01*
X117473988Y-128338150D01*
X117398789Y-128296638D01*
X117393920Y-128294914D01*
X117393916Y-128294912D01*
X117193087Y-128223795D01*
X117193083Y-128223794D01*
X117188212Y-128222069D01*
X117183119Y-128221162D01*
X117183116Y-128221161D01*
X116973373Y-128183800D01*
X116973367Y-128183799D01*
X116968284Y-128182894D01*
X116894452Y-128181992D01*
X116750081Y-128180228D01*
X116750079Y-128180228D01*
X116744911Y-128180165D01*
X116524091Y-128213955D01*
X116311756Y-128283357D01*
X116238071Y-128321715D01*
X116137975Y-128373822D01*
X116113607Y-128386507D01*
X116109474Y-128389610D01*
X116109471Y-128389612D01*
X116026450Y-128451946D01*
X115934965Y-128520635D01*
X115780629Y-128682138D01*
X115673201Y-128839621D01*
X115618293Y-128884621D01*
X115547768Y-128892792D01*
X115484021Y-128861538D01*
X115463324Y-128837054D01*
X115382822Y-128712617D01*
X115382820Y-128712614D01*
X115380014Y-128708277D01*
X115229670Y-128543051D01*
X115225619Y-128539852D01*
X115225615Y-128539848D01*
X115058414Y-128407800D01*
X115058410Y-128407798D01*
X115054359Y-128404598D01*
X115049831Y-128402098D01*
X114933988Y-128338150D01*
X114858789Y-128296638D01*
X114853920Y-128294914D01*
X114853916Y-128294912D01*
X114653087Y-128223795D01*
X114653083Y-128223794D01*
X114648212Y-128222069D01*
X114643119Y-128221162D01*
X114643116Y-128221161D01*
X114433373Y-128183800D01*
X114433367Y-128183799D01*
X114428284Y-128182894D01*
X114354452Y-128181992D01*
X114210081Y-128180228D01*
X114210079Y-128180228D01*
X114204911Y-128180165D01*
X113984091Y-128213955D01*
X113771756Y-128283357D01*
X113698071Y-128321715D01*
X113597975Y-128373822D01*
X113573607Y-128386507D01*
X113569474Y-128389610D01*
X113569471Y-128389612D01*
X113486450Y-128451946D01*
X113394965Y-128520635D01*
X113240629Y-128682138D01*
X113133204Y-128839618D01*
X113132898Y-128840066D01*
X113077987Y-128885069D01*
X113007462Y-128893240D01*
X112943715Y-128861986D01*
X112923018Y-128837502D01*
X112842426Y-128712926D01*
X112836136Y-128704757D01*
X112692806Y-128547240D01*
X112685273Y-128540215D01*
X112518139Y-128408222D01*
X112509552Y-128402517D01*
X112323117Y-128299599D01*
X112313705Y-128295369D01*
X112112959Y-128224280D01*
X112102988Y-128221646D01*
X112031837Y-128208972D01*
X112018540Y-128210432D01*
X112014000Y-128224989D01*
X112014000Y-130858517D01*
X111506000Y-130858517D01*
X111506000Y-128223102D01*
X111502082Y-128209758D01*
X111487806Y-128207771D01*
X111449324Y-128213660D01*
X111439288Y-128216051D01*
X111236868Y-128282212D01*
X111227359Y-128286209D01*
X111038463Y-128384542D01*
X111029738Y-128390036D01*
X110859433Y-128517905D01*
X110851726Y-128524748D01*
X110704590Y-128678717D01*
X110698109Y-128686722D01*
X110593498Y-128840074D01*
X110538587Y-128885076D01*
X110468062Y-128893247D01*
X110404315Y-128861993D01*
X110383618Y-128837509D01*
X110302822Y-128712617D01*
X110302820Y-128712614D01*
X110300014Y-128708277D01*
X110149670Y-128543051D01*
X110145619Y-128539852D01*
X110145615Y-128539848D01*
X109978414Y-128407800D01*
X109978410Y-128407798D01*
X109974359Y-128404598D01*
X109969831Y-128402098D01*
X109853988Y-128338150D01*
X109778789Y-128296638D01*
X109773920Y-128294914D01*
X109773916Y-128294912D01*
X109573087Y-128223795D01*
X109573083Y-128223794D01*
X109568212Y-128222069D01*
X109563119Y-128221162D01*
X109563116Y-128221161D01*
X109353373Y-128183800D01*
X109353367Y-128183799D01*
X109348284Y-128182894D01*
X109274452Y-128181992D01*
X109130081Y-128180228D01*
X109130079Y-128180228D01*
X109124911Y-128180165D01*
X108904091Y-128213955D01*
X108691756Y-128283357D01*
X108618071Y-128321715D01*
X108517975Y-128373822D01*
X108493607Y-128386507D01*
X108489474Y-128389610D01*
X108489471Y-128389612D01*
X108406450Y-128451946D01*
X108314965Y-128520635D01*
X108160629Y-128682138D01*
X108053201Y-128839621D01*
X107998293Y-128884621D01*
X107927768Y-128892792D01*
X107864021Y-128861538D01*
X107843324Y-128837054D01*
X107762822Y-128712617D01*
X107762820Y-128712614D01*
X107760014Y-128708277D01*
X107609670Y-128543051D01*
X107605619Y-128539852D01*
X107605615Y-128539848D01*
X107438414Y-128407800D01*
X107438410Y-128407798D01*
X107434359Y-128404598D01*
X107429831Y-128402098D01*
X107313988Y-128338150D01*
X107238789Y-128296638D01*
X107233920Y-128294914D01*
X107233916Y-128294912D01*
X107033087Y-128223795D01*
X107033083Y-128223794D01*
X107028212Y-128222069D01*
X107023119Y-128221162D01*
X107023116Y-128221161D01*
X106813373Y-128183800D01*
X106813367Y-128183799D01*
X106808284Y-128182894D01*
X106734452Y-128181992D01*
X106590081Y-128180228D01*
X106590079Y-128180228D01*
X106584911Y-128180165D01*
X106364091Y-128213955D01*
X106151756Y-128283357D01*
X106078071Y-128321715D01*
X105977975Y-128373822D01*
X105953607Y-128386507D01*
X105949474Y-128389610D01*
X105949471Y-128389612D01*
X105866450Y-128451946D01*
X105774965Y-128520635D01*
X105620629Y-128682138D01*
X105513201Y-128839621D01*
X105458293Y-128884621D01*
X105387768Y-128892792D01*
X105324021Y-128861538D01*
X105303324Y-128837054D01*
X105222822Y-128712617D01*
X105222820Y-128712614D01*
X105220014Y-128708277D01*
X105069670Y-128543051D01*
X105065619Y-128539852D01*
X105065615Y-128539848D01*
X104898414Y-128407800D01*
X104898410Y-128407798D01*
X104894359Y-128404598D01*
X104889831Y-128402098D01*
X104773988Y-128338150D01*
X104698789Y-128296638D01*
X104693920Y-128294914D01*
X104693916Y-128294912D01*
X104493087Y-128223795D01*
X104493083Y-128223794D01*
X104488212Y-128222069D01*
X104483119Y-128221162D01*
X104483116Y-128221161D01*
X104273373Y-128183800D01*
X104273367Y-128183799D01*
X104268284Y-128182894D01*
X104194452Y-128181992D01*
X104050081Y-128180228D01*
X104050079Y-128180228D01*
X104044911Y-128180165D01*
X103824091Y-128213955D01*
X103611756Y-128283357D01*
X103538071Y-128321715D01*
X103437975Y-128373822D01*
X103413607Y-128386507D01*
X103409474Y-128389610D01*
X103409471Y-128389612D01*
X103326450Y-128451946D01*
X103234965Y-128520635D01*
X103080629Y-128682138D01*
X102973201Y-128839621D01*
X102918293Y-128884621D01*
X102847768Y-128892792D01*
X102784021Y-128861538D01*
X102763324Y-128837054D01*
X102682822Y-128712617D01*
X102682820Y-128712614D01*
X102680014Y-128708277D01*
X102529670Y-128543051D01*
X102525619Y-128539852D01*
X102525615Y-128539848D01*
X102358414Y-128407800D01*
X102358410Y-128407798D01*
X102354359Y-128404598D01*
X102349831Y-128402098D01*
X102233988Y-128338150D01*
X102158789Y-128296638D01*
X102153920Y-128294914D01*
X102153916Y-128294912D01*
X101953087Y-128223795D01*
X101953083Y-128223794D01*
X101948212Y-128222069D01*
X101943119Y-128221162D01*
X101943116Y-128221161D01*
X101733373Y-128183800D01*
X101733367Y-128183799D01*
X101728284Y-128182894D01*
X101654452Y-128181992D01*
X101510081Y-128180228D01*
X101510079Y-128180228D01*
X101504911Y-128180165D01*
X101284091Y-128213955D01*
X101071756Y-128283357D01*
X100998071Y-128321715D01*
X100897975Y-128373822D01*
X100873607Y-128386507D01*
X100869474Y-128389610D01*
X100869471Y-128389612D01*
X100786450Y-128451946D01*
X100694965Y-128520635D01*
X100540629Y-128682138D01*
X100433201Y-128839621D01*
X100378293Y-128884621D01*
X100307768Y-128892792D01*
X100244021Y-128861538D01*
X100223324Y-128837054D01*
X100142822Y-128712617D01*
X100142820Y-128712614D01*
X100140014Y-128708277D01*
X99989670Y-128543051D01*
X99985619Y-128539852D01*
X99985615Y-128539848D01*
X99818414Y-128407800D01*
X99818410Y-128407798D01*
X99814359Y-128404598D01*
X99809831Y-128402098D01*
X99693988Y-128338150D01*
X99618789Y-128296638D01*
X99613920Y-128294914D01*
X99613916Y-128294912D01*
X99413087Y-128223795D01*
X99413083Y-128223794D01*
X99408212Y-128222069D01*
X99403119Y-128221162D01*
X99403116Y-128221161D01*
X99193373Y-128183800D01*
X99193367Y-128183799D01*
X99188284Y-128182894D01*
X99114452Y-128181992D01*
X98970081Y-128180228D01*
X98970079Y-128180228D01*
X98964911Y-128180165D01*
X98744091Y-128213955D01*
X98531756Y-128283357D01*
X98458071Y-128321715D01*
X98357975Y-128373822D01*
X98333607Y-128386507D01*
X98329474Y-128389610D01*
X98329471Y-128389612D01*
X98246450Y-128451946D01*
X98154965Y-128520635D01*
X98000629Y-128682138D01*
X97893201Y-128839621D01*
X97838293Y-128884621D01*
X97767768Y-128892792D01*
X97704021Y-128861538D01*
X97683324Y-128837054D01*
X97602822Y-128712617D01*
X97602820Y-128712614D01*
X97600014Y-128708277D01*
X97449670Y-128543051D01*
X97445619Y-128539852D01*
X97445615Y-128539848D01*
X97278414Y-128407800D01*
X97278410Y-128407798D01*
X97274359Y-128404598D01*
X97269835Y-128402101D01*
X97269831Y-128402098D01*
X97218608Y-128373822D01*
X97168636Y-128323390D01*
X97153500Y-128263513D01*
X97153500Y-124800000D01*
X107186496Y-124800000D01*
X107206458Y-124989928D01*
X107265473Y-125171556D01*
X107360960Y-125336944D01*
X107365378Y-125341851D01*
X107365379Y-125341852D01*
X107447452Y-125433003D01*
X107488747Y-125478866D01*
X107643248Y-125591118D01*
X107649276Y-125593802D01*
X107649278Y-125593803D01*
X107811681Y-125666109D01*
X107817712Y-125668794D01*
X107911112Y-125688647D01*
X107998056Y-125707128D01*
X107998061Y-125707128D01*
X108004513Y-125708500D01*
X108195487Y-125708500D01*
X108201939Y-125707128D01*
X108201944Y-125707128D01*
X108288888Y-125688647D01*
X108382288Y-125668794D01*
X108388319Y-125666109D01*
X108550722Y-125593803D01*
X108550724Y-125593802D01*
X108556752Y-125591118D01*
X108711253Y-125478866D01*
X108715668Y-125473963D01*
X108720580Y-125469540D01*
X108721705Y-125470789D01*
X108775014Y-125437949D01*
X108808200Y-125433500D01*
X115021233Y-125433500D01*
X115032416Y-125434027D01*
X115039909Y-125435702D01*
X115047835Y-125435453D01*
X115047836Y-125435453D01*
X115107986Y-125433562D01*
X115111945Y-125433500D01*
X115139856Y-125433500D01*
X115143791Y-125433003D01*
X115143856Y-125432995D01*
X115155693Y-125432062D01*
X115187951Y-125431048D01*
X115191970Y-125430922D01*
X115199889Y-125430673D01*
X115219343Y-125425021D01*
X115238700Y-125421013D01*
X115250930Y-125419468D01*
X115250931Y-125419468D01*
X115258797Y-125418474D01*
X115266168Y-125415555D01*
X115266170Y-125415555D01*
X115299912Y-125402196D01*
X115311142Y-125398351D01*
X115345983Y-125388229D01*
X115345984Y-125388229D01*
X115353593Y-125386018D01*
X115360412Y-125381985D01*
X115360417Y-125381983D01*
X115371028Y-125375707D01*
X115388776Y-125367012D01*
X115407617Y-125359552D01*
X115443387Y-125333564D01*
X115453307Y-125327048D01*
X115484535Y-125308580D01*
X115484538Y-125308578D01*
X115491362Y-125304542D01*
X115505683Y-125290221D01*
X115520717Y-125277380D01*
X115530694Y-125270131D01*
X115537107Y-125265472D01*
X115565298Y-125231395D01*
X115573288Y-125222616D01*
X117325447Y-123470457D01*
X117333737Y-123462913D01*
X117340218Y-123458800D01*
X117386859Y-123409132D01*
X117389613Y-123406291D01*
X117409334Y-123386570D01*
X117411812Y-123383375D01*
X117419518Y-123374353D01*
X117444358Y-123347901D01*
X117449786Y-123342121D01*
X117459546Y-123324368D01*
X117470399Y-123307845D01*
X117477953Y-123298106D01*
X117482813Y-123291841D01*
X117500376Y-123251257D01*
X117505583Y-123240627D01*
X117526895Y-123201860D01*
X117528866Y-123194183D01*
X117528868Y-123194178D01*
X117531932Y-123182242D01*
X117538338Y-123163530D01*
X117543233Y-123152219D01*
X117546381Y-123144945D01*
X117547621Y-123137117D01*
X117547623Y-123137110D01*
X117553299Y-123101276D01*
X117555705Y-123089656D01*
X117564728Y-123054511D01*
X117564728Y-123054510D01*
X117566700Y-123046830D01*
X117566700Y-123026576D01*
X117568251Y-123006865D01*
X117570180Y-122994686D01*
X117571420Y-122986857D01*
X117567259Y-122942838D01*
X117566700Y-122930981D01*
X117566700Y-114040300D01*
X117586702Y-113972179D01*
X117640358Y-113925686D01*
X117692700Y-113914300D01*
X117809187Y-113914300D01*
X117815639Y-113912928D01*
X117815644Y-113912928D01*
X117902588Y-113894447D01*
X117995988Y-113874594D01*
X118002019Y-113871909D01*
X118164422Y-113799603D01*
X118164424Y-113799602D01*
X118170452Y-113796918D01*
X118195175Y-113778956D01*
X118225857Y-113756664D01*
X118324953Y-113684666D01*
X118452740Y-113542744D01*
X118548227Y-113377356D01*
X118607242Y-113195728D01*
X118627204Y-113005800D01*
X118621312Y-112949740D01*
X118607932Y-112822435D01*
X118607932Y-112822433D01*
X118607242Y-112815872D01*
X118548227Y-112634244D01*
X118452740Y-112468856D01*
X118379563Y-112387585D01*
X118348847Y-112323579D01*
X118347200Y-112303276D01*
X118347200Y-106839934D01*
X139856500Y-106839934D01*
X139857827Y-106852997D01*
X139863735Y-106911158D01*
X139871619Y-106988780D01*
X139903000Y-107088914D01*
X139918160Y-107137289D01*
X139931369Y-107179440D01*
X139934463Y-107185022D01*
X139934464Y-107185024D01*
X139946699Y-107207096D01*
X140028235Y-107354191D01*
X140032391Y-107359040D01*
X140142232Y-107487194D01*
X140158261Y-107505896D01*
X140163298Y-107509803D01*
X140163300Y-107509805D01*
X140311093Y-107624445D01*
X140311096Y-107624447D01*
X140316137Y-107628357D01*
X140321863Y-107631175D01*
X140321867Y-107631177D01*
X140434945Y-107686818D01*
X140495411Y-107716571D01*
X140584906Y-107739883D01*
X140682580Y-107765325D01*
X140682583Y-107765325D01*
X140688762Y-107766935D01*
X140782256Y-107771835D01*
X140881911Y-107777058D01*
X140881915Y-107777058D01*
X140888292Y-107777392D01*
X141085848Y-107747514D01*
X141273361Y-107678523D01*
X141443172Y-107573235D01*
X141588344Y-107435953D01*
X141702946Y-107272284D01*
X141782298Y-107088914D01*
X141823156Y-106893334D01*
X141823500Y-106886771D01*
X141823500Y-106440066D01*
X141808381Y-106291220D01*
X141748631Y-106100560D01*
X141651765Y-105925809D01*
X141521739Y-105774104D01*
X141516700Y-105770195D01*
X141368907Y-105655555D01*
X141368904Y-105655553D01*
X141363863Y-105651643D01*
X141358137Y-105648825D01*
X141358133Y-105648823D01*
X141190318Y-105566248D01*
X141184589Y-105563429D01*
X141065797Y-105532486D01*
X140997420Y-105514675D01*
X140997417Y-105514675D01*
X140991238Y-105513065D01*
X140897744Y-105508165D01*
X140798089Y-105502942D01*
X140798085Y-105502942D01*
X140791708Y-105502608D01*
X140594152Y-105532486D01*
X140406639Y-105601477D01*
X140236828Y-105706765D01*
X140091656Y-105844047D01*
X139977054Y-106007716D01*
X139897702Y-106191086D01*
X139856844Y-106386666D01*
X139856500Y-106393229D01*
X139856500Y-106839934D01*
X118347200Y-106839934D01*
X118347200Y-104942378D01*
X118367202Y-104874257D01*
X118420858Y-104827764D01*
X118491132Y-104817660D01*
X118524448Y-104827271D01*
X118611677Y-104866108D01*
X118611685Y-104866111D01*
X118617712Y-104868794D01*
X118711112Y-104888647D01*
X118798056Y-104907128D01*
X118798061Y-104907128D01*
X118804513Y-104908500D01*
X118995487Y-104908500D01*
X119001939Y-104907128D01*
X119001944Y-104907128D01*
X119088888Y-104888647D01*
X119182288Y-104868794D01*
X119188321Y-104866108D01*
X119350722Y-104793803D01*
X119350724Y-104793802D01*
X119356752Y-104791118D01*
X119459642Y-104716364D01*
X119526510Y-104692505D01*
X119533703Y-104692300D01*
X130166297Y-104692300D01*
X130234418Y-104712302D01*
X130240358Y-104716364D01*
X130343248Y-104791118D01*
X130349276Y-104793802D01*
X130349278Y-104793803D01*
X130511679Y-104866108D01*
X130517712Y-104868794D01*
X130611112Y-104888647D01*
X130698056Y-104907128D01*
X130698061Y-104907128D01*
X130704513Y-104908500D01*
X130895487Y-104908500D01*
X130901939Y-104907128D01*
X130901944Y-104907128D01*
X130988888Y-104888647D01*
X131082288Y-104868794D01*
X131088321Y-104866108D01*
X131250722Y-104793803D01*
X131250724Y-104793802D01*
X131256752Y-104791118D01*
X131411253Y-104678866D01*
X131539040Y-104536944D01*
X131634527Y-104371556D01*
X131693542Y-104189928D01*
X131713504Y-104000000D01*
X131693542Y-103810072D01*
X131634527Y-103628444D01*
X131626156Y-103613944D01*
X131572900Y-103521703D01*
X131539040Y-103463056D01*
X131505045Y-103425300D01*
X131415675Y-103326045D01*
X131415674Y-103326044D01*
X131411253Y-103321134D01*
X131256752Y-103208882D01*
X131250724Y-103206198D01*
X131250722Y-103206197D01*
X131088319Y-103133891D01*
X131088318Y-103133891D01*
X131082288Y-103131206D01*
X130988888Y-103111353D01*
X130901944Y-103092872D01*
X130901939Y-103092872D01*
X130895487Y-103091500D01*
X130704513Y-103091500D01*
X130698061Y-103092872D01*
X130698056Y-103092872D01*
X130611112Y-103111353D01*
X130517712Y-103131206D01*
X130511682Y-103133891D01*
X130511681Y-103133891D01*
X130349278Y-103206197D01*
X130349276Y-103206198D01*
X130343248Y-103208882D01*
X130188747Y-103321134D01*
X130132492Y-103383612D01*
X130072049Y-103420850D01*
X130038858Y-103425300D01*
X122509594Y-103425300D01*
X122441473Y-103405298D01*
X122394980Y-103351642D01*
X122384876Y-103281368D01*
X122414370Y-103216788D01*
X122420484Y-103210220D01*
X123300302Y-102330403D01*
X123362612Y-102296379D01*
X123389395Y-102293500D01*
X133605400Y-102293500D01*
X133673521Y-102313502D01*
X133692747Y-102329843D01*
X133693020Y-102329540D01*
X133697932Y-102333963D01*
X133702347Y-102338866D01*
X133715754Y-102348607D01*
X133842007Y-102440335D01*
X133856848Y-102451118D01*
X133862876Y-102453802D01*
X133862878Y-102453803D01*
X134025281Y-102526109D01*
X134031312Y-102528794D01*
X134124712Y-102548647D01*
X134211656Y-102567128D01*
X134211661Y-102567128D01*
X134218113Y-102568500D01*
X134409087Y-102568500D01*
X134415539Y-102567128D01*
X134415544Y-102567128D01*
X134502488Y-102548647D01*
X134595888Y-102528794D01*
X134601919Y-102526109D01*
X134764322Y-102453803D01*
X134764324Y-102453802D01*
X134770352Y-102451118D01*
X134785194Y-102440335D01*
X134825757Y-102410864D01*
X134924853Y-102338866D01*
X134947691Y-102313502D01*
X135048221Y-102201852D01*
X135048222Y-102201851D01*
X135052640Y-102196944D01*
X135148127Y-102031556D01*
X135207142Y-101849928D01*
X135208193Y-101839934D01*
X139856500Y-101839934D01*
X139871619Y-101988780D01*
X139886818Y-102037279D01*
X139928371Y-102169872D01*
X139931369Y-102179440D01*
X139934463Y-102185022D01*
X139934464Y-102185024D01*
X139979586Y-102266425D01*
X140028235Y-102354191D01*
X140032391Y-102359040D01*
X140107985Y-102447237D01*
X140158261Y-102505896D01*
X140163298Y-102509803D01*
X140163300Y-102509805D01*
X140311093Y-102624445D01*
X140311096Y-102624447D01*
X140316137Y-102628357D01*
X140321863Y-102631175D01*
X140321867Y-102631177D01*
X140461167Y-102699721D01*
X140495411Y-102716571D01*
X140584906Y-102739883D01*
X140682580Y-102765325D01*
X140682583Y-102765325D01*
X140688762Y-102766935D01*
X140782256Y-102771835D01*
X140881911Y-102777058D01*
X140881915Y-102777058D01*
X140888292Y-102777392D01*
X141085848Y-102747514D01*
X141183110Y-102711729D01*
X141267371Y-102680727D01*
X141267372Y-102680727D01*
X141273361Y-102678523D01*
X141443172Y-102573235D01*
X141493007Y-102526109D01*
X141583710Y-102440335D01*
X141588344Y-102435953D01*
X141702946Y-102272284D01*
X141782298Y-102088914D01*
X141823156Y-101893334D01*
X141823500Y-101886771D01*
X141823500Y-101440066D01*
X141808381Y-101291220D01*
X141748631Y-101100560D01*
X141736137Y-101078019D01*
X141658855Y-100938600D01*
X141651765Y-100925809D01*
X141611087Y-100878349D01*
X141525891Y-100778948D01*
X141525890Y-100778947D01*
X141521739Y-100774104D01*
X141494367Y-100752872D01*
X141368907Y-100655555D01*
X141368904Y-100655553D01*
X141363863Y-100651643D01*
X141358137Y-100648825D01*
X141358133Y-100648823D01*
X141190318Y-100566248D01*
X141184589Y-100563429D01*
X141065797Y-100532486D01*
X140997420Y-100514675D01*
X140997417Y-100514675D01*
X140991238Y-100513065D01*
X140897744Y-100508165D01*
X140798089Y-100502942D01*
X140798085Y-100502942D01*
X140791708Y-100502608D01*
X140594152Y-100532486D01*
X140588165Y-100534689D01*
X140588164Y-100534689D01*
X140486886Y-100571952D01*
X140406639Y-100601477D01*
X140236828Y-100706765D01*
X140091656Y-100844047D01*
X139977054Y-101007716D01*
X139897702Y-101191086D01*
X139856844Y-101386666D01*
X139856500Y-101393229D01*
X139856500Y-101839934D01*
X135208193Y-101839934D01*
X135226414Y-101666565D01*
X135227104Y-101660000D01*
X135220080Y-101593167D01*
X135207832Y-101476635D01*
X135207832Y-101476633D01*
X135207142Y-101470072D01*
X135148127Y-101288444D01*
X135052640Y-101123056D01*
X135036482Y-101105110D01*
X134929275Y-100986045D01*
X134929274Y-100986044D01*
X134924853Y-100981134D01*
X134770352Y-100868882D01*
X134764324Y-100866198D01*
X134764322Y-100866197D01*
X134601919Y-100793891D01*
X134601918Y-100793891D01*
X134595888Y-100791206D01*
X134497040Y-100770195D01*
X134415544Y-100752872D01*
X134415539Y-100752872D01*
X134409087Y-100751500D01*
X134218113Y-100751500D01*
X134211661Y-100752872D01*
X134211656Y-100752872D01*
X134130160Y-100770195D01*
X134031312Y-100791206D01*
X134025282Y-100793891D01*
X134025281Y-100793891D01*
X133862878Y-100866197D01*
X133862876Y-100866198D01*
X133856848Y-100868882D01*
X133702347Y-100981134D01*
X133697932Y-100986037D01*
X133693020Y-100990460D01*
X133691895Y-100989211D01*
X133638586Y-101022051D01*
X133605400Y-101026500D01*
X123153567Y-101026500D01*
X123142384Y-101025973D01*
X123134891Y-101024298D01*
X123126965Y-101024547D01*
X123126964Y-101024547D01*
X123066801Y-101026438D01*
X123062843Y-101026500D01*
X123034944Y-101026500D01*
X123030954Y-101027004D01*
X123019120Y-101027936D01*
X122974911Y-101029326D01*
X122967297Y-101031538D01*
X122967292Y-101031539D01*
X122955459Y-101034977D01*
X122936096Y-101038988D01*
X122916003Y-101041526D01*
X122908636Y-101044443D01*
X122908631Y-101044444D01*
X122874892Y-101057802D01*
X122863665Y-101061646D01*
X122821207Y-101073982D01*
X122814381Y-101078019D01*
X122803772Y-101084293D01*
X122786024Y-101092988D01*
X122767183Y-101100448D01*
X122760767Y-101105110D01*
X122760766Y-101105110D01*
X122731413Y-101126436D01*
X122721493Y-101132952D01*
X122690265Y-101151420D01*
X122690262Y-101151422D01*
X122683438Y-101155458D01*
X122669117Y-101169779D01*
X122654084Y-101182619D01*
X122637693Y-101194528D01*
X122612672Y-101224773D01*
X122609502Y-101228605D01*
X122601512Y-101237384D01*
X121478200Y-102360695D01*
X121415888Y-102394721D01*
X121389105Y-102397600D01*
X121333213Y-102397600D01*
X121326761Y-102398972D01*
X121326756Y-102398972D01*
X121239813Y-102417453D01*
X121146412Y-102437306D01*
X121140382Y-102439991D01*
X121140381Y-102439991D01*
X120977978Y-102512297D01*
X120977976Y-102512298D01*
X120971948Y-102514982D01*
X120817447Y-102627234D01*
X120813026Y-102632144D01*
X120813025Y-102632145D01*
X120708288Y-102748468D01*
X120689660Y-102769156D01*
X120594173Y-102934544D01*
X120535158Y-103116172D01*
X120534468Y-103122733D01*
X120534468Y-103122735D01*
X120517795Y-103281368D01*
X120515196Y-103306100D01*
X120513928Y-103305967D01*
X120495884Y-103367421D01*
X120442228Y-103413914D01*
X120389886Y-103425300D01*
X119661142Y-103425300D01*
X119593021Y-103405298D01*
X119567511Y-103383615D01*
X119511253Y-103321134D01*
X119356752Y-103208882D01*
X119350724Y-103206198D01*
X119350722Y-103206197D01*
X119188319Y-103133891D01*
X119188318Y-103133891D01*
X119182288Y-103131206D01*
X119088888Y-103111353D01*
X119001944Y-103092872D01*
X119001939Y-103092872D01*
X118995487Y-103091500D01*
X118804513Y-103091500D01*
X118798058Y-103092872D01*
X118798049Y-103092873D01*
X118754130Y-103102209D01*
X118683339Y-103096808D01*
X118626706Y-103053992D01*
X118602212Y-102987355D01*
X118617632Y-102918053D01*
X118638837Y-102889868D01*
X120553200Y-100975505D01*
X120615512Y-100941479D01*
X120642295Y-100938600D01*
X120698187Y-100938600D01*
X120704639Y-100937228D01*
X120704644Y-100937228D01*
X120791587Y-100918747D01*
X120884988Y-100898894D01*
X120891019Y-100896209D01*
X121053422Y-100823903D01*
X121053424Y-100823902D01*
X121059452Y-100821218D01*
X121213953Y-100708966D01*
X121218962Y-100703403D01*
X121337321Y-100571952D01*
X121337322Y-100571951D01*
X121341740Y-100567044D01*
X121437227Y-100401656D01*
X121496242Y-100220028D01*
X121504880Y-100137847D01*
X121515514Y-100036665D01*
X121516204Y-100030100D01*
X121496242Y-99840172D01*
X121437227Y-99658544D01*
X121341740Y-99493156D01*
X121332913Y-99483352D01*
X121218375Y-99356145D01*
X121218374Y-99356144D01*
X121213953Y-99351234D01*
X121059452Y-99238982D01*
X121053424Y-99236298D01*
X121053422Y-99236297D01*
X120891019Y-99163991D01*
X120891018Y-99163991D01*
X120884988Y-99161306D01*
X120698187Y-99121600D01*
X120698817Y-99118637D01*
X120645275Y-99096482D01*
X120604762Y-99038178D01*
X120598300Y-98998344D01*
X120598300Y-98973658D01*
X120598827Y-98962502D01*
X120600498Y-98955026D01*
X120598362Y-98886941D01*
X120598300Y-98882990D01*
X120598300Y-98855044D01*
X120597803Y-98851109D01*
X120597795Y-98851043D01*
X120596865Y-98839216D01*
X120595728Y-98802971D01*
X120595728Y-98802968D01*
X120595479Y-98795045D01*
X120589822Y-98775569D01*
X120585816Y-98756222D01*
X120584267Y-98743964D01*
X120583274Y-98736103D01*
X120573093Y-98710387D01*
X120567008Y-98695019D01*
X120563161Y-98683783D01*
X120553044Y-98648953D01*
X120553043Y-98648951D01*
X120550832Y-98641339D01*
X120546798Y-98634518D01*
X120546795Y-98634510D01*
X120540510Y-98623882D01*
X120531815Y-98606134D01*
X120524352Y-98587283D01*
X120498383Y-98551539D01*
X120491864Y-98541615D01*
X120473399Y-98510390D01*
X120473398Y-98510389D01*
X120469363Y-98503565D01*
X120455025Y-98489226D01*
X120442191Y-98474199D01*
X120430272Y-98457793D01*
X120396218Y-98429621D01*
X120387440Y-98421633D01*
X120328865Y-98363051D01*
X120224388Y-98258563D01*
X120044965Y-98079120D01*
X120010943Y-98016805D01*
X120016012Y-97945990D01*
X120044970Y-97900934D01*
X120573267Y-97372637D01*
X120635579Y-97338611D01*
X120706394Y-97343676D01*
X120763230Y-97386223D01*
X120788041Y-97452743D01*
X120786183Y-97479622D01*
X120786658Y-97479672D01*
X120766696Y-97669600D01*
X120786658Y-97859528D01*
X120845673Y-98041156D01*
X120848976Y-98046878D01*
X120848977Y-98046879D01*
X120872006Y-98086766D01*
X120941160Y-98206544D01*
X120945578Y-98211451D01*
X120945579Y-98211452D01*
X121060550Y-98339140D01*
X121068947Y-98348466D01*
X121156767Y-98412271D01*
X121212469Y-98452741D01*
X121223448Y-98460718D01*
X121229476Y-98463402D01*
X121229478Y-98463403D01*
X121336004Y-98510831D01*
X121397912Y-98538394D01*
X121491312Y-98558247D01*
X121578256Y-98576728D01*
X121578261Y-98576728D01*
X121584713Y-98578100D01*
X121775687Y-98578100D01*
X121782139Y-98576728D01*
X121782144Y-98576728D01*
X121869088Y-98558247D01*
X121962488Y-98538394D01*
X122024396Y-98510831D01*
X122130922Y-98463403D01*
X122130924Y-98463402D01*
X122136952Y-98460718D01*
X122147932Y-98452741D01*
X122284804Y-98353297D01*
X122291453Y-98348466D01*
X122295868Y-98343563D01*
X122300780Y-98339140D01*
X122301905Y-98340389D01*
X122355214Y-98307549D01*
X122388400Y-98303100D01*
X133942106Y-98303100D01*
X134010227Y-98323102D01*
X134031201Y-98340005D01*
X134606996Y-98915800D01*
X134641022Y-98978112D01*
X134643211Y-99018066D01*
X134640296Y-99045800D01*
X134660258Y-99235728D01*
X134719273Y-99417356D01*
X134814760Y-99582744D01*
X134819178Y-99587651D01*
X134819179Y-99587652D01*
X134921380Y-99701158D01*
X134942547Y-99724666D01*
X135097048Y-99836918D01*
X135103076Y-99839602D01*
X135103078Y-99839603D01*
X135265481Y-99911909D01*
X135271512Y-99914594D01*
X135364913Y-99934447D01*
X135451856Y-99952928D01*
X135451861Y-99952928D01*
X135458313Y-99954300D01*
X135649287Y-99954300D01*
X135655739Y-99952928D01*
X135655744Y-99952928D01*
X135742687Y-99934447D01*
X135836088Y-99914594D01*
X135842119Y-99911909D01*
X136004522Y-99839603D01*
X136004524Y-99839602D01*
X136010552Y-99836918D01*
X136165053Y-99724666D01*
X136186220Y-99701158D01*
X136288421Y-99587652D01*
X136288422Y-99587651D01*
X136292840Y-99582744D01*
X136388327Y-99417356D01*
X136447342Y-99235728D01*
X136467304Y-99045800D01*
X136458107Y-98958297D01*
X136448032Y-98862435D01*
X136448032Y-98862433D01*
X136447342Y-98855872D01*
X136388327Y-98674244D01*
X136366857Y-98637056D01*
X136317483Y-98551539D01*
X136292840Y-98508856D01*
X136249497Y-98460718D01*
X136169475Y-98371845D01*
X136169474Y-98371844D01*
X136165053Y-98366934D01*
X136010552Y-98254682D01*
X136004524Y-98251998D01*
X136004522Y-98251997D01*
X135842119Y-98179691D01*
X135842118Y-98179691D01*
X135836088Y-98177006D01*
X135649287Y-98137300D01*
X135649911Y-98134363D01*
X135596300Y-98112247D01*
X135586125Y-98103120D01*
X134760352Y-97277347D01*
X134752812Y-97269061D01*
X134748700Y-97262582D01*
X134699048Y-97215956D01*
X134696207Y-97213202D01*
X134676470Y-97193465D01*
X134673273Y-97190985D01*
X134664251Y-97183280D01*
X134661609Y-97180799D01*
X134632021Y-97153014D01*
X134625075Y-97149195D01*
X134625072Y-97149193D01*
X134614266Y-97143252D01*
X134597747Y-97132401D01*
X134595941Y-97131000D01*
X134581741Y-97119986D01*
X134574472Y-97116841D01*
X134574468Y-97116838D01*
X134541163Y-97102426D01*
X134530513Y-97097209D01*
X134491760Y-97075905D01*
X134472137Y-97070867D01*
X134453434Y-97064463D01*
X134442120Y-97059567D01*
X134442119Y-97059567D01*
X134434845Y-97056419D01*
X134427022Y-97055180D01*
X134427012Y-97055177D01*
X134391176Y-97049501D01*
X134379556Y-97047095D01*
X134344411Y-97038072D01*
X134344410Y-97038072D01*
X134336730Y-97036100D01*
X134316476Y-97036100D01*
X134296765Y-97034549D01*
X134284586Y-97032620D01*
X134276757Y-97031380D01*
X134268865Y-97032126D01*
X134232739Y-97035541D01*
X134220881Y-97036100D01*
X122388400Y-97036100D01*
X122320279Y-97016098D01*
X122301053Y-96999757D01*
X122300780Y-97000060D01*
X122295868Y-96995637D01*
X122291453Y-96990734D01*
X122136952Y-96878482D01*
X122130924Y-96875798D01*
X122130922Y-96875797D01*
X121968519Y-96803491D01*
X121968518Y-96803491D01*
X121962488Y-96800806D01*
X121867469Y-96780609D01*
X121782144Y-96762472D01*
X121782139Y-96762472D01*
X121775687Y-96761100D01*
X121584713Y-96761100D01*
X121578253Y-96762473D01*
X121578254Y-96762473D01*
X121492928Y-96780609D01*
X121422138Y-96775207D01*
X121365505Y-96732390D01*
X121341012Y-96665752D01*
X121356433Y-96596451D01*
X121377637Y-96568267D01*
X121480286Y-96465619D01*
X122869754Y-95076151D01*
X122932066Y-95042125D01*
X123002882Y-95047190D01*
X123052482Y-95080932D01*
X123062147Y-95091666D01*
X123139535Y-95147892D01*
X123192098Y-95186081D01*
X123216648Y-95203918D01*
X123222676Y-95206602D01*
X123222678Y-95206603D01*
X123313176Y-95246895D01*
X123391112Y-95281594D01*
X123484513Y-95301447D01*
X123571456Y-95319928D01*
X123571461Y-95319928D01*
X123577913Y-95321300D01*
X123768887Y-95321300D01*
X123775339Y-95319928D01*
X123775344Y-95319928D01*
X123862287Y-95301447D01*
X123955688Y-95281594D01*
X124033624Y-95246895D01*
X124124122Y-95206603D01*
X124124124Y-95206602D01*
X124130152Y-95203918D01*
X124154703Y-95186081D01*
X124278034Y-95096475D01*
X124284653Y-95091666D01*
X124289068Y-95086763D01*
X124293980Y-95082340D01*
X124295105Y-95083589D01*
X124348414Y-95050749D01*
X124381600Y-95046300D01*
X138013133Y-95046300D01*
X138024316Y-95046827D01*
X138031809Y-95048502D01*
X138039735Y-95048253D01*
X138039736Y-95048253D01*
X138099886Y-95046362D01*
X138103845Y-95046300D01*
X138131756Y-95046300D01*
X138135691Y-95045803D01*
X138135756Y-95045795D01*
X138147593Y-95044862D01*
X138179851Y-95043848D01*
X138183870Y-95043722D01*
X138191789Y-95043473D01*
X138211243Y-95037821D01*
X138230600Y-95033813D01*
X138242830Y-95032268D01*
X138242831Y-95032268D01*
X138250697Y-95031274D01*
X138258068Y-95028355D01*
X138258070Y-95028355D01*
X138291812Y-95014996D01*
X138303042Y-95011151D01*
X138337883Y-95001029D01*
X138337884Y-95001029D01*
X138345493Y-94998818D01*
X138352312Y-94994785D01*
X138352317Y-94994783D01*
X138362928Y-94988507D01*
X138380676Y-94979812D01*
X138399517Y-94972352D01*
X138435287Y-94946364D01*
X138445207Y-94939848D01*
X138476435Y-94921380D01*
X138476438Y-94921378D01*
X138483262Y-94917342D01*
X138497583Y-94903021D01*
X138512616Y-94890181D01*
X138528539Y-94878612D01*
X138595406Y-94854753D01*
X138664558Y-94870832D01*
X138697836Y-94898047D01*
X138746250Y-94953938D01*
X138918126Y-95096632D01*
X139111000Y-95209338D01*
X139115825Y-95211180D01*
X139115826Y-95211181D01*
X139134605Y-95218352D01*
X139319692Y-95289030D01*
X139324760Y-95290061D01*
X139324763Y-95290062D01*
X139432017Y-95311883D01*
X139538597Y-95333567D01*
X139543772Y-95333757D01*
X139543774Y-95333757D01*
X139756673Y-95341564D01*
X139756677Y-95341564D01*
X139761837Y-95341753D01*
X139766957Y-95341097D01*
X139766959Y-95341097D01*
X139978288Y-95314025D01*
X139978289Y-95314025D01*
X139983416Y-95313368D01*
X139988366Y-95311883D01*
X140192429Y-95250661D01*
X140192434Y-95250659D01*
X140197384Y-95249174D01*
X140397994Y-95150896D01*
X140579860Y-95021173D01*
X140688091Y-94913319D01*
X140750462Y-94879404D01*
X140821268Y-94884592D01*
X140878030Y-94927238D01*
X140895012Y-94958341D01*
X140930790Y-95053779D01*
X140939385Y-95076705D01*
X141026739Y-95193261D01*
X141143295Y-95280615D01*
X141279684Y-95331745D01*
X141341866Y-95338500D01*
X143138134Y-95338500D01*
X143200316Y-95331745D01*
X143336705Y-95280615D01*
X143453261Y-95193261D01*
X143540615Y-95076705D01*
X143591745Y-94940316D01*
X143598500Y-94878134D01*
X143598500Y-93081866D01*
X143591745Y-93019684D01*
X143540615Y-92883295D01*
X143453261Y-92766739D01*
X143336705Y-92679385D01*
X143200316Y-92628255D01*
X143138134Y-92621500D01*
X141341866Y-92621500D01*
X141279684Y-92628255D01*
X141143295Y-92679385D01*
X141026739Y-92766739D01*
X140939385Y-92883295D01*
X140936233Y-92891703D01*
X140894919Y-93001907D01*
X140852277Y-93058671D01*
X140785716Y-93083371D01*
X140716367Y-93068163D01*
X140683743Y-93042476D01*
X140633151Y-92986875D01*
X140633142Y-92986866D01*
X140629670Y-92983051D01*
X140625619Y-92979852D01*
X140625615Y-92979848D01*
X140458414Y-92847800D01*
X140458410Y-92847798D01*
X140454359Y-92844598D01*
X140258789Y-92736638D01*
X140253920Y-92734914D01*
X140253916Y-92734912D01*
X140053087Y-92663795D01*
X140053083Y-92663794D01*
X140048212Y-92662069D01*
X140043119Y-92661162D01*
X140043116Y-92661161D01*
X139833373Y-92623800D01*
X139833367Y-92623799D01*
X139828284Y-92622894D01*
X139754452Y-92621992D01*
X139610081Y-92620228D01*
X139610079Y-92620228D01*
X139604911Y-92620165D01*
X139384091Y-92653955D01*
X139171756Y-92723357D01*
X138973607Y-92826507D01*
X138969474Y-92829610D01*
X138969471Y-92829612D01*
X138799100Y-92957530D01*
X138794965Y-92960635D01*
X138755525Y-93001907D01*
X138656511Y-93105519D01*
X138640629Y-93122138D01*
X138522905Y-93294715D01*
X138467994Y-93339717D01*
X138438531Y-93348158D01*
X138432729Y-93349077D01*
X138424811Y-93349326D01*
X138417203Y-93351536D01*
X138417199Y-93351537D01*
X138405352Y-93354979D01*
X138385993Y-93358988D01*
X138384683Y-93359154D01*
X138365903Y-93361526D01*
X138358537Y-93364442D01*
X138358531Y-93364444D01*
X138324798Y-93377800D01*
X138313568Y-93381645D01*
X138278717Y-93391770D01*
X138271107Y-93393981D01*
X138264284Y-93398016D01*
X138253666Y-93404295D01*
X138235913Y-93412992D01*
X138228268Y-93416019D01*
X138217083Y-93420448D01*
X138210668Y-93425109D01*
X138181312Y-93446437D01*
X138171395Y-93452951D01*
X138133338Y-93475458D01*
X138119017Y-93489779D01*
X138103984Y-93502619D01*
X138087593Y-93514528D01*
X138061216Y-93546413D01*
X138059412Y-93548593D01*
X138051422Y-93557374D01*
X137866399Y-93742396D01*
X137804087Y-93776421D01*
X137777304Y-93779300D01*
X124765395Y-93779300D01*
X124697274Y-93759298D01*
X124650781Y-93705642D01*
X124640677Y-93635368D01*
X124670171Y-93570788D01*
X124676300Y-93564204D01*
X124719868Y-93520637D01*
X124935401Y-93305104D01*
X124997713Y-93271079D01*
X125024496Y-93268200D01*
X131508733Y-93268200D01*
X131519916Y-93268727D01*
X131527409Y-93270402D01*
X131535335Y-93270153D01*
X131535336Y-93270153D01*
X131595486Y-93268262D01*
X131599445Y-93268200D01*
X131627356Y-93268200D01*
X131631291Y-93267703D01*
X131631356Y-93267695D01*
X131643193Y-93266762D01*
X131675451Y-93265748D01*
X131679470Y-93265622D01*
X131687389Y-93265373D01*
X131706843Y-93259721D01*
X131726200Y-93255713D01*
X131738430Y-93254168D01*
X131738431Y-93254168D01*
X131746297Y-93253174D01*
X131753668Y-93250255D01*
X131753670Y-93250255D01*
X131787412Y-93236896D01*
X131798642Y-93233051D01*
X131833483Y-93222929D01*
X131833484Y-93222929D01*
X131841093Y-93220718D01*
X131847912Y-93216685D01*
X131847917Y-93216683D01*
X131858528Y-93210407D01*
X131876276Y-93201712D01*
X131895117Y-93194252D01*
X131930887Y-93168264D01*
X131940807Y-93161748D01*
X131972035Y-93143280D01*
X131972038Y-93143278D01*
X131978862Y-93139242D01*
X131993183Y-93124921D01*
X132008217Y-93112080D01*
X132008612Y-93111793D01*
X132024607Y-93100172D01*
X132052798Y-93066095D01*
X132060788Y-93057316D01*
X135584299Y-89533805D01*
X135646611Y-89499779D01*
X135673394Y-89496900D01*
X135729287Y-89496900D01*
X135735739Y-89495528D01*
X135735744Y-89495528D01*
X135837215Y-89473959D01*
X135916088Y-89457194D01*
X135938066Y-89447409D01*
X136084522Y-89382203D01*
X136084524Y-89382202D01*
X136090552Y-89379518D01*
X136133874Y-89348043D01*
X136158201Y-89330368D01*
X136245053Y-89267266D01*
X136249475Y-89262355D01*
X136368421Y-89130252D01*
X136368422Y-89130251D01*
X136372840Y-89125344D01*
X136468327Y-88959956D01*
X136527342Y-88778328D01*
X136547304Y-88588400D01*
X136544707Y-88563692D01*
X136528032Y-88405035D01*
X136528032Y-88405033D01*
X136527342Y-88398472D01*
X136468327Y-88216844D01*
X136372840Y-88051456D01*
X136258665Y-87924651D01*
X136249475Y-87914445D01*
X136249474Y-87914444D01*
X136245053Y-87909534D01*
X136090552Y-87797282D01*
X136084524Y-87794598D01*
X136084522Y-87794597D01*
X135922119Y-87722291D01*
X135922118Y-87722291D01*
X135916088Y-87719606D01*
X135822687Y-87699753D01*
X135735744Y-87681272D01*
X135735739Y-87681272D01*
X135729287Y-87679900D01*
X135538313Y-87679900D01*
X135531861Y-87681272D01*
X135531856Y-87681272D01*
X135444913Y-87699753D01*
X135351512Y-87719606D01*
X135345482Y-87722291D01*
X135345481Y-87722291D01*
X135183078Y-87794597D01*
X135183076Y-87794598D01*
X135177048Y-87797282D01*
X135022547Y-87909534D01*
X135018126Y-87914444D01*
X135018125Y-87914445D01*
X135008936Y-87924651D01*
X134894760Y-88051456D01*
X134799273Y-88216844D01*
X134740258Y-88398472D01*
X134739568Y-88405033D01*
X134739568Y-88405035D01*
X134722893Y-88563692D01*
X134695880Y-88629349D01*
X134686678Y-88639617D01*
X131362000Y-91964295D01*
X131299688Y-91998321D01*
X131272905Y-92001200D01*
X124788667Y-92001200D01*
X124777484Y-92000673D01*
X124769991Y-91998998D01*
X124762065Y-91999247D01*
X124762064Y-91999247D01*
X124701914Y-92001138D01*
X124697955Y-92001200D01*
X124670044Y-92001200D01*
X124666110Y-92001697D01*
X124666109Y-92001697D01*
X124666044Y-92001705D01*
X124654207Y-92002638D01*
X124621949Y-92003652D01*
X124617930Y-92003778D01*
X124610011Y-92004027D01*
X124590557Y-92009679D01*
X124571200Y-92013687D01*
X124558970Y-92015232D01*
X124558969Y-92015232D01*
X124551103Y-92016226D01*
X124543732Y-92019145D01*
X124543730Y-92019145D01*
X124509988Y-92032504D01*
X124498758Y-92036349D01*
X124463917Y-92046471D01*
X124463916Y-92046471D01*
X124456307Y-92048682D01*
X124449488Y-92052715D01*
X124449483Y-92052717D01*
X124438872Y-92058993D01*
X124421124Y-92067688D01*
X124402283Y-92075148D01*
X124395867Y-92079810D01*
X124395866Y-92079810D01*
X124366513Y-92101136D01*
X124356593Y-92107652D01*
X124325365Y-92126120D01*
X124325362Y-92126122D01*
X124318538Y-92130158D01*
X124304217Y-92144479D01*
X124289184Y-92157319D01*
X124272793Y-92169228D01*
X124267743Y-92175332D01*
X124267738Y-92175337D01*
X124244607Y-92203298D01*
X124236617Y-92212079D01*
X123431599Y-93017096D01*
X123369287Y-93051121D01*
X123342504Y-93054000D01*
X123322644Y-93054000D01*
X123318654Y-93054504D01*
X123306820Y-93055436D01*
X123262611Y-93056826D01*
X123254997Y-93059038D01*
X123254992Y-93059039D01*
X123243159Y-93062477D01*
X123223796Y-93066488D01*
X123203703Y-93069026D01*
X123196336Y-93071943D01*
X123196331Y-93071944D01*
X123162592Y-93085302D01*
X123151365Y-93089146D01*
X123108907Y-93101482D01*
X123102081Y-93105519D01*
X123091472Y-93111793D01*
X123073724Y-93120488D01*
X123054883Y-93127948D01*
X123048467Y-93132610D01*
X123048466Y-93132610D01*
X123019113Y-93153936D01*
X123009193Y-93160452D01*
X122977965Y-93178920D01*
X122977962Y-93178922D01*
X122971138Y-93182958D01*
X122956817Y-93197279D01*
X122941784Y-93210119D01*
X122925393Y-93222028D01*
X122920342Y-93228134D01*
X122897202Y-93256105D01*
X122889212Y-93264884D01*
X119312566Y-96841529D01*
X119250254Y-96875555D01*
X119179438Y-96870490D01*
X119129835Y-96836744D01*
X119037275Y-96733945D01*
X119037274Y-96733944D01*
X119032853Y-96729034D01*
X118901366Y-96633502D01*
X118858012Y-96577281D01*
X118851937Y-96506545D01*
X118886332Y-96442472D01*
X131482999Y-83845805D01*
X131545311Y-83811779D01*
X131572094Y-83808900D01*
X135555200Y-83808900D01*
X135623321Y-83828902D01*
X135642547Y-83845243D01*
X135642820Y-83844940D01*
X135647732Y-83849363D01*
X135652147Y-83854266D01*
X135806648Y-83966518D01*
X135812676Y-83969202D01*
X135812678Y-83969203D01*
X135975081Y-84041509D01*
X135981112Y-84044194D01*
X136074513Y-84064047D01*
X136161456Y-84082528D01*
X136161461Y-84082528D01*
X136167913Y-84083900D01*
X136358887Y-84083900D01*
X136365339Y-84082528D01*
X136365344Y-84082528D01*
X136452287Y-84064047D01*
X136545688Y-84044194D01*
X136551719Y-84041509D01*
X136714122Y-83969203D01*
X136714124Y-83969202D01*
X136720152Y-83966518D01*
X136874653Y-83854266D01*
X136897491Y-83828902D01*
X136998021Y-83717252D01*
X136998022Y-83717251D01*
X137002440Y-83712344D01*
X137097927Y-83546956D01*
X137156942Y-83365328D01*
X137176904Y-83175400D01*
X137156942Y-82985472D01*
X137097927Y-82803844D01*
X137002440Y-82638456D01*
X136986281Y-82620509D01*
X136879075Y-82501445D01*
X136879074Y-82501444D01*
X136874653Y-82496534D01*
X136775557Y-82424536D01*
X136725494Y-82388163D01*
X136725493Y-82388162D01*
X136720152Y-82384282D01*
X136714124Y-82381598D01*
X136714122Y-82381597D01*
X136551719Y-82309291D01*
X136551718Y-82309291D01*
X136545688Y-82306606D01*
X136452287Y-82286753D01*
X136365344Y-82268272D01*
X136365339Y-82268272D01*
X136358887Y-82266900D01*
X136167913Y-82266900D01*
X136161461Y-82268272D01*
X136161456Y-82268272D01*
X136074513Y-82286753D01*
X135981112Y-82306606D01*
X135975082Y-82309291D01*
X135975081Y-82309291D01*
X135812678Y-82381597D01*
X135812676Y-82381598D01*
X135806648Y-82384282D01*
X135801307Y-82388162D01*
X135801306Y-82388163D01*
X135742035Y-82431226D01*
X135652147Y-82496534D01*
X135647732Y-82501437D01*
X135642820Y-82505860D01*
X135641695Y-82504611D01*
X135588386Y-82537451D01*
X135555200Y-82541900D01*
X131336268Y-82541900D01*
X131325085Y-82541373D01*
X131317592Y-82539698D01*
X131309666Y-82539947D01*
X131309665Y-82539947D01*
X131249502Y-82541838D01*
X131245544Y-82541900D01*
X131217644Y-82541900D01*
X131213654Y-82542404D01*
X131201820Y-82543336D01*
X131157611Y-82544726D01*
X131149995Y-82546939D01*
X131149993Y-82546939D01*
X131138152Y-82550379D01*
X131118793Y-82554388D01*
X131117483Y-82554554D01*
X131098703Y-82556926D01*
X131091337Y-82559842D01*
X131091331Y-82559844D01*
X131057598Y-82573200D01*
X131046368Y-82577045D01*
X131011517Y-82587170D01*
X131003907Y-82589381D01*
X130997084Y-82593416D01*
X130986466Y-82599695D01*
X130968713Y-82608392D01*
X130961068Y-82611419D01*
X130949883Y-82615848D01*
X130943468Y-82620509D01*
X130914112Y-82641837D01*
X130904195Y-82648351D01*
X130866138Y-82670858D01*
X130851817Y-82685179D01*
X130836784Y-82698019D01*
X130820393Y-82709928D01*
X130815342Y-82716034D01*
X130792202Y-82744005D01*
X130784212Y-82752784D01*
X116528547Y-97008448D01*
X116520261Y-97015988D01*
X116513782Y-97020100D01*
X116508357Y-97025877D01*
X116467157Y-97069751D01*
X116464402Y-97072593D01*
X116444665Y-97092330D01*
X116442185Y-97095527D01*
X116434482Y-97104547D01*
X116404214Y-97136779D01*
X116400395Y-97143725D01*
X116400393Y-97143728D01*
X116394452Y-97154534D01*
X116383601Y-97171053D01*
X116371186Y-97187059D01*
X116368041Y-97194328D01*
X116368038Y-97194332D01*
X116353626Y-97227637D01*
X116348409Y-97238287D01*
X116327105Y-97277040D01*
X116325134Y-97284715D01*
X116325134Y-97284716D01*
X116322067Y-97296662D01*
X116315663Y-97315366D01*
X116307619Y-97333955D01*
X116306380Y-97341778D01*
X116306377Y-97341788D01*
X116300701Y-97377624D01*
X116298295Y-97389244D01*
X116294680Y-97403324D01*
X116287300Y-97432070D01*
X116287300Y-97452324D01*
X116285749Y-97472034D01*
X116282580Y-97492043D01*
X116283326Y-97499935D01*
X116286741Y-97536061D01*
X116287300Y-97547919D01*
X116287300Y-98626076D01*
X116267298Y-98694197D01*
X116254942Y-98710379D01*
X116181760Y-98791656D01*
X116086273Y-98957044D01*
X116080875Y-98973658D01*
X116064833Y-99023029D01*
X116024759Y-99081635D01*
X115959363Y-99109272D01*
X115889406Y-99097165D01*
X115837100Y-99049159D01*
X115819000Y-98984093D01*
X115819000Y-96744394D01*
X115839002Y-96676273D01*
X115855905Y-96655299D01*
X116889299Y-95621905D01*
X116951611Y-95587879D01*
X116978394Y-95585000D01*
X117034287Y-95585000D01*
X117040739Y-95583628D01*
X117040744Y-95583628D01*
X117127688Y-95565147D01*
X117221088Y-95545294D01*
X117227119Y-95542609D01*
X117389522Y-95470303D01*
X117389524Y-95470302D01*
X117395552Y-95467618D01*
X117550053Y-95355366D01*
X117565239Y-95338500D01*
X117673421Y-95218352D01*
X117673422Y-95218351D01*
X117677840Y-95213444D01*
X117754346Y-95080932D01*
X117770023Y-95053779D01*
X117770024Y-95053778D01*
X117773327Y-95048056D01*
X117832342Y-94866428D01*
X117852304Y-94676500D01*
X117832342Y-94486572D01*
X117773327Y-94304944D01*
X117677840Y-94139556D01*
X117550053Y-93997634D01*
X117395552Y-93885382D01*
X117389524Y-93882698D01*
X117389522Y-93882697D01*
X117227119Y-93810391D01*
X117227118Y-93810391D01*
X117221088Y-93807706D01*
X117127688Y-93787853D01*
X117040744Y-93769372D01*
X117040739Y-93769372D01*
X117034287Y-93768000D01*
X116843313Y-93768000D01*
X116836861Y-93769372D01*
X116836856Y-93769372D01*
X116749912Y-93787853D01*
X116656512Y-93807706D01*
X116650482Y-93810391D01*
X116650481Y-93810391D01*
X116488078Y-93882697D01*
X116488076Y-93882698D01*
X116482048Y-93885382D01*
X116327547Y-93997634D01*
X116199760Y-94139556D01*
X116104273Y-94304944D01*
X116045258Y-94486572D01*
X116044568Y-94493133D01*
X116044568Y-94493135D01*
X116027893Y-94651793D01*
X116000880Y-94717450D01*
X115991678Y-94727718D01*
X115390424Y-95328971D01*
X114793247Y-95926148D01*
X114784961Y-95933688D01*
X114778482Y-95937800D01*
X114773057Y-95943577D01*
X114731857Y-95987451D01*
X114729102Y-95990293D01*
X114709365Y-96010030D01*
X114706885Y-96013227D01*
X114699182Y-96022247D01*
X114668914Y-96054479D01*
X114665095Y-96061425D01*
X114665093Y-96061428D01*
X114659152Y-96072234D01*
X114648301Y-96088753D01*
X114635886Y-96104759D01*
X114632741Y-96112028D01*
X114632738Y-96112032D01*
X114618326Y-96145337D01*
X114613109Y-96155987D01*
X114591805Y-96194740D01*
X114589834Y-96202415D01*
X114589834Y-96202416D01*
X114586767Y-96214362D01*
X114580363Y-96233066D01*
X114572319Y-96251655D01*
X114571080Y-96259478D01*
X114571077Y-96259488D01*
X114565401Y-96295324D01*
X114562995Y-96306944D01*
X114552000Y-96349770D01*
X114552000Y-96370024D01*
X114550449Y-96389734D01*
X114547280Y-96409743D01*
X114548026Y-96417635D01*
X114551441Y-96453761D01*
X114552000Y-96465619D01*
X114552000Y-107017721D01*
X114531998Y-107085842D01*
X114478342Y-107132335D01*
X114412831Y-107143031D01*
X114352075Y-107136645D01*
X114281905Y-107143031D01*
X114161251Y-107154011D01*
X114161248Y-107154012D01*
X114155112Y-107154570D01*
X114149206Y-107156308D01*
X114149202Y-107156309D01*
X114002841Y-107199385D01*
X113965381Y-107210410D01*
X113959797Y-107213329D01*
X113959727Y-107213343D01*
X113954209Y-107215573D01*
X113953785Y-107214524D01*
X113890164Y-107227165D01*
X113837846Y-107207096D01*
X113836760Y-107209079D01*
X113828892Y-107204771D01*
X113821705Y-107199385D01*
X113685316Y-107148255D01*
X113623134Y-107141500D01*
X112526866Y-107141500D01*
X112464684Y-107148255D01*
X112437841Y-107158318D01*
X112336699Y-107196234D01*
X112336696Y-107196236D01*
X112328295Y-107199385D01*
X112324090Y-107202536D01*
X112256563Y-107217305D01*
X112190015Y-107192569D01*
X112176316Y-107180711D01*
X111550805Y-106555200D01*
X111516779Y-106492888D01*
X111513900Y-106466105D01*
X111513900Y-104013168D01*
X111514427Y-104001985D01*
X111516102Y-103994492D01*
X111515820Y-103985500D01*
X111513962Y-103926402D01*
X111513900Y-103922444D01*
X111513900Y-103894544D01*
X111513396Y-103890553D01*
X111512463Y-103878711D01*
X111512215Y-103870803D01*
X111511074Y-103834511D01*
X111508862Y-103826897D01*
X111508861Y-103826892D01*
X111505423Y-103815059D01*
X111501412Y-103795695D01*
X111499867Y-103783464D01*
X111498874Y-103775603D01*
X111495957Y-103768236D01*
X111495956Y-103768231D01*
X111482598Y-103734492D01*
X111478754Y-103723265D01*
X111468630Y-103688422D01*
X111466418Y-103680807D01*
X111456107Y-103663372D01*
X111447412Y-103645624D01*
X111439952Y-103626783D01*
X111413964Y-103591013D01*
X111407448Y-103581093D01*
X111388980Y-103549865D01*
X111388978Y-103549862D01*
X111384942Y-103543038D01*
X111370621Y-103528717D01*
X111357780Y-103513683D01*
X111350531Y-103503706D01*
X111345872Y-103497293D01*
X111339767Y-103492242D01*
X111339762Y-103492237D01*
X111311802Y-103469106D01*
X111303024Y-103461119D01*
X111147872Y-103305967D01*
X110970122Y-103128218D01*
X110936097Y-103065905D01*
X110933907Y-103052292D01*
X110917232Y-102893635D01*
X110917232Y-102893633D01*
X110916542Y-102887072D01*
X110857527Y-102705444D01*
X110840043Y-102675160D01*
X110765341Y-102545774D01*
X110762040Y-102540056D01*
X110678466Y-102447237D01*
X110638675Y-102403045D01*
X110638674Y-102403044D01*
X110634253Y-102398134D01*
X110479752Y-102285882D01*
X110473724Y-102283198D01*
X110473722Y-102283197D01*
X110311319Y-102210891D01*
X110311318Y-102210891D01*
X110305288Y-102208206D01*
X110195478Y-102184865D01*
X110124944Y-102169872D01*
X110124939Y-102169872D01*
X110118487Y-102168500D01*
X109927513Y-102168500D01*
X109921061Y-102169872D01*
X109921056Y-102169872D01*
X109850522Y-102184865D01*
X109740712Y-102208206D01*
X109734682Y-102210891D01*
X109734681Y-102210891D01*
X109572278Y-102283197D01*
X109572276Y-102283198D01*
X109566248Y-102285882D01*
X109411747Y-102398134D01*
X109407326Y-102403044D01*
X109407325Y-102403045D01*
X109367535Y-102447237D01*
X109283960Y-102540056D01*
X109280659Y-102545774D01*
X109205958Y-102675160D01*
X109188473Y-102705444D01*
X109129458Y-102887072D01*
X109128768Y-102893633D01*
X109128768Y-102893635D01*
X109123808Y-102940829D01*
X109109496Y-103077000D01*
X109110186Y-103083565D01*
X109111754Y-103098479D01*
X109129458Y-103266928D01*
X109188473Y-103448556D01*
X109191776Y-103454278D01*
X109191777Y-103454279D01*
X109213692Y-103492237D01*
X109283960Y-103613944D01*
X109288378Y-103618851D01*
X109288379Y-103618852D01*
X109392502Y-103734492D01*
X109411747Y-103755866D01*
X109566248Y-103868118D01*
X109572276Y-103870802D01*
X109572278Y-103870803D01*
X109734681Y-103943109D01*
X109740712Y-103945794D01*
X109834112Y-103965647D01*
X109921056Y-103984128D01*
X109921061Y-103984128D01*
X109927513Y-103985500D01*
X109983406Y-103985500D01*
X110051527Y-104005502D01*
X110072501Y-104022405D01*
X110209995Y-104159899D01*
X110244021Y-104222211D01*
X110246900Y-104248994D01*
X110246900Y-106701933D01*
X110246373Y-106713116D01*
X110244698Y-106720609D01*
X110244947Y-106728535D01*
X110244947Y-106728536D01*
X110246838Y-106788686D01*
X110246900Y-106792645D01*
X110246900Y-106820556D01*
X110247397Y-106824490D01*
X110247397Y-106824491D01*
X110247405Y-106824556D01*
X110248338Y-106836393D01*
X110249727Y-106880589D01*
X110253430Y-106893334D01*
X110255378Y-106900039D01*
X110259387Y-106919400D01*
X110261926Y-106939497D01*
X110264845Y-106946868D01*
X110264845Y-106946870D01*
X110278204Y-106980612D01*
X110282049Y-106991842D01*
X110292171Y-107026683D01*
X110294382Y-107034293D01*
X110298415Y-107041112D01*
X110298417Y-107041117D01*
X110304693Y-107051728D01*
X110313388Y-107069476D01*
X110320848Y-107088317D01*
X110325510Y-107094733D01*
X110325510Y-107094734D01*
X110346836Y-107124087D01*
X110353352Y-107134007D01*
X110367730Y-107158318D01*
X110375858Y-107172062D01*
X110390179Y-107186383D01*
X110403019Y-107201416D01*
X110414928Y-107217807D01*
X110421034Y-107222858D01*
X110449005Y-107245998D01*
X110457784Y-107253988D01*
X111746043Y-108542247D01*
X111753587Y-108550537D01*
X111757700Y-108557018D01*
X111763477Y-108562443D01*
X111807367Y-108603658D01*
X111810209Y-108606413D01*
X111829931Y-108626135D01*
X111833055Y-108628558D01*
X111833059Y-108628562D01*
X111833124Y-108628612D01*
X111842145Y-108636317D01*
X111874379Y-108666586D01*
X111881327Y-108670405D01*
X111881329Y-108670407D01*
X111892132Y-108676346D01*
X111908659Y-108687202D01*
X111918398Y-108694757D01*
X111918400Y-108694758D01*
X111924660Y-108699614D01*
X111965240Y-108717174D01*
X111975888Y-108722391D01*
X112007694Y-108739877D01*
X112007698Y-108739879D01*
X112014640Y-108743695D01*
X112022319Y-108745667D01*
X112023704Y-108746215D01*
X112079679Y-108789888D01*
X112095306Y-108819138D01*
X112124385Y-108896705D01*
X112129766Y-108903885D01*
X112134079Y-108911763D01*
X112132004Y-108912899D01*
X112152362Y-108967387D01*
X112143389Y-109020782D01*
X112144029Y-109020985D01*
X112142595Y-109025505D01*
X112142497Y-109026089D01*
X112142162Y-109026870D01*
X112103506Y-109148731D01*
X112103202Y-109162831D01*
X112109763Y-109166000D01*
X113203000Y-109166000D01*
X113271121Y-109186002D01*
X113317614Y-109239658D01*
X113329000Y-109292000D01*
X113329000Y-110818000D01*
X113308998Y-110886121D01*
X113255342Y-110932614D01*
X113203000Y-110944000D01*
X112117282Y-110944000D01*
X112103751Y-110947973D01*
X112102601Y-110955975D01*
X112131552Y-111056941D01*
X112136067Y-111068345D01*
X112220794Y-111233207D01*
X112227432Y-111243507D01*
X112229131Y-111245650D01*
X112229667Y-111246975D01*
X112230774Y-111248692D01*
X112230448Y-111248902D01*
X112255770Y-111311460D01*
X112242600Y-111381224D01*
X112238979Y-111387316D01*
X112238846Y-111387474D01*
X112143567Y-111560787D01*
X112083765Y-111749306D01*
X112061719Y-111945851D01*
X112078268Y-112142934D01*
X112132783Y-112333050D01*
X112223187Y-112508956D01*
X112229164Y-112516497D01*
X112229843Y-112518174D01*
X112230353Y-112518966D01*
X112230203Y-112519063D01*
X112255802Y-112582304D01*
X112242633Y-112652069D01*
X112239254Y-112657754D01*
X112239262Y-112657758D01*
X112146998Y-112825585D01*
X112142166Y-112836858D01*
X112103506Y-112958731D01*
X112103202Y-112972831D01*
X112109763Y-112976000D01*
X113203000Y-112976000D01*
X113271121Y-112996002D01*
X113317614Y-113049658D01*
X113329000Y-113102000D01*
X113329000Y-114187564D01*
X113332973Y-114201095D01*
X113341188Y-114202276D01*
X113435337Y-114175989D01*
X113446787Y-114171548D01*
X113612226Y-114087979D01*
X113622588Y-114081403D01*
X113631074Y-114074773D01*
X113697068Y-114048595D01*
X113770117Y-114064074D01*
X113939294Y-114158624D01*
X114127392Y-114219740D01*
X114323777Y-114243158D01*
X114329912Y-114242686D01*
X114329914Y-114242686D01*
X114514830Y-114228457D01*
X114514834Y-114228456D01*
X114520972Y-114227984D01*
X114711463Y-114174798D01*
X114716967Y-114172018D01*
X114716969Y-114172017D01*
X114882495Y-114088404D01*
X114882497Y-114088403D01*
X114887996Y-114085625D01*
X114993528Y-114003175D01*
X115059521Y-113976997D01*
X115129192Y-113990654D01*
X115180419Y-114039810D01*
X115197100Y-114102464D01*
X115197100Y-119740906D01*
X115177098Y-119809027D01*
X115160195Y-119830001D01*
X113760600Y-121229595D01*
X113698288Y-121263621D01*
X113671505Y-121266500D01*
X109508200Y-121266500D01*
X109440079Y-121246498D01*
X109420853Y-121230157D01*
X109420580Y-121230460D01*
X109415668Y-121226037D01*
X109411253Y-121221134D01*
X109256752Y-121108882D01*
X109250724Y-121106198D01*
X109250722Y-121106197D01*
X109088319Y-121033891D01*
X109088318Y-121033891D01*
X109082288Y-121031206D01*
X108988888Y-121011353D01*
X108901944Y-120992872D01*
X108901939Y-120992872D01*
X108895487Y-120991500D01*
X108704513Y-120991500D01*
X108698061Y-120992872D01*
X108698056Y-120992872D01*
X108611112Y-121011353D01*
X108517712Y-121031206D01*
X108511682Y-121033891D01*
X108511681Y-121033891D01*
X108349278Y-121106197D01*
X108349276Y-121106198D01*
X108343248Y-121108882D01*
X108188747Y-121221134D01*
X108184326Y-121226044D01*
X108184325Y-121226045D01*
X108150492Y-121263621D01*
X108060960Y-121363056D01*
X107965473Y-121528444D01*
X107906458Y-121710072D01*
X107886496Y-121900000D01*
X107906458Y-122089928D01*
X107965473Y-122271556D01*
X108060960Y-122436944D01*
X108188747Y-122578866D01*
X108240953Y-122616796D01*
X108318541Y-122673167D01*
X108343248Y-122691118D01*
X108349276Y-122693802D01*
X108349278Y-122693803D01*
X108457558Y-122742012D01*
X108517712Y-122768794D01*
X108611112Y-122788647D01*
X108698056Y-122807128D01*
X108698061Y-122807128D01*
X108704513Y-122808500D01*
X108895487Y-122808500D01*
X108901939Y-122807128D01*
X108901944Y-122807128D01*
X108988888Y-122788647D01*
X109082288Y-122768794D01*
X109142442Y-122742012D01*
X109250722Y-122693803D01*
X109250724Y-122693802D01*
X109256752Y-122691118D01*
X109281460Y-122673167D01*
X109389671Y-122594546D01*
X109411253Y-122578866D01*
X109415668Y-122573963D01*
X109420580Y-122569540D01*
X109421705Y-122570789D01*
X109475014Y-122537949D01*
X109508200Y-122533500D01*
X110966405Y-122533500D01*
X111034526Y-122553502D01*
X111081019Y-122607158D01*
X111091123Y-122677432D01*
X111061629Y-122742012D01*
X111055500Y-122748595D01*
X110749500Y-123054595D01*
X110687188Y-123088621D01*
X110660405Y-123091500D01*
X110604513Y-123091500D01*
X110598061Y-123092872D01*
X110598056Y-123092872D01*
X110511112Y-123111353D01*
X110417712Y-123131206D01*
X110411682Y-123133891D01*
X110411681Y-123133891D01*
X110249278Y-123206197D01*
X110249276Y-123206198D01*
X110243248Y-123208882D01*
X110088747Y-123321134D01*
X110084326Y-123326044D01*
X110084325Y-123326045D01*
X110032700Y-123383381D01*
X109960960Y-123463056D01*
X109865473Y-123628444D01*
X109806458Y-123810072D01*
X109786496Y-124000000D01*
X109787186Y-124006565D01*
X109787186Y-124006568D01*
X109789368Y-124027331D01*
X109776595Y-124097169D01*
X109728092Y-124149015D01*
X109664058Y-124166500D01*
X108808200Y-124166500D01*
X108740079Y-124146498D01*
X108720853Y-124130157D01*
X108720580Y-124130460D01*
X108715668Y-124126037D01*
X108711253Y-124121134D01*
X108672313Y-124092842D01*
X108562094Y-124012763D01*
X108562093Y-124012762D01*
X108556752Y-124008882D01*
X108550724Y-124006198D01*
X108550722Y-124006197D01*
X108388319Y-123933891D01*
X108388318Y-123933891D01*
X108382288Y-123931206D01*
X108288888Y-123911353D01*
X108201944Y-123892872D01*
X108201939Y-123892872D01*
X108195487Y-123891500D01*
X108004513Y-123891500D01*
X107998061Y-123892872D01*
X107998056Y-123892872D01*
X107911112Y-123911353D01*
X107817712Y-123931206D01*
X107811682Y-123933891D01*
X107811681Y-123933891D01*
X107649278Y-124006197D01*
X107649276Y-124006198D01*
X107643248Y-124008882D01*
X107637907Y-124012762D01*
X107637906Y-124012763D01*
X107587843Y-124049136D01*
X107488747Y-124121134D01*
X107484326Y-124126044D01*
X107484325Y-124126045D01*
X107450492Y-124163621D01*
X107360960Y-124263056D01*
X107265473Y-124428444D01*
X107206458Y-124610072D01*
X107186496Y-124800000D01*
X97153500Y-124800000D01*
X97153500Y-118676494D01*
X97173502Y-118608373D01*
X97190405Y-118587399D01*
X102281829Y-113495975D01*
X112102601Y-113495975D01*
X112131552Y-113596941D01*
X112136067Y-113608345D01*
X112220794Y-113773207D01*
X112227435Y-113783512D01*
X112342568Y-113928772D01*
X112351091Y-113937598D01*
X112492245Y-114057730D01*
X112502317Y-114064730D01*
X112664116Y-114155156D01*
X112675356Y-114160067D01*
X112803768Y-114201790D01*
X112817867Y-114202193D01*
X112821000Y-114195821D01*
X112821000Y-113502115D01*
X112816525Y-113486876D01*
X112815135Y-113485671D01*
X112807452Y-113484000D01*
X112117282Y-113484000D01*
X112103751Y-113487973D01*
X112102601Y-113495975D01*
X102281829Y-113495975D01*
X104356999Y-111420805D01*
X104419311Y-111386779D01*
X104446094Y-111383900D01*
X104501987Y-111383900D01*
X104508439Y-111382528D01*
X104508444Y-111382528D01*
X104595387Y-111364047D01*
X104688788Y-111344194D01*
X104694819Y-111341509D01*
X104857222Y-111269203D01*
X104857224Y-111269202D01*
X104863252Y-111266518D01*
X104909101Y-111233207D01*
X104918657Y-111226264D01*
X105017753Y-111154266D01*
X105022175Y-111149355D01*
X105141121Y-111017252D01*
X105141122Y-111017251D01*
X105145540Y-111012344D01*
X105241027Y-110846956D01*
X105300042Y-110665328D01*
X105320004Y-110475400D01*
X105300042Y-110285472D01*
X105241027Y-110103844D01*
X105145540Y-109938456D01*
X105017753Y-109796534D01*
X104865582Y-109685975D01*
X112102601Y-109685975D01*
X112131552Y-109786941D01*
X112136067Y-109798345D01*
X112220794Y-109963207D01*
X112227435Y-109973511D01*
X112229460Y-109976066D01*
X112230099Y-109977645D01*
X112230774Y-109978692D01*
X112230575Y-109978820D01*
X112256098Y-110041875D01*
X112242928Y-110111640D01*
X112238907Y-110118403D01*
X112146998Y-110285585D01*
X112142166Y-110296858D01*
X112103506Y-110418731D01*
X112103202Y-110432831D01*
X112109763Y-110436000D01*
X112802885Y-110436000D01*
X112818124Y-110431525D01*
X112819329Y-110430135D01*
X112821000Y-110422452D01*
X112821000Y-109692115D01*
X112816525Y-109676876D01*
X112815135Y-109675671D01*
X112807452Y-109674000D01*
X112117282Y-109674000D01*
X112103751Y-109677973D01*
X112102601Y-109685975D01*
X104865582Y-109685975D01*
X104863252Y-109684282D01*
X104857224Y-109681598D01*
X104857222Y-109681597D01*
X104694819Y-109609291D01*
X104694818Y-109609291D01*
X104688788Y-109606606D01*
X104595388Y-109586753D01*
X104508444Y-109568272D01*
X104508439Y-109568272D01*
X104501987Y-109566900D01*
X104311013Y-109566900D01*
X104304561Y-109568272D01*
X104304556Y-109568272D01*
X104217612Y-109586753D01*
X104124212Y-109606606D01*
X104118182Y-109609291D01*
X104118181Y-109609291D01*
X103955778Y-109681597D01*
X103955776Y-109681598D01*
X103949748Y-109684282D01*
X103795247Y-109796534D01*
X103667460Y-109938456D01*
X103571973Y-110103844D01*
X103512958Y-110285472D01*
X103497754Y-110430135D01*
X103495593Y-110450692D01*
X103468580Y-110516349D01*
X103459378Y-110526617D01*
X96127747Y-117858248D01*
X96119461Y-117865788D01*
X96112982Y-117869900D01*
X96107557Y-117875677D01*
X96066357Y-117919551D01*
X96063602Y-117922393D01*
X96043865Y-117942130D01*
X96041385Y-117945327D01*
X96033682Y-117954347D01*
X96003414Y-117986579D01*
X95999595Y-117993525D01*
X95999593Y-117993528D01*
X95993652Y-118004334D01*
X95982801Y-118020853D01*
X95970386Y-118036859D01*
X95967241Y-118044128D01*
X95967238Y-118044132D01*
X95952826Y-118077437D01*
X95947609Y-118088087D01*
X95926305Y-118126840D01*
X95924334Y-118134515D01*
X95924334Y-118134516D01*
X95921267Y-118146462D01*
X95914863Y-118165166D01*
X95906819Y-118183755D01*
X95905580Y-118191578D01*
X95905577Y-118191588D01*
X95899901Y-118227424D01*
X95897495Y-118239044D01*
X95886500Y-118281870D01*
X95886500Y-118302124D01*
X95884949Y-118321834D01*
X95881780Y-118341843D01*
X95882526Y-118349735D01*
X95885941Y-118385861D01*
X95886500Y-118397719D01*
X95886500Y-128261692D01*
X95866498Y-128329813D01*
X95818683Y-128373453D01*
X95793607Y-128386507D01*
X95789474Y-128389610D01*
X95789471Y-128389612D01*
X95706450Y-128451946D01*
X95614965Y-128520635D01*
X95460629Y-128682138D01*
X95353201Y-128839621D01*
X95298293Y-128884621D01*
X95227768Y-128892792D01*
X95164021Y-128861538D01*
X95143324Y-128837054D01*
X95062822Y-128712617D01*
X95062820Y-128712614D01*
X95060014Y-128708277D01*
X94909670Y-128543051D01*
X94905619Y-128539852D01*
X94905615Y-128539848D01*
X94738414Y-128407800D01*
X94738410Y-128407798D01*
X94734359Y-128404598D01*
X94729831Y-128402098D01*
X94613988Y-128338150D01*
X94538789Y-128296638D01*
X94533920Y-128294914D01*
X94533916Y-128294912D01*
X94333087Y-128223795D01*
X94333083Y-128223794D01*
X94328212Y-128222069D01*
X94323119Y-128221162D01*
X94323116Y-128221161D01*
X94113373Y-128183800D01*
X94113367Y-128183799D01*
X94108284Y-128182894D01*
X94034452Y-128181992D01*
X93890081Y-128180228D01*
X93890079Y-128180228D01*
X93884911Y-128180165D01*
X93664091Y-128213955D01*
X93451756Y-128283357D01*
X93378071Y-128321715D01*
X93277975Y-128373822D01*
X93253607Y-128386507D01*
X93249474Y-128389610D01*
X93249471Y-128389612D01*
X93166450Y-128451946D01*
X93074965Y-128520635D01*
X92920629Y-128682138D01*
X92813201Y-128839621D01*
X92758293Y-128884621D01*
X92687768Y-128892792D01*
X92624021Y-128861538D01*
X92603324Y-128837054D01*
X92522822Y-128712617D01*
X92522820Y-128712614D01*
X92520014Y-128708277D01*
X92369670Y-128543051D01*
X92365619Y-128539852D01*
X92365615Y-128539848D01*
X92198414Y-128407800D01*
X92198410Y-128407798D01*
X92194359Y-128404598D01*
X92189831Y-128402098D01*
X92073988Y-128338150D01*
X91998789Y-128296638D01*
X91993920Y-128294914D01*
X91993916Y-128294912D01*
X91793087Y-128223795D01*
X91793083Y-128223794D01*
X91788212Y-128222069D01*
X91783119Y-128221162D01*
X91783116Y-128221161D01*
X91573373Y-128183800D01*
X91573367Y-128183799D01*
X91568284Y-128182894D01*
X91494452Y-128181992D01*
X91350081Y-128180228D01*
X91350079Y-128180228D01*
X91344911Y-128180165D01*
X91124091Y-128213955D01*
X90911756Y-128283357D01*
X90838071Y-128321715D01*
X90737975Y-128373822D01*
X90713607Y-128386507D01*
X90709474Y-128389610D01*
X90709471Y-128389612D01*
X90626450Y-128451946D01*
X90534965Y-128520635D01*
X90380629Y-128682138D01*
X90273201Y-128839621D01*
X90218293Y-128884621D01*
X90147768Y-128892792D01*
X90084021Y-128861538D01*
X90063324Y-128837054D01*
X89982822Y-128712617D01*
X89982820Y-128712614D01*
X89980014Y-128708277D01*
X89829670Y-128543051D01*
X89825619Y-128539852D01*
X89825615Y-128539848D01*
X89658414Y-128407800D01*
X89658410Y-128407798D01*
X89654359Y-128404598D01*
X89649831Y-128402098D01*
X89533988Y-128338150D01*
X89458789Y-128296638D01*
X89453920Y-128294914D01*
X89453916Y-128294912D01*
X89253087Y-128223795D01*
X89253083Y-128223794D01*
X89248212Y-128222069D01*
X89243119Y-128221162D01*
X89243116Y-128221161D01*
X89033373Y-128183800D01*
X89033367Y-128183799D01*
X89028284Y-128182894D01*
X88954452Y-128181992D01*
X88810081Y-128180228D01*
X88810079Y-128180228D01*
X88804911Y-128180165D01*
X88584091Y-128213955D01*
X88371756Y-128283357D01*
X88298071Y-128321715D01*
X88197975Y-128373822D01*
X88173607Y-128386507D01*
X88169474Y-128389610D01*
X88169471Y-128389612D01*
X88086450Y-128451946D01*
X87994965Y-128520635D01*
X87991393Y-128524373D01*
X87913898Y-128605466D01*
X87852374Y-128640895D01*
X87781462Y-128637438D01*
X87723676Y-128596192D01*
X87704823Y-128562644D01*
X87663324Y-128451946D01*
X87654786Y-128436351D01*
X87578285Y-128334276D01*
X87565724Y-128321715D01*
X87463649Y-128245214D01*
X87448054Y-128236676D01*
X87327606Y-128191522D01*
X87312351Y-128187895D01*
X87261486Y-128182369D01*
X87254672Y-128182000D01*
X86632115Y-128182000D01*
X86616876Y-128186475D01*
X86615671Y-128187865D01*
X86614000Y-128195548D01*
X86614000Y-130879884D01*
X86106000Y-130879884D01*
X86106000Y-129812115D01*
X86101525Y-129796876D01*
X86100135Y-129795671D01*
X86092452Y-129794000D01*
X85020116Y-129794000D01*
X85004877Y-129798475D01*
X85003672Y-129799865D01*
X85002001Y-129807548D01*
X85002001Y-130434669D01*
X84508500Y-130434669D01*
X84508500Y-129267885D01*
X85002000Y-129267885D01*
X85006475Y-129283124D01*
X85007865Y-129284329D01*
X85015548Y-129286000D01*
X86087885Y-129286000D01*
X86103124Y-129281525D01*
X86104329Y-129280135D01*
X86106000Y-129272452D01*
X86106000Y-128200116D01*
X86101525Y-128184877D01*
X86100135Y-128183672D01*
X86092452Y-128182001D01*
X85465331Y-128182001D01*
X85458510Y-128182371D01*
X85407648Y-128187895D01*
X85392396Y-128191521D01*
X85271946Y-128236676D01*
X85256351Y-128245214D01*
X85154276Y-128321715D01*
X85141715Y-128334276D01*
X85065214Y-128436351D01*
X85056676Y-128451946D01*
X85011522Y-128572394D01*
X85007895Y-128587649D01*
X85002369Y-128638514D01*
X85002000Y-128645328D01*
X85002000Y-129267885D01*
X84508500Y-129267885D01*
X84508500Y-103234000D01*
X84528502Y-103165879D01*
X84582158Y-103119386D01*
X84634500Y-103108000D01*
X85927885Y-103108000D01*
X85943124Y-103103525D01*
X85944329Y-103102135D01*
X85946000Y-103094452D01*
X85946000Y-103089884D01*
X86454000Y-103089884D01*
X86458475Y-103105123D01*
X86459865Y-103106328D01*
X86467548Y-103107999D01*
X88344669Y-103107999D01*
X88351490Y-103107629D01*
X88402352Y-103102105D01*
X88417604Y-103098479D01*
X88538054Y-103053324D01*
X88553649Y-103044786D01*
X88655724Y-102968285D01*
X88668285Y-102955724D01*
X88744786Y-102853649D01*
X88753324Y-102838054D01*
X88798478Y-102717606D01*
X88802105Y-102702351D01*
X88807631Y-102651486D01*
X88808000Y-102644672D01*
X88808000Y-102197115D01*
X88803525Y-102181876D01*
X88802135Y-102180671D01*
X88794452Y-102179000D01*
X86472115Y-102179000D01*
X86456876Y-102183475D01*
X86455671Y-102184865D01*
X86454000Y-102192548D01*
X86454000Y-103089884D01*
X85946000Y-103089884D01*
X85946000Y-101652885D01*
X86454000Y-101652885D01*
X86458475Y-101668124D01*
X86459865Y-101669329D01*
X86467548Y-101671000D01*
X88789884Y-101671000D01*
X88805123Y-101666525D01*
X88806328Y-101665135D01*
X88807999Y-101657452D01*
X88807999Y-101205331D01*
X88807629Y-101198510D01*
X88802105Y-101147648D01*
X88798479Y-101132396D01*
X88753324Y-101011946D01*
X88744786Y-100996351D01*
X88668285Y-100894276D01*
X88655724Y-100881715D01*
X88553649Y-100805214D01*
X88538054Y-100796676D01*
X88417606Y-100751522D01*
X88402351Y-100747895D01*
X88351486Y-100742369D01*
X88344672Y-100742000D01*
X86472115Y-100742000D01*
X86456876Y-100746475D01*
X86455671Y-100747865D01*
X86454000Y-100755548D01*
X86454000Y-101652885D01*
X85946000Y-101652885D01*
X85946000Y-100760116D01*
X85941525Y-100744877D01*
X85940135Y-100743672D01*
X85932452Y-100742001D01*
X84634500Y-100742001D01*
X84566379Y-100721999D01*
X84519886Y-100668343D01*
X84508500Y-100616001D01*
X84508500Y-99800000D01*
X101586496Y-99800000D01*
X101606458Y-99989928D01*
X101665473Y-100171556D01*
X101668776Y-100177278D01*
X101668777Y-100177279D01*
X101689669Y-100213465D01*
X101760960Y-100336944D01*
X101888747Y-100478866D01*
X101987843Y-100550864D01*
X102009018Y-100566248D01*
X102043248Y-100591118D01*
X102049276Y-100593802D01*
X102049278Y-100593803D01*
X102211681Y-100666109D01*
X102217712Y-100668794D01*
X102302508Y-100686818D01*
X102398056Y-100707128D01*
X102398061Y-100707128D01*
X102404513Y-100708500D01*
X102595487Y-100708500D01*
X102601939Y-100707128D01*
X102601944Y-100707128D01*
X102697492Y-100686818D01*
X102782288Y-100668794D01*
X102788319Y-100666109D01*
X102950722Y-100593803D01*
X102950724Y-100593802D01*
X102956752Y-100591118D01*
X102990983Y-100566248D01*
X103012157Y-100550864D01*
X103111253Y-100478866D01*
X103239040Y-100336944D01*
X103278103Y-100269285D01*
X103298127Y-100243190D01*
X111448946Y-92092371D01*
X111463974Y-92079534D01*
X111474834Y-92071644D01*
X111519286Y-92022275D01*
X111523827Y-92017490D01*
X111537872Y-92003445D01*
X111540143Y-92000641D01*
X111550369Y-91988013D01*
X111554653Y-91982997D01*
X111594683Y-91938539D01*
X111594687Y-91938534D01*
X111599104Y-91933628D01*
X111605811Y-91922011D01*
X111617009Y-91905718D01*
X111621291Y-91900430D01*
X111625447Y-91895298D01*
X111655613Y-91836096D01*
X111658746Y-91830326D01*
X111688660Y-91778514D01*
X111688662Y-91778509D01*
X111691964Y-91772790D01*
X111694005Y-91766510D01*
X111694008Y-91766502D01*
X111696108Y-91760038D01*
X111703672Y-91741776D01*
X111706765Y-91735704D01*
X111709762Y-91729822D01*
X111726959Y-91665642D01*
X111728824Y-91659347D01*
X111749354Y-91596161D01*
X111750044Y-91589592D01*
X111750046Y-91589585D01*
X111750758Y-91582814D01*
X111754358Y-91563385D01*
X111757829Y-91550430D01*
X111761305Y-91484106D01*
X111761822Y-91477537D01*
X111763556Y-91461036D01*
X111763900Y-91457765D01*
X111763900Y-91437885D01*
X111764073Y-91431290D01*
X111767204Y-91371557D01*
X111767204Y-91371553D01*
X111767549Y-91364966D01*
X111765451Y-91351719D01*
X111763900Y-91332009D01*
X111763900Y-91131248D01*
X111783902Y-91063127D01*
X111800805Y-91042153D01*
X113322553Y-89520405D01*
X113384865Y-89486379D01*
X113411648Y-89483500D01*
X120120543Y-89483500D01*
X120140255Y-89485051D01*
X120153507Y-89487150D01*
X120160094Y-89486805D01*
X120160098Y-89486805D01*
X120219850Y-89483673D01*
X120226445Y-89483500D01*
X120246306Y-89483500D01*
X120266069Y-89481423D01*
X120272628Y-89480907D01*
X120288427Y-89480079D01*
X120332377Y-89477776D01*
X120332381Y-89477775D01*
X120338971Y-89477430D01*
X120351929Y-89473958D01*
X120371372Y-89470355D01*
X120371795Y-89470311D01*
X120384702Y-89468954D01*
X120447894Y-89448422D01*
X120454196Y-89446556D01*
X120511985Y-89431071D01*
X120518363Y-89429362D01*
X120524242Y-89426366D01*
X120524251Y-89426363D01*
X120530317Y-89423272D01*
X120548579Y-89415708D01*
X120555043Y-89413608D01*
X120555051Y-89413605D01*
X120561331Y-89411564D01*
X120567050Y-89408262D01*
X120567055Y-89408260D01*
X120618867Y-89378346D01*
X120624637Y-89375213D01*
X120683839Y-89345047D01*
X120694259Y-89336609D01*
X120710552Y-89325411D01*
X120710903Y-89325209D01*
X120722169Y-89318704D01*
X120727075Y-89314287D01*
X120727080Y-89314283D01*
X120771538Y-89274253D01*
X120776554Y-89269969D01*
X120789409Y-89259559D01*
X120789412Y-89259556D01*
X120791986Y-89257472D01*
X120806031Y-89243427D01*
X120810816Y-89238886D01*
X120855274Y-89198856D01*
X120855275Y-89198855D01*
X120860185Y-89194434D01*
X120868075Y-89183574D01*
X120880912Y-89168546D01*
X127355542Y-82693915D01*
X127370576Y-82681074D01*
X127505909Y-82582749D01*
X127505911Y-82582747D01*
X127511253Y-82578866D01*
X127516355Y-82573200D01*
X127634621Y-82441852D01*
X127634622Y-82441851D01*
X127639040Y-82436944D01*
X127666982Y-82388547D01*
X127687006Y-82362452D01*
X132455545Y-77593913D01*
X132470579Y-77581072D01*
X132611253Y-77478866D01*
X132739040Y-77336944D01*
X132834527Y-77171556D01*
X132893542Y-76989928D01*
X132913504Y-76800000D01*
X132893542Y-76610072D01*
X132834527Y-76428444D01*
X132739040Y-76263056D01*
X132611253Y-76121134D01*
X132456752Y-76008882D01*
X132450724Y-76006198D01*
X132450722Y-76006197D01*
X132288319Y-75933891D01*
X132288318Y-75933891D01*
X132282288Y-75931206D01*
X132188887Y-75911353D01*
X132101944Y-75892872D01*
X132101939Y-75892872D01*
X132095487Y-75891500D01*
X131904513Y-75891500D01*
X131898061Y-75892872D01*
X131898056Y-75892872D01*
X131811113Y-75911353D01*
X131717712Y-75931206D01*
X131711682Y-75933891D01*
X131711681Y-75933891D01*
X131549278Y-76006197D01*
X131549276Y-76006198D01*
X131543248Y-76008882D01*
X131388747Y-76121134D01*
X131260960Y-76263056D01*
X131257659Y-76268774D01*
X131233018Y-76311453D01*
X131212994Y-76337548D01*
X126444455Y-81106087D01*
X126429422Y-81118927D01*
X126288747Y-81221134D01*
X126160960Y-81363056D01*
X126157661Y-81368769D01*
X126157658Y-81368774D01*
X126133016Y-81411456D01*
X126112992Y-81437551D01*
X119870947Y-87679595D01*
X119808635Y-87713621D01*
X119781852Y-87716500D01*
X112992933Y-87716500D01*
X112966736Y-87713747D01*
X112903344Y-87700272D01*
X112903339Y-87700272D01*
X112896887Y-87698900D01*
X112705913Y-87698900D01*
X112699461Y-87700272D01*
X112699456Y-87700272D01*
X112623112Y-87716500D01*
X112519112Y-87738606D01*
X112513082Y-87741291D01*
X112513081Y-87741291D01*
X112350678Y-87813597D01*
X112350676Y-87813598D01*
X112344648Y-87816282D01*
X112190147Y-87928534D01*
X112185726Y-87933444D01*
X112185725Y-87933445D01*
X112079468Y-88051456D01*
X112062360Y-88070456D01*
X111966873Y-88235844D01*
X111914032Y-88398472D01*
X111908199Y-88416423D01*
X111877461Y-88466581D01*
X110424855Y-89919187D01*
X110409822Y-89932027D01*
X110269147Y-90034234D01*
X110141360Y-90176156D01*
X110045873Y-90341544D01*
X109986858Y-90523172D01*
X109966896Y-90713100D01*
X109986858Y-90903028D01*
X109988898Y-90909306D01*
X109990733Y-90914954D01*
X109996900Y-90953890D01*
X109996900Y-90993311D01*
X109976898Y-91061432D01*
X109959995Y-91082406D01*
X102014684Y-99027717D01*
X101999650Y-99040558D01*
X101905074Y-99109272D01*
X101888747Y-99121134D01*
X101884326Y-99126044D01*
X101884325Y-99126045D01*
X101791476Y-99229165D01*
X101760960Y-99263056D01*
X101665473Y-99428444D01*
X101606458Y-99610072D01*
X101605768Y-99616633D01*
X101605768Y-99616635D01*
X101596684Y-99703067D01*
X101586496Y-99800000D01*
X84508500Y-99800000D01*
X84508500Y-97584000D01*
X84528502Y-97515879D01*
X84582158Y-97469386D01*
X84634500Y-97458000D01*
X85927885Y-97458000D01*
X85943124Y-97453525D01*
X85944329Y-97452135D01*
X85946000Y-97444452D01*
X85946000Y-97439884D01*
X86454000Y-97439884D01*
X86458475Y-97455123D01*
X86459865Y-97456328D01*
X86467548Y-97457999D01*
X88344669Y-97457999D01*
X88351490Y-97457629D01*
X88402352Y-97452105D01*
X88417604Y-97448479D01*
X88538054Y-97403324D01*
X88553649Y-97394786D01*
X88655724Y-97318285D01*
X88668285Y-97305724D01*
X88744786Y-97203649D01*
X88753324Y-97188054D01*
X88798478Y-97067606D01*
X88802105Y-97052351D01*
X88807631Y-97001486D01*
X88808000Y-96994672D01*
X88808000Y-96547115D01*
X88803525Y-96531876D01*
X88802135Y-96530671D01*
X88794452Y-96529000D01*
X86472115Y-96529000D01*
X86456876Y-96533475D01*
X86455671Y-96534865D01*
X86454000Y-96542548D01*
X86454000Y-97439884D01*
X85946000Y-97439884D01*
X85946000Y-96002885D01*
X86454000Y-96002885D01*
X86458475Y-96018124D01*
X86459865Y-96019329D01*
X86467548Y-96021000D01*
X88789884Y-96021000D01*
X88805123Y-96016525D01*
X88806328Y-96015135D01*
X88807999Y-96007452D01*
X88807999Y-95555331D01*
X88807629Y-95548510D01*
X88802105Y-95497648D01*
X88798479Y-95482396D01*
X88753324Y-95361946D01*
X88744786Y-95346351D01*
X88668285Y-95244276D01*
X88655724Y-95231715D01*
X88553649Y-95155214D01*
X88538054Y-95146676D01*
X88417606Y-95101522D01*
X88402351Y-95097895D01*
X88351486Y-95092369D01*
X88344672Y-95092000D01*
X86472115Y-95092000D01*
X86456876Y-95096475D01*
X86455671Y-95097865D01*
X86454000Y-95105548D01*
X86454000Y-96002885D01*
X85946000Y-96002885D01*
X85946000Y-95110116D01*
X85941525Y-95094877D01*
X85940135Y-95093672D01*
X85932452Y-95092001D01*
X84634500Y-95092001D01*
X84566379Y-95071999D01*
X84519886Y-95018343D01*
X84508500Y-94966001D01*
X84508500Y-68546695D01*
X84997251Y-68546695D01*
X85010110Y-68769715D01*
X85011247Y-68774761D01*
X85011248Y-68774767D01*
X85032275Y-68868069D01*
X85059222Y-68987639D01*
X85143266Y-69194616D01*
X85194942Y-69278944D01*
X85257291Y-69380688D01*
X85259987Y-69385088D01*
X85406250Y-69553938D01*
X85578126Y-69696632D01*
X85771000Y-69809338D01*
X85979692Y-69889030D01*
X85984760Y-69890061D01*
X85984763Y-69890062D01*
X86079862Y-69909410D01*
X86198597Y-69933567D01*
X86203772Y-69933757D01*
X86203774Y-69933757D01*
X86416673Y-69941564D01*
X86416677Y-69941564D01*
X86421837Y-69941753D01*
X86426957Y-69941097D01*
X86426959Y-69941097D01*
X86638288Y-69914025D01*
X86638289Y-69914025D01*
X86643416Y-69913368D01*
X86648366Y-69911883D01*
X86852429Y-69850661D01*
X86852434Y-69850659D01*
X86857384Y-69849174D01*
X87057994Y-69750896D01*
X87239860Y-69621173D01*
X87398096Y-69463489D01*
X87457594Y-69380689D01*
X87528453Y-69282077D01*
X87529776Y-69283028D01*
X87576645Y-69239857D01*
X87646580Y-69227625D01*
X87712026Y-69255144D01*
X87739875Y-69286994D01*
X87799987Y-69385088D01*
X87946250Y-69553938D01*
X88118126Y-69696632D01*
X88311000Y-69809338D01*
X88519692Y-69889030D01*
X88524760Y-69890061D01*
X88524763Y-69890062D01*
X88619862Y-69909410D01*
X88738597Y-69933567D01*
X88743772Y-69933757D01*
X88743774Y-69933757D01*
X88956673Y-69941564D01*
X88956677Y-69941564D01*
X88961837Y-69941753D01*
X88966957Y-69941097D01*
X88966959Y-69941097D01*
X89178288Y-69914025D01*
X89178289Y-69914025D01*
X89183416Y-69913368D01*
X89188366Y-69911883D01*
X89392429Y-69850661D01*
X89392434Y-69850659D01*
X89397384Y-69849174D01*
X89597994Y-69750896D01*
X89779860Y-69621173D01*
X89938096Y-69463489D01*
X89997594Y-69380689D01*
X90068453Y-69282077D01*
X90069776Y-69283028D01*
X90116645Y-69239857D01*
X90186580Y-69227625D01*
X90252026Y-69255144D01*
X90279875Y-69286994D01*
X90339987Y-69385088D01*
X90486250Y-69553938D01*
X90658126Y-69696632D01*
X90851000Y-69809338D01*
X91059692Y-69889030D01*
X91064760Y-69890061D01*
X91064763Y-69890062D01*
X91159862Y-69909410D01*
X91278597Y-69933567D01*
X91283772Y-69933757D01*
X91283774Y-69933757D01*
X91496673Y-69941564D01*
X91496677Y-69941564D01*
X91501837Y-69941753D01*
X91506957Y-69941097D01*
X91506959Y-69941097D01*
X91718288Y-69914025D01*
X91718289Y-69914025D01*
X91723416Y-69913368D01*
X91728366Y-69911883D01*
X91932429Y-69850661D01*
X91932434Y-69850659D01*
X91937384Y-69849174D01*
X92137994Y-69750896D01*
X92319860Y-69621173D01*
X92478096Y-69463489D01*
X92537594Y-69380689D01*
X92608453Y-69282077D01*
X92609776Y-69283028D01*
X92656645Y-69239857D01*
X92726580Y-69227625D01*
X92792026Y-69255144D01*
X92819875Y-69286994D01*
X92879987Y-69385088D01*
X93026250Y-69553938D01*
X93198126Y-69696632D01*
X93391000Y-69809338D01*
X93599692Y-69889030D01*
X93604760Y-69890061D01*
X93604763Y-69890062D01*
X93699862Y-69909410D01*
X93818597Y-69933567D01*
X93823772Y-69933757D01*
X93823774Y-69933757D01*
X94036673Y-69941564D01*
X94036677Y-69941564D01*
X94041837Y-69941753D01*
X94046957Y-69941097D01*
X94046959Y-69941097D01*
X94258288Y-69914025D01*
X94258289Y-69914025D01*
X94263416Y-69913368D01*
X94268366Y-69911883D01*
X94472429Y-69850661D01*
X94472434Y-69850659D01*
X94477384Y-69849174D01*
X94677994Y-69750896D01*
X94859860Y-69621173D01*
X95018096Y-69463489D01*
X95077594Y-69380689D01*
X95148453Y-69282077D01*
X95149776Y-69283028D01*
X95196645Y-69239857D01*
X95266580Y-69227625D01*
X95332026Y-69255144D01*
X95359875Y-69286994D01*
X95419987Y-69385088D01*
X95566250Y-69553938D01*
X95738126Y-69696632D01*
X95931000Y-69809338D01*
X96139692Y-69889030D01*
X96144760Y-69890061D01*
X96144763Y-69890062D01*
X96239862Y-69909410D01*
X96358597Y-69933567D01*
X96363772Y-69933757D01*
X96363774Y-69933757D01*
X96576673Y-69941564D01*
X96576677Y-69941564D01*
X96581837Y-69941753D01*
X96586957Y-69941097D01*
X96586959Y-69941097D01*
X96798288Y-69914025D01*
X96798289Y-69914025D01*
X96803416Y-69913368D01*
X96808366Y-69911883D01*
X97012429Y-69850661D01*
X97012434Y-69850659D01*
X97017384Y-69849174D01*
X97217994Y-69750896D01*
X97399860Y-69621173D01*
X97558096Y-69463489D01*
X97617594Y-69380689D01*
X97688453Y-69282077D01*
X97689776Y-69283028D01*
X97736645Y-69239857D01*
X97806580Y-69227625D01*
X97872026Y-69255144D01*
X97899875Y-69286994D01*
X97959987Y-69385088D01*
X98106250Y-69553938D01*
X98278126Y-69696632D01*
X98471000Y-69809338D01*
X98679692Y-69889030D01*
X98684760Y-69890061D01*
X98684763Y-69890062D01*
X98779862Y-69909410D01*
X98898597Y-69933567D01*
X98903772Y-69933757D01*
X98903774Y-69933757D01*
X99116673Y-69941564D01*
X99116677Y-69941564D01*
X99121837Y-69941753D01*
X99126957Y-69941097D01*
X99126959Y-69941097D01*
X99338288Y-69914025D01*
X99338289Y-69914025D01*
X99343416Y-69913368D01*
X99348366Y-69911883D01*
X99552429Y-69850661D01*
X99552434Y-69850659D01*
X99557384Y-69849174D01*
X99757994Y-69750896D01*
X99939860Y-69621173D01*
X100098096Y-69463489D01*
X100157594Y-69380689D01*
X100228453Y-69282077D01*
X100229776Y-69283028D01*
X100276645Y-69239857D01*
X100346580Y-69227625D01*
X100412026Y-69255144D01*
X100439875Y-69286994D01*
X100499987Y-69385088D01*
X100646250Y-69553938D01*
X100818126Y-69696632D01*
X101011000Y-69809338D01*
X101219692Y-69889030D01*
X101224760Y-69890061D01*
X101224763Y-69890062D01*
X101319862Y-69909410D01*
X101438597Y-69933567D01*
X101443772Y-69933757D01*
X101443774Y-69933757D01*
X101656673Y-69941564D01*
X101656677Y-69941564D01*
X101661837Y-69941753D01*
X101666957Y-69941097D01*
X101666959Y-69941097D01*
X101878288Y-69914025D01*
X101878289Y-69914025D01*
X101883416Y-69913368D01*
X101888366Y-69911883D01*
X102092429Y-69850661D01*
X102092434Y-69850659D01*
X102097384Y-69849174D01*
X102297994Y-69750896D01*
X102479860Y-69621173D01*
X102638096Y-69463489D01*
X102697594Y-69380689D01*
X102768453Y-69282077D01*
X102769776Y-69283028D01*
X102816645Y-69239857D01*
X102886580Y-69227625D01*
X102952026Y-69255144D01*
X102979875Y-69286994D01*
X103039987Y-69385088D01*
X103186250Y-69553938D01*
X103358126Y-69696632D01*
X103551000Y-69809338D01*
X103759692Y-69889030D01*
X103764760Y-69890061D01*
X103764763Y-69890062D01*
X103859862Y-69909410D01*
X103978597Y-69933567D01*
X103983772Y-69933757D01*
X103983774Y-69933757D01*
X104196673Y-69941564D01*
X104196677Y-69941564D01*
X104201837Y-69941753D01*
X104206957Y-69941097D01*
X104206959Y-69941097D01*
X104418288Y-69914025D01*
X104418289Y-69914025D01*
X104423416Y-69913368D01*
X104428366Y-69911883D01*
X104632429Y-69850661D01*
X104632434Y-69850659D01*
X104637384Y-69849174D01*
X104837994Y-69750896D01*
X105019860Y-69621173D01*
X105178096Y-69463489D01*
X105237594Y-69380689D01*
X105308453Y-69282077D01*
X105309776Y-69283028D01*
X105356645Y-69239857D01*
X105426580Y-69227625D01*
X105492026Y-69255144D01*
X105519875Y-69286994D01*
X105579987Y-69385088D01*
X105726250Y-69553938D01*
X105898126Y-69696632D01*
X106091000Y-69809338D01*
X106299692Y-69889030D01*
X106304760Y-69890061D01*
X106304763Y-69890062D01*
X106399862Y-69909410D01*
X106518597Y-69933567D01*
X106523772Y-69933757D01*
X106523774Y-69933757D01*
X106736673Y-69941564D01*
X106736677Y-69941564D01*
X106741837Y-69941753D01*
X106746957Y-69941097D01*
X106746959Y-69941097D01*
X106958288Y-69914025D01*
X106958289Y-69914025D01*
X106963416Y-69913368D01*
X106968366Y-69911883D01*
X107172429Y-69850661D01*
X107172434Y-69850659D01*
X107177384Y-69849174D01*
X107377994Y-69750896D01*
X107559860Y-69621173D01*
X107718096Y-69463489D01*
X107777594Y-69380689D01*
X107848453Y-69282077D01*
X107849776Y-69283028D01*
X107896645Y-69239857D01*
X107966580Y-69227625D01*
X108032026Y-69255144D01*
X108059875Y-69286994D01*
X108119987Y-69385088D01*
X108266250Y-69553938D01*
X108438126Y-69696632D01*
X108631000Y-69809338D01*
X108839692Y-69889030D01*
X108844760Y-69890061D01*
X108844763Y-69890062D01*
X108939862Y-69909410D01*
X109058597Y-69933567D01*
X109063772Y-69933757D01*
X109063774Y-69933757D01*
X109276673Y-69941564D01*
X109276677Y-69941564D01*
X109281837Y-69941753D01*
X109286957Y-69941097D01*
X109286959Y-69941097D01*
X109498288Y-69914025D01*
X109498289Y-69914025D01*
X109503416Y-69913368D01*
X109508366Y-69911883D01*
X109712429Y-69850661D01*
X109712434Y-69850659D01*
X109717384Y-69849174D01*
X109917994Y-69750896D01*
X110099860Y-69621173D01*
X110258096Y-69463489D01*
X110317594Y-69380689D01*
X110388453Y-69282077D01*
X110389776Y-69283028D01*
X110436645Y-69239857D01*
X110506580Y-69227625D01*
X110572026Y-69255144D01*
X110599875Y-69286994D01*
X110659987Y-69385088D01*
X110806250Y-69553938D01*
X110978126Y-69696632D01*
X111171000Y-69809338D01*
X111379692Y-69889030D01*
X111384760Y-69890061D01*
X111384763Y-69890062D01*
X111479862Y-69909410D01*
X111598597Y-69933567D01*
X111603772Y-69933757D01*
X111603774Y-69933757D01*
X111816673Y-69941564D01*
X111816677Y-69941564D01*
X111821837Y-69941753D01*
X111826957Y-69941097D01*
X111826959Y-69941097D01*
X112038288Y-69914025D01*
X112038289Y-69914025D01*
X112043416Y-69913368D01*
X112048366Y-69911883D01*
X112252429Y-69850661D01*
X112252434Y-69850659D01*
X112257384Y-69849174D01*
X112457994Y-69750896D01*
X112639860Y-69621173D01*
X112798096Y-69463489D01*
X112857594Y-69380689D01*
X112928453Y-69282077D01*
X112929776Y-69283028D01*
X112976645Y-69239857D01*
X113046580Y-69227625D01*
X113112026Y-69255144D01*
X113139875Y-69286994D01*
X113199987Y-69385088D01*
X113346250Y-69553938D01*
X113518126Y-69696632D01*
X113711000Y-69809338D01*
X113919692Y-69889030D01*
X113924760Y-69890061D01*
X113924763Y-69890062D01*
X114019862Y-69909410D01*
X114138597Y-69933567D01*
X114143772Y-69933757D01*
X114143774Y-69933757D01*
X114356673Y-69941564D01*
X114356677Y-69941564D01*
X114361837Y-69941753D01*
X114366957Y-69941097D01*
X114366959Y-69941097D01*
X114578288Y-69914025D01*
X114578289Y-69914025D01*
X114583416Y-69913368D01*
X114588366Y-69911883D01*
X114792429Y-69850661D01*
X114792434Y-69850659D01*
X114797384Y-69849174D01*
X114997994Y-69750896D01*
X115179860Y-69621173D01*
X115338096Y-69463489D01*
X115397594Y-69380689D01*
X115468453Y-69282077D01*
X115469776Y-69283028D01*
X115516645Y-69239857D01*
X115586580Y-69227625D01*
X115652026Y-69255144D01*
X115679875Y-69286994D01*
X115739987Y-69385088D01*
X115886250Y-69553938D01*
X116058126Y-69696632D01*
X116251000Y-69809338D01*
X116459692Y-69889030D01*
X116464760Y-69890061D01*
X116464763Y-69890062D01*
X116559862Y-69909410D01*
X116678597Y-69933567D01*
X116683772Y-69933757D01*
X116683774Y-69933757D01*
X116896673Y-69941564D01*
X116896677Y-69941564D01*
X116901837Y-69941753D01*
X116906957Y-69941097D01*
X116906959Y-69941097D01*
X117118288Y-69914025D01*
X117118289Y-69914025D01*
X117123416Y-69913368D01*
X117128366Y-69911883D01*
X117332429Y-69850661D01*
X117332434Y-69850659D01*
X117337384Y-69849174D01*
X117537994Y-69750896D01*
X117719860Y-69621173D01*
X117878096Y-69463489D01*
X117937594Y-69380689D01*
X118008453Y-69282077D01*
X118009776Y-69283028D01*
X118056645Y-69239857D01*
X118126580Y-69227625D01*
X118192026Y-69255144D01*
X118219875Y-69286994D01*
X118279987Y-69385088D01*
X118426250Y-69553938D01*
X118598126Y-69696632D01*
X118791000Y-69809338D01*
X118999692Y-69889030D01*
X119004760Y-69890061D01*
X119004763Y-69890062D01*
X119099862Y-69909410D01*
X119218597Y-69933567D01*
X119223772Y-69933757D01*
X119223774Y-69933757D01*
X119436673Y-69941564D01*
X119436677Y-69941564D01*
X119441837Y-69941753D01*
X119446957Y-69941097D01*
X119446959Y-69941097D01*
X119658288Y-69914025D01*
X119658289Y-69914025D01*
X119663416Y-69913368D01*
X119668366Y-69911883D01*
X119872429Y-69850661D01*
X119872434Y-69850659D01*
X119877384Y-69849174D01*
X120077994Y-69750896D01*
X120259860Y-69621173D01*
X120418096Y-69463489D01*
X120477594Y-69380689D01*
X120548453Y-69282077D01*
X120549776Y-69283028D01*
X120596645Y-69239857D01*
X120666580Y-69227625D01*
X120732026Y-69255144D01*
X120759875Y-69286994D01*
X120819987Y-69385088D01*
X120966250Y-69553938D01*
X121138126Y-69696632D01*
X121331000Y-69809338D01*
X121539692Y-69889030D01*
X121544760Y-69890061D01*
X121544763Y-69890062D01*
X121639862Y-69909410D01*
X121758597Y-69933567D01*
X121763772Y-69933757D01*
X121763774Y-69933757D01*
X121976673Y-69941564D01*
X121976677Y-69941564D01*
X121981837Y-69941753D01*
X121986957Y-69941097D01*
X121986959Y-69941097D01*
X122198288Y-69914025D01*
X122198289Y-69914025D01*
X122203416Y-69913368D01*
X122208366Y-69911883D01*
X122412429Y-69850661D01*
X122412434Y-69850659D01*
X122417384Y-69849174D01*
X122617994Y-69750896D01*
X122799860Y-69621173D01*
X122958096Y-69463489D01*
X123017594Y-69380689D01*
X123088453Y-69282077D01*
X123089776Y-69283028D01*
X123136645Y-69239857D01*
X123206580Y-69227625D01*
X123272026Y-69255144D01*
X123299875Y-69286994D01*
X123359987Y-69385088D01*
X123506250Y-69553938D01*
X123678126Y-69696632D01*
X123871000Y-69809338D01*
X124079692Y-69889030D01*
X124084760Y-69890061D01*
X124084763Y-69890062D01*
X124179862Y-69909410D01*
X124298597Y-69933567D01*
X124303772Y-69933757D01*
X124303774Y-69933757D01*
X124516673Y-69941564D01*
X124516677Y-69941564D01*
X124521837Y-69941753D01*
X124526957Y-69941097D01*
X124526959Y-69941097D01*
X124738288Y-69914025D01*
X124738289Y-69914025D01*
X124743416Y-69913368D01*
X124748366Y-69911883D01*
X124952429Y-69850661D01*
X124952434Y-69850659D01*
X124957384Y-69849174D01*
X125157994Y-69750896D01*
X125339860Y-69621173D01*
X125498096Y-69463489D01*
X125557594Y-69380689D01*
X125628453Y-69282077D01*
X125629776Y-69283028D01*
X125676645Y-69239857D01*
X125746580Y-69227625D01*
X125812026Y-69255144D01*
X125839875Y-69286994D01*
X125899987Y-69385088D01*
X126046250Y-69553938D01*
X126218126Y-69696632D01*
X126411000Y-69809338D01*
X126619692Y-69889030D01*
X126624760Y-69890061D01*
X126624763Y-69890062D01*
X126719862Y-69909410D01*
X126838597Y-69933567D01*
X126843772Y-69933757D01*
X126843774Y-69933757D01*
X127056673Y-69941564D01*
X127056677Y-69941564D01*
X127061837Y-69941753D01*
X127066957Y-69941097D01*
X127066959Y-69941097D01*
X127278288Y-69914025D01*
X127278289Y-69914025D01*
X127283416Y-69913368D01*
X127288366Y-69911883D01*
X127492429Y-69850661D01*
X127492434Y-69850659D01*
X127497384Y-69849174D01*
X127697994Y-69750896D01*
X127879860Y-69621173D01*
X128038096Y-69463489D01*
X128097594Y-69380689D01*
X128168453Y-69282077D01*
X128169776Y-69283028D01*
X128216645Y-69239857D01*
X128286580Y-69227625D01*
X128352026Y-69255144D01*
X128379875Y-69286994D01*
X128439987Y-69385088D01*
X128586250Y-69553938D01*
X128758126Y-69696632D01*
X128951000Y-69809338D01*
X129159692Y-69889030D01*
X129164760Y-69890061D01*
X129164763Y-69890062D01*
X129259862Y-69909410D01*
X129378597Y-69933567D01*
X129383772Y-69933757D01*
X129383774Y-69933757D01*
X129596673Y-69941564D01*
X129596677Y-69941564D01*
X129601837Y-69941753D01*
X129606957Y-69941097D01*
X129606959Y-69941097D01*
X129818288Y-69914025D01*
X129818289Y-69914025D01*
X129823416Y-69913368D01*
X129828366Y-69911883D01*
X130032429Y-69850661D01*
X130032434Y-69850659D01*
X130037384Y-69849174D01*
X130237994Y-69750896D01*
X130419860Y-69621173D01*
X130578096Y-69463489D01*
X130637594Y-69380689D01*
X130708453Y-69282077D01*
X130709640Y-69282930D01*
X130756960Y-69239362D01*
X130826897Y-69227145D01*
X130892338Y-69254678D01*
X130920166Y-69286511D01*
X130977694Y-69380388D01*
X130983777Y-69388699D01*
X131123213Y-69549667D01*
X131130580Y-69556883D01*
X131294434Y-69692916D01*
X131302881Y-69698831D01*
X131486756Y-69806279D01*
X131496042Y-69810729D01*
X131695001Y-69886703D01*
X131704899Y-69889579D01*
X131808250Y-69910606D01*
X131822299Y-69909410D01*
X131826000Y-69899065D01*
X131826000Y-69898517D01*
X132334000Y-69898517D01*
X132338064Y-69912359D01*
X132351478Y-69914393D01*
X132358184Y-69913534D01*
X132368262Y-69911392D01*
X132572255Y-69850191D01*
X132581842Y-69846433D01*
X132773095Y-69752739D01*
X132781945Y-69747464D01*
X132955328Y-69623792D01*
X132963193Y-69617145D01*
X133067897Y-69512805D01*
X133130268Y-69478889D01*
X133201075Y-69484077D01*
X133257837Y-69526723D01*
X133274819Y-69557826D01*
X133319385Y-69676705D01*
X133406739Y-69793261D01*
X133523295Y-69880615D01*
X133659684Y-69931745D01*
X133721866Y-69938500D01*
X135518134Y-69938500D01*
X135580316Y-69931745D01*
X135716705Y-69880615D01*
X135833261Y-69793261D01*
X135920615Y-69676705D01*
X135971745Y-69540316D01*
X135978500Y-69478134D01*
X135978500Y-67681866D01*
X135971745Y-67619684D01*
X135920615Y-67483295D01*
X135833261Y-67366739D01*
X135716705Y-67279385D01*
X135580316Y-67228255D01*
X135518134Y-67221500D01*
X133721866Y-67221500D01*
X133659684Y-67228255D01*
X133523295Y-67279385D01*
X133406739Y-67366739D01*
X133319385Y-67483295D01*
X133316233Y-67491703D01*
X133316232Y-67491705D01*
X133274722Y-67602433D01*
X133232081Y-67659198D01*
X133165519Y-67683898D01*
X133096170Y-67668691D01*
X133063546Y-67643004D01*
X133012799Y-67587234D01*
X133005273Y-67580215D01*
X132838139Y-67448222D01*
X132829552Y-67442517D01*
X132643117Y-67339599D01*
X132633705Y-67335369D01*
X132432959Y-67264280D01*
X132422988Y-67261646D01*
X132351837Y-67248972D01*
X132338540Y-67250432D01*
X132334000Y-67264989D01*
X132334000Y-69898517D01*
X131826000Y-69898517D01*
X131826000Y-67263102D01*
X131822082Y-67249758D01*
X131807806Y-67247771D01*
X131769324Y-67253660D01*
X131759288Y-67256051D01*
X131556868Y-67322212D01*
X131547359Y-67326209D01*
X131358463Y-67424542D01*
X131349738Y-67430036D01*
X131179433Y-67557905D01*
X131171726Y-67564748D01*
X131024590Y-67718717D01*
X131018109Y-67726722D01*
X130913498Y-67880074D01*
X130858587Y-67925076D01*
X130788062Y-67933247D01*
X130724315Y-67901993D01*
X130703618Y-67877509D01*
X130622822Y-67752617D01*
X130622820Y-67752614D01*
X130620014Y-67748277D01*
X130469670Y-67583051D01*
X130465619Y-67579852D01*
X130465615Y-67579848D01*
X130298414Y-67447800D01*
X130298410Y-67447798D01*
X130294359Y-67444598D01*
X130258028Y-67424542D01*
X130242136Y-67415769D01*
X130098789Y-67336638D01*
X130093920Y-67334914D01*
X130093916Y-67334912D01*
X129893087Y-67263795D01*
X129893083Y-67263794D01*
X129888212Y-67262069D01*
X129883119Y-67261162D01*
X129883116Y-67261161D01*
X129673373Y-67223800D01*
X129673367Y-67223799D01*
X129668284Y-67222894D01*
X129594452Y-67221992D01*
X129450081Y-67220228D01*
X129450079Y-67220228D01*
X129444911Y-67220165D01*
X129224091Y-67253955D01*
X129011756Y-67323357D01*
X128813607Y-67426507D01*
X128809474Y-67429610D01*
X128809471Y-67429612D01*
X128726771Y-67491705D01*
X128634965Y-67560635D01*
X128480629Y-67722138D01*
X128373201Y-67879621D01*
X128318293Y-67924621D01*
X128247768Y-67932792D01*
X128184021Y-67901538D01*
X128163324Y-67877054D01*
X128082822Y-67752617D01*
X128082820Y-67752614D01*
X128080014Y-67748277D01*
X127929670Y-67583051D01*
X127925619Y-67579852D01*
X127925615Y-67579848D01*
X127758414Y-67447800D01*
X127758410Y-67447798D01*
X127754359Y-67444598D01*
X127718028Y-67424542D01*
X127702136Y-67415769D01*
X127558789Y-67336638D01*
X127553920Y-67334914D01*
X127553916Y-67334912D01*
X127353087Y-67263795D01*
X127353083Y-67263794D01*
X127348212Y-67262069D01*
X127343119Y-67261162D01*
X127343116Y-67261161D01*
X127133373Y-67223800D01*
X127133367Y-67223799D01*
X127128284Y-67222894D01*
X127054452Y-67221992D01*
X126910081Y-67220228D01*
X126910079Y-67220228D01*
X126904911Y-67220165D01*
X126684091Y-67253955D01*
X126471756Y-67323357D01*
X126273607Y-67426507D01*
X126269474Y-67429610D01*
X126269471Y-67429612D01*
X126186771Y-67491705D01*
X126094965Y-67560635D01*
X125940629Y-67722138D01*
X125833201Y-67879621D01*
X125778293Y-67924621D01*
X125707768Y-67932792D01*
X125644021Y-67901538D01*
X125623324Y-67877054D01*
X125542822Y-67752617D01*
X125542820Y-67752614D01*
X125540014Y-67748277D01*
X125389670Y-67583051D01*
X125385619Y-67579852D01*
X125385615Y-67579848D01*
X125218414Y-67447800D01*
X125218410Y-67447798D01*
X125214359Y-67444598D01*
X125178028Y-67424542D01*
X125162136Y-67415769D01*
X125018789Y-67336638D01*
X125013920Y-67334914D01*
X125013916Y-67334912D01*
X124813087Y-67263795D01*
X124813083Y-67263794D01*
X124808212Y-67262069D01*
X124803119Y-67261162D01*
X124803116Y-67261161D01*
X124593373Y-67223800D01*
X124593367Y-67223799D01*
X124588284Y-67222894D01*
X124514452Y-67221992D01*
X124370081Y-67220228D01*
X124370079Y-67220228D01*
X124364911Y-67220165D01*
X124144091Y-67253955D01*
X123931756Y-67323357D01*
X123733607Y-67426507D01*
X123729474Y-67429610D01*
X123729471Y-67429612D01*
X123646771Y-67491705D01*
X123554965Y-67560635D01*
X123400629Y-67722138D01*
X123293201Y-67879621D01*
X123238293Y-67924621D01*
X123167768Y-67932792D01*
X123104021Y-67901538D01*
X123083324Y-67877054D01*
X123002822Y-67752617D01*
X123002820Y-67752614D01*
X123000014Y-67748277D01*
X122849670Y-67583051D01*
X122845619Y-67579852D01*
X122845615Y-67579848D01*
X122678414Y-67447800D01*
X122678410Y-67447798D01*
X122674359Y-67444598D01*
X122638028Y-67424542D01*
X122622136Y-67415769D01*
X122478789Y-67336638D01*
X122473920Y-67334914D01*
X122473916Y-67334912D01*
X122273087Y-67263795D01*
X122273083Y-67263794D01*
X122268212Y-67262069D01*
X122263119Y-67261162D01*
X122263116Y-67261161D01*
X122053373Y-67223800D01*
X122053367Y-67223799D01*
X122048284Y-67222894D01*
X121974452Y-67221992D01*
X121830081Y-67220228D01*
X121830079Y-67220228D01*
X121824911Y-67220165D01*
X121604091Y-67253955D01*
X121391756Y-67323357D01*
X121193607Y-67426507D01*
X121189474Y-67429610D01*
X121189471Y-67429612D01*
X121106771Y-67491705D01*
X121014965Y-67560635D01*
X120860629Y-67722138D01*
X120753201Y-67879621D01*
X120698293Y-67924621D01*
X120627768Y-67932792D01*
X120564021Y-67901538D01*
X120543324Y-67877054D01*
X120462822Y-67752617D01*
X120462820Y-67752614D01*
X120460014Y-67748277D01*
X120309670Y-67583051D01*
X120305619Y-67579852D01*
X120305615Y-67579848D01*
X120138414Y-67447800D01*
X120138410Y-67447798D01*
X120134359Y-67444598D01*
X120098028Y-67424542D01*
X120082136Y-67415769D01*
X119938789Y-67336638D01*
X119933920Y-67334914D01*
X119933916Y-67334912D01*
X119733087Y-67263795D01*
X119733083Y-67263794D01*
X119728212Y-67262069D01*
X119723119Y-67261162D01*
X119723116Y-67261161D01*
X119513373Y-67223800D01*
X119513367Y-67223799D01*
X119508284Y-67222894D01*
X119434452Y-67221992D01*
X119290081Y-67220228D01*
X119290079Y-67220228D01*
X119284911Y-67220165D01*
X119064091Y-67253955D01*
X118851756Y-67323357D01*
X118653607Y-67426507D01*
X118649474Y-67429610D01*
X118649471Y-67429612D01*
X118566771Y-67491705D01*
X118474965Y-67560635D01*
X118320629Y-67722138D01*
X118213201Y-67879621D01*
X118158293Y-67924621D01*
X118087768Y-67932792D01*
X118024021Y-67901538D01*
X118003324Y-67877054D01*
X117922822Y-67752617D01*
X117922820Y-67752614D01*
X117920014Y-67748277D01*
X117769670Y-67583051D01*
X117765619Y-67579852D01*
X117765615Y-67579848D01*
X117598414Y-67447800D01*
X117598410Y-67447798D01*
X117594359Y-67444598D01*
X117558028Y-67424542D01*
X117542136Y-67415769D01*
X117398789Y-67336638D01*
X117393920Y-67334914D01*
X117393916Y-67334912D01*
X117193087Y-67263795D01*
X117193083Y-67263794D01*
X117188212Y-67262069D01*
X117183119Y-67261162D01*
X117183116Y-67261161D01*
X116973373Y-67223800D01*
X116973367Y-67223799D01*
X116968284Y-67222894D01*
X116894452Y-67221992D01*
X116750081Y-67220228D01*
X116750079Y-67220228D01*
X116744911Y-67220165D01*
X116524091Y-67253955D01*
X116311756Y-67323357D01*
X116113607Y-67426507D01*
X116109474Y-67429610D01*
X116109471Y-67429612D01*
X116026771Y-67491705D01*
X115934965Y-67560635D01*
X115780629Y-67722138D01*
X115673201Y-67879621D01*
X115618293Y-67924621D01*
X115547768Y-67932792D01*
X115484021Y-67901538D01*
X115463324Y-67877054D01*
X115382822Y-67752617D01*
X115382820Y-67752614D01*
X115380014Y-67748277D01*
X115229670Y-67583051D01*
X115225619Y-67579852D01*
X115225615Y-67579848D01*
X115058414Y-67447800D01*
X115058410Y-67447798D01*
X115054359Y-67444598D01*
X115018028Y-67424542D01*
X115002136Y-67415769D01*
X114858789Y-67336638D01*
X114853920Y-67334914D01*
X114853916Y-67334912D01*
X114653087Y-67263795D01*
X114653083Y-67263794D01*
X114648212Y-67262069D01*
X114643119Y-67261162D01*
X114643116Y-67261161D01*
X114433373Y-67223800D01*
X114433367Y-67223799D01*
X114428284Y-67222894D01*
X114354452Y-67221992D01*
X114210081Y-67220228D01*
X114210079Y-67220228D01*
X114204911Y-67220165D01*
X113984091Y-67253955D01*
X113771756Y-67323357D01*
X113573607Y-67426507D01*
X113569474Y-67429610D01*
X113569471Y-67429612D01*
X113486771Y-67491705D01*
X113394965Y-67560635D01*
X113240629Y-67722138D01*
X113133201Y-67879621D01*
X113078293Y-67924621D01*
X113007768Y-67932792D01*
X112944021Y-67901538D01*
X112923324Y-67877054D01*
X112842822Y-67752617D01*
X112842820Y-67752614D01*
X112840014Y-67748277D01*
X112689670Y-67583051D01*
X112685619Y-67579852D01*
X112685615Y-67579848D01*
X112518414Y-67447800D01*
X112518410Y-67447798D01*
X112514359Y-67444598D01*
X112478028Y-67424542D01*
X112462136Y-67415769D01*
X112318789Y-67336638D01*
X112313920Y-67334914D01*
X112313916Y-67334912D01*
X112113087Y-67263795D01*
X112113083Y-67263794D01*
X112108212Y-67262069D01*
X112103119Y-67261162D01*
X112103116Y-67261161D01*
X111893373Y-67223800D01*
X111893367Y-67223799D01*
X111888284Y-67222894D01*
X111814452Y-67221992D01*
X111670081Y-67220228D01*
X111670079Y-67220228D01*
X111664911Y-67220165D01*
X111444091Y-67253955D01*
X111231756Y-67323357D01*
X111033607Y-67426507D01*
X111029474Y-67429610D01*
X111029471Y-67429612D01*
X110946771Y-67491705D01*
X110854965Y-67560635D01*
X110700629Y-67722138D01*
X110593201Y-67879621D01*
X110538293Y-67924621D01*
X110467768Y-67932792D01*
X110404021Y-67901538D01*
X110383324Y-67877054D01*
X110302822Y-67752617D01*
X110302820Y-67752614D01*
X110300014Y-67748277D01*
X110149670Y-67583051D01*
X110145619Y-67579852D01*
X110145615Y-67579848D01*
X109978414Y-67447800D01*
X109978410Y-67447798D01*
X109974359Y-67444598D01*
X109938028Y-67424542D01*
X109922136Y-67415769D01*
X109778789Y-67336638D01*
X109773920Y-67334914D01*
X109773916Y-67334912D01*
X109573087Y-67263795D01*
X109573083Y-67263794D01*
X109568212Y-67262069D01*
X109563119Y-67261162D01*
X109563116Y-67261161D01*
X109353373Y-67223800D01*
X109353367Y-67223799D01*
X109348284Y-67222894D01*
X109274452Y-67221992D01*
X109130081Y-67220228D01*
X109130079Y-67220228D01*
X109124911Y-67220165D01*
X108904091Y-67253955D01*
X108691756Y-67323357D01*
X108493607Y-67426507D01*
X108489474Y-67429610D01*
X108489471Y-67429612D01*
X108406771Y-67491705D01*
X108314965Y-67560635D01*
X108160629Y-67722138D01*
X108053201Y-67879621D01*
X107998293Y-67924621D01*
X107927768Y-67932792D01*
X107864021Y-67901538D01*
X107843324Y-67877054D01*
X107762822Y-67752617D01*
X107762820Y-67752614D01*
X107760014Y-67748277D01*
X107609670Y-67583051D01*
X107605619Y-67579852D01*
X107605615Y-67579848D01*
X107438414Y-67447800D01*
X107438410Y-67447798D01*
X107434359Y-67444598D01*
X107398028Y-67424542D01*
X107382136Y-67415769D01*
X107238789Y-67336638D01*
X107233920Y-67334914D01*
X107233916Y-67334912D01*
X107033087Y-67263795D01*
X107033083Y-67263794D01*
X107028212Y-67262069D01*
X107023119Y-67261162D01*
X107023116Y-67261161D01*
X106813373Y-67223800D01*
X106813367Y-67223799D01*
X106808284Y-67222894D01*
X106734452Y-67221992D01*
X106590081Y-67220228D01*
X106590079Y-67220228D01*
X106584911Y-67220165D01*
X106364091Y-67253955D01*
X106151756Y-67323357D01*
X105953607Y-67426507D01*
X105949474Y-67429610D01*
X105949471Y-67429612D01*
X105866771Y-67491705D01*
X105774965Y-67560635D01*
X105620629Y-67722138D01*
X105513201Y-67879621D01*
X105458293Y-67924621D01*
X105387768Y-67932792D01*
X105324021Y-67901538D01*
X105303324Y-67877054D01*
X105222822Y-67752617D01*
X105222820Y-67752614D01*
X105220014Y-67748277D01*
X105069670Y-67583051D01*
X105065619Y-67579852D01*
X105065615Y-67579848D01*
X104898414Y-67447800D01*
X104898410Y-67447798D01*
X104894359Y-67444598D01*
X104858028Y-67424542D01*
X104842136Y-67415769D01*
X104698789Y-67336638D01*
X104693920Y-67334914D01*
X104693916Y-67334912D01*
X104493087Y-67263795D01*
X104493083Y-67263794D01*
X104488212Y-67262069D01*
X104483119Y-67261162D01*
X104483116Y-67261161D01*
X104273373Y-67223800D01*
X104273367Y-67223799D01*
X104268284Y-67222894D01*
X104194452Y-67221992D01*
X104050081Y-67220228D01*
X104050079Y-67220228D01*
X104044911Y-67220165D01*
X103824091Y-67253955D01*
X103611756Y-67323357D01*
X103413607Y-67426507D01*
X103409474Y-67429610D01*
X103409471Y-67429612D01*
X103326771Y-67491705D01*
X103234965Y-67560635D01*
X103080629Y-67722138D01*
X102973201Y-67879621D01*
X102918293Y-67924621D01*
X102847768Y-67932792D01*
X102784021Y-67901538D01*
X102763324Y-67877054D01*
X102682822Y-67752617D01*
X102682820Y-67752614D01*
X102680014Y-67748277D01*
X102529670Y-67583051D01*
X102525619Y-67579852D01*
X102525615Y-67579848D01*
X102358414Y-67447800D01*
X102358410Y-67447798D01*
X102354359Y-67444598D01*
X102318028Y-67424542D01*
X102302136Y-67415769D01*
X102158789Y-67336638D01*
X102153920Y-67334914D01*
X102153916Y-67334912D01*
X101953087Y-67263795D01*
X101953083Y-67263794D01*
X101948212Y-67262069D01*
X101943119Y-67261162D01*
X101943116Y-67261161D01*
X101733373Y-67223800D01*
X101733367Y-67223799D01*
X101728284Y-67222894D01*
X101654452Y-67221992D01*
X101510081Y-67220228D01*
X101510079Y-67220228D01*
X101504911Y-67220165D01*
X101284091Y-67253955D01*
X101071756Y-67323357D01*
X100873607Y-67426507D01*
X100869474Y-67429610D01*
X100869471Y-67429612D01*
X100786771Y-67491705D01*
X100694965Y-67560635D01*
X100540629Y-67722138D01*
X100433201Y-67879621D01*
X100378293Y-67924621D01*
X100307768Y-67932792D01*
X100244021Y-67901538D01*
X100223324Y-67877054D01*
X100142822Y-67752617D01*
X100142820Y-67752614D01*
X100140014Y-67748277D01*
X99989670Y-67583051D01*
X99985619Y-67579852D01*
X99985615Y-67579848D01*
X99818414Y-67447800D01*
X99818410Y-67447798D01*
X99814359Y-67444598D01*
X99778028Y-67424542D01*
X99762136Y-67415769D01*
X99618789Y-67336638D01*
X99613920Y-67334914D01*
X99613916Y-67334912D01*
X99413087Y-67263795D01*
X99413083Y-67263794D01*
X99408212Y-67262069D01*
X99403119Y-67261162D01*
X99403116Y-67261161D01*
X99193373Y-67223800D01*
X99193367Y-67223799D01*
X99188284Y-67222894D01*
X99114452Y-67221992D01*
X98970081Y-67220228D01*
X98970079Y-67220228D01*
X98964911Y-67220165D01*
X98744091Y-67253955D01*
X98531756Y-67323357D01*
X98333607Y-67426507D01*
X98329474Y-67429610D01*
X98329471Y-67429612D01*
X98246771Y-67491705D01*
X98154965Y-67560635D01*
X98000629Y-67722138D01*
X97893201Y-67879621D01*
X97838293Y-67924621D01*
X97767768Y-67932792D01*
X97704021Y-67901538D01*
X97683324Y-67877054D01*
X97602822Y-67752617D01*
X97602820Y-67752614D01*
X97600014Y-67748277D01*
X97449670Y-67583051D01*
X97445619Y-67579852D01*
X97445615Y-67579848D01*
X97278414Y-67447800D01*
X97278410Y-67447798D01*
X97274359Y-67444598D01*
X97238028Y-67424542D01*
X97222136Y-67415769D01*
X97078789Y-67336638D01*
X97073920Y-67334914D01*
X97073916Y-67334912D01*
X96873087Y-67263795D01*
X96873083Y-67263794D01*
X96868212Y-67262069D01*
X96863119Y-67261162D01*
X96863116Y-67261161D01*
X96653373Y-67223800D01*
X96653367Y-67223799D01*
X96648284Y-67222894D01*
X96574452Y-67221992D01*
X96430081Y-67220228D01*
X96430079Y-67220228D01*
X96424911Y-67220165D01*
X96204091Y-67253955D01*
X95991756Y-67323357D01*
X95793607Y-67426507D01*
X95789474Y-67429610D01*
X95789471Y-67429612D01*
X95706771Y-67491705D01*
X95614965Y-67560635D01*
X95460629Y-67722138D01*
X95353201Y-67879621D01*
X95298293Y-67924621D01*
X95227768Y-67932792D01*
X95164021Y-67901538D01*
X95143324Y-67877054D01*
X95062822Y-67752617D01*
X95062820Y-67752614D01*
X95060014Y-67748277D01*
X94909670Y-67583051D01*
X94905619Y-67579852D01*
X94905615Y-67579848D01*
X94738414Y-67447800D01*
X94738410Y-67447798D01*
X94734359Y-67444598D01*
X94698028Y-67424542D01*
X94682136Y-67415769D01*
X94538789Y-67336638D01*
X94533920Y-67334914D01*
X94533916Y-67334912D01*
X94333087Y-67263795D01*
X94333083Y-67263794D01*
X94328212Y-67262069D01*
X94323119Y-67261162D01*
X94323116Y-67261161D01*
X94113373Y-67223800D01*
X94113367Y-67223799D01*
X94108284Y-67222894D01*
X94034452Y-67221992D01*
X93890081Y-67220228D01*
X93890079Y-67220228D01*
X93884911Y-67220165D01*
X93664091Y-67253955D01*
X93451756Y-67323357D01*
X93253607Y-67426507D01*
X93249474Y-67429610D01*
X93249471Y-67429612D01*
X93166771Y-67491705D01*
X93074965Y-67560635D01*
X92920629Y-67722138D01*
X92813201Y-67879621D01*
X92758293Y-67924621D01*
X92687768Y-67932792D01*
X92624021Y-67901538D01*
X92603324Y-67877054D01*
X92522822Y-67752617D01*
X92522820Y-67752614D01*
X92520014Y-67748277D01*
X92369670Y-67583051D01*
X92365619Y-67579852D01*
X92365615Y-67579848D01*
X92198414Y-67447800D01*
X92198410Y-67447798D01*
X92194359Y-67444598D01*
X92158028Y-67424542D01*
X92142136Y-67415769D01*
X91998789Y-67336638D01*
X91993920Y-67334914D01*
X91993916Y-67334912D01*
X91793087Y-67263795D01*
X91793083Y-67263794D01*
X91788212Y-67262069D01*
X91783119Y-67261162D01*
X91783116Y-67261161D01*
X91573373Y-67223800D01*
X91573367Y-67223799D01*
X91568284Y-67222894D01*
X91494452Y-67221992D01*
X91350081Y-67220228D01*
X91350079Y-67220228D01*
X91344911Y-67220165D01*
X91124091Y-67253955D01*
X90911756Y-67323357D01*
X90713607Y-67426507D01*
X90709474Y-67429610D01*
X90709471Y-67429612D01*
X90626771Y-67491705D01*
X90534965Y-67560635D01*
X90380629Y-67722138D01*
X90273201Y-67879621D01*
X90218293Y-67924621D01*
X90147768Y-67932792D01*
X90084021Y-67901538D01*
X90063324Y-67877054D01*
X89982822Y-67752617D01*
X89982820Y-67752614D01*
X89980014Y-67748277D01*
X89829670Y-67583051D01*
X89825619Y-67579852D01*
X89825615Y-67579848D01*
X89658414Y-67447800D01*
X89658410Y-67447798D01*
X89654359Y-67444598D01*
X89618028Y-67424542D01*
X89602136Y-67415769D01*
X89458789Y-67336638D01*
X89453920Y-67334914D01*
X89453916Y-67334912D01*
X89253087Y-67263795D01*
X89253083Y-67263794D01*
X89248212Y-67262069D01*
X89243119Y-67261162D01*
X89243116Y-67261161D01*
X89033373Y-67223800D01*
X89033367Y-67223799D01*
X89028284Y-67222894D01*
X88954452Y-67221992D01*
X88810081Y-67220228D01*
X88810079Y-67220228D01*
X88804911Y-67220165D01*
X88584091Y-67253955D01*
X88371756Y-67323357D01*
X88173607Y-67426507D01*
X88169474Y-67429610D01*
X88169471Y-67429612D01*
X88086771Y-67491705D01*
X87994965Y-67560635D01*
X87840629Y-67722138D01*
X87733201Y-67879621D01*
X87678293Y-67924621D01*
X87607768Y-67932792D01*
X87544021Y-67901538D01*
X87523324Y-67877054D01*
X87442822Y-67752617D01*
X87442820Y-67752614D01*
X87440014Y-67748277D01*
X87289670Y-67583051D01*
X87285619Y-67579852D01*
X87285615Y-67579848D01*
X87118414Y-67447800D01*
X87118410Y-67447798D01*
X87114359Y-67444598D01*
X87078028Y-67424542D01*
X87062136Y-67415769D01*
X86918789Y-67336638D01*
X86913920Y-67334914D01*
X86913916Y-67334912D01*
X86713087Y-67263795D01*
X86713083Y-67263794D01*
X86708212Y-67262069D01*
X86703119Y-67261162D01*
X86703116Y-67261161D01*
X86493373Y-67223800D01*
X86493367Y-67223799D01*
X86488284Y-67222894D01*
X86414452Y-67221992D01*
X86270081Y-67220228D01*
X86270079Y-67220228D01*
X86264911Y-67220165D01*
X86044091Y-67253955D01*
X85831756Y-67323357D01*
X85633607Y-67426507D01*
X85629474Y-67429610D01*
X85629471Y-67429612D01*
X85546771Y-67491705D01*
X85454965Y-67560635D01*
X85300629Y-67722138D01*
X85174743Y-67906680D01*
X85080688Y-68109305D01*
X85020989Y-68324570D01*
X84997251Y-68546695D01*
X84508500Y-68546695D01*
X84508500Y-67351603D01*
X84510140Y-67331340D01*
X84510976Y-67326209D01*
X84513634Y-67309897D01*
X84512509Y-67300793D01*
X84512445Y-67270412D01*
X84513235Y-67263795D01*
X84518347Y-67220948D01*
X84519982Y-67207241D01*
X84526398Y-67179894D01*
X84529878Y-67170125D01*
X84554209Y-67101806D01*
X84566524Y-67076561D01*
X84610944Y-67006574D01*
X84628544Y-66984686D01*
X84687366Y-66926277D01*
X84709376Y-66908834D01*
X84776629Y-66866811D01*
X84779678Y-66864906D01*
X84805002Y-66852773D01*
X84883296Y-66825510D01*
X84910681Y-66819289D01*
X84918563Y-66818405D01*
X84967219Y-66812948D01*
X84982966Y-66813291D01*
X84982979Y-66812200D01*
X84991956Y-66812310D01*
X85000827Y-66813691D01*
X85009729Y-66812527D01*
X85009732Y-66812527D01*
X85032427Y-66809559D01*
X85048749Y-66808495D01*
X143950661Y-66801399D01*
X143970056Y-66802899D01*
G37*
%TD.AperFunction*%
%TD*%
M02*
