%TF.GenerationSoftware,KiCad,Pcbnew,(6.0.6)*%
%TF.CreationDate,2022-07-05T16:05:39+02:00*%
%TF.ProjectId,kicad_rfm95_breakout_board_V4,6b696361-645f-4726-966d-39355f627265,rev?*%
%TF.SameCoordinates,Original*%
%TF.FileFunction,Paste,Top*%
%TF.FilePolarity,Positive*%
%FSLAX46Y46*%
G04 Gerber Fmt 4.6, Leading zero omitted, Abs format (unit mm)*
G04 Created by KiCad (PCBNEW (6.0.6)) date 2022-07-05 16:05:39*
%MOMM*%
%LPD*%
G01*
G04 APERTURE LIST*
G04 Aperture macros list*
%AMRoundRect*
0 Rectangle with rounded corners*
0 $1 Rounding radius*
0 $2 $3 $4 $5 $6 $7 $8 $9 X,Y pos of 4 corners*
0 Add a 4 corners polygon primitive as box body*
4,1,4,$2,$3,$4,$5,$6,$7,$8,$9,$2,$3,0*
0 Add four circle primitives for the rounded corners*
1,1,$1+$1,$2,$3*
1,1,$1+$1,$4,$5*
1,1,$1+$1,$6,$7*
1,1,$1+$1,$8,$9*
0 Add four rect primitives between the rounded corners*
20,1,$1+$1,$2,$3,$4,$5,0*
20,1,$1+$1,$4,$5,$6,$7,0*
20,1,$1+$1,$6,$7,$8,$9,0*
20,1,$1+$1,$8,$9,$2,$3,0*%
G04 Aperture macros list end*
%ADD10R,0.900000X1.700000*%
%ADD11RoundRect,0.218750X-0.218750X-0.256250X0.218750X-0.256250X0.218750X0.256250X-0.218750X0.256250X0*%
%ADD12RoundRect,0.200000X0.200000X0.275000X-0.200000X0.275000X-0.200000X-0.275000X0.200000X-0.275000X0*%
%ADD13RoundRect,0.218750X-0.381250X0.218750X-0.381250X-0.218750X0.381250X-0.218750X0.381250X0.218750X0*%
%ADD14RoundRect,0.200000X-0.200000X-0.275000X0.200000X-0.275000X0.200000X0.275000X-0.200000X0.275000X0*%
%ADD15RoundRect,0.225000X-0.225000X-0.250000X0.225000X-0.250000X0.225000X0.250000X-0.225000X0.250000X0*%
%ADD16R,1.000000X2.000000*%
%ADD17RoundRect,0.147500X0.172500X-0.147500X0.172500X0.147500X-0.172500X0.147500X-0.172500X-0.147500X0*%
%ADD18RoundRect,0.200000X-0.275000X0.200000X-0.275000X-0.200000X0.275000X-0.200000X0.275000X0.200000X0*%
%ADD19RoundRect,0.225000X0.250000X-0.225000X0.250000X0.225000X-0.250000X0.225000X-0.250000X-0.225000X0*%
%ADD20R,2.500000X1.000000*%
%ADD21RoundRect,0.218750X0.256250X-0.218750X0.256250X0.218750X-0.256250X0.218750X-0.256250X-0.218750X0*%
%ADD22RoundRect,0.225000X-0.250000X0.225000X-0.250000X-0.225000X0.250000X-0.225000X0.250000X0.225000X0*%
%ADD23RoundRect,0.150000X0.150000X-0.587500X0.150000X0.587500X-0.150000X0.587500X-0.150000X-0.587500X0*%
%ADD24RoundRect,0.225000X0.225000X0.250000X-0.225000X0.250000X-0.225000X-0.250000X0.225000X-0.250000X0*%
%ADD25O,1.550000X0.890000*%
%ADD26O,0.950000X1.250000*%
%ADD27R,1.350000X0.400000*%
%ADD28R,1.550000X1.200000*%
%ADD29R,1.550000X1.500000*%
%ADD30R,3.600000X1.270000*%
%ADD31R,4.200000X1.350000*%
%ADD32RoundRect,0.075000X-0.075000X0.700000X-0.075000X-0.700000X0.075000X-0.700000X0.075000X0.700000X0*%
%ADD33RoundRect,0.075000X-0.700000X0.075000X-0.700000X-0.075000X0.700000X-0.075000X0.700000X0.075000X0*%
%ADD34R,2.400000X2.000000*%
G04 APERTURE END LIST*
D10*
%TO.C,SW3*%
X138700000Y-75000000D03*
X142100000Y-75000000D03*
%TD*%
D11*
%TO.C,D5*%
X98612500Y-118300000D03*
X100187500Y-118300000D03*
%TD*%
D12*
%TO.C,R7*%
X97025000Y-110400000D03*
X95375000Y-110400000D03*
%TD*%
D10*
%TO.C,SW4*%
X115300000Y-116300000D03*
X111900000Y-116300000D03*
%TD*%
D13*
%TO.C,FB1*%
X138600000Y-106037500D03*
X138600000Y-108162500D03*
%TD*%
D14*
%TO.C,R4*%
X135575000Y-73300000D03*
X137225000Y-73300000D03*
%TD*%
D15*
%TO.C,C1*%
X125425000Y-89600000D03*
X126975000Y-89600000D03*
%TD*%
D16*
%TO.C,U1*%
X99800000Y-76800000D03*
X97800000Y-76800000D03*
X95800000Y-76800000D03*
X93800000Y-76800000D03*
X91800000Y-76800000D03*
X89800000Y-76800000D03*
X87800000Y-76800000D03*
X85800000Y-76800000D03*
X85800000Y-92800000D03*
X87800000Y-92800000D03*
X89800000Y-92800000D03*
X91800000Y-92800000D03*
X93800000Y-92800000D03*
X95800000Y-92800000D03*
X97800000Y-92800000D03*
X99800000Y-92800000D03*
%TD*%
D17*
%TO.C,L1*%
X111900000Y-87385000D03*
X111900000Y-86415000D03*
%TD*%
D18*
%TO.C,R1*%
X140300000Y-113775000D03*
X140300000Y-115425000D03*
%TD*%
D19*
%TO.C,C16*%
X123200000Y-85475000D03*
X123200000Y-83925000D03*
%TD*%
D20*
%TO.C,U3*%
X118350000Y-109350000D03*
X118350000Y-111890000D03*
X118350000Y-114430000D03*
X118350000Y-116970000D03*
X118350000Y-119510000D03*
X118350000Y-122050000D03*
X133850000Y-122050000D03*
X133850000Y-119510000D03*
X133850000Y-116970000D03*
X133850000Y-114430000D03*
X133850000Y-111890000D03*
X133850000Y-109350000D03*
%TD*%
D21*
%TO.C,D1*%
X142000000Y-115387500D03*
X142000000Y-113812500D03*
%TD*%
D22*
%TO.C,C10*%
X113600000Y-121425000D03*
X113600000Y-122975000D03*
%TD*%
D12*
%TO.C,R6*%
X97125000Y-114600000D03*
X95475000Y-114600000D03*
%TD*%
D23*
%TO.C,U2*%
X138450000Y-111937500D03*
X140350000Y-111937500D03*
X139400000Y-110062500D03*
%TD*%
D19*
%TO.C,C5*%
X114800000Y-87175000D03*
X114800000Y-85625000D03*
%TD*%
D11*
%TO.C,D3*%
X98612500Y-114500000D03*
X100187500Y-114500000D03*
%TD*%
D22*
%TO.C,C11*%
X115200000Y-121425000D03*
X115200000Y-122975000D03*
%TD*%
D24*
%TO.C,C12*%
X137075000Y-86300000D03*
X135525000Y-86300000D03*
%TD*%
%TO.C,C4*%
X113275000Y-101200000D03*
X111725000Y-101200000D03*
%TD*%
D25*
%TO.C,J1*%
X143540000Y-107640000D03*
D26*
X140840000Y-101640000D03*
X140840000Y-106640000D03*
D25*
X143540000Y-100640000D03*
D27*
X140840000Y-105440000D03*
X140840000Y-104790000D03*
X140840000Y-104140000D03*
X140840000Y-103490000D03*
X140840000Y-102840000D03*
D28*
X143540000Y-101240000D03*
D29*
X143540000Y-103140000D03*
X143540000Y-105140000D03*
D28*
X143540000Y-107040000D03*
%TD*%
D14*
%TO.C,R9*%
X140600000Y-91200000D03*
X142250000Y-91200000D03*
%TD*%
D11*
%TO.C,D4*%
X98612500Y-110400000D03*
X100187500Y-110400000D03*
%TD*%
D24*
%TO.C,C13*%
X137175000Y-80600000D03*
X135625000Y-80600000D03*
%TD*%
D10*
%TO.C,SW2*%
X138700000Y-79900000D03*
X142100000Y-79900000D03*
%TD*%
D14*
%TO.C,R2*%
X135475000Y-84700000D03*
X137125000Y-84700000D03*
%TD*%
D22*
%TO.C,C7*%
X136900000Y-108725000D03*
X136900000Y-110275000D03*
%TD*%
D30*
%TO.C,J2*%
X86000000Y-99100000D03*
D31*
X86200000Y-101925000D03*
X86200000Y-96275000D03*
%TD*%
D24*
%TO.C,C6*%
X110875000Y-92700000D03*
X109325000Y-92700000D03*
%TD*%
D15*
%TO.C,C8*%
X125425000Y-91200000D03*
X126975000Y-91200000D03*
%TD*%
D11*
%TO.C,D2*%
X98612500Y-106500000D03*
X100187500Y-106500000D03*
%TD*%
D19*
%TO.C,C17*%
X110300000Y-117075000D03*
X110300000Y-115525000D03*
%TD*%
D14*
%TO.C,R3*%
X135575000Y-79000000D03*
X137225000Y-79000000D03*
%TD*%
D24*
%TO.C,C14*%
X137175000Y-74900000D03*
X135625000Y-74900000D03*
%TD*%
D18*
%TO.C,R10*%
X137300000Y-101975000D03*
X137300000Y-103625000D03*
%TD*%
D12*
%TO.C,R8*%
X97125000Y-118300000D03*
X95475000Y-118300000D03*
%TD*%
D19*
%TO.C,C3*%
X113200000Y-87175000D03*
X113200000Y-85625000D03*
%TD*%
D10*
%TO.C,SW1*%
X138700000Y-84900000D03*
X142100000Y-84900000D03*
%TD*%
D32*
%TO.C,U4*%
X123130000Y-90525000D03*
X122630000Y-90525000D03*
X122130000Y-90525000D03*
X121630000Y-90525000D03*
X121130000Y-90525000D03*
X120630000Y-90525000D03*
X120130000Y-90525000D03*
X119630000Y-90525000D03*
X119130000Y-90525000D03*
X118630000Y-90525000D03*
X118130000Y-90525000D03*
X117630000Y-90525000D03*
X117130000Y-90525000D03*
X116630000Y-90525000D03*
X116130000Y-90525000D03*
X115630000Y-90525000D03*
D33*
X113705000Y-92450000D03*
X113705000Y-92950000D03*
X113705000Y-93450000D03*
X113705000Y-93950000D03*
X113705000Y-94450000D03*
X113705000Y-94950000D03*
X113705000Y-95450000D03*
X113705000Y-95950000D03*
X113705000Y-96450000D03*
X113705000Y-96950000D03*
X113705000Y-97450000D03*
X113705000Y-97950000D03*
X113705000Y-98450000D03*
X113705000Y-98950000D03*
X113705000Y-99450000D03*
X113705000Y-99950000D03*
D32*
X115630000Y-101875000D03*
X116130000Y-101875000D03*
X116630000Y-101875000D03*
X117130000Y-101875000D03*
X117630000Y-101875000D03*
X118130000Y-101875000D03*
X118630000Y-101875000D03*
X119130000Y-101875000D03*
X119630000Y-101875000D03*
X120130000Y-101875000D03*
X120630000Y-101875000D03*
X121130000Y-101875000D03*
X121630000Y-101875000D03*
X122130000Y-101875000D03*
X122630000Y-101875000D03*
X123130000Y-101875000D03*
D33*
X125055000Y-99950000D03*
X125055000Y-99450000D03*
X125055000Y-98950000D03*
X125055000Y-98450000D03*
X125055000Y-97950000D03*
X125055000Y-97450000D03*
X125055000Y-96950000D03*
X125055000Y-96450000D03*
X125055000Y-95950000D03*
X125055000Y-95450000D03*
X125055000Y-94950000D03*
X125055000Y-94450000D03*
X125055000Y-93950000D03*
X125055000Y-93450000D03*
X125055000Y-92950000D03*
X125055000Y-92450000D03*
%TD*%
D22*
%TO.C,C2*%
X124400000Y-102225000D03*
X124400000Y-103775000D03*
%TD*%
D12*
%TO.C,R5*%
X97025000Y-106500000D03*
X95375000Y-106500000D03*
%TD*%
D34*
%TO.C,Y1*%
X120400000Y-81250000D03*
X120400000Y-84950000D03*
%TD*%
D22*
%TO.C,C15*%
X117700000Y-80725000D03*
X117700000Y-82275000D03*
%TD*%
D19*
%TO.C,C9*%
X141975000Y-112250000D03*
X141975000Y-110700000D03*
%TD*%
M02*
