%TF.GenerationSoftware,KiCad,Pcbnew,(6.0.6)*%
%TF.CreationDate,2022-07-05T16:05:39+02:00*%
%TF.ProjectId,kicad_rfm95_breakout_board_V4,6b696361-645f-4726-966d-39355f627265,rev?*%
%TF.SameCoordinates,Original*%
%TF.FileFunction,Copper,L1,Top*%
%TF.FilePolarity,Positive*%
%FSLAX46Y46*%
G04 Gerber Fmt 4.6, Leading zero omitted, Abs format (unit mm)*
G04 Created by KiCad (PCBNEW (6.0.6)) date 2022-07-05 16:05:39*
%MOMM*%
%LPD*%
G01*
G04 APERTURE LIST*
G04 Aperture macros list*
%AMRoundRect*
0 Rectangle with rounded corners*
0 $1 Rounding radius*
0 $2 $3 $4 $5 $6 $7 $8 $9 X,Y pos of 4 corners*
0 Add a 4 corners polygon primitive as box body*
4,1,4,$2,$3,$4,$5,$6,$7,$8,$9,$2,$3,0*
0 Add four circle primitives for the rounded corners*
1,1,$1+$1,$2,$3*
1,1,$1+$1,$4,$5*
1,1,$1+$1,$6,$7*
1,1,$1+$1,$8,$9*
0 Add four rect primitives between the rounded corners*
20,1,$1+$1,$2,$3,$4,$5,0*
20,1,$1+$1,$4,$5,$6,$7,0*
20,1,$1+$1,$6,$7,$8,$9,0*
20,1,$1+$1,$8,$9,$2,$3,0*%
G04 Aperture macros list end*
%TA.AperFunction,SMDPad,CuDef*%
%ADD10R,0.900000X1.700000*%
%TD*%
%TA.AperFunction,ComponentPad*%
%ADD11R,1.700000X1.700000*%
%TD*%
%TA.AperFunction,ComponentPad*%
%ADD12O,1.700000X1.700000*%
%TD*%
%TA.AperFunction,SMDPad,CuDef*%
%ADD13RoundRect,0.218750X-0.218750X-0.256250X0.218750X-0.256250X0.218750X0.256250X-0.218750X0.256250X0*%
%TD*%
%TA.AperFunction,SMDPad,CuDef*%
%ADD14RoundRect,0.200000X0.200000X0.275000X-0.200000X0.275000X-0.200000X-0.275000X0.200000X-0.275000X0*%
%TD*%
%TA.AperFunction,SMDPad,CuDef*%
%ADD15R,1.000000X1.500000*%
%TD*%
%TA.AperFunction,SMDPad,CuDef*%
%ADD16RoundRect,0.218750X-0.381250X0.218750X-0.381250X-0.218750X0.381250X-0.218750X0.381250X0.218750X0*%
%TD*%
%TA.AperFunction,SMDPad,CuDef*%
%ADD17RoundRect,0.200000X-0.200000X-0.275000X0.200000X-0.275000X0.200000X0.275000X-0.200000X0.275000X0*%
%TD*%
%TA.AperFunction,SMDPad,CuDef*%
%ADD18RoundRect,0.225000X-0.225000X-0.250000X0.225000X-0.250000X0.225000X0.250000X-0.225000X0.250000X0*%
%TD*%
%TA.AperFunction,SMDPad,CuDef*%
%ADD19R,1.000000X2.000000*%
%TD*%
%TA.AperFunction,SMDPad,CuDef*%
%ADD20RoundRect,0.147500X0.172500X-0.147500X0.172500X0.147500X-0.172500X0.147500X-0.172500X-0.147500X0*%
%TD*%
%TA.AperFunction,SMDPad,CuDef*%
%ADD21RoundRect,0.200000X-0.275000X0.200000X-0.275000X-0.200000X0.275000X-0.200000X0.275000X0.200000X0*%
%TD*%
%TA.AperFunction,SMDPad,CuDef*%
%ADD22RoundRect,0.225000X0.250000X-0.225000X0.250000X0.225000X-0.250000X0.225000X-0.250000X-0.225000X0*%
%TD*%
%TA.AperFunction,SMDPad,CuDef*%
%ADD23R,2.500000X1.000000*%
%TD*%
%TA.AperFunction,SMDPad,CuDef*%
%ADD24RoundRect,0.218750X0.256250X-0.218750X0.256250X0.218750X-0.256250X0.218750X-0.256250X-0.218750X0*%
%TD*%
%TA.AperFunction,SMDPad,CuDef*%
%ADD25RoundRect,0.225000X-0.250000X0.225000X-0.250000X-0.225000X0.250000X-0.225000X0.250000X0.225000X0*%
%TD*%
%TA.AperFunction,SMDPad,CuDef*%
%ADD26RoundRect,0.150000X0.150000X-0.587500X0.150000X0.587500X-0.150000X0.587500X-0.150000X-0.587500X0*%
%TD*%
%TA.AperFunction,SMDPad,CuDef*%
%ADD27RoundRect,0.225000X0.225000X0.250000X-0.225000X0.250000X-0.225000X-0.250000X0.225000X-0.250000X0*%
%TD*%
%TA.AperFunction,SMDPad,CuDef*%
%ADD28R,1.350000X0.400000*%
%TD*%
%TA.AperFunction,ComponentPad*%
%ADD29O,1.550000X0.890000*%
%TD*%
%TA.AperFunction,SMDPad,CuDef*%
%ADD30R,1.550000X1.200000*%
%TD*%
%TA.AperFunction,ComponentPad*%
%ADD31O,0.950000X1.250000*%
%TD*%
%TA.AperFunction,SMDPad,CuDef*%
%ADD32R,1.550000X1.500000*%
%TD*%
%TA.AperFunction,SMDPad,CuDef*%
%ADD33R,3.600000X1.270000*%
%TD*%
%TA.AperFunction,SMDPad,CuDef*%
%ADD34R,4.200000X1.350000*%
%TD*%
%TA.AperFunction,SMDPad,CuDef*%
%ADD35RoundRect,0.075000X-0.075000X0.700000X-0.075000X-0.700000X0.075000X-0.700000X0.075000X0.700000X0*%
%TD*%
%TA.AperFunction,SMDPad,CuDef*%
%ADD36RoundRect,0.075000X-0.700000X0.075000X-0.700000X-0.075000X0.700000X-0.075000X0.700000X0.075000X0*%
%TD*%
%TA.AperFunction,ComponentPad*%
%ADD37R,1.000000X1.000000*%
%TD*%
%TA.AperFunction,ComponentPad*%
%ADD38O,1.000000X1.000000*%
%TD*%
%TA.AperFunction,SMDPad,CuDef*%
%ADD39R,2.400000X2.000000*%
%TD*%
%TA.AperFunction,SMDPad,CuDef*%
%ADD40R,1.500000X1.000000*%
%TD*%
%TA.AperFunction,ViaPad*%
%ADD41C,0.800000*%
%TD*%
%TA.AperFunction,Conductor*%
%ADD42C,0.500000*%
%TD*%
%TA.AperFunction,Conductor*%
%ADD43C,0.750000*%
%TD*%
%TA.AperFunction,Conductor*%
%ADD44C,0.300000*%
%TD*%
%TA.AperFunction,Conductor*%
%ADD45C,0.250000*%
%TD*%
%TA.AperFunction,Conductor*%
%ADD46C,0.600000*%
%TD*%
G04 APERTURE END LIST*
D10*
%TO.P,SW3,1,1*%
%TO.N,PC7*%
X138700000Y-75000000D03*
%TO.P,SW3,2,2*%
%TO.N,GND*%
X142100000Y-75000000D03*
%TD*%
D11*
%TO.P,J3,1,Pin_1*%
%TO.N,GND*%
X86360000Y-129540000D03*
D12*
%TO.P,J3,2,Pin_2*%
%TO.N,PB12*%
X88900000Y-129540000D03*
%TO.P,J3,3,Pin_3*%
%TO.N,PB13*%
X91440000Y-129540000D03*
%TO.P,J3,4,Pin_4*%
%TO.N,PB14*%
X93980000Y-129540000D03*
%TO.P,J3,5,Pin_5*%
%TO.N,PB15*%
X96520000Y-129540000D03*
%TO.P,J3,6,Pin_6*%
%TO.N,PC6*%
X99060000Y-129540000D03*
%TO.P,J3,7,Pin_7*%
%TO.N,PC7*%
X101600000Y-129540000D03*
%TO.P,J3,8,Pin_8*%
%TO.N,PC8*%
X104140000Y-129540000D03*
%TO.P,J3,9,Pin_9*%
%TO.N,PC9*%
X106680000Y-129540000D03*
%TO.P,J3,10,Pin_10*%
%TO.N,PA8*%
X109220000Y-129540000D03*
%TO.P,J3,11,Pin_11*%
%TO.N,GND*%
X111760000Y-129540000D03*
%TO.P,J3,12,Pin_12*%
%TO.N,PA10*%
X114300000Y-129540000D03*
%TO.P,J3,13,Pin_13*%
%TO.N,PA15*%
X116840000Y-129540000D03*
%TO.P,J3,14,Pin_14*%
%TO.N,PC10*%
X119380000Y-129540000D03*
%TO.P,J3,15,Pin_15*%
%TO.N,PC11*%
X121920000Y-129540000D03*
%TO.P,J3,16,Pin_16*%
%TO.N,PC12*%
X124460000Y-129540000D03*
%TO.P,J3,17,Pin_17*%
%TO.N,PD2*%
X127000000Y-129540000D03*
%TO.P,J3,18,Pin_18*%
%TO.N,PB3*%
X129540000Y-129540000D03*
%TO.P,J3,19,Pin_19*%
%TO.N,GND*%
X132080000Y-129540000D03*
%TO.P,J3,20,Pin_20*%
%TO.N,VCC*%
X134620000Y-129540000D03*
%TD*%
D13*
%TO.P,D5,1,K*%
%TO.N,Net-(D5-Pad1)*%
X98612500Y-118300000D03*
%TO.P,D5,2,A*%
%TO.N,Net-(D5-Pad2)*%
X100187500Y-118300000D03*
%TD*%
D14*
%TO.P,R7,1*%
%TO.N,Net-(D4-Pad1)*%
X97025000Y-110400000D03*
%TO.P,R7,2*%
%TO.N,GND*%
X95375000Y-110400000D03*
%TD*%
D10*
%TO.P,SW4,1,1*%
%TO.N,RESET*%
X115300000Y-116300000D03*
%TO.P,SW4,2,2*%
%TO.N,GND*%
X111900000Y-116300000D03*
%TD*%
D15*
%TO.P,JP2,1,A*%
%TO.N,Net-(C10-Pad1)*%
X114950000Y-119300000D03*
%TO.P,JP2,2,B*%
%TO.N,+3.3V*%
X113650000Y-119300000D03*
%TD*%
D16*
%TO.P,FB1,1*%
%TO.N,+5V*%
X138600000Y-106037500D03*
%TO.P,FB1,2*%
%TO.N,VCC*%
X138600000Y-108162500D03*
%TD*%
D17*
%TO.P,R4,1*%
%TO.N,+3.3V*%
X135575000Y-73300000D03*
%TO.P,R4,2*%
%TO.N,PC7*%
X137225000Y-73300000D03*
%TD*%
D18*
%TO.P,C1,1*%
%TO.N,+3.3V*%
X125425000Y-89600000D03*
%TO.P,C1,2*%
%TO.N,GND*%
X126975000Y-89600000D03*
%TD*%
D19*
%TO.P,U1,1,GND*%
%TO.N,GND*%
X99800000Y-76800000D03*
%TO.P,U1,2,MISO*%
%TO.N,SPI1_MISO*%
X97800000Y-76800000D03*
%TO.P,U1,3,MOSI*%
%TO.N,SPI1_MOSI*%
X95800000Y-76800000D03*
%TO.P,U1,4,SCK*%
%TO.N,SPI1_SCK*%
X93800000Y-76800000D03*
%TO.P,U1,5,NSS*%
%TO.N,RFM95_CS*%
X91800000Y-76800000D03*
%TO.P,U1,6,RESET*%
%TO.N,RFM95_RESET*%
X89800000Y-76800000D03*
%TO.P,U1,7,DIO5*%
%TO.N,DIO5*%
X87800000Y-76800000D03*
%TO.P,U1,8,GND*%
%TO.N,GND*%
X85800000Y-76800000D03*
%TO.P,U1,9,ANT*%
%TO.N,Net-(J2-Pad1)*%
X85800000Y-92800000D03*
%TO.P,U1,10,GND*%
%TO.N,GND*%
X87800000Y-92800000D03*
%TO.P,U1,11,DIO3*%
%TO.N,DIO3*%
X89800000Y-92800000D03*
%TO.P,U1,12,DIO4*%
%TO.N,DIO4*%
X91800000Y-92800000D03*
%TO.P,U1,13,3.3V*%
%TO.N,Net-(JP1-Pad2)*%
X93800000Y-92800000D03*
%TO.P,U1,14,DIO0*%
%TO.N,DIO0*%
X95800000Y-92800000D03*
%TO.P,U1,15,DIO1*%
%TO.N,DIO1*%
X97800000Y-92800000D03*
%TO.P,U1,16,DIO2*%
%TO.N,DIO2*%
X99800000Y-92800000D03*
%TD*%
D20*
%TO.P,L1,1*%
%TO.N,+3.3V*%
X111900000Y-87385000D03*
%TO.P,L1,2*%
%TO.N,+3.3VA*%
X111900000Y-86415000D03*
%TD*%
D21*
%TO.P,R1,1*%
%TO.N,Net-(D1-Pad1)*%
X140300000Y-113775000D03*
%TO.P,R1,2*%
%TO.N,GND*%
X140300000Y-115425000D03*
%TD*%
D22*
%TO.P,C16,1*%
%TO.N,/RCC_OSC_OUT*%
X123200000Y-85475000D03*
%TO.P,C16,2*%
%TO.N,GND*%
X123200000Y-83925000D03*
%TD*%
D23*
%TO.P,U3,1,RXD1*%
%TO.N,PA9*%
X118350000Y-109350000D03*
%TO.P,U3,2,TXD1*%
%TO.N,PA10*%
X118350000Y-111890000D03*
%TO.P,U3,3,GND*%
%TO.N,GND*%
X118350000Y-114430000D03*
%TO.P,U3,4,VCC*%
%TO.N,Net-(C10-Pad1)*%
X118350000Y-116970000D03*
%TO.P,U3,5,V_BCKP*%
X118350000Y-119510000D03*
%TO.P,U3,6,1PPS*%
%TO.N,unconnected-(U3-Pad6)*%
X118350000Y-122050000D03*
%TO.P,U3,7,RESERVED*%
%TO.N,unconnected-(U3-Pad7)*%
X133850000Y-122050000D03*
%TO.P,U3,8,RESERVED*%
%TO.N,unconnected-(U3-Pad8)*%
X133850000Y-119510000D03*
%TO.P,U3,9,NC*%
%TO.N,unconnected-(U3-Pad9)*%
X133850000Y-116970000D03*
%TO.P,U3,10,~{RESET}*%
%TO.N,+3.3V*%
X133850000Y-114430000D03*
%TO.P,U3,11,RESERVED*%
%TO.N,unconnected-(U3-Pad11)*%
X133850000Y-111890000D03*
%TO.P,U3,12,GND*%
%TO.N,GND*%
X133850000Y-109350000D03*
%TD*%
D24*
%TO.P,D1,1,K*%
%TO.N,Net-(D1-Pad1)*%
X142000000Y-115387500D03*
%TO.P,D1,2,A*%
%TO.N,+3.3V*%
X142000000Y-113812500D03*
%TD*%
D25*
%TO.P,C10,1*%
%TO.N,Net-(C10-Pad1)*%
X113600000Y-121425000D03*
%TO.P,C10,2*%
%TO.N,GND*%
X113600000Y-122975000D03*
%TD*%
D14*
%TO.P,R6,1*%
%TO.N,Net-(D3-Pad1)*%
X97125000Y-114600000D03*
%TO.P,R6,2*%
%TO.N,GND*%
X95475000Y-114600000D03*
%TD*%
D26*
%TO.P,U2,1,GND*%
%TO.N,GND*%
X138450000Y-111937500D03*
%TO.P,U2,2,VO*%
%TO.N,+3.3V*%
X140350000Y-111937500D03*
%TO.P,U2,3,VI*%
%TO.N,VCC*%
X139400000Y-110062500D03*
%TD*%
D22*
%TO.P,C5,1*%
%TO.N,+3.3VA*%
X114800000Y-87175000D03*
%TO.P,C5,2*%
%TO.N,GND*%
X114800000Y-85625000D03*
%TD*%
D13*
%TO.P,D3,1,K*%
%TO.N,Net-(D3-Pad1)*%
X98612500Y-114500000D03*
%TO.P,D3,2,A*%
%TO.N,Net-(D3-Pad2)*%
X100187500Y-114500000D03*
%TD*%
D25*
%TO.P,C11,1*%
%TO.N,Net-(C10-Pad1)*%
X115200000Y-121425000D03*
%TO.P,C11,2*%
%TO.N,GND*%
X115200000Y-122975000D03*
%TD*%
D27*
%TO.P,C12,1*%
%TO.N,PC9*%
X137075000Y-86300000D03*
%TO.P,C12,2*%
%TO.N,GND*%
X135525000Y-86300000D03*
%TD*%
%TO.P,C4,1*%
%TO.N,+3.3V*%
X113275000Y-101200000D03*
%TO.P,C4,2*%
%TO.N,GND*%
X111725000Y-101200000D03*
%TD*%
D28*
%TO.P,J1,1,VBUS*%
%TO.N,+5V*%
X140840000Y-105440000D03*
%TO.P,J1,2,D-*%
%TO.N,USB_D-*%
X140840000Y-104790000D03*
%TO.P,J1,3,D+*%
%TO.N,USB_D+*%
X140840000Y-104140000D03*
%TO.P,J1,4,ID*%
%TO.N,unconnected-(J1-Pad4)*%
X140840000Y-103490000D03*
%TO.P,J1,5,GND*%
%TO.N,GND*%
X140840000Y-102840000D03*
D29*
%TO.P,J1,6,Shield*%
%TO.N,unconnected-(J1-Pad6)*%
X143540000Y-100640000D03*
X143540000Y-107640000D03*
D30*
X143540000Y-101240000D03*
D31*
X140840000Y-106640000D03*
D32*
X143540000Y-103140000D03*
D31*
X140840000Y-101640000D03*
D32*
X143540000Y-105140000D03*
D30*
X143540000Y-107040000D03*
%TD*%
D15*
%TO.P,JP3,1,A*%
%TO.N,PB12*%
X103350000Y-106500000D03*
%TO.P,JP3,2,B*%
%TO.N,Net-(D2-Pad2)*%
X102050000Y-106500000D03*
%TD*%
D17*
%TO.P,R9,1*%
%TO.N,Net-(J5-Pad2)*%
X140600000Y-91200000D03*
%TO.P,R9,2*%
%TO.N,GND*%
X142250000Y-91200000D03*
%TD*%
D13*
%TO.P,D4,1,K*%
%TO.N,Net-(D4-Pad1)*%
X98612500Y-110400000D03*
%TO.P,D4,2,A*%
%TO.N,Net-(D4-Pad2)*%
X100187500Y-110400000D03*
%TD*%
D27*
%TO.P,C13,1*%
%TO.N,PC8*%
X137175000Y-80600000D03*
%TO.P,C13,2*%
%TO.N,GND*%
X135625000Y-80600000D03*
%TD*%
D11*
%TO.P,J5,1,Pin_1*%
%TO.N,+3.3V*%
X142240000Y-93980000D03*
D12*
%TO.P,J5,2,Pin_2*%
%TO.N,Net-(J5-Pad2)*%
X139700000Y-93980000D03*
%TD*%
D10*
%TO.P,SW2,1,1*%
%TO.N,PC8*%
X138700000Y-79900000D03*
%TO.P,SW2,2,2*%
%TO.N,GND*%
X142100000Y-79900000D03*
%TD*%
D17*
%TO.P,R2,1*%
%TO.N,+3.3V*%
X135475000Y-84700000D03*
%TO.P,R2,2*%
%TO.N,PC9*%
X137125000Y-84700000D03*
%TD*%
D25*
%TO.P,C7,1*%
%TO.N,VCC*%
X136900000Y-108725000D03*
%TO.P,C7,2*%
%TO.N,GND*%
X136900000Y-110275000D03*
%TD*%
D15*
%TO.P,JP5,1,A*%
%TO.N,PB15*%
X103300000Y-110400000D03*
%TO.P,JP5,2,B*%
%TO.N,Net-(D4-Pad2)*%
X102000000Y-110400000D03*
%TD*%
D33*
%TO.P,J2,1,In*%
%TO.N,Net-(J2-Pad1)*%
X86000000Y-99100000D03*
D34*
%TO.P,J2,2,Ext*%
%TO.N,GND*%
X86200000Y-101925000D03*
X86200000Y-96275000D03*
%TD*%
D27*
%TO.P,C6,1*%
%TO.N,+3.3V*%
X110875000Y-92700000D03*
%TO.P,C6,2*%
%TO.N,GND*%
X109325000Y-92700000D03*
%TD*%
D18*
%TO.P,C8,1*%
%TO.N,+3.3V*%
X125425000Y-91200000D03*
%TO.P,C8,2*%
%TO.N,GND*%
X126975000Y-91200000D03*
%TD*%
D13*
%TO.P,D2,1,K*%
%TO.N,Net-(D2-Pad1)*%
X98612500Y-106500000D03*
%TO.P,D2,2,A*%
%TO.N,Net-(D2-Pad2)*%
X100187500Y-106500000D03*
%TD*%
D15*
%TO.P,JP6,1,A*%
%TO.N,PC6*%
X103300000Y-118300000D03*
%TO.P,JP6,2,B*%
%TO.N,Net-(D5-Pad2)*%
X102000000Y-118300000D03*
%TD*%
D22*
%TO.P,C17,1*%
%TO.N,RESET*%
X110300000Y-117075000D03*
%TO.P,C17,2*%
%TO.N,GND*%
X110300000Y-115525000D03*
%TD*%
D11*
%TO.P,J4,1,Pin_1*%
%TO.N,+3.3V*%
X134620000Y-68580000D03*
D12*
%TO.P,J4,2,Pin_2*%
%TO.N,GND*%
X132080000Y-68580000D03*
%TO.P,J4,3,Pin_3*%
%TO.N,PB4*%
X129540000Y-68580000D03*
%TO.P,J4,4,Pin_4*%
%TO.N,PB5*%
X127000000Y-68580000D03*
%TO.P,J4,5,Pin_5*%
%TO.N,PB6*%
X124460000Y-68580000D03*
%TO.P,J4,6,Pin_6*%
%TO.N,PB7*%
X121920000Y-68580000D03*
%TO.P,J4,7,Pin_7*%
%TO.N,PB8*%
X119380000Y-68580000D03*
%TO.P,J4,8,Pin_8*%
%TO.N,PB9*%
X116840000Y-68580000D03*
%TO.P,J4,9,Pin_9*%
%TO.N,VLCD*%
X114300000Y-68580000D03*
%TO.P,J4,10,Pin_10*%
%TO.N,PC13*%
X111760000Y-68580000D03*
%TO.P,J4,11,Pin_11*%
%TO.N,PC14*%
X109220000Y-68580000D03*
%TO.P,J4,12,Pin_12*%
%TO.N,PC15*%
X106680000Y-68580000D03*
%TO.P,J4,13,Pin_13*%
%TO.N,PC0*%
X104140000Y-68580000D03*
%TO.P,J4,14,Pin_14*%
%TO.N,PC1*%
X101600000Y-68580000D03*
%TO.P,J4,15,Pin_15*%
%TO.N,PC2*%
X99060000Y-68580000D03*
%TO.P,J4,16,Pin_16*%
%TO.N,PC3*%
X96520000Y-68580000D03*
%TO.P,J4,17,Pin_17*%
%TO.N,PA0*%
X93980000Y-68580000D03*
%TO.P,J4,18,Pin_18*%
%TO.N,PA1*%
X91440000Y-68580000D03*
%TO.P,J4,19,Pin_19*%
%TO.N,PA2*%
X88900000Y-68580000D03*
%TO.P,J4,20,Pin_20*%
%TO.N,PA3*%
X86360000Y-68580000D03*
%TD*%
D17*
%TO.P,R3,1*%
%TO.N,+3.3V*%
X135575000Y-79000000D03*
%TO.P,R3,2*%
%TO.N,PC8*%
X137225000Y-79000000D03*
%TD*%
D27*
%TO.P,C14,1*%
%TO.N,PC7*%
X137175000Y-74900000D03*
%TO.P,C14,2*%
%TO.N,GND*%
X135625000Y-74900000D03*
%TD*%
D21*
%TO.P,R10,1*%
%TO.N,+3.3V*%
X137300000Y-101975000D03*
%TO.P,R10,2*%
%TO.N,USB_D+*%
X137300000Y-103625000D03*
%TD*%
D14*
%TO.P,R8,1*%
%TO.N,Net-(D5-Pad1)*%
X97125000Y-118300000D03*
%TO.P,R8,2*%
%TO.N,GND*%
X95475000Y-118300000D03*
%TD*%
D22*
%TO.P,C3,1*%
%TO.N,+3.3VA*%
X113200000Y-87175000D03*
%TO.P,C3,2*%
%TO.N,GND*%
X113200000Y-85625000D03*
%TD*%
D10*
%TO.P,SW1,1,1*%
%TO.N,PC9*%
X138700000Y-84900000D03*
%TO.P,SW1,2,2*%
%TO.N,GND*%
X142100000Y-84900000D03*
%TD*%
D35*
%TO.P,U4,1,VLCD*%
%TO.N,VLCD*%
X123130000Y-90525000D03*
%TO.P,U4,2,PC13*%
%TO.N,PC13*%
X122630000Y-90525000D03*
%TO.P,U4,3,PC14*%
%TO.N,PC14*%
X122130000Y-90525000D03*
%TO.P,U4,4,PC15*%
%TO.N,PC15*%
X121630000Y-90525000D03*
%TO.P,U4,5,PH0*%
%TO.N,/RCC_OSC_IN*%
X121130000Y-90525000D03*
%TO.P,U4,6,PH1*%
%TO.N,/RCC_OSC_OUT*%
X120630000Y-90525000D03*
%TO.P,U4,7,NRST*%
%TO.N,RESET*%
X120130000Y-90525000D03*
%TO.P,U4,8,PC0*%
%TO.N,PC0*%
X119630000Y-90525000D03*
%TO.P,U4,9,PC1*%
%TO.N,PC1*%
X119130000Y-90525000D03*
%TO.P,U4,10,PC2*%
%TO.N,PC2*%
X118630000Y-90525000D03*
%TO.P,U4,11,PC3*%
%TO.N,PC3*%
X118130000Y-90525000D03*
%TO.P,U4,12,VSSA*%
%TO.N,GND*%
X117630000Y-90525000D03*
%TO.P,U4,13,VDDA*%
%TO.N,+3.3VA*%
X117130000Y-90525000D03*
%TO.P,U4,14,PA0*%
%TO.N,PA0*%
X116630000Y-90525000D03*
%TO.P,U4,15,PA1*%
%TO.N,PA1*%
X116130000Y-90525000D03*
%TO.P,U4,16,PA2*%
%TO.N,PA2*%
X115630000Y-90525000D03*
D36*
%TO.P,U4,17,PA3*%
%TO.N,PA3*%
X113705000Y-92450000D03*
%TO.P,U4,18,VSS*%
%TO.N,GND*%
X113705000Y-92950000D03*
%TO.P,U4,19,VDD*%
%TO.N,+3.3V*%
X113705000Y-93450000D03*
%TO.P,U4,20,PA4*%
%TO.N,DIO5*%
X113705000Y-93950000D03*
%TO.P,U4,21,PA5*%
%TO.N,SPI1_SCK*%
X113705000Y-94450000D03*
%TO.P,U4,22,PA6*%
%TO.N,SPI1_MISO*%
X113705000Y-94950000D03*
%TO.P,U4,23,PA7*%
%TO.N,SPI1_MOSI*%
X113705000Y-95450000D03*
%TO.P,U4,24,PC4*%
%TO.N,RFM95_CS*%
X113705000Y-95950000D03*
%TO.P,U4,25,PC5*%
%TO.N,RFM95_RESET*%
X113705000Y-96450000D03*
%TO.P,U4,26,PB0*%
%TO.N,DIO3*%
X113705000Y-96950000D03*
%TO.P,U4,27,PB1*%
%TO.N,DIO4*%
X113705000Y-97450000D03*
%TO.P,U4,28,PB2*%
%TO.N,DIO0*%
X113705000Y-97950000D03*
%TO.P,U4,29,PB10*%
%TO.N,DIO1*%
X113705000Y-98450000D03*
%TO.P,U4,30,PB11*%
%TO.N,DIO2*%
X113705000Y-98950000D03*
%TO.P,U4,31,VSS*%
%TO.N,GND*%
X113705000Y-99450000D03*
%TO.P,U4,32,VDD*%
%TO.N,+3.3V*%
X113705000Y-99950000D03*
D35*
%TO.P,U4,33,PB12*%
%TO.N,PB12*%
X115630000Y-101875000D03*
%TO.P,U4,34,PB13*%
%TO.N,PB13*%
X116130000Y-101875000D03*
%TO.P,U4,35,PB14*%
%TO.N,PB14*%
X116630000Y-101875000D03*
%TO.P,U4,36,PB15*%
%TO.N,PB15*%
X117130000Y-101875000D03*
%TO.P,U4,37,PC6*%
%TO.N,PC6*%
X117630000Y-101875000D03*
%TO.P,U4,38,PC7*%
%TO.N,PC7*%
X118130000Y-101875000D03*
%TO.P,U4,39,PC8*%
%TO.N,PC8*%
X118630000Y-101875000D03*
%TO.P,U4,40,PC9*%
%TO.N,PC9*%
X119130000Y-101875000D03*
%TO.P,U4,41,PA8*%
%TO.N,PA8*%
X119630000Y-101875000D03*
%TO.P,U4,42,PA9*%
%TO.N,PA9*%
X120130000Y-101875000D03*
%TO.P,U4,43,PA10*%
%TO.N,PA10*%
X120630000Y-101875000D03*
%TO.P,U4,44,PA11*%
%TO.N,USB_D-*%
X121130000Y-101875000D03*
%TO.P,U4,45,PA12*%
%TO.N,USB_D+*%
X121630000Y-101875000D03*
%TO.P,U4,46,PA13*%
%TO.N,SWDIO*%
X122130000Y-101875000D03*
%TO.P,U4,47,VSS*%
%TO.N,GND*%
X122630000Y-101875000D03*
%TO.P,U4,48,VDD_USB*%
%TO.N,+3.3V*%
X123130000Y-101875000D03*
D36*
%TO.P,U4,49,PA14*%
%TO.N,SWCLK*%
X125055000Y-99950000D03*
%TO.P,U4,50,PA15*%
%TO.N,PA15*%
X125055000Y-99450000D03*
%TO.P,U4,51,PC10*%
%TO.N,PC10*%
X125055000Y-98950000D03*
%TO.P,U4,52,PC11*%
%TO.N,PC11*%
X125055000Y-98450000D03*
%TO.P,U4,53,PC12*%
%TO.N,PC12*%
X125055000Y-97950000D03*
%TO.P,U4,54,PD2*%
%TO.N,PD2*%
X125055000Y-97450000D03*
%TO.P,U4,55,PB3*%
%TO.N,PB3*%
X125055000Y-96950000D03*
%TO.P,U4,56,PB4*%
%TO.N,PB4*%
X125055000Y-96450000D03*
%TO.P,U4,57,PB5*%
%TO.N,PB5*%
X125055000Y-95950000D03*
%TO.P,U4,58,PB6*%
%TO.N,PB6*%
X125055000Y-95450000D03*
%TO.P,U4,59,PB7*%
%TO.N,PB7*%
X125055000Y-94950000D03*
%TO.P,U4,60,BOOT0*%
%TO.N,Net-(J5-Pad2)*%
X125055000Y-94450000D03*
%TO.P,U4,61,PB8*%
%TO.N,PB8*%
X125055000Y-93950000D03*
%TO.P,U4,62,PB9*%
%TO.N,PB9*%
X125055000Y-93450000D03*
%TO.P,U4,63,VSS*%
%TO.N,GND*%
X125055000Y-92950000D03*
%TO.P,U4,64,VDD*%
%TO.N,+3.3V*%
X125055000Y-92450000D03*
%TD*%
D25*
%TO.P,C2,1*%
%TO.N,+3.3V*%
X124400000Y-102225000D03*
%TO.P,C2,2*%
%TO.N,GND*%
X124400000Y-103775000D03*
%TD*%
D15*
%TO.P,JP4,1,A*%
%TO.N,PB14*%
X103350000Y-114400000D03*
%TO.P,JP4,2,B*%
%TO.N,Net-(D3-Pad2)*%
X102050000Y-114400000D03*
%TD*%
D14*
%TO.P,R5,1*%
%TO.N,Net-(D2-Pad1)*%
X97025000Y-106500000D03*
%TO.P,R5,2*%
%TO.N,GND*%
X95375000Y-106500000D03*
%TD*%
D37*
%TO.P,J6,1,Pin_1*%
%TO.N,+3.3V*%
X113075000Y-108150000D03*
D38*
%TO.P,J6,2,Pin_2*%
%TO.N,SWDIO*%
X114345000Y-108150000D03*
%TO.P,J6,3,Pin_3*%
%TO.N,GND*%
X113075000Y-109420000D03*
%TO.P,J6,4,Pin_4*%
%TO.N,SWCLK*%
X114345000Y-109420000D03*
%TO.P,J6,5,Pin_5*%
%TO.N,GND*%
X113075000Y-110690000D03*
%TO.P,J6,6,Pin_6*%
%TO.N,unconnected-(J6-Pad6)*%
X114345000Y-110690000D03*
%TO.P,J6,7,Pin_7*%
%TO.N,unconnected-(J6-Pad7)*%
X113075000Y-111960000D03*
%TO.P,J6,8,Pin_8*%
%TO.N,unconnected-(J6-Pad8)*%
X114345000Y-111960000D03*
%TO.P,J6,9,Pin_9*%
%TO.N,GND*%
X113075000Y-113230000D03*
%TO.P,J6,10,Pin_10*%
%TO.N,RESET*%
X114345000Y-113230000D03*
%TD*%
D39*
%TO.P,Y1,1,1*%
%TO.N,/RCC_OSC_IN*%
X120400000Y-81250000D03*
%TO.P,Y1,2,2*%
%TO.N,/RCC_OSC_OUT*%
X120400000Y-84950000D03*
%TD*%
D40*
%TO.P,JP1,1,A*%
%TO.N,+3.3V*%
X93800000Y-96500000D03*
%TO.P,JP1,2,B*%
%TO.N,Net-(JP1-Pad2)*%
X93800000Y-95200000D03*
%TD*%
D25*
%TO.P,C15,1*%
%TO.N,/RCC_OSC_IN*%
X117700000Y-80725000D03*
%TO.P,C15,2*%
%TO.N,GND*%
X117700000Y-82275000D03*
%TD*%
D22*
%TO.P,C9,1*%
%TO.N,+3.3V*%
X141975000Y-112250000D03*
%TO.P,C9,2*%
%TO.N,GND*%
X141975000Y-110700000D03*
%TD*%
D41*
%TO.N,+3.3V*%
X110023000Y-103077000D03*
X110880400Y-90713100D03*
X102500000Y-99800000D03*
X126900000Y-81900000D03*
X132000000Y-76800000D03*
X112801400Y-88607400D03*
%TO.N,GND*%
X135625000Y-81726700D03*
X112315100Y-92459200D03*
X123200000Y-82850400D03*
X87800000Y-91191400D03*
X117630000Y-91923800D03*
X114615400Y-84570800D03*
X110300000Y-114423200D03*
X85400000Y-94600000D03*
X140300000Y-116446800D03*
X95475000Y-115682000D03*
X111725000Y-102343700D03*
X109325000Y-91588000D03*
X142100000Y-76481400D03*
X135702300Y-109350000D03*
X85800000Y-75191800D03*
X95375000Y-107586200D03*
X111940800Y-117770200D03*
X142250000Y-92296500D03*
X117700000Y-83348900D03*
X142100000Y-83443100D03*
X99800000Y-78400600D03*
X143189500Y-79719800D03*
X120219300Y-114506600D03*
X124400000Y-104829100D03*
X139519200Y-102911000D03*
X136900000Y-111342300D03*
X122901700Y-103333800D03*
X89300000Y-101900000D03*
X135525000Y-87377100D03*
X135625000Y-76007100D03*
X126975000Y-88512900D03*
X109400000Y-119900000D03*
X143087900Y-110641400D03*
%TO.N,PC9*%
X108100000Y-124800000D03*
X118421600Y-97407900D03*
X135633800Y-88588400D03*
%TO.N,PC8*%
X116920800Y-99328600D03*
X108800000Y-121900000D03*
X136263400Y-83175400D03*
%TO.N,PC7*%
X118900000Y-104000000D03*
X130800000Y-104000000D03*
%TO.N,RESET*%
X116938800Y-94676500D03*
%TO.N,USB_D-*%
X134313600Y-101660000D03*
X121428700Y-103306100D03*
%TO.N,USB_D+*%
X121680200Y-97669600D03*
X135553800Y-99045800D03*
%TO.N,PB15*%
X104406500Y-110475400D03*
%TO.N,PA8*%
X119218000Y-99174000D03*
X110700000Y-124000000D03*
%TO.N,PA10*%
X120602700Y-100030100D03*
X117713700Y-113005800D03*
%TO.N,Net-(J5-Pad2)*%
X123673400Y-94412800D03*
%TD*%
D42*
%TO.N,+3.3V*%
X111900000Y-87706000D02*
X112801400Y-88607400D01*
D43*
X136600000Y-78000000D02*
X137100000Y-77500000D01*
X134100000Y-90400000D02*
X134100000Y-86075000D01*
X125425000Y-89600000D02*
X125425000Y-88475000D01*
D44*
X120657900Y-96657900D02*
X117917700Y-96657900D01*
X121738100Y-95638100D02*
X121738100Y-95961900D01*
X125055000Y-92450000D02*
X123750000Y-92450000D01*
D43*
X140179500Y-99685200D02*
X140179500Y-99679500D01*
D45*
X113275000Y-101883400D02*
X112081400Y-103077000D01*
D43*
X139900000Y-73750000D02*
X138350000Y-72200000D01*
X140179500Y-99679500D02*
X139589800Y-99089800D01*
D45*
X109477900Y-117513500D02*
X111264400Y-119300000D01*
D43*
X136704745Y-93000000D02*
X136700000Y-93000000D01*
X142100000Y-101100000D02*
X140685200Y-99685200D01*
X136575000Y-78000000D02*
X136600000Y-78000000D01*
X139589800Y-95605200D02*
X139309945Y-95605200D01*
D45*
X113275000Y-101200000D02*
X113275000Y-101883400D01*
D42*
X125425000Y-91200000D02*
X125425000Y-92080000D01*
D44*
X123750000Y-92450000D02*
X121738100Y-94461900D01*
D43*
X140662500Y-112250000D02*
X140350000Y-111937500D01*
X135575000Y-79000000D02*
X136575000Y-78000000D01*
D44*
X113705000Y-99950000D02*
X114850000Y-99950000D01*
X121738100Y-94461900D02*
X121738100Y-95638100D01*
D43*
X138350000Y-72200000D02*
X136675000Y-72200000D01*
D42*
X111900000Y-87385000D02*
X111900000Y-87706000D01*
D44*
X117917700Y-96657900D02*
X117893100Y-96682500D01*
X137300000Y-101975000D02*
X139589800Y-99685200D01*
D45*
X124400000Y-102225000D02*
X123480000Y-102225000D01*
D43*
X142000000Y-113812500D02*
X142000000Y-112275000D01*
X140350000Y-112153984D02*
X140350000Y-111937500D01*
X134000000Y-80575000D02*
X135575000Y-79000000D01*
D44*
X116900000Y-97600000D02*
X117817500Y-96682500D01*
D43*
X139589800Y-99089800D02*
X139589800Y-95605200D01*
X135575000Y-73300000D02*
X135500000Y-73300000D01*
D45*
X132150000Y-76650000D02*
X132000000Y-76800000D01*
D43*
X142100000Y-107584000D02*
X142100000Y-101100000D01*
X139309945Y-95605200D02*
X136704745Y-93000000D01*
D44*
X114850000Y-99950000D02*
X116900000Y-97900000D01*
X121677700Y-95638100D02*
X121738100Y-95638100D01*
D45*
X111264400Y-119300000D02*
X113650000Y-119300000D01*
D44*
X110875000Y-92700000D02*
X111625000Y-93450000D01*
D43*
X110880400Y-92694600D02*
X110875000Y-92700000D01*
X134620000Y-68580000D02*
X134620000Y-72345000D01*
X141975000Y-112250000D02*
X140662500Y-112250000D01*
D45*
X109477900Y-111747100D02*
X109477900Y-117513500D01*
D44*
X116900000Y-97900000D02*
X116900000Y-97600000D01*
X139589800Y-95605200D02*
X140614800Y-95605200D01*
D45*
X123480000Y-102225000D02*
X123130000Y-101875000D01*
D44*
X113705000Y-93450000D02*
X114650000Y-93450000D01*
D43*
X140350000Y-111937500D02*
X140350000Y-109334000D01*
D44*
X113705000Y-99950000D02*
X113705000Y-100770000D01*
D43*
X126900000Y-87000000D02*
X126900000Y-81900000D01*
X138650000Y-77500000D02*
X139900000Y-76250000D01*
D45*
X112081400Y-103077000D02*
X110023000Y-103077000D01*
D43*
X125425000Y-88475000D02*
X126900000Y-87000000D01*
X141842000Y-107842000D02*
X142100000Y-107584000D01*
X97100000Y-99800000D02*
X102500000Y-99800000D01*
X133850000Y-114430000D02*
X138073984Y-114430000D01*
D42*
X125155000Y-92350000D02*
X125055000Y-92350000D01*
D44*
X117882500Y-96682500D02*
X117893100Y-96682500D01*
D45*
X123130000Y-101875000D02*
X123130000Y-98074400D01*
D43*
X137100000Y-77500000D02*
X138650000Y-77500000D01*
D44*
X111625000Y-93450000D02*
X113705000Y-93450000D01*
D43*
X138073984Y-114430000D02*
X140350000Y-112153984D01*
X134620000Y-72345000D02*
X135575000Y-73300000D01*
D44*
X140614800Y-95605200D02*
X142240000Y-93980000D01*
X114650000Y-93450000D02*
X117882500Y-96682500D01*
D43*
X142000000Y-112275000D02*
X141975000Y-112250000D01*
X93800000Y-96500000D02*
X97100000Y-99800000D01*
D42*
X125425000Y-92080000D02*
X125155000Y-92350000D01*
D43*
X136675000Y-72200000D02*
X135575000Y-73300000D01*
X110880400Y-90713100D02*
X110880400Y-92694600D01*
D45*
X123130000Y-98074400D02*
X121738100Y-96682500D01*
D43*
X134100000Y-86075000D02*
X135475000Y-84700000D01*
X125425000Y-89600000D02*
X125425000Y-91200000D01*
X140350000Y-109334000D02*
X141842000Y-107842000D01*
D45*
X141842000Y-107942900D02*
X141842000Y-107842000D01*
D43*
X140685200Y-99685200D02*
X140179500Y-99685200D01*
X135500000Y-73300000D02*
X132000000Y-76800000D01*
X136700000Y-93000000D02*
X134100000Y-90400000D01*
X139900000Y-76250000D02*
X139900000Y-73750000D01*
D44*
X120657900Y-96657900D02*
X121677700Y-95638100D01*
D43*
X135475000Y-84700000D02*
X135475000Y-84675000D01*
D44*
X117817500Y-96682500D02*
X117882500Y-96682500D01*
D43*
X135475000Y-84675000D02*
X134000000Y-83200000D01*
D44*
X121738100Y-95961900D02*
X121738100Y-96682500D01*
D45*
X113075000Y-108150000D02*
X109477900Y-111747100D01*
D44*
X139589800Y-99685200D02*
X139589800Y-99089800D01*
X113705000Y-100770000D02*
X113275000Y-101200000D01*
D43*
X134000000Y-83200000D02*
X134000000Y-80575000D01*
D45*
%TO.N,GND*%
X110300000Y-114423200D02*
X110300000Y-115525000D01*
X111900000Y-116300000D02*
X111900000Y-117475300D01*
X142100000Y-79900000D02*
X142875300Y-79900000D01*
X140840000Y-102840000D02*
X139839700Y-102840000D01*
X123200000Y-83925000D02*
X123200000Y-82850400D01*
X125938800Y-92950000D02*
X125055000Y-92950000D01*
D46*
X89275000Y-101925000D02*
X89300000Y-101900000D01*
D45*
X118350000Y-114430000D02*
X119925300Y-114430000D01*
X143087900Y-110641400D02*
X142033600Y-110641400D01*
X143055500Y-79719800D02*
X142875300Y-79900000D01*
X137854800Y-111342300D02*
X138450000Y-111937500D01*
X115200000Y-122975000D02*
X113600000Y-122975000D01*
X139519200Y-102911000D02*
X139768700Y-102911000D01*
X112805900Y-92950000D02*
X113705000Y-92950000D01*
X135625000Y-81726700D02*
X135625000Y-80600000D01*
X142033600Y-110641400D02*
X141975000Y-110700000D01*
X114800000Y-85625000D02*
X114800000Y-84755400D01*
X99800000Y-78400600D02*
X99800000Y-76800000D01*
X126975000Y-91913800D02*
X125938800Y-92950000D01*
X117630000Y-91923800D02*
X117630000Y-90525000D01*
X111725000Y-102343700D02*
X111725000Y-101200000D01*
X136900000Y-110275000D02*
X136900000Y-111342300D01*
X114800000Y-85625000D02*
X113200000Y-85625000D01*
X126975000Y-91200000D02*
X126975000Y-91913800D01*
X117700000Y-82275000D02*
X117700000Y-83348900D01*
X112315100Y-92459200D02*
X112805900Y-92950000D01*
X112100000Y-121700000D02*
X110300000Y-119900000D01*
X120219300Y-114506600D02*
X120001900Y-114506600D01*
D46*
X86200000Y-96275000D02*
X86200000Y-95400000D01*
D45*
X111725000Y-101200000D02*
X111725000Y-100588300D01*
X85800000Y-75191800D02*
X85800000Y-76800000D01*
X95475000Y-114600000D02*
X95475000Y-115682000D01*
X142100000Y-76481400D02*
X142100000Y-75000000D01*
X109325000Y-91588000D02*
X109325000Y-92700000D01*
X110300000Y-119900000D02*
X109400000Y-119900000D01*
X112863300Y-99450000D02*
X113705000Y-99450000D01*
X135625000Y-76007100D02*
X135625000Y-74900000D01*
X140300000Y-116446800D02*
X140300000Y-115425000D01*
X122630000Y-103062100D02*
X122630000Y-101875000D01*
X111725000Y-100588300D02*
X112863300Y-99450000D01*
X139768700Y-102911000D02*
X139839700Y-102840000D01*
D46*
X86200000Y-101925000D02*
X89275000Y-101925000D01*
D45*
X124400000Y-104829100D02*
X124400000Y-103775000D01*
X95475000Y-115682000D02*
X95475000Y-118300000D01*
X135702300Y-109350000D02*
X133850000Y-109350000D01*
X120001900Y-114506600D02*
X119925300Y-114430000D01*
X135525000Y-86300000D02*
X135525000Y-87377100D01*
X111940800Y-117516100D02*
X111900000Y-117475300D01*
X95375000Y-106500000D02*
X95375000Y-107586200D01*
X114800000Y-84755400D02*
X114615400Y-84570800D01*
X113375000Y-122975000D02*
X112100000Y-121700000D01*
X142250000Y-91200000D02*
X142250000Y-92296500D01*
X136900000Y-111342300D02*
X137854800Y-111342300D01*
X111940800Y-117770200D02*
X111940800Y-117516100D01*
X113600000Y-122975000D02*
X113375000Y-122975000D01*
X87800000Y-91191400D02*
X87800000Y-92800000D01*
X122901700Y-103333800D02*
X122630000Y-103062100D01*
X142100000Y-83443100D02*
X142100000Y-84900000D01*
X143189500Y-79719800D02*
X143055500Y-79719800D01*
D46*
X86200000Y-95400000D02*
X85400000Y-94600000D01*
D45*
X126975000Y-89600000D02*
X126975000Y-91200000D01*
X126975000Y-88512900D02*
X126975000Y-89600000D01*
X95375000Y-107586200D02*
X95375000Y-110400000D01*
D44*
%TO.N,+3.3VA*%
X115012752Y-87175000D02*
X117130000Y-89292248D01*
X114800000Y-87175000D02*
X115012752Y-87175000D01*
D42*
X111900000Y-86415000D02*
X112440000Y-86415000D01*
D44*
X117130000Y-89292248D02*
X117130000Y-90525000D01*
D45*
X115025600Y-87175000D02*
X114800000Y-87175000D01*
D42*
X112440000Y-86415000D02*
X113200000Y-87175000D01*
X113200000Y-87175000D02*
X114800000Y-87175000D01*
D45*
%TO.N,VCC*%
X138037500Y-108725000D02*
X138600000Y-108162500D01*
D43*
X134620000Y-126820000D02*
X130800000Y-123000000D01*
X134620000Y-129540000D02*
X134620000Y-126820000D01*
X131600000Y-107900000D02*
X136075000Y-107900000D01*
X130800000Y-108700000D02*
X131600000Y-107900000D01*
X130800000Y-123000000D02*
X130800000Y-108700000D01*
X136075000Y-107900000D02*
X136900000Y-108725000D01*
D45*
X139400000Y-108962500D02*
X139400000Y-110062500D01*
X136900000Y-108725000D02*
X138037500Y-108725000D01*
X138600000Y-108162500D02*
X139400000Y-108962500D01*
%TO.N,Net-(C10-Pad1)*%
X114950000Y-121425000D02*
X113600000Y-121425000D01*
X114950000Y-119300000D02*
X114950000Y-119837600D01*
X114950000Y-119837600D02*
X115659400Y-119837600D01*
X116774700Y-118722300D02*
X116774700Y-116970000D01*
X117562400Y-119510000D02*
X116774700Y-118722300D01*
X114950000Y-119837600D02*
X114950000Y-120375300D01*
X114950000Y-121425000D02*
X115200000Y-121425000D01*
X118350000Y-119510000D02*
X117562400Y-119510000D01*
X114950000Y-121425000D02*
X114950000Y-120375300D01*
X115659400Y-119837600D02*
X116774700Y-118722300D01*
X118350000Y-116970000D02*
X116774700Y-116970000D01*
%TO.N,PC9*%
X137075000Y-87147200D02*
X137075000Y-86300000D01*
X137125000Y-84900000D02*
X137125000Y-84700000D01*
X119130000Y-100111700D02*
X119130000Y-101875000D01*
X106680000Y-126220000D02*
X108100000Y-124800000D01*
X118421600Y-99403300D02*
X119130000Y-100111700D01*
X106680000Y-129540000D02*
X106680000Y-126220000D01*
X138700000Y-84900000D02*
X137924700Y-84900000D01*
X137125000Y-84900000D02*
X137924700Y-84900000D01*
X118421600Y-97407900D02*
X118421600Y-99403300D01*
X137125000Y-84900000D02*
X137125000Y-86250000D01*
X135633800Y-88588400D02*
X137075000Y-87147200D01*
X137125000Y-86250000D02*
X137075000Y-86300000D01*
%TO.N,PC8*%
X104140000Y-127660000D02*
X108800000Y-123000000D01*
X137175000Y-82263800D02*
X136263400Y-83175400D01*
X138700000Y-79900000D02*
X137924700Y-79900000D01*
X104140000Y-129540000D02*
X104140000Y-127660000D01*
X137225000Y-79900000D02*
X137225000Y-79000000D01*
X116920800Y-99328600D02*
X116998600Y-99328600D01*
X137225000Y-80550000D02*
X137175000Y-80600000D01*
X116998600Y-99328600D02*
X118630000Y-100960000D01*
X108800000Y-123000000D02*
X108800000Y-121900000D01*
X118630000Y-100960000D02*
X118630000Y-101875000D01*
X137225000Y-79900000D02*
X137924700Y-79900000D01*
X137175000Y-80600000D02*
X137175000Y-82263800D01*
X137225000Y-79900000D02*
X137225000Y-80550000D01*
%TO.N,PC7*%
X137225000Y-74875000D02*
X137799700Y-74875000D01*
X112449800Y-107314600D02*
X109027600Y-110736800D01*
X118130000Y-102925600D02*
X113741000Y-107314600D01*
X137175000Y-74900000D02*
X137200000Y-74875000D01*
X138700000Y-75000000D02*
X137924700Y-75000000D01*
X104750000Y-126390000D02*
X104750000Y-122090400D01*
X130800000Y-104000000D02*
X130800000Y-82416300D01*
X137200000Y-74875000D02*
X137225000Y-74875000D01*
X137799700Y-74875000D02*
X137924700Y-75000000D01*
X118130000Y-103230000D02*
X118900000Y-104000000D01*
X118130000Y-102925600D02*
X118130000Y-103230000D01*
X101600000Y-129540000D02*
X104750000Y-126390000D01*
X137225000Y-74875000D02*
X137225000Y-73300000D01*
X109027600Y-110736800D02*
X109027600Y-117812800D01*
X113741000Y-107314600D02*
X112449800Y-107314600D01*
X118130000Y-101875000D02*
X118130000Y-102925600D01*
X104750000Y-122090400D02*
X109027600Y-117812800D01*
X130800000Y-82416300D02*
X137175000Y-76041300D01*
X137175000Y-76041300D02*
X137175000Y-74900000D01*
%TO.N,/RCC_OSC_IN*%
X121130000Y-90525000D02*
X121130000Y-88852800D01*
X118349700Y-80725000D02*
X118874700Y-81250000D01*
X117700000Y-80725000D02*
X118349700Y-80725000D01*
X120400000Y-81250000D02*
X118874700Y-81250000D01*
X124024100Y-85958700D02*
X124024100Y-82628700D01*
X122645400Y-81250000D02*
X120400000Y-81250000D01*
X121130000Y-88852800D02*
X124024100Y-85958700D01*
X124024100Y-82628700D02*
X122645400Y-81250000D01*
%TO.N,/RCC_OSC_OUT*%
X120400000Y-84950000D02*
X121925300Y-84950000D01*
X120400000Y-84950000D02*
X120400000Y-86275300D01*
X123200000Y-85475000D02*
X122450300Y-85475000D01*
X120630000Y-86505300D02*
X120400000Y-86275300D01*
X122450300Y-85475000D02*
X121925300Y-84950000D01*
X120630000Y-90525000D02*
X120630000Y-86505300D01*
%TO.N,RESET*%
X113364600Y-114210400D02*
X113875200Y-113699800D01*
X116938800Y-94676500D02*
X120130000Y-91485300D01*
X120130000Y-91485300D02*
X120130000Y-90525000D01*
X111101300Y-116273700D02*
X111101300Y-115327000D01*
X110300000Y-117075000D02*
X111101300Y-116273700D01*
X113875200Y-113699800D02*
X114345000Y-113230000D01*
X113875200Y-113699800D02*
X115300000Y-115124700D01*
X111101300Y-115327000D02*
X112217900Y-114210400D01*
X115300000Y-116300000D02*
X115300000Y-115124700D01*
X112217900Y-114210400D02*
X113364600Y-114210400D01*
%TO.N,Net-(D1-Pad1)*%
X142000000Y-115387500D02*
X140387500Y-113775000D01*
X140387500Y-113775000D02*
X140300000Y-113775000D01*
%TO.N,Net-(D2-Pad1)*%
X98612500Y-106500000D02*
X97025000Y-106500000D01*
%TO.N,Net-(D2-Pad2)*%
X100187500Y-106500000D02*
X102050000Y-106500000D01*
%TO.N,Net-(D3-Pad1)*%
X97225000Y-114500000D02*
X97125000Y-114600000D01*
X98612500Y-114500000D02*
X97225000Y-114500000D01*
%TO.N,Net-(D3-Pad2)*%
X101124700Y-114500000D02*
X101224700Y-114400000D01*
X102050000Y-114400000D02*
X101224700Y-114400000D01*
X100187500Y-114500000D02*
X101124700Y-114500000D01*
%TO.N,Net-(D4-Pad1)*%
X98612500Y-110400000D02*
X97025000Y-110400000D01*
%TO.N,Net-(D4-Pad2)*%
X100187500Y-110400000D02*
X102000000Y-110400000D01*
%TO.N,Net-(D5-Pad1)*%
X98612500Y-118300000D02*
X97125000Y-118300000D01*
%TO.N,Net-(D5-Pad2)*%
X100187500Y-118300000D02*
X102000000Y-118300000D01*
%TO.N,+5V*%
X138600000Y-106037500D02*
X139197500Y-105440000D01*
X139197500Y-105440000D02*
X140840000Y-105440000D01*
%TO.N,USB_D-*%
X137202100Y-104790000D02*
X134313600Y-101901500D01*
X134313600Y-101901500D02*
X134313600Y-101660000D01*
X140840000Y-104790000D02*
X137202100Y-104790000D01*
X121130000Y-103007400D02*
X121428700Y-103306100D01*
X121130000Y-101875000D02*
X121130000Y-103007400D01*
%TO.N,USB_D+*%
X137300000Y-103625000D02*
X137815000Y-104140000D01*
X121630000Y-101875000D02*
X121630000Y-97719800D01*
X135553800Y-101878800D02*
X137300000Y-103625000D01*
X135553800Y-99045800D02*
X135553800Y-101878800D01*
X121630000Y-97719800D02*
X121680200Y-97669600D01*
X137815000Y-104140000D02*
X140840000Y-104140000D01*
%TO.N,unconnected-(J1-Pad6)*%
X143540000Y-107640000D02*
X143540000Y-107040000D01*
X143540000Y-100640000D02*
X143540000Y-101240000D01*
D46*
%TO.N,Net-(J2-Pad1)*%
X85800000Y-93700000D02*
X86600000Y-94500000D01*
X88500000Y-94500000D02*
X89300000Y-95300000D01*
X87500000Y-99100000D02*
X86000000Y-99100000D01*
X89300000Y-95300000D02*
X89300000Y-97300000D01*
X89300000Y-97300000D02*
X87500000Y-99100000D01*
X86600000Y-94500000D02*
X88500000Y-94500000D01*
X85800000Y-92800000D02*
X85800000Y-93700000D01*
D45*
%TO.N,PB12*%
X99035000Y-111250100D02*
X99400000Y-110885100D01*
X88900000Y-129540000D02*
X88900000Y-119907900D01*
X104956900Y-111475300D02*
X114557200Y-101875000D01*
X99990200Y-111475300D02*
X104956900Y-111475300D01*
X99400000Y-110885100D02*
X99990200Y-111475300D01*
X114557200Y-101875000D02*
X115630000Y-101875000D01*
X101734500Y-107575300D02*
X103350000Y-107575300D01*
X97557800Y-111250100D02*
X99035000Y-111250100D01*
X99400000Y-110885100D02*
X99400000Y-109909800D01*
X99400000Y-109909800D02*
X101734500Y-107575300D01*
X103350000Y-106500000D02*
X103350000Y-107575300D01*
X88900000Y-119907900D02*
X97557800Y-111250100D01*
%TO.N,PB13*%
X96932200Y-117224600D02*
X97176400Y-117224600D01*
X114463000Y-102983200D02*
X115946400Y-102983200D01*
X115946400Y-102983200D02*
X116130000Y-102799600D01*
X105070200Y-112376000D02*
X114463000Y-102983200D01*
X101037900Y-112376000D02*
X105070200Y-112376000D01*
X91440000Y-128364700D02*
X96300000Y-123504700D01*
X99400000Y-114013900D02*
X101037900Y-112376000D01*
X116130000Y-102799600D02*
X116130000Y-101875000D01*
X97176400Y-117224600D02*
X99400000Y-115001000D01*
X99400000Y-115001000D02*
X99400000Y-114013900D01*
X91440000Y-129540000D02*
X91440000Y-128364700D01*
X96300000Y-117856800D02*
X96932200Y-117224600D01*
X96300000Y-123504700D02*
X96300000Y-117856800D01*
%TO.N,PB14*%
X93980000Y-128364700D02*
X99400000Y-122944700D01*
X103350000Y-114400000D02*
X103350000Y-114936800D01*
X103350000Y-114936800D02*
X113722500Y-104564300D01*
X99400000Y-117828800D02*
X101613600Y-115615200D01*
X99400000Y-122944700D02*
X99400000Y-117828800D01*
X101613600Y-115615200D02*
X102671600Y-115615200D01*
X115018700Y-104564300D02*
X116630000Y-102953000D01*
X116630000Y-102953000D02*
X116630000Y-101875000D01*
X93980000Y-129540000D02*
X93980000Y-128364700D01*
X102671600Y-115615200D02*
X103350000Y-114936800D01*
X113722500Y-104564300D02*
X115018700Y-104564300D01*
%TO.N,PB15*%
X105395300Y-110400000D02*
X115027400Y-100767900D01*
X103300000Y-110400000D02*
X104125300Y-110400000D01*
X104406500Y-110400000D02*
X104406500Y-110475400D01*
X104406500Y-110400000D02*
X105395300Y-110400000D01*
X104125300Y-110400000D02*
X104406500Y-110400000D01*
X117130000Y-100991600D02*
X117130000Y-101875000D01*
X115027400Y-100767900D02*
X116906300Y-100767900D01*
X116906300Y-100767900D02*
X117130000Y-100991600D01*
%TO.N,PC6*%
X108577300Y-117322700D02*
X107600000Y-118300000D01*
X112263200Y-106864300D02*
X108577300Y-110550200D01*
X107600000Y-118300000D02*
X103300000Y-118300000D01*
X117630000Y-102743900D02*
X113509600Y-106864300D01*
X117630000Y-101875000D02*
X117630000Y-102743900D01*
X104300000Y-119300000D02*
X103300000Y-118300000D01*
X113509600Y-106864300D02*
X112263200Y-106864300D01*
X104300000Y-124300000D02*
X104300000Y-119300000D01*
X99060000Y-129540000D02*
X104300000Y-124300000D01*
X108577300Y-110550200D02*
X108577300Y-117322700D01*
%TO.N,PA8*%
X119630000Y-99586000D02*
X119630000Y-101875000D01*
X109220000Y-129540000D02*
X109220000Y-125480000D01*
X119218000Y-99174000D02*
X119630000Y-99586000D01*
X109220000Y-125480000D02*
X110700000Y-124000000D01*
%TO.N,PA9*%
X119925300Y-109350000D02*
X120130000Y-109145300D01*
X120130000Y-109145300D02*
X120130000Y-101875000D01*
X118350000Y-109350000D02*
X119925300Y-109350000D01*
%TO.N,PA10*%
X116774700Y-112536400D02*
X117244100Y-113005800D01*
X120630000Y-101875000D02*
X120630000Y-100057400D01*
X120966000Y-112930700D02*
X119925300Y-111890000D01*
X118350000Y-111890000D02*
X116774700Y-111890000D01*
X118350000Y-111890000D02*
X119925300Y-111890000D01*
X114300000Y-129540000D02*
X114300000Y-128364700D01*
X116774700Y-111890000D02*
X116774700Y-112536400D01*
X114300000Y-128364700D02*
X120966000Y-121698700D01*
X120630000Y-100057400D02*
X120602700Y-100030100D01*
X120966000Y-121698700D02*
X120966000Y-112930700D01*
X117244100Y-113005800D02*
X117713700Y-113005800D01*
%TO.N,PA15*%
X126156000Y-99608900D02*
X126156000Y-106760200D01*
X126156000Y-106760200D02*
X121428700Y-111487500D01*
X125997100Y-99450000D02*
X126156000Y-99608900D01*
X121428700Y-123776000D02*
X116840000Y-128364700D01*
X116840000Y-129540000D02*
X116840000Y-128364700D01*
X121428700Y-111487500D02*
X121428700Y-123776000D01*
X125055000Y-99450000D02*
X125997100Y-99450000D01*
%TO.N,PC10*%
X119380000Y-128364700D02*
X123785600Y-123959100D01*
X126606400Y-99357600D02*
X126198800Y-98950000D01*
X123785600Y-112989800D02*
X126606400Y-110169000D01*
X126606400Y-110169000D02*
X126606400Y-99357600D01*
X123785600Y-123959100D02*
X123785600Y-112989800D01*
X119380000Y-129540000D02*
X119380000Y-128364700D01*
X126198800Y-98950000D02*
X125055000Y-98950000D01*
%TO.N,PC11*%
X121920000Y-128364700D02*
X127115200Y-123169500D01*
X126415200Y-98450000D02*
X125055000Y-98450000D01*
X127115200Y-123169500D02*
X127115200Y-99150000D01*
X121920000Y-129540000D02*
X121920000Y-128364700D01*
X127115200Y-99150000D02*
X126415200Y-98450000D01*
%TO.N,PC12*%
X124460000Y-128364700D02*
X127568900Y-125255800D01*
X126569400Y-97950000D02*
X125055000Y-97950000D01*
X127568900Y-125255800D02*
X127568900Y-98949500D01*
X124460000Y-129540000D02*
X124460000Y-128364700D01*
X127568900Y-98949500D02*
X126569400Y-97950000D01*
%TO.N,PD2*%
X128030900Y-98763200D02*
X126717700Y-97450000D01*
X127000000Y-129540000D02*
X127000000Y-128364700D01*
X127000000Y-128364700D02*
X128030900Y-127333800D01*
X126717700Y-97450000D02*
X125055000Y-97450000D01*
X128030900Y-127333800D02*
X128030900Y-98763200D01*
%TO.N,PB3*%
X126864500Y-96950000D02*
X125055000Y-96950000D01*
X129540000Y-99625500D02*
X126864500Y-96950000D01*
X129540000Y-129540000D02*
X129540000Y-99625500D01*
%TO.N,PB4*%
X126500900Y-96450000D02*
X125055000Y-96450000D01*
X129540000Y-68580000D02*
X129540000Y-69755300D01*
X129540000Y-69755300D02*
X130113000Y-70328300D01*
X130113000Y-70328300D02*
X130113000Y-92837900D01*
X130113000Y-92837900D02*
X126500900Y-96450000D01*
%TO.N,PB5*%
X127000000Y-68580000D02*
X127000000Y-69755300D01*
X126330400Y-95950000D02*
X125055000Y-95950000D01*
X129662500Y-72417800D02*
X129662500Y-92617900D01*
X129662500Y-92617900D02*
X126330400Y-95950000D01*
X127000000Y-69755300D02*
X129662500Y-72417800D01*
%TO.N,PB7*%
X121920000Y-69755300D02*
X128719300Y-76554600D01*
X125928800Y-94950000D02*
X125055000Y-94950000D01*
X128719300Y-92159500D02*
X125928800Y-94950000D01*
X128719300Y-76554600D02*
X128719300Y-92159500D01*
X121920000Y-68580000D02*
X121920000Y-69755300D01*
%TO.N,PB8*%
X126217900Y-93950000D02*
X125055000Y-93950000D01*
X119380000Y-69755300D02*
X128220300Y-78595600D01*
X128220300Y-91947600D02*
X126217900Y-93950000D01*
X119380000Y-68580000D02*
X119380000Y-69755300D01*
X128220300Y-78595600D02*
X128220300Y-91947600D01*
%TO.N,PB9*%
X116840000Y-68580000D02*
X116840000Y-69755300D01*
X127756700Y-91769000D02*
X126075700Y-93450000D01*
X116840000Y-69755300D02*
X127756700Y-80672000D01*
X126075700Y-93450000D02*
X125055000Y-93450000D01*
X127756700Y-80672000D02*
X127756700Y-91769000D01*
%TO.N,VLCD*%
X123130000Y-90525000D02*
X123130000Y-89412296D01*
X125906100Y-86636196D02*
X125906100Y-81361400D01*
X114300000Y-69755300D02*
X114300000Y-68580000D01*
X123130000Y-89412296D02*
X125906100Y-86636196D01*
X125906100Y-81361400D02*
X114300000Y-69755300D01*
%TO.N,PC13*%
X122630000Y-90525000D02*
X122630000Y-89275900D01*
X122630000Y-89275900D02*
X125454300Y-86451600D01*
X111760000Y-68580000D02*
X112935300Y-68580000D01*
X125454300Y-82050900D02*
X112935300Y-69531900D01*
X112935300Y-69531900D02*
X112935300Y-68580000D01*
X125454300Y-86451600D02*
X125454300Y-82050900D01*
%TO.N,PC14*%
X109220000Y-68580000D02*
X110395300Y-68580000D01*
X122130000Y-90525000D02*
X122130000Y-89139000D01*
X122130000Y-89139000D02*
X125002400Y-86266600D01*
X110395300Y-68949200D02*
X110395300Y-68580000D01*
X125002400Y-82301900D02*
X112455800Y-69755300D01*
X112455800Y-69755300D02*
X111201400Y-69755300D01*
X125002400Y-86266600D02*
X125002400Y-82301900D01*
X111201400Y-69755300D02*
X110395300Y-68949200D01*
%TO.N,PC15*%
X124474400Y-86145300D02*
X124474400Y-82442000D01*
X107855300Y-68923100D02*
X107855300Y-68580000D01*
X121630000Y-88989700D02*
X124474400Y-86145300D01*
X106680000Y-68580000D02*
X107855300Y-68580000D01*
X121630000Y-90525000D02*
X121630000Y-88989700D01*
X113811200Y-71778800D02*
X110711000Y-71778800D01*
X110711000Y-71778800D02*
X107855300Y-68923100D01*
X124474400Y-82442000D02*
X113811200Y-71778800D01*
%TO.N,PC0*%
X104140000Y-68580000D02*
X104140000Y-69755300D01*
X104140000Y-69755300D02*
X104140000Y-70880400D01*
X119630000Y-86890900D02*
X119630000Y-90525000D01*
X118011900Y-84672700D02*
X118716400Y-85377200D01*
X118716400Y-85377200D02*
X118716400Y-85977300D01*
X118716400Y-85977300D02*
X119630000Y-86890900D01*
X104140000Y-70880400D02*
X117932300Y-84672700D01*
X117932300Y-84672700D02*
X118011900Y-84672700D01*
%TO.N,PC1*%
X117800100Y-85177400D02*
X117800200Y-85177400D01*
X117800200Y-85996100D02*
X119130000Y-87325900D01*
X102775300Y-70152600D02*
X117800100Y-85177400D01*
X117800200Y-85177400D02*
X117800200Y-85996100D01*
X119130000Y-87325900D02*
X119130000Y-90525000D01*
X101600000Y-68580000D02*
X102775300Y-68580000D01*
X102775300Y-68580000D02*
X102775300Y-70152600D01*
%TO.N,PC2*%
X118630000Y-87659500D02*
X118630000Y-90525000D01*
X101043200Y-69755300D02*
X101554800Y-69755300D01*
X100235300Y-68947400D02*
X101043200Y-69755300D01*
X100235300Y-68580000D02*
X100235300Y-68947400D01*
X117349900Y-86379400D02*
X118630000Y-87659500D01*
X99060000Y-68580000D02*
X100235300Y-68580000D01*
X101554800Y-69755300D02*
X117349900Y-85550400D01*
X117349900Y-85550400D02*
X117349900Y-86379400D01*
%TO.N,PC3*%
X108127400Y-77037300D02*
X116899600Y-85809500D01*
X116899600Y-87476900D02*
X118130000Y-88707300D01*
X96520000Y-68580000D02*
X97695300Y-68580000D01*
X116899600Y-85809500D02*
X116899600Y-87476900D01*
X118130000Y-88707300D02*
X118130000Y-90525000D01*
X97695300Y-68934100D02*
X105798500Y-77037300D01*
X105798500Y-77037300D02*
X108127400Y-77037300D01*
X97695300Y-68580000D02*
X97695300Y-68934100D01*
%TO.N,PA0*%
X111219700Y-83694500D02*
X111219700Y-88115700D01*
X93980000Y-68580000D02*
X95155300Y-68580000D01*
X113568300Y-88883600D02*
X116049600Y-88883600D01*
X116630000Y-89464000D02*
X116630000Y-90525000D01*
X97280500Y-69755300D02*
X111219700Y-83694500D01*
X111219700Y-88115700D02*
X112479500Y-89375500D01*
X95155300Y-68580000D02*
X95155300Y-68952200D01*
X113076400Y-89375500D02*
X113568300Y-88883600D01*
X116049600Y-88883600D02*
X116630000Y-89464000D01*
X112479500Y-89375500D02*
X113076400Y-89375500D01*
X95958400Y-69755300D02*
X97280500Y-69755300D01*
X95155300Y-68952200D02*
X95958400Y-69755300D01*
%TO.N,PA1*%
X92615300Y-68580000D02*
X92615300Y-68947300D01*
X110544200Y-83655900D02*
X110544200Y-88077100D01*
X116130000Y-89654600D02*
X116130000Y-90525000D01*
X93873700Y-70205700D02*
X97094000Y-70205700D01*
X91440000Y-68580000D02*
X92615300Y-68580000D01*
X112293000Y-89825900D02*
X113899900Y-89825900D01*
X114346700Y-89379100D02*
X115854500Y-89379100D01*
X115854500Y-89379100D02*
X116130000Y-89654600D01*
X97094000Y-70205700D02*
X110544200Y-83655900D01*
X113899900Y-89825900D02*
X114346700Y-89379100D01*
X92615300Y-68947300D02*
X93873700Y-70205700D01*
X110544200Y-88077100D02*
X112293000Y-89825900D01*
%TO.N,PA2*%
X90075300Y-68947300D02*
X94834600Y-73706600D01*
X99958000Y-73706600D02*
X110093900Y-83842500D01*
X90075300Y-68580000D02*
X90075300Y-68947300D01*
X110093900Y-83842500D02*
X110093900Y-88263700D01*
X112355200Y-90525000D02*
X115630000Y-90525000D01*
X94834600Y-73706600D02*
X99958000Y-73706600D01*
X88900000Y-68580000D02*
X90075300Y-68580000D01*
X110093900Y-88263700D02*
X112355200Y-90525000D01*
%TO.N,PA3*%
X113643300Y-92450000D02*
X113705000Y-92450000D01*
X87535300Y-68580000D02*
X87535300Y-68947400D01*
X87535300Y-68947400D02*
X93105900Y-74518000D01*
X86360000Y-68580000D02*
X87535300Y-68580000D01*
X109643500Y-84032800D02*
X109643500Y-88450200D01*
X109643500Y-88450200D02*
X113643300Y-92450000D01*
X100128700Y-74518000D02*
X109643500Y-84032800D01*
X93105900Y-74518000D02*
X100128700Y-74518000D01*
%TO.N,Net-(J5-Pad2)*%
X139700000Y-93980000D02*
X139700000Y-92100000D01*
X139700000Y-92100000D02*
X140600000Y-91200000D01*
X125055000Y-94450000D02*
X123710600Y-94450000D01*
X123710600Y-94450000D02*
X123673400Y-94412800D01*
%TO.N,SWDIO*%
X116963600Y-110175400D02*
X115170300Y-108382100D01*
X115170300Y-108382100D02*
X115170300Y-108150000D01*
X114345000Y-108150000D02*
X115170300Y-108150000D01*
X122154000Y-101899000D02*
X122154000Y-107758200D01*
X119736800Y-110175400D02*
X116963600Y-110175400D01*
X122130000Y-101875000D02*
X122154000Y-101899000D01*
X122154000Y-107758200D02*
X119736800Y-110175400D01*
%TO.N,SWCLK*%
X116417300Y-110667000D02*
X119946100Y-110667000D01*
X125211900Y-100106900D02*
X125055000Y-99950000D01*
X114345000Y-109420000D02*
X115170300Y-109420000D01*
X125211900Y-105401200D02*
X125211900Y-100106900D01*
X119946100Y-110667000D02*
X125211900Y-105401200D01*
X115170300Y-109420000D02*
X116417300Y-110667000D01*
%TO.N,Net-(JP1-Pad2)*%
X93800000Y-95200000D02*
X93800000Y-92800000D01*
%TO.N,SPI1_MISO*%
X97800000Y-83778800D02*
X108971200Y-94950000D01*
X97800000Y-76800000D02*
X97800000Y-83778800D01*
X108971200Y-94950000D02*
X113705000Y-94950000D01*
%TO.N,SPI1_MOSI*%
X95800000Y-82415700D02*
X108834300Y-95450000D01*
X95800000Y-78125300D02*
X95800000Y-82415700D01*
X108834300Y-95450000D02*
X113705000Y-95450000D01*
X95800000Y-76800000D02*
X95800000Y-78125300D01*
%TO.N,SPI1_SCK*%
X98963900Y-76002400D02*
X98963900Y-84305800D01*
X98436200Y-75474700D02*
X98963900Y-76002400D01*
X93800000Y-75474700D02*
X98436200Y-75474700D01*
X109108100Y-94450000D02*
X113705000Y-94450000D01*
X93800000Y-76800000D02*
X93800000Y-75474700D01*
X98963900Y-84305800D02*
X109108100Y-94450000D01*
%TO.N,RFM95_CS*%
X91800000Y-79052600D02*
X108697400Y-95950000D01*
X91800000Y-76800000D02*
X91800000Y-78125300D01*
X91800000Y-78125300D02*
X91800000Y-79052600D01*
X108697400Y-95950000D02*
X113705000Y-95950000D01*
%TO.N,RFM95_RESET*%
X90235800Y-78125300D02*
X108560500Y-96450000D01*
X89800000Y-78125300D02*
X90235800Y-78125300D01*
X108560500Y-96450000D02*
X113705000Y-96450000D01*
X89800000Y-76800000D02*
X89800000Y-78125300D01*
%TO.N,DIO5*%
X102145600Y-86850600D02*
X109245000Y-93950000D01*
X102145600Y-77171800D02*
X102145600Y-86850600D01*
X99969400Y-74995600D02*
X102145600Y-77171800D01*
X87800000Y-76800000D02*
X87800000Y-75474700D01*
X87800000Y-75474700D02*
X88279100Y-74995600D01*
X88279100Y-74995600D02*
X99969400Y-74995600D01*
X109245000Y-93950000D02*
X113705000Y-93950000D01*
%TO.N,DIO3*%
X89800000Y-92800000D02*
X89800000Y-91474700D01*
X113705000Y-96950000D02*
X107994200Y-96950000D01*
X107994200Y-96950000D02*
X101168000Y-90123800D01*
X91150900Y-90123800D02*
X89800000Y-91474700D01*
X101168000Y-90123800D02*
X91150900Y-90123800D01*
%TO.N,DIO4*%
X100973000Y-90574100D02*
X107848900Y-97450000D01*
X91800000Y-92800000D02*
X91800000Y-91474700D01*
X107848900Y-97450000D02*
X113705000Y-97450000D01*
X91800000Y-91474700D02*
X92700600Y-90574100D01*
X92700600Y-90574100D02*
X100973000Y-90574100D01*
%TO.N,DIO0*%
X96250300Y-91024400D02*
X100747900Y-91024400D01*
X107673500Y-97950000D02*
X113705000Y-97950000D01*
X95800000Y-91474700D02*
X96250300Y-91024400D01*
X100747900Y-91024400D02*
X107673500Y-97950000D01*
X95800000Y-92800000D02*
X95800000Y-91474700D01*
%TO.N,DIO1*%
X97800000Y-92800000D02*
X97800000Y-94125300D01*
X97800000Y-94125300D02*
X102124700Y-98450000D01*
X102124700Y-98450000D02*
X113705000Y-98450000D01*
%TO.N,DIO2*%
X101925900Y-98950000D02*
X113705000Y-98950000D01*
X96974600Y-91665300D02*
X96974600Y-93998700D01*
X99800000Y-91474700D02*
X97165200Y-91474700D01*
X96974600Y-93998700D02*
X101925900Y-98950000D01*
X99800000Y-92800000D02*
X99800000Y-91474700D01*
X97165200Y-91474700D02*
X96974600Y-91665300D01*
%TO.N,PB6*%
X124460000Y-69755300D02*
X129180500Y-74475800D01*
X124460000Y-68580000D02*
X124460000Y-69755300D01*
X126150600Y-95450000D02*
X125055000Y-95450000D01*
X129180500Y-92420100D02*
X126150600Y-95450000D01*
X129180500Y-74475800D02*
X129180500Y-92420100D01*
%TD*%
M02*
