M48
; DRILL file {KiCad (6.0.6)} date Tue Jul  5 16:05:36 2022
; FORMAT={3:3/ absolute / metric / suppress leading zeros}
; #@! TF.CreationDate,2022-07-05T16:05:36+02:00
; #@! TF.GenerationSoftware,Kicad,Pcbnew,(6.0.6)
; #@! TF.FileFunction,MixedPlating,1,2
FMAT,2
METRIC,TZ
; #@! TA.AperFunction,Plated,PTH,ViaDrill
T1C0.400
; #@! TA.AperFunction,Plated,PTH,ComponentDrill
T2C0.500
; #@! TA.AperFunction,Plated,PTH,ComponentDrill
T3C0.550
; #@! TA.AperFunction,Plated,PTH,ComponentDrill
T4C0.650
; #@! TA.AperFunction,Plated,PTH,ComponentDrill
T5C1.000
%
G90
G05
T1
X85400Y-94600
X85800Y-75192
X87800Y-91191
X89300Y-101900
X95375Y-107586
X95475Y-115682
X99800Y-78401
X102500Y-99800
X104407Y-110475
X108100Y-124800
X108800Y-121900
X109325Y-91588
X109400Y-119900
X110023Y-103077
X110300Y-114423
X110700Y-124000
X110880Y-90713
X111725Y-102344
X111941Y-117770
X112315Y-92459
X112801Y-88607
X114615Y-84571
X116921Y-99329
X116939Y-94676
X117630Y-91924
X117700Y-83349
X117714Y-113006
X118422Y-97408
X118900Y-104000
X119218Y-99174
X120219Y-114507
X120603Y-100030
X121429Y-103306
X121680Y-97670
X122902Y-103334
X123200Y-82850
X123673Y-94413
X124400Y-104829
X126900Y-81900
X126975Y-88513
X130800Y-104000
X132000Y-76800
X134314Y-101660
X135525Y-87377
X135554Y-99046
X135625Y-76007
X135625Y-81727
X135634Y-88588
X135702Y-109350
X136263Y-83175
X136900Y-111342
X139519Y-102911
X140300Y-116447
X142100Y-76481
X142100Y-83443
X142250Y-92297
X143088Y-110641
X143189Y-79720
T4
X113075Y-108150
X113075Y-109420
X113075Y-110690
X113075Y-111960
X113075Y-113230
X114345Y-108150
X114345Y-109420
X114345Y-110690
X114345Y-111960
X114345Y-113230
T5
X86360Y-68580
X86360Y-129540
X88900Y-68580
X88900Y-129540
X91440Y-68580
X91440Y-129540
X93980Y-68580
X93980Y-129540
X96520Y-68580
X96520Y-129540
X99060Y-68580
X99060Y-129540
X101600Y-68580
X101600Y-129540
X104140Y-68580
X104140Y-129540
X106680Y-68580
X106680Y-129540
X109220Y-68580
X109220Y-129540
X111760Y-68580
X111760Y-129540
X114300Y-68580
X114300Y-129540
X116840Y-68580
X116840Y-129540
X119380Y-68580
X119380Y-129540
X121920Y-68580
X121920Y-129540
X124460Y-68580
X124460Y-129540
X127000Y-68580
X127000Y-129540
X129540Y-68580
X129540Y-129540
X132080Y-68580
X132080Y-129540
X134620Y-68580
X134620Y-129540
X139700Y-93980
X142240Y-93980
T2
G00X143215Y-100640
M15
G01X143865Y-100640
M16
G05
G00X143215Y-107640
M15
G01X143865Y-107640
M16
G05
T3
G00X140840Y-101790
M15
G01X140840Y-101490
M16
G05
G00X140840Y-106790
M15
G01X140840Y-106490
M16
G05
T0
M30
