%TF.GenerationSoftware,KiCad,Pcbnew,(6.0.6)*%
%TF.CreationDate,2022-07-05T16:05:39+02:00*%
%TF.ProjectId,kicad_rfm95_breakout_board_V4,6b696361-645f-4726-966d-39355f627265,rev?*%
%TF.SameCoordinates,Original*%
%TF.FileFunction,Legend,Top*%
%TF.FilePolarity,Positive*%
%FSLAX46Y46*%
G04 Gerber Fmt 4.6, Leading zero omitted, Abs format (unit mm)*
G04 Created by KiCad (PCBNEW (6.0.6)) date 2022-07-05 16:05:39*
%MOMM*%
%LPD*%
G01*
G04 APERTURE LIST*
%ADD10C,0.150000*%
%ADD11C,0.120000*%
G04 APERTURE END LIST*
D10*
%TO.C,SW3*%
X139066666Y-72904761D02*
X139209523Y-72952380D01*
X139447619Y-72952380D01*
X139542857Y-72904761D01*
X139590476Y-72857142D01*
X139638095Y-72761904D01*
X139638095Y-72666666D01*
X139590476Y-72571428D01*
X139542857Y-72523809D01*
X139447619Y-72476190D01*
X139257142Y-72428571D01*
X139161904Y-72380952D01*
X139114285Y-72333333D01*
X139066666Y-72238095D01*
X139066666Y-72142857D01*
X139114285Y-72047619D01*
X139161904Y-72000000D01*
X139257142Y-71952380D01*
X139495238Y-71952380D01*
X139638095Y-72000000D01*
X139971428Y-71952380D02*
X140209523Y-72952380D01*
X140400000Y-72238095D01*
X140590476Y-72952380D01*
X140828571Y-71952380D01*
X141114285Y-71952380D02*
X141733333Y-71952380D01*
X141400000Y-72333333D01*
X141542857Y-72333333D01*
X141638095Y-72380952D01*
X141685714Y-72428571D01*
X141733333Y-72523809D01*
X141733333Y-72761904D01*
X141685714Y-72857142D01*
X141638095Y-72904761D01*
X141542857Y-72952380D01*
X141257142Y-72952380D01*
X141161904Y-72904761D01*
X141114285Y-72857142D01*
%TO.C,J3*%
X85066666Y-126452380D02*
X85066666Y-127166666D01*
X85019047Y-127309523D01*
X84923809Y-127404761D01*
X84780952Y-127452380D01*
X84685714Y-127452380D01*
X85447619Y-126452380D02*
X86066666Y-126452380D01*
X85733333Y-126833333D01*
X85876190Y-126833333D01*
X85971428Y-126880952D01*
X86019047Y-126928571D01*
X86066666Y-127023809D01*
X86066666Y-127261904D01*
X86019047Y-127357142D01*
X85971428Y-127404761D01*
X85876190Y-127452380D01*
X85590476Y-127452380D01*
X85495238Y-127404761D01*
X85447619Y-127357142D01*
%TO.C,D5*%
X98661904Y-117322380D02*
X98661904Y-116322380D01*
X98900000Y-116322380D01*
X99042857Y-116370000D01*
X99138095Y-116465238D01*
X99185714Y-116560476D01*
X99233333Y-116750952D01*
X99233333Y-116893809D01*
X99185714Y-117084285D01*
X99138095Y-117179523D01*
X99042857Y-117274761D01*
X98900000Y-117322380D01*
X98661904Y-117322380D01*
X100138095Y-116322380D02*
X99661904Y-116322380D01*
X99614285Y-116798571D01*
X99661904Y-116750952D01*
X99757142Y-116703333D01*
X99995238Y-116703333D01*
X100090476Y-116750952D01*
X100138095Y-116798571D01*
X100185714Y-116893809D01*
X100185714Y-117131904D01*
X100138095Y-117227142D01*
X100090476Y-117274761D01*
X99995238Y-117322380D01*
X99757142Y-117322380D01*
X99661904Y-117274761D01*
X99614285Y-117227142D01*
%TO.C,R7*%
X96033333Y-112282380D02*
X95700000Y-111806190D01*
X95461904Y-112282380D02*
X95461904Y-111282380D01*
X95842857Y-111282380D01*
X95938095Y-111330000D01*
X95985714Y-111377619D01*
X96033333Y-111472857D01*
X96033333Y-111615714D01*
X95985714Y-111710952D01*
X95938095Y-111758571D01*
X95842857Y-111806190D01*
X95461904Y-111806190D01*
X96366666Y-111282380D02*
X97033333Y-111282380D01*
X96604761Y-112282380D01*
%TO.C,SW4*%
X111204761Y-114433333D02*
X111252380Y-114290476D01*
X111252380Y-114052380D01*
X111204761Y-113957142D01*
X111157142Y-113909523D01*
X111061904Y-113861904D01*
X110966666Y-113861904D01*
X110871428Y-113909523D01*
X110823809Y-113957142D01*
X110776190Y-114052380D01*
X110728571Y-114242857D01*
X110680952Y-114338095D01*
X110633333Y-114385714D01*
X110538095Y-114433333D01*
X110442857Y-114433333D01*
X110347619Y-114385714D01*
X110300000Y-114338095D01*
X110252380Y-114242857D01*
X110252380Y-114004761D01*
X110300000Y-113861904D01*
X110252380Y-113528571D02*
X111252380Y-113290476D01*
X110538095Y-113100000D01*
X111252380Y-112909523D01*
X110252380Y-112671428D01*
X110585714Y-111861904D02*
X111252380Y-111861904D01*
X110204761Y-112100000D02*
X110919047Y-112338095D01*
X110919047Y-111719047D01*
%TO.C,JP2*%
X111452380Y-120133333D02*
X112166666Y-120133333D01*
X112309523Y-120180952D01*
X112404761Y-120276190D01*
X112452380Y-120419047D01*
X112452380Y-120514285D01*
X112452380Y-119657142D02*
X111452380Y-119657142D01*
X111452380Y-119276190D01*
X111500000Y-119180952D01*
X111547619Y-119133333D01*
X111642857Y-119085714D01*
X111785714Y-119085714D01*
X111880952Y-119133333D01*
X111928571Y-119180952D01*
X111976190Y-119276190D01*
X111976190Y-119657142D01*
X111547619Y-118704761D02*
X111500000Y-118657142D01*
X111452380Y-118561904D01*
X111452380Y-118323809D01*
X111500000Y-118228571D01*
X111547619Y-118180952D01*
X111642857Y-118133333D01*
X111738095Y-118133333D01*
X111880952Y-118180952D01*
X112452380Y-118752380D01*
X112452380Y-118133333D01*
%TO.C,FB1*%
X136828571Y-107433333D02*
X136828571Y-107766666D01*
X137352380Y-107766666D02*
X136352380Y-107766666D01*
X136352380Y-107290476D01*
X136828571Y-106576190D02*
X136876190Y-106433333D01*
X136923809Y-106385714D01*
X137019047Y-106338095D01*
X137161904Y-106338095D01*
X137257142Y-106385714D01*
X137304761Y-106433333D01*
X137352380Y-106528571D01*
X137352380Y-106909523D01*
X136352380Y-106909523D01*
X136352380Y-106576190D01*
X136400000Y-106480952D01*
X136447619Y-106433333D01*
X136542857Y-106385714D01*
X136638095Y-106385714D01*
X136733333Y-106433333D01*
X136780952Y-106480952D01*
X136828571Y-106576190D01*
X136828571Y-106909523D01*
X137352380Y-105385714D02*
X137352380Y-105957142D01*
X137352380Y-105671428D02*
X136352380Y-105671428D01*
X136495238Y-105766666D01*
X136590476Y-105861904D01*
X136638095Y-105957142D01*
%TO.C,R4*%
X136233333Y-72322380D02*
X135900000Y-71846190D01*
X135661904Y-72322380D02*
X135661904Y-71322380D01*
X136042857Y-71322380D01*
X136138095Y-71370000D01*
X136185714Y-71417619D01*
X136233333Y-71512857D01*
X136233333Y-71655714D01*
X136185714Y-71750952D01*
X136138095Y-71798571D01*
X136042857Y-71846190D01*
X135661904Y-71846190D01*
X137090476Y-71655714D02*
X137090476Y-72322380D01*
X136852380Y-71274761D02*
X136614285Y-71989047D01*
X137233333Y-71989047D01*
%TO.C,C1*%
X128757142Y-89566666D02*
X128804761Y-89614285D01*
X128852380Y-89757142D01*
X128852380Y-89852380D01*
X128804761Y-89995238D01*
X128709523Y-90090476D01*
X128614285Y-90138095D01*
X128423809Y-90185714D01*
X128280952Y-90185714D01*
X128090476Y-90138095D01*
X127995238Y-90090476D01*
X127900000Y-89995238D01*
X127852380Y-89852380D01*
X127852380Y-89757142D01*
X127900000Y-89614285D01*
X127947619Y-89566666D01*
X128852380Y-88614285D02*
X128852380Y-89185714D01*
X128852380Y-88900000D02*
X127852380Y-88900000D01*
X127995238Y-88995238D01*
X128090476Y-89090476D01*
X128138095Y-89185714D01*
%TO.C,U1*%
X101452380Y-85561904D02*
X102261904Y-85561904D01*
X102357142Y-85514285D01*
X102404761Y-85466666D01*
X102452380Y-85371428D01*
X102452380Y-85180952D01*
X102404761Y-85085714D01*
X102357142Y-85038095D01*
X102261904Y-84990476D01*
X101452380Y-84990476D01*
X102452380Y-83990476D02*
X102452380Y-84561904D01*
X102452380Y-84276190D02*
X101452380Y-84276190D01*
X101595238Y-84371428D01*
X101690476Y-84466666D01*
X101738095Y-84561904D01*
%TO.C,L1*%
X112252380Y-85266666D02*
X112252380Y-85742857D01*
X111252380Y-85742857D01*
X112252380Y-84409523D02*
X112252380Y-84980952D01*
X112252380Y-84695238D02*
X111252380Y-84695238D01*
X111395238Y-84790476D01*
X111490476Y-84885714D01*
X111538095Y-84980952D01*
%TO.C,R1*%
X144052380Y-115766666D02*
X143576190Y-116100000D01*
X144052380Y-116338095D02*
X143052380Y-116338095D01*
X143052380Y-115957142D01*
X143100000Y-115861904D01*
X143147619Y-115814285D01*
X143242857Y-115766666D01*
X143385714Y-115766666D01*
X143480952Y-115814285D01*
X143528571Y-115861904D01*
X143576190Y-115957142D01*
X143576190Y-116338095D01*
X144052380Y-114814285D02*
X144052380Y-115385714D01*
X144052380Y-115100000D02*
X143052380Y-115100000D01*
X143195238Y-115195238D01*
X143290476Y-115290476D01*
X143338095Y-115385714D01*
%TO.C,C16*%
X123457142Y-82442857D02*
X123504761Y-82490476D01*
X123552380Y-82633333D01*
X123552380Y-82728571D01*
X123504761Y-82871428D01*
X123409523Y-82966666D01*
X123314285Y-83014285D01*
X123123809Y-83061904D01*
X122980952Y-83061904D01*
X122790476Y-83014285D01*
X122695238Y-82966666D01*
X122600000Y-82871428D01*
X122552380Y-82728571D01*
X122552380Y-82633333D01*
X122600000Y-82490476D01*
X122647619Y-82442857D01*
X123552380Y-81490476D02*
X123552380Y-82061904D01*
X123552380Y-81776190D02*
X122552380Y-81776190D01*
X122695238Y-81871428D01*
X122790476Y-81966666D01*
X122838095Y-82061904D01*
X122552380Y-80633333D02*
X122552380Y-80823809D01*
X122600000Y-80919047D01*
X122647619Y-80966666D01*
X122790476Y-81061904D01*
X122980952Y-81109523D01*
X123361904Y-81109523D01*
X123457142Y-81061904D01*
X123504761Y-81014285D01*
X123552380Y-80919047D01*
X123552380Y-80728571D01*
X123504761Y-80633333D01*
X123457142Y-80585714D01*
X123361904Y-80538095D01*
X123123809Y-80538095D01*
X123028571Y-80585714D01*
X122980952Y-80633333D01*
X122933333Y-80728571D01*
X122933333Y-80919047D01*
X122980952Y-81014285D01*
X123028571Y-81061904D01*
X123123809Y-81109523D01*
%TO.C,U3*%
X125338095Y-105652380D02*
X125338095Y-106461904D01*
X125385714Y-106557142D01*
X125433333Y-106604761D01*
X125528571Y-106652380D01*
X125719047Y-106652380D01*
X125814285Y-106604761D01*
X125861904Y-106557142D01*
X125909523Y-106461904D01*
X125909523Y-105652380D01*
X126290476Y-105652380D02*
X126909523Y-105652380D01*
X126576190Y-106033333D01*
X126719047Y-106033333D01*
X126814285Y-106080952D01*
X126861904Y-106128571D01*
X126909523Y-106223809D01*
X126909523Y-106461904D01*
X126861904Y-106557142D01*
X126814285Y-106604761D01*
X126719047Y-106652380D01*
X126433333Y-106652380D01*
X126338095Y-106604761D01*
X126290476Y-106557142D01*
%TO.C,D1*%
X144052380Y-114538095D02*
X143052380Y-114538095D01*
X143052380Y-114300000D01*
X143100000Y-114157142D01*
X143195238Y-114061904D01*
X143290476Y-114014285D01*
X143480952Y-113966666D01*
X143623809Y-113966666D01*
X143814285Y-114014285D01*
X143909523Y-114061904D01*
X144004761Y-114157142D01*
X144052380Y-114300000D01*
X144052380Y-114538095D01*
X144052380Y-113014285D02*
X144052380Y-113585714D01*
X144052380Y-113300000D02*
X143052380Y-113300000D01*
X143195238Y-113395238D01*
X143290476Y-113490476D01*
X143338095Y-113585714D01*
%TO.C,C10*%
X110757142Y-122842857D02*
X110804761Y-122890476D01*
X110852380Y-123033333D01*
X110852380Y-123128571D01*
X110804761Y-123271428D01*
X110709523Y-123366666D01*
X110614285Y-123414285D01*
X110423809Y-123461904D01*
X110280952Y-123461904D01*
X110090476Y-123414285D01*
X109995238Y-123366666D01*
X109900000Y-123271428D01*
X109852380Y-123128571D01*
X109852380Y-123033333D01*
X109900000Y-122890476D01*
X109947619Y-122842857D01*
X110852380Y-121890476D02*
X110852380Y-122461904D01*
X110852380Y-122176190D02*
X109852380Y-122176190D01*
X109995238Y-122271428D01*
X110090476Y-122366666D01*
X110138095Y-122461904D01*
X109852380Y-121271428D02*
X109852380Y-121176190D01*
X109900000Y-121080952D01*
X109947619Y-121033333D01*
X110042857Y-120985714D01*
X110233333Y-120938095D01*
X110471428Y-120938095D01*
X110661904Y-120985714D01*
X110757142Y-121033333D01*
X110804761Y-121080952D01*
X110852380Y-121176190D01*
X110852380Y-121271428D01*
X110804761Y-121366666D01*
X110757142Y-121414285D01*
X110661904Y-121461904D01*
X110471428Y-121509523D01*
X110233333Y-121509523D01*
X110042857Y-121461904D01*
X109947619Y-121414285D01*
X109900000Y-121366666D01*
X109852380Y-121271428D01*
%TO.C,R6*%
X96133333Y-116482380D02*
X95800000Y-116006190D01*
X95561904Y-116482380D02*
X95561904Y-115482380D01*
X95942857Y-115482380D01*
X96038095Y-115530000D01*
X96085714Y-115577619D01*
X96133333Y-115672857D01*
X96133333Y-115815714D01*
X96085714Y-115910952D01*
X96038095Y-115958571D01*
X95942857Y-116006190D01*
X95561904Y-116006190D01*
X96990476Y-115482380D02*
X96800000Y-115482380D01*
X96704761Y-115530000D01*
X96657142Y-115577619D01*
X96561904Y-115720476D01*
X96514285Y-115910952D01*
X96514285Y-116291904D01*
X96561904Y-116387142D01*
X96609523Y-116434761D01*
X96704761Y-116482380D01*
X96895238Y-116482380D01*
X96990476Y-116434761D01*
X97038095Y-116387142D01*
X97085714Y-116291904D01*
X97085714Y-116053809D01*
X97038095Y-115958571D01*
X96990476Y-115910952D01*
X96895238Y-115863333D01*
X96704761Y-115863333D01*
X96609523Y-115910952D01*
X96561904Y-115958571D01*
X96514285Y-116053809D01*
%TO.C,U2*%
X141338095Y-108852380D02*
X141338095Y-109661904D01*
X141385714Y-109757142D01*
X141433333Y-109804761D01*
X141528571Y-109852380D01*
X141719047Y-109852380D01*
X141814285Y-109804761D01*
X141861904Y-109757142D01*
X141909523Y-109661904D01*
X141909523Y-108852380D01*
X142338095Y-108947619D02*
X142385714Y-108900000D01*
X142480952Y-108852380D01*
X142719047Y-108852380D01*
X142814285Y-108900000D01*
X142861904Y-108947619D01*
X142909523Y-109042857D01*
X142909523Y-109138095D01*
X142861904Y-109280952D01*
X142290476Y-109852380D01*
X142909523Y-109852380D01*
%TO.C,C5*%
X116157142Y-84166666D02*
X116204761Y-84214285D01*
X116252380Y-84357142D01*
X116252380Y-84452380D01*
X116204761Y-84595238D01*
X116109523Y-84690476D01*
X116014285Y-84738095D01*
X115823809Y-84785714D01*
X115680952Y-84785714D01*
X115490476Y-84738095D01*
X115395238Y-84690476D01*
X115300000Y-84595238D01*
X115252380Y-84452380D01*
X115252380Y-84357142D01*
X115300000Y-84214285D01*
X115347619Y-84166666D01*
X115252380Y-83261904D02*
X115252380Y-83738095D01*
X115728571Y-83785714D01*
X115680952Y-83738095D01*
X115633333Y-83642857D01*
X115633333Y-83404761D01*
X115680952Y-83309523D01*
X115728571Y-83261904D01*
X115823809Y-83214285D01*
X116061904Y-83214285D01*
X116157142Y-83261904D01*
X116204761Y-83309523D01*
X116252380Y-83404761D01*
X116252380Y-83642857D01*
X116204761Y-83738095D01*
X116157142Y-83785714D01*
%TO.C,D3*%
X98661904Y-113522380D02*
X98661904Y-112522380D01*
X98900000Y-112522380D01*
X99042857Y-112570000D01*
X99138095Y-112665238D01*
X99185714Y-112760476D01*
X99233333Y-112950952D01*
X99233333Y-113093809D01*
X99185714Y-113284285D01*
X99138095Y-113379523D01*
X99042857Y-113474761D01*
X98900000Y-113522380D01*
X98661904Y-113522380D01*
X99566666Y-112522380D02*
X100185714Y-112522380D01*
X99852380Y-112903333D01*
X99995238Y-112903333D01*
X100090476Y-112950952D01*
X100138095Y-112998571D01*
X100185714Y-113093809D01*
X100185714Y-113331904D01*
X100138095Y-113427142D01*
X100090476Y-113474761D01*
X99995238Y-113522380D01*
X99709523Y-113522380D01*
X99614285Y-113474761D01*
X99566666Y-113427142D01*
%TO.C,C11*%
X112357142Y-122742857D02*
X112404761Y-122790476D01*
X112452380Y-122933333D01*
X112452380Y-123028571D01*
X112404761Y-123171428D01*
X112309523Y-123266666D01*
X112214285Y-123314285D01*
X112023809Y-123361904D01*
X111880952Y-123361904D01*
X111690476Y-123314285D01*
X111595238Y-123266666D01*
X111500000Y-123171428D01*
X111452380Y-123028571D01*
X111452380Y-122933333D01*
X111500000Y-122790476D01*
X111547619Y-122742857D01*
X112452380Y-121790476D02*
X112452380Y-122361904D01*
X112452380Y-122076190D02*
X111452380Y-122076190D01*
X111595238Y-122171428D01*
X111690476Y-122266666D01*
X111738095Y-122361904D01*
X112452380Y-120838095D02*
X112452380Y-121409523D01*
X112452380Y-121123809D02*
X111452380Y-121123809D01*
X111595238Y-121219047D01*
X111690476Y-121314285D01*
X111738095Y-121409523D01*
%TO.C,C12*%
X135657142Y-88087142D02*
X135609523Y-88134761D01*
X135466666Y-88182380D01*
X135371428Y-88182380D01*
X135228571Y-88134761D01*
X135133333Y-88039523D01*
X135085714Y-87944285D01*
X135038095Y-87753809D01*
X135038095Y-87610952D01*
X135085714Y-87420476D01*
X135133333Y-87325238D01*
X135228571Y-87230000D01*
X135371428Y-87182380D01*
X135466666Y-87182380D01*
X135609523Y-87230000D01*
X135657142Y-87277619D01*
X136609523Y-88182380D02*
X136038095Y-88182380D01*
X136323809Y-88182380D02*
X136323809Y-87182380D01*
X136228571Y-87325238D01*
X136133333Y-87420476D01*
X136038095Y-87468095D01*
X136990476Y-87277619D02*
X137038095Y-87230000D01*
X137133333Y-87182380D01*
X137371428Y-87182380D01*
X137466666Y-87230000D01*
X137514285Y-87277619D01*
X137561904Y-87372857D01*
X137561904Y-87468095D01*
X137514285Y-87610952D01*
X136942857Y-88182380D01*
X137561904Y-88182380D01*
%TO.C,C4*%
X112333333Y-102987142D02*
X112285714Y-103034761D01*
X112142857Y-103082380D01*
X112047619Y-103082380D01*
X111904761Y-103034761D01*
X111809523Y-102939523D01*
X111761904Y-102844285D01*
X111714285Y-102653809D01*
X111714285Y-102510952D01*
X111761904Y-102320476D01*
X111809523Y-102225238D01*
X111904761Y-102130000D01*
X112047619Y-102082380D01*
X112142857Y-102082380D01*
X112285714Y-102130000D01*
X112333333Y-102177619D01*
X113190476Y-102415714D02*
X113190476Y-103082380D01*
X112952380Y-102034761D02*
X112714285Y-102749047D01*
X113333333Y-102749047D01*
%TO.C,J1*%
X143366666Y-98452380D02*
X143366666Y-99166666D01*
X143319047Y-99309523D01*
X143223809Y-99404761D01*
X143080952Y-99452380D01*
X142985714Y-99452380D01*
X144366666Y-99452380D02*
X143795238Y-99452380D01*
X144080952Y-99452380D02*
X144080952Y-98452380D01*
X143985714Y-98595238D01*
X143890476Y-98690476D01*
X143795238Y-98738095D01*
%TO.C,JP3*%
X101866666Y-107952380D02*
X101866666Y-108666666D01*
X101819047Y-108809523D01*
X101723809Y-108904761D01*
X101580952Y-108952380D01*
X101485714Y-108952380D01*
X102342857Y-108952380D02*
X102342857Y-107952380D01*
X102723809Y-107952380D01*
X102819047Y-108000000D01*
X102866666Y-108047619D01*
X102914285Y-108142857D01*
X102914285Y-108285714D01*
X102866666Y-108380952D01*
X102819047Y-108428571D01*
X102723809Y-108476190D01*
X102342857Y-108476190D01*
X103247619Y-107952380D02*
X103866666Y-107952380D01*
X103533333Y-108333333D01*
X103676190Y-108333333D01*
X103771428Y-108380952D01*
X103819047Y-108428571D01*
X103866666Y-108523809D01*
X103866666Y-108761904D01*
X103819047Y-108857142D01*
X103771428Y-108904761D01*
X103676190Y-108952380D01*
X103390476Y-108952380D01*
X103295238Y-108904761D01*
X103247619Y-108857142D01*
%TO.C,R9*%
X144077380Y-91366666D02*
X143601190Y-91700000D01*
X144077380Y-91938095D02*
X143077380Y-91938095D01*
X143077380Y-91557142D01*
X143125000Y-91461904D01*
X143172619Y-91414285D01*
X143267857Y-91366666D01*
X143410714Y-91366666D01*
X143505952Y-91414285D01*
X143553571Y-91461904D01*
X143601190Y-91557142D01*
X143601190Y-91938095D01*
X144077380Y-90890476D02*
X144077380Y-90700000D01*
X144029761Y-90604761D01*
X143982142Y-90557142D01*
X143839285Y-90461904D01*
X143648809Y-90414285D01*
X143267857Y-90414285D01*
X143172619Y-90461904D01*
X143125000Y-90509523D01*
X143077380Y-90604761D01*
X143077380Y-90795238D01*
X143125000Y-90890476D01*
X143172619Y-90938095D01*
X143267857Y-90985714D01*
X143505952Y-90985714D01*
X143601190Y-90938095D01*
X143648809Y-90890476D01*
X143696428Y-90795238D01*
X143696428Y-90604761D01*
X143648809Y-90509523D01*
X143601190Y-90461904D01*
X143505952Y-90414285D01*
%TO.C,D4*%
X98661904Y-109422380D02*
X98661904Y-108422380D01*
X98900000Y-108422380D01*
X99042857Y-108470000D01*
X99138095Y-108565238D01*
X99185714Y-108660476D01*
X99233333Y-108850952D01*
X99233333Y-108993809D01*
X99185714Y-109184285D01*
X99138095Y-109279523D01*
X99042857Y-109374761D01*
X98900000Y-109422380D01*
X98661904Y-109422380D01*
X100090476Y-108755714D02*
X100090476Y-109422380D01*
X99852380Y-108374761D02*
X99614285Y-109089047D01*
X100233333Y-109089047D01*
%TO.C,C13*%
X135757142Y-82387142D02*
X135709523Y-82434761D01*
X135566666Y-82482380D01*
X135471428Y-82482380D01*
X135328571Y-82434761D01*
X135233333Y-82339523D01*
X135185714Y-82244285D01*
X135138095Y-82053809D01*
X135138095Y-81910952D01*
X135185714Y-81720476D01*
X135233333Y-81625238D01*
X135328571Y-81530000D01*
X135471428Y-81482380D01*
X135566666Y-81482380D01*
X135709523Y-81530000D01*
X135757142Y-81577619D01*
X136709523Y-82482380D02*
X136138095Y-82482380D01*
X136423809Y-82482380D02*
X136423809Y-81482380D01*
X136328571Y-81625238D01*
X136233333Y-81720476D01*
X136138095Y-81768095D01*
X137042857Y-81482380D02*
X137661904Y-81482380D01*
X137328571Y-81863333D01*
X137471428Y-81863333D01*
X137566666Y-81910952D01*
X137614285Y-81958571D01*
X137661904Y-82053809D01*
X137661904Y-82291904D01*
X137614285Y-82387142D01*
X137566666Y-82434761D01*
X137471428Y-82482380D01*
X137185714Y-82482380D01*
X137090476Y-82434761D01*
X137042857Y-82387142D01*
%TO.C,J5*%
X142892380Y-97113333D02*
X143606666Y-97113333D01*
X143749523Y-97160952D01*
X143844761Y-97256190D01*
X143892380Y-97399047D01*
X143892380Y-97494285D01*
X142892380Y-96160952D02*
X142892380Y-96637142D01*
X143368571Y-96684761D01*
X143320952Y-96637142D01*
X143273333Y-96541904D01*
X143273333Y-96303809D01*
X143320952Y-96208571D01*
X143368571Y-96160952D01*
X143463809Y-96113333D01*
X143701904Y-96113333D01*
X143797142Y-96160952D01*
X143844761Y-96208571D01*
X143892380Y-96303809D01*
X143892380Y-96541904D01*
X143844761Y-96637142D01*
X143797142Y-96684761D01*
%TO.C,SW2*%
X139066666Y-77804761D02*
X139209523Y-77852380D01*
X139447619Y-77852380D01*
X139542857Y-77804761D01*
X139590476Y-77757142D01*
X139638095Y-77661904D01*
X139638095Y-77566666D01*
X139590476Y-77471428D01*
X139542857Y-77423809D01*
X139447619Y-77376190D01*
X139257142Y-77328571D01*
X139161904Y-77280952D01*
X139114285Y-77233333D01*
X139066666Y-77138095D01*
X139066666Y-77042857D01*
X139114285Y-76947619D01*
X139161904Y-76900000D01*
X139257142Y-76852380D01*
X139495238Y-76852380D01*
X139638095Y-76900000D01*
X139971428Y-76852380D02*
X140209523Y-77852380D01*
X140400000Y-77138095D01*
X140590476Y-77852380D01*
X140828571Y-76852380D01*
X141161904Y-76947619D02*
X141209523Y-76900000D01*
X141304761Y-76852380D01*
X141542857Y-76852380D01*
X141638095Y-76900000D01*
X141685714Y-76947619D01*
X141733333Y-77042857D01*
X141733333Y-77138095D01*
X141685714Y-77280952D01*
X141114285Y-77852380D01*
X141733333Y-77852380D01*
%TO.C,R2*%
X136133333Y-83722380D02*
X135800000Y-83246190D01*
X135561904Y-83722380D02*
X135561904Y-82722380D01*
X135942857Y-82722380D01*
X136038095Y-82770000D01*
X136085714Y-82817619D01*
X136133333Y-82912857D01*
X136133333Y-83055714D01*
X136085714Y-83150952D01*
X136038095Y-83198571D01*
X135942857Y-83246190D01*
X135561904Y-83246190D01*
X136514285Y-82817619D02*
X136561904Y-82770000D01*
X136657142Y-82722380D01*
X136895238Y-82722380D01*
X136990476Y-82770000D01*
X137038095Y-82817619D01*
X137085714Y-82912857D01*
X137085714Y-83008095D01*
X137038095Y-83150952D01*
X136466666Y-83722380D01*
X137085714Y-83722380D01*
%TO.C,C7*%
X137357142Y-112166666D02*
X137404761Y-112214285D01*
X137452380Y-112357142D01*
X137452380Y-112452380D01*
X137404761Y-112595238D01*
X137309523Y-112690476D01*
X137214285Y-112738095D01*
X137023809Y-112785714D01*
X136880952Y-112785714D01*
X136690476Y-112738095D01*
X136595238Y-112690476D01*
X136500000Y-112595238D01*
X136452380Y-112452380D01*
X136452380Y-112357142D01*
X136500000Y-112214285D01*
X136547619Y-112166666D01*
X136452380Y-111833333D02*
X136452380Y-111166666D01*
X137452380Y-111595238D01*
%TO.C,JP5*%
X101816666Y-111852380D02*
X101816666Y-112566666D01*
X101769047Y-112709523D01*
X101673809Y-112804761D01*
X101530952Y-112852380D01*
X101435714Y-112852380D01*
X102292857Y-112852380D02*
X102292857Y-111852380D01*
X102673809Y-111852380D01*
X102769047Y-111900000D01*
X102816666Y-111947619D01*
X102864285Y-112042857D01*
X102864285Y-112185714D01*
X102816666Y-112280952D01*
X102769047Y-112328571D01*
X102673809Y-112376190D01*
X102292857Y-112376190D01*
X103769047Y-111852380D02*
X103292857Y-111852380D01*
X103245238Y-112328571D01*
X103292857Y-112280952D01*
X103388095Y-112233333D01*
X103626190Y-112233333D01*
X103721428Y-112280952D01*
X103769047Y-112328571D01*
X103816666Y-112423809D01*
X103816666Y-112661904D01*
X103769047Y-112757142D01*
X103721428Y-112804761D01*
X103626190Y-112852380D01*
X103388095Y-112852380D01*
X103292857Y-112804761D01*
X103245238Y-112757142D01*
%TO.C,J2*%
X89152380Y-99433333D02*
X89866666Y-99433333D01*
X90009523Y-99480952D01*
X90104761Y-99576190D01*
X90152380Y-99719047D01*
X90152380Y-99814285D01*
X89247619Y-99004761D02*
X89200000Y-98957142D01*
X89152380Y-98861904D01*
X89152380Y-98623809D01*
X89200000Y-98528571D01*
X89247619Y-98480952D01*
X89342857Y-98433333D01*
X89438095Y-98433333D01*
X89580952Y-98480952D01*
X90152380Y-99052380D01*
X90152380Y-98433333D01*
%TO.C,C6*%
X109933333Y-91757142D02*
X109885714Y-91804761D01*
X109742857Y-91852380D01*
X109647619Y-91852380D01*
X109504761Y-91804761D01*
X109409523Y-91709523D01*
X109361904Y-91614285D01*
X109314285Y-91423809D01*
X109314285Y-91280952D01*
X109361904Y-91090476D01*
X109409523Y-90995238D01*
X109504761Y-90900000D01*
X109647619Y-90852380D01*
X109742857Y-90852380D01*
X109885714Y-90900000D01*
X109933333Y-90947619D01*
X110790476Y-90852380D02*
X110600000Y-90852380D01*
X110504761Y-90900000D01*
X110457142Y-90947619D01*
X110361904Y-91090476D01*
X110314285Y-91280952D01*
X110314285Y-91661904D01*
X110361904Y-91757142D01*
X110409523Y-91804761D01*
X110504761Y-91852380D01*
X110695238Y-91852380D01*
X110790476Y-91804761D01*
X110838095Y-91757142D01*
X110885714Y-91661904D01*
X110885714Y-91423809D01*
X110838095Y-91328571D01*
X110790476Y-91280952D01*
X110695238Y-91233333D01*
X110504761Y-91233333D01*
X110409523Y-91280952D01*
X110361904Y-91328571D01*
X110314285Y-91423809D01*
%TO.C,C8*%
X128757142Y-91366666D02*
X128804761Y-91414285D01*
X128852380Y-91557142D01*
X128852380Y-91652380D01*
X128804761Y-91795238D01*
X128709523Y-91890476D01*
X128614285Y-91938095D01*
X128423809Y-91985714D01*
X128280952Y-91985714D01*
X128090476Y-91938095D01*
X127995238Y-91890476D01*
X127900000Y-91795238D01*
X127852380Y-91652380D01*
X127852380Y-91557142D01*
X127900000Y-91414285D01*
X127947619Y-91366666D01*
X128280952Y-90795238D02*
X128233333Y-90890476D01*
X128185714Y-90938095D01*
X128090476Y-90985714D01*
X128042857Y-90985714D01*
X127947619Y-90938095D01*
X127900000Y-90890476D01*
X127852380Y-90795238D01*
X127852380Y-90604761D01*
X127900000Y-90509523D01*
X127947619Y-90461904D01*
X128042857Y-90414285D01*
X128090476Y-90414285D01*
X128185714Y-90461904D01*
X128233333Y-90509523D01*
X128280952Y-90604761D01*
X128280952Y-90795238D01*
X128328571Y-90890476D01*
X128376190Y-90938095D01*
X128471428Y-90985714D01*
X128661904Y-90985714D01*
X128757142Y-90938095D01*
X128804761Y-90890476D01*
X128852380Y-90795238D01*
X128852380Y-90604761D01*
X128804761Y-90509523D01*
X128757142Y-90461904D01*
X128661904Y-90414285D01*
X128471428Y-90414285D01*
X128376190Y-90461904D01*
X128328571Y-90509523D01*
X128280952Y-90604761D01*
%TO.C,D2*%
X98661904Y-105522380D02*
X98661904Y-104522380D01*
X98900000Y-104522380D01*
X99042857Y-104570000D01*
X99138095Y-104665238D01*
X99185714Y-104760476D01*
X99233333Y-104950952D01*
X99233333Y-105093809D01*
X99185714Y-105284285D01*
X99138095Y-105379523D01*
X99042857Y-105474761D01*
X98900000Y-105522380D01*
X98661904Y-105522380D01*
X99614285Y-104617619D02*
X99661904Y-104570000D01*
X99757142Y-104522380D01*
X99995238Y-104522380D01*
X100090476Y-104570000D01*
X100138095Y-104617619D01*
X100185714Y-104712857D01*
X100185714Y-104808095D01*
X100138095Y-104950952D01*
X99566666Y-105522380D01*
X100185714Y-105522380D01*
%TO.C,JP6*%
X101816666Y-119552380D02*
X101816666Y-120266666D01*
X101769047Y-120409523D01*
X101673809Y-120504761D01*
X101530952Y-120552380D01*
X101435714Y-120552380D01*
X102292857Y-120552380D02*
X102292857Y-119552380D01*
X102673809Y-119552380D01*
X102769047Y-119600000D01*
X102816666Y-119647619D01*
X102864285Y-119742857D01*
X102864285Y-119885714D01*
X102816666Y-119980952D01*
X102769047Y-120028571D01*
X102673809Y-120076190D01*
X102292857Y-120076190D01*
X103721428Y-119552380D02*
X103530952Y-119552380D01*
X103435714Y-119600000D01*
X103388095Y-119647619D01*
X103292857Y-119790476D01*
X103245238Y-119980952D01*
X103245238Y-120361904D01*
X103292857Y-120457142D01*
X103340476Y-120504761D01*
X103435714Y-120552380D01*
X103626190Y-120552380D01*
X103721428Y-120504761D01*
X103769047Y-120457142D01*
X103816666Y-120361904D01*
X103816666Y-120123809D01*
X103769047Y-120028571D01*
X103721428Y-119980952D01*
X103626190Y-119933333D01*
X103435714Y-119933333D01*
X103340476Y-119980952D01*
X103292857Y-120028571D01*
X103245238Y-120123809D01*
%TO.C,C17*%
X110757142Y-120042857D02*
X110804761Y-120090476D01*
X110852380Y-120233333D01*
X110852380Y-120328571D01*
X110804761Y-120471428D01*
X110709523Y-120566666D01*
X110614285Y-120614285D01*
X110423809Y-120661904D01*
X110280952Y-120661904D01*
X110090476Y-120614285D01*
X109995238Y-120566666D01*
X109900000Y-120471428D01*
X109852380Y-120328571D01*
X109852380Y-120233333D01*
X109900000Y-120090476D01*
X109947619Y-120042857D01*
X110852380Y-119090476D02*
X110852380Y-119661904D01*
X110852380Y-119376190D02*
X109852380Y-119376190D01*
X109995238Y-119471428D01*
X110090476Y-119566666D01*
X110138095Y-119661904D01*
X109852380Y-118757142D02*
X109852380Y-118090476D01*
X110852380Y-118519047D01*
%TO.C,J4*%
X136402380Y-68913333D02*
X137116666Y-68913333D01*
X137259523Y-68960952D01*
X137354761Y-69056190D01*
X137402380Y-69199047D01*
X137402380Y-69294285D01*
X136735714Y-68008571D02*
X137402380Y-68008571D01*
X136354761Y-68246666D02*
X137069047Y-68484761D01*
X137069047Y-67865714D01*
%TO.C,R3*%
X136233333Y-78022380D02*
X135900000Y-77546190D01*
X135661904Y-78022380D02*
X135661904Y-77022380D01*
X136042857Y-77022380D01*
X136138095Y-77070000D01*
X136185714Y-77117619D01*
X136233333Y-77212857D01*
X136233333Y-77355714D01*
X136185714Y-77450952D01*
X136138095Y-77498571D01*
X136042857Y-77546190D01*
X135661904Y-77546190D01*
X136566666Y-77022380D02*
X137185714Y-77022380D01*
X136852380Y-77403333D01*
X136995238Y-77403333D01*
X137090476Y-77450952D01*
X137138095Y-77498571D01*
X137185714Y-77593809D01*
X137185714Y-77831904D01*
X137138095Y-77927142D01*
X137090476Y-77974761D01*
X136995238Y-78022380D01*
X136709523Y-78022380D01*
X136614285Y-77974761D01*
X136566666Y-77927142D01*
%TO.C,C14*%
X135757142Y-76687142D02*
X135709523Y-76734761D01*
X135566666Y-76782380D01*
X135471428Y-76782380D01*
X135328571Y-76734761D01*
X135233333Y-76639523D01*
X135185714Y-76544285D01*
X135138095Y-76353809D01*
X135138095Y-76210952D01*
X135185714Y-76020476D01*
X135233333Y-75925238D01*
X135328571Y-75830000D01*
X135471428Y-75782380D01*
X135566666Y-75782380D01*
X135709523Y-75830000D01*
X135757142Y-75877619D01*
X136709523Y-76782380D02*
X136138095Y-76782380D01*
X136423809Y-76782380D02*
X136423809Y-75782380D01*
X136328571Y-75925238D01*
X136233333Y-76020476D01*
X136138095Y-76068095D01*
X137566666Y-76115714D02*
X137566666Y-76782380D01*
X137328571Y-75734761D02*
X137090476Y-76449047D01*
X137709523Y-76449047D01*
%TO.C,R10*%
X137752380Y-100442857D02*
X137276190Y-100776190D01*
X137752380Y-101014285D02*
X136752380Y-101014285D01*
X136752380Y-100633333D01*
X136800000Y-100538095D01*
X136847619Y-100490476D01*
X136942857Y-100442857D01*
X137085714Y-100442857D01*
X137180952Y-100490476D01*
X137228571Y-100538095D01*
X137276190Y-100633333D01*
X137276190Y-101014285D01*
X137752380Y-99490476D02*
X137752380Y-100061904D01*
X137752380Y-99776190D02*
X136752380Y-99776190D01*
X136895238Y-99871428D01*
X136990476Y-99966666D01*
X137038095Y-100061904D01*
X136752380Y-98871428D02*
X136752380Y-98776190D01*
X136800000Y-98680952D01*
X136847619Y-98633333D01*
X136942857Y-98585714D01*
X137133333Y-98538095D01*
X137371428Y-98538095D01*
X137561904Y-98585714D01*
X137657142Y-98633333D01*
X137704761Y-98680952D01*
X137752380Y-98776190D01*
X137752380Y-98871428D01*
X137704761Y-98966666D01*
X137657142Y-99014285D01*
X137561904Y-99061904D01*
X137371428Y-99109523D01*
X137133333Y-99109523D01*
X136942857Y-99061904D01*
X136847619Y-99014285D01*
X136800000Y-98966666D01*
X136752380Y-98871428D01*
%TO.C,R8*%
X96133333Y-120182380D02*
X95800000Y-119706190D01*
X95561904Y-120182380D02*
X95561904Y-119182380D01*
X95942857Y-119182380D01*
X96038095Y-119230000D01*
X96085714Y-119277619D01*
X96133333Y-119372857D01*
X96133333Y-119515714D01*
X96085714Y-119610952D01*
X96038095Y-119658571D01*
X95942857Y-119706190D01*
X95561904Y-119706190D01*
X96704761Y-119610952D02*
X96609523Y-119563333D01*
X96561904Y-119515714D01*
X96514285Y-119420476D01*
X96514285Y-119372857D01*
X96561904Y-119277619D01*
X96609523Y-119230000D01*
X96704761Y-119182380D01*
X96895238Y-119182380D01*
X96990476Y-119230000D01*
X97038095Y-119277619D01*
X97085714Y-119372857D01*
X97085714Y-119420476D01*
X97038095Y-119515714D01*
X96990476Y-119563333D01*
X96895238Y-119610952D01*
X96704761Y-119610952D01*
X96609523Y-119658571D01*
X96561904Y-119706190D01*
X96514285Y-119801428D01*
X96514285Y-119991904D01*
X96561904Y-120087142D01*
X96609523Y-120134761D01*
X96704761Y-120182380D01*
X96895238Y-120182380D01*
X96990476Y-120134761D01*
X97038095Y-120087142D01*
X97085714Y-119991904D01*
X97085714Y-119801428D01*
X97038095Y-119706190D01*
X96990476Y-119658571D01*
X96895238Y-119610952D01*
%TO.C,C3*%
X113357142Y-84166666D02*
X113404761Y-84214285D01*
X113452380Y-84357142D01*
X113452380Y-84452380D01*
X113404761Y-84595238D01*
X113309523Y-84690476D01*
X113214285Y-84738095D01*
X113023809Y-84785714D01*
X112880952Y-84785714D01*
X112690476Y-84738095D01*
X112595238Y-84690476D01*
X112500000Y-84595238D01*
X112452380Y-84452380D01*
X112452380Y-84357142D01*
X112500000Y-84214285D01*
X112547619Y-84166666D01*
X112452380Y-83833333D02*
X112452380Y-83214285D01*
X112833333Y-83547619D01*
X112833333Y-83404761D01*
X112880952Y-83309523D01*
X112928571Y-83261904D01*
X113023809Y-83214285D01*
X113261904Y-83214285D01*
X113357142Y-83261904D01*
X113404761Y-83309523D01*
X113452380Y-83404761D01*
X113452380Y-83690476D01*
X113404761Y-83785714D01*
X113357142Y-83833333D01*
%TO.C,SW1*%
X139066666Y-82804761D02*
X139209523Y-82852380D01*
X139447619Y-82852380D01*
X139542857Y-82804761D01*
X139590476Y-82757142D01*
X139638095Y-82661904D01*
X139638095Y-82566666D01*
X139590476Y-82471428D01*
X139542857Y-82423809D01*
X139447619Y-82376190D01*
X139257142Y-82328571D01*
X139161904Y-82280952D01*
X139114285Y-82233333D01*
X139066666Y-82138095D01*
X139066666Y-82042857D01*
X139114285Y-81947619D01*
X139161904Y-81900000D01*
X139257142Y-81852380D01*
X139495238Y-81852380D01*
X139638095Y-81900000D01*
X139971428Y-81852380D02*
X140209523Y-82852380D01*
X140400000Y-82138095D01*
X140590476Y-82852380D01*
X140828571Y-81852380D01*
X141733333Y-82852380D02*
X141161904Y-82852380D01*
X141447619Y-82852380D02*
X141447619Y-81852380D01*
X141352380Y-81995238D01*
X141257142Y-82090476D01*
X141161904Y-82138095D01*
%TO.C,U4*%
X126232380Y-96961904D02*
X127041904Y-96961904D01*
X127137142Y-96914285D01*
X127184761Y-96866666D01*
X127232380Y-96771428D01*
X127232380Y-96580952D01*
X127184761Y-96485714D01*
X127137142Y-96438095D01*
X127041904Y-96390476D01*
X126232380Y-96390476D01*
X126565714Y-95485714D02*
X127232380Y-95485714D01*
X126184761Y-95723809D02*
X126899047Y-95961904D01*
X126899047Y-95342857D01*
%TO.C,C2*%
X126187142Y-103166666D02*
X126234761Y-103214285D01*
X126282380Y-103357142D01*
X126282380Y-103452380D01*
X126234761Y-103595238D01*
X126139523Y-103690476D01*
X126044285Y-103738095D01*
X125853809Y-103785714D01*
X125710952Y-103785714D01*
X125520476Y-103738095D01*
X125425238Y-103690476D01*
X125330000Y-103595238D01*
X125282380Y-103452380D01*
X125282380Y-103357142D01*
X125330000Y-103214285D01*
X125377619Y-103166666D01*
X125377619Y-102785714D02*
X125330000Y-102738095D01*
X125282380Y-102642857D01*
X125282380Y-102404761D01*
X125330000Y-102309523D01*
X125377619Y-102261904D01*
X125472857Y-102214285D01*
X125568095Y-102214285D01*
X125710952Y-102261904D01*
X126282380Y-102833333D01*
X126282380Y-102214285D01*
%TO.C,JP4*%
X101866666Y-115852380D02*
X101866666Y-116566666D01*
X101819047Y-116709523D01*
X101723809Y-116804761D01*
X101580952Y-116852380D01*
X101485714Y-116852380D01*
X102342857Y-116852380D02*
X102342857Y-115852380D01*
X102723809Y-115852380D01*
X102819047Y-115900000D01*
X102866666Y-115947619D01*
X102914285Y-116042857D01*
X102914285Y-116185714D01*
X102866666Y-116280952D01*
X102819047Y-116328571D01*
X102723809Y-116376190D01*
X102342857Y-116376190D01*
X103771428Y-116185714D02*
X103771428Y-116852380D01*
X103533333Y-115804761D02*
X103295238Y-116519047D01*
X103914285Y-116519047D01*
%TO.C,R5*%
X96033333Y-108382380D02*
X95700000Y-107906190D01*
X95461904Y-108382380D02*
X95461904Y-107382380D01*
X95842857Y-107382380D01*
X95938095Y-107430000D01*
X95985714Y-107477619D01*
X96033333Y-107572857D01*
X96033333Y-107715714D01*
X95985714Y-107810952D01*
X95938095Y-107858571D01*
X95842857Y-107906190D01*
X95461904Y-107906190D01*
X96938095Y-107382380D02*
X96461904Y-107382380D01*
X96414285Y-107858571D01*
X96461904Y-107810952D01*
X96557142Y-107763333D01*
X96795238Y-107763333D01*
X96890476Y-107810952D01*
X96938095Y-107858571D01*
X96985714Y-107953809D01*
X96985714Y-108191904D01*
X96938095Y-108287142D01*
X96890476Y-108334761D01*
X96795238Y-108382380D01*
X96557142Y-108382380D01*
X96461904Y-108334761D01*
X96414285Y-108287142D01*
%TO.C,J6*%
X113376666Y-105907380D02*
X113376666Y-106621666D01*
X113329047Y-106764523D01*
X113233809Y-106859761D01*
X113090952Y-106907380D01*
X112995714Y-106907380D01*
X114281428Y-105907380D02*
X114090952Y-105907380D01*
X113995714Y-105955000D01*
X113948095Y-106002619D01*
X113852857Y-106145476D01*
X113805238Y-106335952D01*
X113805238Y-106716904D01*
X113852857Y-106812142D01*
X113900476Y-106859761D01*
X113995714Y-106907380D01*
X114186190Y-106907380D01*
X114281428Y-106859761D01*
X114329047Y-106812142D01*
X114376666Y-106716904D01*
X114376666Y-106478809D01*
X114329047Y-106383571D01*
X114281428Y-106335952D01*
X114186190Y-106288333D01*
X113995714Y-106288333D01*
X113900476Y-106335952D01*
X113852857Y-106383571D01*
X113805238Y-106478809D01*
%TO.C,Y1*%
X121123809Y-79276190D02*
X121123809Y-79752380D01*
X120790476Y-78752380D02*
X121123809Y-79276190D01*
X121457142Y-78752380D01*
X122314285Y-79752380D02*
X121742857Y-79752380D01*
X122028571Y-79752380D02*
X122028571Y-78752380D01*
X121933333Y-78895238D01*
X121838095Y-78990476D01*
X121742857Y-79038095D01*
%TO.C,JP1*%
X95252380Y-96233333D02*
X95966666Y-96233333D01*
X96109523Y-96280952D01*
X96204761Y-96376190D01*
X96252380Y-96519047D01*
X96252380Y-96614285D01*
X96252380Y-95757142D02*
X95252380Y-95757142D01*
X95252380Y-95376190D01*
X95300000Y-95280952D01*
X95347619Y-95233333D01*
X95442857Y-95185714D01*
X95585714Y-95185714D01*
X95680952Y-95233333D01*
X95728571Y-95280952D01*
X95776190Y-95376190D01*
X95776190Y-95757142D01*
X96252380Y-94233333D02*
X96252380Y-94804761D01*
X96252380Y-94519047D02*
X95252380Y-94519047D01*
X95395238Y-94614285D01*
X95490476Y-94709523D01*
X95538095Y-94804761D01*
%TO.C,C15*%
X117557142Y-79657142D02*
X117509523Y-79704761D01*
X117366666Y-79752380D01*
X117271428Y-79752380D01*
X117128571Y-79704761D01*
X117033333Y-79609523D01*
X116985714Y-79514285D01*
X116938095Y-79323809D01*
X116938095Y-79180952D01*
X116985714Y-78990476D01*
X117033333Y-78895238D01*
X117128571Y-78800000D01*
X117271428Y-78752380D01*
X117366666Y-78752380D01*
X117509523Y-78800000D01*
X117557142Y-78847619D01*
X118509523Y-79752380D02*
X117938095Y-79752380D01*
X118223809Y-79752380D02*
X118223809Y-78752380D01*
X118128571Y-78895238D01*
X118033333Y-78990476D01*
X117938095Y-79038095D01*
X119414285Y-78752380D02*
X118938095Y-78752380D01*
X118890476Y-79228571D01*
X118938095Y-79180952D01*
X119033333Y-79133333D01*
X119271428Y-79133333D01*
X119366666Y-79180952D01*
X119414285Y-79228571D01*
X119461904Y-79323809D01*
X119461904Y-79561904D01*
X119414285Y-79657142D01*
X119366666Y-79704761D01*
X119271428Y-79752380D01*
X119033333Y-79752380D01*
X118938095Y-79704761D01*
X118890476Y-79657142D01*
%TO.C,C9*%
X143757142Y-111066666D02*
X143804761Y-111114285D01*
X143852380Y-111257142D01*
X143852380Y-111352380D01*
X143804761Y-111495238D01*
X143709523Y-111590476D01*
X143614285Y-111638095D01*
X143423809Y-111685714D01*
X143280952Y-111685714D01*
X143090476Y-111638095D01*
X142995238Y-111590476D01*
X142900000Y-111495238D01*
X142852380Y-111352380D01*
X142852380Y-111257142D01*
X142900000Y-111114285D01*
X142947619Y-111066666D01*
X143852380Y-110590476D02*
X143852380Y-110400000D01*
X143804761Y-110304761D01*
X143757142Y-110257142D01*
X143614285Y-110161904D01*
X143423809Y-110114285D01*
X143042857Y-110114285D01*
X142947619Y-110161904D01*
X142900000Y-110209523D01*
X142852380Y-110304761D01*
X142852380Y-110495238D01*
X142900000Y-110590476D01*
X142947619Y-110638095D01*
X143042857Y-110685714D01*
X143280952Y-110685714D01*
X143376190Y-110638095D01*
X143423809Y-110590476D01*
X143471428Y-110495238D01*
X143471428Y-110304761D01*
X143423809Y-110209523D01*
X143376190Y-110161904D01*
X143280952Y-110114285D01*
D11*
%TO.C,SW3*%
X138750000Y-76100000D02*
X138750000Y-76400000D01*
X138750000Y-73600000D02*
X142050000Y-73600000D01*
X138750000Y-73900000D02*
X138750000Y-73600000D01*
X142050000Y-76400000D02*
X142050000Y-76100000D01*
X142050000Y-73600000D02*
X142050000Y-73900000D01*
X138750000Y-76400000D02*
X142050000Y-76400000D01*
%TO.C,J3*%
X87630000Y-128210000D02*
X135950000Y-128210000D01*
X135950000Y-130870000D02*
X135950000Y-128210000D01*
X87630000Y-130870000D02*
X87630000Y-128210000D01*
X85030000Y-130870000D02*
X85030000Y-129540000D01*
X86360000Y-130870000D02*
X85030000Y-130870000D01*
X87630000Y-130870000D02*
X135950000Y-130870000D01*
%TO.C,D5*%
X97915000Y-117565000D02*
X97915000Y-119035000D01*
X97915000Y-119035000D02*
X100200000Y-119035000D01*
X100200000Y-117565000D02*
X97915000Y-117565000D01*
%TO.C,R7*%
X96437258Y-110922500D02*
X95962742Y-110922500D01*
X96437258Y-109877500D02*
X95962742Y-109877500D01*
%TO.C,SW4*%
X115250000Y-115200000D02*
X115250000Y-114900000D01*
X115250000Y-117700000D02*
X111950000Y-117700000D01*
X111950000Y-117700000D02*
X111950000Y-117400000D01*
X115250000Y-114900000D02*
X111950000Y-114900000D01*
X111950000Y-114900000D02*
X111950000Y-115200000D01*
X115250000Y-117400000D02*
X115250000Y-117700000D01*
%TO.C,JP2*%
X112900000Y-120300000D02*
X112900000Y-118300000D01*
X115700000Y-120300000D02*
X112900000Y-120300000D01*
X112900000Y-118300000D02*
X115700000Y-118300000D01*
X115700000Y-118300000D02*
X115700000Y-120300000D01*
%TO.C,FB1*%
X138040000Y-106700378D02*
X138040000Y-107499622D01*
X139160000Y-106700378D02*
X139160000Y-107499622D01*
%TO.C,R4*%
X136162742Y-72777500D02*
X136637258Y-72777500D01*
X136162742Y-73822500D02*
X136637258Y-73822500D01*
%TO.C,C1*%
X126059420Y-90110000D02*
X126340580Y-90110000D01*
X126059420Y-89090000D02*
X126340580Y-89090000D01*
%TO.C,U1*%
X100550000Y-76700000D02*
X100550000Y-75800000D01*
X85100000Y-76700000D02*
X84700000Y-76700000D01*
X84700000Y-76700000D02*
X84700000Y-92900000D01*
X100900000Y-76700000D02*
X100550000Y-76700000D01*
X100900000Y-92900000D02*
X100500000Y-92900000D01*
X100900000Y-76700000D02*
X100900000Y-92900000D01*
X84700000Y-92900000D02*
X85100000Y-92900000D01*
%TO.C,R1*%
X139777500Y-114362742D02*
X139777500Y-114837258D01*
X140822500Y-114362742D02*
X140822500Y-114837258D01*
%TO.C,C16*%
X122690000Y-84840580D02*
X122690000Y-84559420D01*
X123710000Y-84840580D02*
X123710000Y-84559420D01*
%TO.C,U3*%
X134100000Y-107090000D02*
X117990000Y-107090000D01*
X117990000Y-107090000D02*
X117990000Y-108700000D01*
X134100000Y-123310000D02*
X118100000Y-123310000D01*
%TO.C,D1*%
X141265000Y-113800000D02*
X141265000Y-116085000D01*
X142735000Y-116085000D02*
X142735000Y-113800000D01*
X141265000Y-116085000D02*
X142735000Y-116085000D01*
%TO.C,C10*%
X114110000Y-122059420D02*
X114110000Y-122340580D01*
X113090000Y-122059420D02*
X113090000Y-122340580D01*
%TO.C,R6*%
X96537258Y-114077500D02*
X96062742Y-114077500D01*
X96537258Y-115122500D02*
X96062742Y-115122500D01*
%TO.C,U2*%
X137840000Y-111000000D02*
X137840000Y-112675000D01*
X140960000Y-111000000D02*
X140960000Y-111650000D01*
X137840000Y-111000000D02*
X137840000Y-110350000D01*
X140960000Y-111000000D02*
X140960000Y-110350000D01*
%TO.C,C5*%
X115310000Y-86540580D02*
X115310000Y-86259420D01*
X114290000Y-86540580D02*
X114290000Y-86259420D01*
%TO.C,D3*%
X100200000Y-113765000D02*
X97915000Y-113765000D01*
X97915000Y-113765000D02*
X97915000Y-115235000D01*
X97915000Y-115235000D02*
X100200000Y-115235000D01*
%TO.C,C11*%
X114690000Y-122059420D02*
X114690000Y-122340580D01*
X115710000Y-122059420D02*
X115710000Y-122340580D01*
%TO.C,C12*%
X136440580Y-85790000D02*
X136159420Y-85790000D01*
X136440580Y-86810000D02*
X136159420Y-86810000D01*
%TO.C,C4*%
X112640580Y-101710000D02*
X112359420Y-101710000D01*
X112640580Y-100690000D02*
X112359420Y-100690000D01*
%TO.C,J1*%
X140350000Y-105900000D02*
X139900000Y-105900000D01*
X144930000Y-107900000D02*
X144530000Y-107900000D01*
X140580000Y-100380000D02*
X140580000Y-100800000D01*
X142560000Y-107900000D02*
X140580000Y-107900000D01*
X140580000Y-107900000D02*
X140580000Y-107480000D01*
X139900000Y-105450000D02*
X139900000Y-105900000D01*
X142560000Y-100380000D02*
X140580000Y-100380000D01*
X144530000Y-100380000D02*
X144930000Y-100380000D01*
%TO.C,JP3*%
X101300000Y-107500000D02*
X101300000Y-105500000D01*
X101300000Y-105500000D02*
X104100000Y-105500000D01*
X104100000Y-105500000D02*
X104100000Y-107500000D01*
X104100000Y-107500000D02*
X101300000Y-107500000D01*
%TO.C,R9*%
X141187742Y-90677500D02*
X141662258Y-90677500D01*
X141187742Y-91722500D02*
X141662258Y-91722500D01*
%TO.C,D4*%
X97915000Y-109665000D02*
X97915000Y-111135000D01*
X100200000Y-109665000D02*
X97915000Y-109665000D01*
X97915000Y-111135000D02*
X100200000Y-111135000D01*
%TO.C,C13*%
X136540580Y-80090000D02*
X136259420Y-80090000D01*
X136540580Y-81110000D02*
X136259420Y-81110000D01*
%TO.C,J5*%
X143570000Y-92650000D02*
X143570000Y-93980000D01*
X140970000Y-92650000D02*
X140970000Y-95310000D01*
X142240000Y-92650000D02*
X143570000Y-92650000D01*
X138370000Y-92650000D02*
X138370000Y-95310000D01*
X140970000Y-95310000D02*
X138370000Y-95310000D01*
X140970000Y-92650000D02*
X138370000Y-92650000D01*
%TO.C,SW2*%
X138750000Y-81000000D02*
X138750000Y-81300000D01*
X138750000Y-81300000D02*
X142050000Y-81300000D01*
X138750000Y-78500000D02*
X142050000Y-78500000D01*
X142050000Y-78500000D02*
X142050000Y-78800000D01*
X142050000Y-81300000D02*
X142050000Y-81000000D01*
X138750000Y-78800000D02*
X138750000Y-78500000D01*
%TO.C,R2*%
X136062742Y-85222500D02*
X136537258Y-85222500D01*
X136062742Y-84177500D02*
X136537258Y-84177500D01*
%TO.C,C7*%
X137410000Y-109359420D02*
X137410000Y-109640580D01*
X136390000Y-109359420D02*
X136390000Y-109640580D01*
%TO.C,JP5*%
X101250000Y-109400000D02*
X104050000Y-109400000D01*
X101250000Y-111400000D02*
X101250000Y-109400000D01*
X104050000Y-109400000D02*
X104050000Y-111400000D01*
X104050000Y-111400000D02*
X101250000Y-111400000D01*
%TO.C,J2*%
X88960000Y-99350000D02*
X88960000Y-98850000D01*
X84200000Y-97150000D02*
X84200000Y-98260000D01*
X87910000Y-99940000D02*
X87910000Y-101050000D01*
X88460000Y-99100000D02*
X88960000Y-99350000D01*
X84200000Y-99940000D02*
X84200000Y-101050000D01*
X88960000Y-98850000D02*
X88460000Y-99100000D01*
X87910000Y-97150000D02*
X87910000Y-98260000D01*
%TO.C,C6*%
X110240580Y-93210000D02*
X109959420Y-93210000D01*
X110240580Y-92190000D02*
X109959420Y-92190000D01*
%TO.C,C8*%
X126059420Y-90690000D02*
X126340580Y-90690000D01*
X126059420Y-91710000D02*
X126340580Y-91710000D01*
%TO.C,D2*%
X100200000Y-105765000D02*
X97915000Y-105765000D01*
X97915000Y-107235000D02*
X100200000Y-107235000D01*
X97915000Y-105765000D02*
X97915000Y-107235000D01*
%TO.C,JP6*%
X101250000Y-117300000D02*
X104050000Y-117300000D01*
X104050000Y-119300000D02*
X101250000Y-119300000D01*
X104050000Y-117300000D02*
X104050000Y-119300000D01*
X101250000Y-119300000D02*
X101250000Y-117300000D01*
%TO.C,C17*%
X109790000Y-116440580D02*
X109790000Y-116159420D01*
X110810000Y-116440580D02*
X110810000Y-116159420D01*
%TO.C,J4*%
X133350000Y-67250000D02*
X85030000Y-67250000D01*
X133350000Y-67250000D02*
X133350000Y-69910000D01*
X133350000Y-69910000D02*
X85030000Y-69910000D01*
X135950000Y-67250000D02*
X135950000Y-68580000D01*
X85030000Y-67250000D02*
X85030000Y-69910000D01*
X134620000Y-67250000D02*
X135950000Y-67250000D01*
%TO.C,R3*%
X136162742Y-79522500D02*
X136637258Y-79522500D01*
X136162742Y-78477500D02*
X136637258Y-78477500D01*
%TO.C,C14*%
X136540580Y-75410000D02*
X136259420Y-75410000D01*
X136540580Y-74390000D02*
X136259420Y-74390000D01*
%TO.C,R10*%
X136777500Y-102562742D02*
X136777500Y-103037258D01*
X137822500Y-102562742D02*
X137822500Y-103037258D01*
%TO.C,R8*%
X96537258Y-118822500D02*
X96062742Y-118822500D01*
X96537258Y-117777500D02*
X96062742Y-117777500D01*
%TO.C,C3*%
X112690000Y-86540580D02*
X112690000Y-86259420D01*
X113710000Y-86540580D02*
X113710000Y-86259420D01*
%TO.C,SW1*%
X138750000Y-83800000D02*
X138750000Y-83500000D01*
X142050000Y-83500000D02*
X142050000Y-83800000D01*
X138750000Y-86000000D02*
X138750000Y-86300000D01*
X138750000Y-86300000D02*
X142050000Y-86300000D01*
X138750000Y-83500000D02*
X142050000Y-83500000D01*
X142050000Y-86300000D02*
X142050000Y-86000000D01*
%TO.C,U4*%
X124490000Y-100360000D02*
X124490000Y-101310000D01*
X114270000Y-92040000D02*
X114270000Y-91090000D01*
X114270000Y-91090000D02*
X115220000Y-91090000D01*
X123540000Y-91090000D02*
X123540000Y-89750000D01*
X114270000Y-101310000D02*
X115220000Y-101310000D01*
X124490000Y-92040000D02*
X124490000Y-91090000D01*
X124490000Y-91090000D02*
X123540000Y-91090000D01*
X114270000Y-100360000D02*
X114270000Y-101310000D01*
X124490000Y-101310000D02*
X123540000Y-101310000D01*
%TO.C,C2*%
X124910000Y-102859420D02*
X124910000Y-103140580D01*
X123890000Y-102859420D02*
X123890000Y-103140580D01*
%TO.C,JP4*%
X104100000Y-113400000D02*
X104100000Y-115400000D01*
X101300000Y-113400000D02*
X104100000Y-113400000D01*
X104100000Y-115400000D02*
X101300000Y-115400000D01*
X101300000Y-115400000D02*
X101300000Y-113400000D01*
%TO.C,R5*%
X96437258Y-105977500D02*
X95962742Y-105977500D01*
X96437258Y-107022500D02*
X95962742Y-107022500D01*
%TO.C,J6*%
X114652530Y-113925000D02*
X115475000Y-113925000D01*
X111945000Y-108910000D02*
X112511529Y-108910000D01*
X113835000Y-108856529D02*
X113835000Y-108713471D01*
X114652530Y-107455000D02*
X115475000Y-107455000D01*
X111945000Y-113925000D02*
X112767470Y-113925000D01*
X113638471Y-108910000D02*
X113781529Y-108910000D01*
X111945000Y-108150000D02*
X111945000Y-107390000D01*
X113835000Y-107586529D02*
X113835000Y-107455000D01*
X111945000Y-108910000D02*
X111945000Y-113925000D01*
X113382530Y-113925000D02*
X114037470Y-113925000D01*
X111945000Y-107390000D02*
X113075000Y-107390000D01*
X115475000Y-107455000D02*
X115475000Y-113925000D01*
X113835000Y-107455000D02*
X114037470Y-107455000D01*
%TO.C,Y1*%
X118600000Y-80050000D02*
X118600000Y-85800000D01*
X122200000Y-80050000D02*
X118600000Y-80050000D01*
X122200000Y-85800000D02*
X122200000Y-80050000D01*
%TO.C,JP1*%
X92800000Y-97250000D02*
X92800000Y-94450000D01*
X94800000Y-94450000D02*
X94800000Y-97250000D01*
X94800000Y-97250000D02*
X92800000Y-97250000D01*
X92800000Y-94450000D02*
X94800000Y-94450000D01*
%TO.C,C15*%
X118210000Y-81359420D02*
X118210000Y-81640580D01*
X117190000Y-81359420D02*
X117190000Y-81640580D01*
%TO.C,C9*%
X141465000Y-111615580D02*
X141465000Y-111334420D01*
X142485000Y-111615580D02*
X142485000Y-111334420D01*
%TD*%
M02*
